<svg width="32" height="32" viewBox="0 0 32 32" fill="none" xmlns="http://www.w3.org/2000/svg">
<path fill-rule="evenodd" clip-rule="evenodd" d="M19.69 5C23.7272 5 27 8.2728 27 12.31V19.69C27 23.7272 23.7272 27 19.69 27H12.31C8.2728 27 5 23.7272 5 19.69V12.31C5 8.2728 8.2728 5 12.31 5H19.69ZM12.31 7C10.279 7.00332 8.42921 8.16915 7.55 10H20V9C20 8.44772 20.4477 8 21 8C21.5523 8 22 8.44772 22 9V10H24.45C23.5708 8.16915 21.721 7.00332 19.69 7H12.31ZM24.45 22C23.5708 23.8308 21.721 24.9967 19.69 25H12.31C10.279 24.9967 8.42921 23.8308 7.55 22H20V23C20 23.5523 20.4477 24 21 24C21.5523 24 22 23.5523 22 23V22H24.45ZM25 19.69V17H15V18C15 18.5523 14.5523 19 14 19C13.4477 19 13 18.5523 13 18V17H11V18C11 18.5523 10.5523 19 10 19C9.44772 19 9 18.5523 9 18V17H7V19.69C7.00301 20.1326 7.06352 20.573 7.18 21H20V20C20 19.4477 20.4477 19 21 19C21.5523 19 22 19.4477 22 20V21H24.82C24.9365 20.573 24.997 20.1326 25 19.69ZM25 16H15V15C15 14.4477 14.5523 14 14 14C13.4477 14 13 14.4477 13 15V16H11V15C11 14.4477 10.5523 14 10 14C9.44772 14 9 14.4477 9 15V16H7V12.31C7.00301 11.8674 7.06352 11.427 7.18 11H20V12C20 12.5523 20.4477 13 21 13C21.5523 13 22 12.5523 22 12V11H24.82C24.9365 11.427 24.997 11.8674 25 12.31V16Z" fill="#00005E"/>
</svg>
