<svg width="32" height="32" viewBox="0 0 32 32" fill="none" xmlns="http://www.w3.org/2000/svg">
<path fill-rule="evenodd" clip-rule="evenodd" d="M25.9184 12.0285L23.24 5.22004C22.7484 4.24336 21.5636 3.84248 20.58 4.32004L7.57455 11.2536C5.49958 11.9294 4 13.8796 4 16.18V22.82C4 25.6809 6.31916 28 9.18 28H22.82C25.6808 28 28 25.6809 28 22.82V16.18C28 14.481 27.182 12.9731 25.9184 12.0285ZM12.3274 11H22.82C23.0005 11 23.1788 11.0093 23.3545 11.0273L21.45 6.17004L12.3274 11ZM22.41 22.53H26V17.13H22.41C20.9188 17.13 19.71 18.3389 19.71 19.83C19.71 21.3212 20.9188 22.53 22.41 22.53ZM25.91 23.53C25.5831 24.9739 24.3004 25.9992 22.82 26H9.18C7.42601 25.9946 6.00549 24.574 6 22.82V16.18C6.00549 14.4261 7.42601 13.0055 9.18 13H22.82C24.5591 12.9944 25.9781 14.391 26 16.13H22.41C20.3665 16.13 18.71 17.7866 18.71 19.83C18.71 21.8735 20.3665 23.53 22.41 23.53H25.91ZM24 19.83C24 20.4928 23.4627 21.03 22.8 21.03C22.1373 21.03 21.6 20.4928 21.6 19.83C21.6 19.1673 22.1373 18.63 22.8 18.63C23.4627 18.63 24 19.1673 24 19.83Z" fill="#00005E"/>
</svg>
