<svg width="32" height="32" viewBox="0 0 32 32" fill="none" xmlns="http://www.w3.org/2000/svg">
<path fill-rule="evenodd" clip-rule="evenodd" d="M18 27C18 26.4478 17.5523 26 17 26H10.92C9.87449 26.0112 9.01645 25.1755 9 24.13V7.87004C9.01645 6.8246 9.87449 5.98891 10.92 6.00004H18.92V10.89C18.92 11.1662 19.1439 11.39 19.42 11.39H24V16C24 16.5523 24.4477 17 25 17C25.5523 17 26 16.5523 26 16V10.24C25.9989 9.9728 25.8909 9.71712 25.7 9.53004L20.39 4.29004C20.2037 4.1053 19.9523 4.00115 19.69 3.99999H10.92C8.76996 3.98896 7.01651 5.72004 7 7.87004V24.13C7.01651 26.2801 8.76996 28.0111 10.92 28.0001H17C17.5523 28.0001 18 27.5523 18 27ZM19.89 6.61004L23.73 10.39H19.89V6.61004ZM11.5 11C11.2239 11 11 10.7761 11 10.5C11 10.2238 11.2239 9.99999 11.5 9.99999H14.5C14.7761 9.99999 15 10.2238 15 10.5C15 10.7761 14.7761 11 14.5 11H11.5ZM19 14.5C19 14.7761 18.7761 15 18.5 15H11.5C11.2239 15 11 14.7761 11 14.5C11 14.2239 11.2239 14 11.5 14H18.5C18.7761 14 19 14.2239 19 14.5ZM14.5 18H11.5C11.2239 18 11 18.2239 11 18.5C11 18.7761 11.2239 19 11.5 19H14.5C14.7761 19 15 18.7761 15 18.5C15 18.2239 14.7761 18 14.5 18ZM28 23C28 22.4477 27.5523 22 27 22H23V18C23 17.4477 22.5523 17 22 17C21.4477 17 21 17.4477 21 18V22H17C16.4477 22 16 22.4477 16 23C16 23.5523 16.4477 24 17 24H21V28C21 28.5523 21.4477 29 22 29C22.5523 29 23 28.5523 23 28V24H27C27.5523 24 28 23.5523 28 23Z" fill="#00005E"/>
</svg>
