<svg width="32" height="32" viewBox="0 0 32 32" fill="none" xmlns="http://www.w3.org/2000/svg">
<path fill-rule="evenodd" clip-rule="evenodd" d="M16.78 4.53004C18.0743 4.52739 19.3166 5.03899 20.2336 5.95229C21.1507 6.8656 21.6674 8.10579 21.67 9.40005C21.67 12.0871 19.4937 14.2663 16.8066 14.27C14.1196 14.2737 11.9374 12.1003 11.93 9.41333C11.9227 6.72632 14.093 4.54108 16.78 4.53004ZM16.78 6.53005C15.1917 6.53005 13.901 7.81176 13.89 9.40005C13.89 10.9825 15.1709 12.2663 16.7534 12.27C18.3358 12.2736 19.6226 10.9957 19.63 9.41329C19.6373 7.83086 18.3624 6.54108 16.78 6.53005ZM9.5 15C10.543 15 11.5286 15.2457 12.4022 15.6823C12.5241 15.6294 12.6586 15.6 12.8 15.6H20.66C22.7158 15.5803 24.6519 16.565 25.8469 18.238C27.0419 19.9109 27.3454 22.0617 26.66 24L26.26 25.2201C26.1226 25.642 25.7236 25.923 25.28 25.91C25.1748 25.9089 25.0703 25.892 24.97 25.8601C24.4456 25.6885 24.1592 25.1247 24.33 24.6L24.73 23.3801C25.2105 22.0558 25.0135 20.5804 24.2024 19.4286C23.3914 18.2768 22.0687 17.594 20.66 17.6H14.7005C15.5165 18.6864 16 20.0368 16 21.5C16 25.0899 13.0899 28 9.5 28C5.91015 28 3 25.0899 3 21.5C3 17.9102 5.91015 15 9.5 15ZM9.5 17C7.017 17.0055 5.0055 19.017 5 21.5C5 23.9853 7.01472 26 9.5 26C11.9853 26 14 23.9853 14 21.5C14 19.0148 11.9853 17 9.5 17ZM9.5 25C9.77614 25 10 24.7762 10 24.5V22H12.5C12.7761 22 13 21.7762 13 21.5C13 21.2239 12.7761 21 12.5 21H10V18.5C10 18.2239 9.77614 18 9.5 18C9.22386 18 9 18.2239 9 18.5V21H6.5C6.22386 21 6 21.2239 6 21.5C6 21.7762 6.22386 22 6.5 22H9V24.5C9 24.7762 9.22386 25 9.5 25Z" fill="#00005E"/>
</svg>
