<svg width="32" height="32" viewBox="0 0 32 32" fill="none" xmlns="http://www.w3.org/2000/svg">
<path fill-rule="evenodd" clip-rule="evenodd" d="M28.73 23.07C29.1122 22.6745 29.1033 22.0445 28.71 21.66L23.44 16.4C25.7269 13.5253 25.4027 9.37193 22.6974 6.88694C19.9921 4.40196 15.8262 4.43081 13.1556 6.95302C10.485 9.47524 10.2184 13.6327 12.5448 16.4755C14.8713 19.3182 18.9994 19.879 22 17.76L27.31 23.07C27.4978 23.2593 27.7534 23.3658 28.02 23.3658C28.2866 23.3658 28.5422 23.2593 28.73 23.07ZM21.5355 15.5356C20.5979 16.4732 19.3261 17 18 17C15.2386 17 13 14.7614 13 12C13 9.23859 15.2386 7.00002 18 7.00002C20.7614 7.00002 23 9.23859 23 12C23 13.3261 22.4732 14.5979 21.5355 15.5356ZM26.5 26C26.7761 26 27 26.2239 27 26.5C27 26.7762 26.7761 27 26.5 27H4.5C4.22386 27 4 26.7762 4 26.5C4 26.2239 4.22386 26 4.5 26H26.5ZM4 20.5C4 20.7762 4.22386 21 4.5 21H11.5C11.7761 21 12 20.7762 12 20.5C12 20.2239 11.7761 20 11.5 20H4.5C4.22386 20 4 20.2239 4 20.5ZM4.5 14C4.22386 14 4 13.7762 4 13.5C4 13.2239 4.22386 13 4.5 13H8.5C8.77614 13 9 13.2239 9 13.5C9 13.7762 8.77614 14 8.5 14H4.5ZM4 6.50002C4 6.77616 4.22386 7.00002 4.5 7.00002H10.5C10.7761 7.00002 11 6.77616 11 6.50002C11 6.22387 10.7761 6.00002 10.5 6.00002H4.5C4.22386 6.00002 4 6.22387 4 6.50002Z" fill="#00005E"/>
</svg>
