<svg width="24" height="24" viewBox="0 0 24 24" fill="none" xmlns="http://www.w3.org/2000/svg">
<path fill-rule="evenodd" clip-rule="evenodd" d="M8.54318 0C7.33824 0 6.18269 0.478657 5.33068 1.33067C4.47868 2.18267 4 3.33824 4 4.54318V19.4568C4 20.6617 4.47868 21.8173 5.33068 22.6693C6.18269 23.5213 7.33824 24 8.54318 24H14.2848C15.4898 24 16.6453 23.5213 17.4974 22.6693C18.3494 21.8173 18.828 20.6617 18.828 19.4568V19.2C18.828 18.6512 18.3831 18.2064 17.8344 18.2064C17.2856 18.2064 16.8408 18.6512 16.8408 19.2V19.4568C16.8408 20.1347 16.5715 20.7848 16.0922 21.2641C15.6128 21.7434 14.9627 22.0127 14.2848 22.0127H8.54318C7.86531 22.0127 7.21522 21.7434 6.73589 21.2641C6.25655 20.7848 5.98726 20.1347 5.98726 19.4568V4.54318C5.98726 3.86532 6.25655 3.21521 6.73589 2.73587C7.21522 2.25654 7.86531 1.98726 8.54318 1.98726H14.2848C14.9627 1.98726 15.6128 2.25654 16.0922 2.73587C16.5715 3.21519 16.8408 3.8653 16.8408 4.54318V4.6349C16.8408 5.18367 17.2856 5.62853 17.8344 5.62853C18.3831 5.62853 18.828 5.18367 18.828 4.6349V4.54318C18.828 3.33826 18.3494 2.18268 17.4974 1.33067C16.6453 0.478652 15.4898 0 14.2848 0H8.54318ZM10.0382 3.70695C9.76381 3.70695 9.54138 3.92938 9.54138 4.20376C9.54138 4.47815 9.76381 4.70058 10.0382 4.70058H12.7898C13.0642 4.70058 13.2866 4.47815 13.2866 4.20376C13.2866 3.92938 13.0642 3.70695 12.7898 3.70695H10.0382ZM11.6433 17.5031C11.3392 17.5031 11.0476 17.6239 10.8326 17.8389C10.6176 18.0539 10.4968 18.3456 10.4968 18.6496C10.4968 18.9537 10.6176 19.2453 10.8326 19.4603C11.0476 19.6753 11.3392 19.7961 11.6433 19.7961C11.9474 19.7961 12.239 19.6753 12.454 19.4603C12.669 19.2453 12.7898 18.9537 12.7898 18.6496C12.7898 18.3456 12.669 18.0539 12.454 17.8389C12.239 17.6239 11.9474 17.5031 11.6433 17.5031ZM17.9872 7.03182C18.536 7.03182 18.9809 7.47669 18.9809 8.02545V11.0063H21.9617C22.5105 11.0063 22.9554 11.4512 22.9554 12C22.9554 12.5487 22.5105 12.9936 21.9617 12.9936H18.9809V15.9745C18.9809 16.5233 18.536 16.9681 17.9872 16.9681C17.4385 16.9681 16.9936 16.5233 16.9936 15.9745V12.9936H14.0127C13.4639 12.9936 13.0191 12.5487 13.0191 12C13.0191 11.4512 13.4639 11.0063 14.0127 11.0063H16.9936V8.02545C16.9936 7.47669 17.4385 7.03182 17.9872 7.03182Z" fill="#00005E"/>
</svg>
