<svg width="32" height="32" viewBox="0 0 32 32" fill="none" xmlns="http://www.w3.org/2000/svg">
<path fill-rule="evenodd" clip-rule="evenodd" d="M19.65 13.59C16.999 13.59 14.85 11.441 14.85 8.79C14.85 6.13903 16.999 3.99 19.65 3.99C22.301 3.99 24.45 6.13903 24.45 8.79C24.45 11.441 22.301 13.59 19.65 13.59ZM22.44 8.79C22.4431 7.77175 21.8911 6.8327 21 6.34C20.2751 8.04867 18.868 9.37592 17.12 10C17.6743 11.1929 18.9864 11.8366 20.269 11.5449C21.5516 11.2532 22.4562 10.1052 22.44 8.79ZM16.88 8.8C16.8799 7.26524 18.1153 6.01644 19.65 6H20C19.4013 7.37579 18.2782 8.4557 16.88 9V8.8ZM13 14H9V18C9 18.5523 8.55228 19 8 19C7.44772 19 7 18.5523 7 18V14H3C2.44772 14 2 13.5523 2 13C2 12.4477 2.44772 12 3 12H7V8C7 7.44772 7.44772 7 8 7C8.55228 7 9 7.44772 9 8V12H13C13.5523 12 14 12.4477 14 13C14 13.5523 13.5523 14 13 14ZM23 15C25.796 14.999 28.0841 17.225 28.16 20.02C28.1676 20.8644 27.9611 21.6969 27.56 22.44L26.56 24.44C25.4792 26.6122 23.2662 27.9895 20.84 28H18.46C16.0316 27.9866 13.82 26.6 12.75 24.42L11.75 22.42C11.3489 21.6769 11.1424 20.8444 11.15 20C11.2412 17.2267 13.5053 15.02 16.28 15H23ZM25.74 21.57H25.75C25.9985 21.1194 26.1324 20.6146 26.14 20.1C26.092 18.3927 24.7078 17.0261 23 17H16.28C14.5775 17.015 13.1888 18.3684 13.13 20.07C13.1411 20.5841 13.2748 21.088 13.52 21.54L14.52 23.54C15.2564 25.0445 16.7849 25.9989 18.46 26H20.84C22.494 25.9894 24.0016 25.05 24.74 23.57L25.74 21.57Z" fill="#00005E"/>
</svg>
