<svg width="32" height="32" viewBox="0 0 32 32" fill="none" xmlns="http://www.w3.org/2000/svg">
<path fill-rule="evenodd" clip-rule="evenodd" d="M12.6138 5.352L13.9708 8.839H15.8308L17.1778 5.379C16.7278 5.605 16.1928 5.969 15.6078 6.554C15.2328 6.929 14.5688 6.929 14.1938 6.554C13.5898 5.95 13.0558 5.579 12.6138 5.352ZM15.9288 26.839C15.9288 27.392 15.4808 27.839 14.9288 27.839H8.23679C6.36079 27.839 4.99979 26.645 4.99979 24.999C4.99979 24.023 5.43579 23.128 6.17379 22.527C6.13779 22.2 6.11879 21.869 6.11879 21.658V15.748C6.11879 12.35 8.60679 9.523 11.8688 8.951L10.0968 4.399C9.99479 4.137 10.0078 3.843 10.1328 3.591C10.2588 3.339 10.4848 3.152 10.7558 3.075C10.9578 3.017 12.6438 2.617 14.9038 4.495C17.0288 2.756 18.7518 3.014 18.9588 3.054C19.2508 3.109 19.5038 3.291 19.6488 3.551C19.7918 3.812 19.8138 4.122 19.7048 4.4L17.9378 8.94C19.9878 9.274 21.8178 10.501 22.8658 12.324C23.1428 12.802 22.9778 13.413 22.4988 13.689C22.0208 13.965 21.4078 13.8 21.1338 13.322C20.2518 11.79 18.5988 10.839 16.8188 10.839H16.5138H13.2878H13.0818C10.3448 10.839 8.11879 13.041 8.11879 15.748V21.658C8.11879 21.941 8.17079 22.455 8.21779 22.679H10.6428C10.9198 22.679 11.1428 22.903 11.1428 23.179C11.1428 23.455 10.9198 23.679 10.6428 23.679H8.00279C7.91879 23.773 7.81879 23.854 7.69979 23.911C7.26779 24.118 6.99979 24.535 6.99979 24.999C6.99979 25.816 8.11079 25.839 8.23679 25.839H14.9288C15.4808 25.839 15.9288 26.286 15.9288 26.839Z" fill="#00005E"/>
<path fill-rule="evenodd" clip-rule="evenodd" d="M16.0005 22C16.0005 18.6863 18.6868 16 22.0005 16C25.3143 16 28.0005 18.6863 28.0005 22C28.0005 25.3137 25.3143 28 22.0005 28C18.6868 28 16.0005 25.3137 16.0005 22ZM26.0005 22C26.0005 19.7909 24.2097 18 22.0005 18C19.7934 18.0049 18.0054 19.7929 18.0005 22C18.0005 24.2091 19.7914 26 22.0005 26C24.2097 26 26.0005 24.2091 26.0005 22ZM22.0005 25C21.7244 25 21.5005 24.8081 21.5005 24.5714V22.5H19.4291C19.1924 22.5 19.0005 22.2761 19.0005 22C19.0005 21.7239 19.1924 21.5 19.4291 21.5H21.5005V19.4286C21.5005 19.1919 21.7244 19 22.0005 19C22.2767 19 22.5005 19.1919 22.5005 19.4286V21.5H24.572C24.8087 21.5 25.0005 21.7239 25.0005 22C25.0005 22.2761 24.8087 22.5 24.572 22.5H22.5005V24.5714C22.5005 24.8081 22.2767 25 22.0005 25Z" fill="#00005E"/>
</svg>
