<svg width="32" height="32" viewBox="0 0 32 32" fill="none" xmlns="http://www.w3.org/2000/svg">
<path fill-rule="evenodd" clip-rule="evenodd" d="M28 16C28 9.37258 22.6274 4 16 4C9.37258 4 4 9.37258 4 16C4 22.6274 9.37258 28 16 28C22.6274 28 28 22.6274 28 16ZM23.0711 23.0711C21.1957 24.9464 18.6522 26 16 26C10.4772 26 6 21.5228 6 16C6 10.4772 10.4772 6 16 6C21.5228 6 26 10.4772 26 16C26 18.6522 24.9464 21.1957 23.0711 23.0711ZM18 20C18.5523 20 19 20.4477 19 21C19 21.5523 18.5523 22 18 22H14C13.4477 22 13 21.5523 13 21C13 20.4477 13.4477 20 14 20H15V16H14C13.4477 16 13 15.5523 13 15C13 14.4477 13.4477 14 14 14H17V20H18ZM15.61 12.35C16.4384 12.35 17.11 11.6784 17.11 10.85C17.11 10.0216 16.4384 9.35 15.61 9.35C14.7816 9.35 14.11 10.0216 14.11 10.85C14.11 11.6784 14.7816 12.35 15.61 12.35Z" fill="#00005E"/>
</svg>
