<svg width="32" height="32" viewBox="0 0 32 32" fill="none" xmlns="http://www.w3.org/2000/svg">
<path fill-rule="evenodd" clip-rule="evenodd" d="M26 13.11C26 8.13 21.62 4.09 16.17 4H16C10.61 4 6.10999 8 5.99999 12.91C5.96308 14.7328 6.51739 16.5185 7.57999 18C7.999 18.5974 8.47282 19.2 8.95206 19.8094L8.95207 19.8094L8.95208 19.8094C10.2456 21.4544 11.5787 23.1496 11.98 24.93C12.1422 25.5681 12.7217 26.011 13.38 26H18.58C19.2237 26.0217 19.8036 25.6134 20 25C20.4034 23.2248 21.7486 21.5034 23.0485 19.8398C23.5207 19.2355 23.987 18.6389 24.4 18.05C25.4386 16.6121 25.9984 14.8838 26 13.11ZM17.5 17.5C17.5 18.3284 16.8284 19 16 19C15.1716 19 14.5 18.3284 14.5 17.5C14.5 16.6716 15.1716 16 16 16C16.8284 16 17.5 16.6716 17.5 17.5ZM22.79 16.86C23.5722 15.7656 23.995 14.4552 24 13.11C24 9.26 20.48 6.07 16.14 6H16C11.68 6 8.08999 9.16 7.99999 13C7.98389 14.3824 8.40762 15.7342 9.20999 16.86C9.25986 16.9303 9.30989 17.0013 9.3603 17.0728C9.70408 17.5606 10.0652 18.0729 10.51 18.57C11.9379 20.1573 13.054 21.9995 13.8 24H15.5V20C14.2425 19.7433 13.3837 18.5762 13.5127 17.2992C13.6416 16.0223 14.7166 15.0505 16 15.0505C17.2834 15.0505 18.3583 16.0223 18.4873 17.2992C18.6163 18.5762 17.7575 19.7433 16.5 20V24H18.2C18.9573 21.9998 20.0759 20.1558 21.5 18.56L21.6026 18.4284C22.0254 17.8865 22.4291 17.369 22.79 16.86ZM18.55 26.8248C18.5049 26.6989 18.4113 26.5963 18.29 26.54C18.0359 26.4266 17.7377 26.5378 17.62 26.79C17.332 27.4455 16.6774 27.863 15.9616 27.8477C15.2458 27.8323 14.6097 27.3873 14.35 26.72C14.2361 26.4696 13.9468 26.3512 13.69 26.45C13.4409 26.5599 13.3221 26.846 13.42 27.1C13.8286 28.1396 14.8216 28.832 15.9384 28.856C17.0551 28.8801 18.077 28.231 18.53 27.21C18.5879 27.0895 18.5951 26.9507 18.55 26.8248Z" fill="#00005E"/>
</svg>
