<svg width="32" height="32" viewBox="0 0 32 32" fill="none" xmlns="http://www.w3.org/2000/svg">
<path fill-rule="evenodd" clip-rule="evenodd" d="M24.12 23.67C24.6723 23.67 25.12 24.1177 25.12 24.67C25.1227 25.5505 24.7754 26.3961 24.1547 27.0206C23.5339 27.6451 22.6905 27.9974 21.81 28H9.92C7.7722 28.0056 6.02197 26.2777 6 24.13V7.87003C6.02197 5.72233 7.7722 3.99442 9.92 4.00001H18.76C19.0223 4.00113 19.2737 4.10528 19.46 4.29003L24.77 9.52003C24.9633 9.70953 25.0716 9.96931 25.07 10.24V13.64C25.07 14.1923 24.6223 14.64 24.07 14.64C23.5177 14.64 23.07 14.1923 23.07 13.64V11.21H18.42C18.1461 11.2047 17.9253 10.9839 17.92 10.71V6.00003H9.92C8.87668 5.99434 8.02183 6.82692 8 7.87003V24.13C8.02183 25.1731 8.87668 26.0057 9.92 26H21.81C22.5367 25.9891 23.1201 25.3968 23.12 24.67C23.12 24.1177 23.5677 23.67 24.12 23.67ZM22.66 10.21L19 6.60003V10.21H22.66ZM30.49 14.88C30.4952 14.4362 30.3181 14.0096 30 13.7L29.92 13.63C29.2882 13.0344 28.3018 13.0344 27.67 13.63L21.57 19.53C21.5118 19.5897 21.4675 19.6614 21.44 19.74L20.65 22.16C20.5981 22.3137 20.6239 22.483 20.7193 22.6141C20.8147 22.7453 20.9678 22.8221 21.13 22.82C21.1796 22.8295 21.2304 22.8295 21.28 22.82L23.64 22C23.7104 21.9773 23.7752 21.9398 23.83 21.89L30 16C30.3089 15.7089 30.4858 15.3045 30.49 14.88ZM29.33 15.28V15.27L23.23 21.11L21.91 21.55L22.36 20.18L28.36 14.36C28.6021 14.1339 28.9779 14.1339 29.22 14.36L29.33 14.47C29.4407 14.5757 29.5033 14.722 29.5033 14.875C29.5033 15.028 29.4407 15.1743 29.33 15.28ZM17.87 20.14C18.0955 20.2924 18.2752 20.5033 18.39 20.75L19.62 23.39C19.6775 23.5091 19.6845 23.6464 19.6393 23.7707C19.5941 23.895 19.5006 23.9957 19.38 24.05C19.3157 24.0851 19.2432 24.1024 19.17 24.1C18.9758 24.1011 18.7993 23.9873 18.72 23.81L17.48 21.17C17.4447 21.0963 17.3935 21.0314 17.33 20.98C17.0982 20.8164 16.7793 20.8601 16.6 21.08L15.29 22.8C15.0566 23.1013 14.7166 23.3017 14.34 23.36C13.5266 23.5064 12.7466 22.9715 12.59 22.16L11.98 18.79C11.9412 18.6056 11.802 18.4587 11.62 18.41C11.3504 18.337 11.0704 18.4857 10.98 18.75L10.55 20.27C10.4754 20.5462 10.1911 20.7096 9.915 20.635C9.63886 20.5605 9.47544 20.2762 9.55 20L9.98 18.41C10.2337 17.6336 11.0525 17.1934 11.84 17.41C12.3957 17.5588 12.816 18.0142 12.92 18.58L13.54 21.95C13.5642 22.0818 13.6403 22.1984 13.7512 22.2736C13.8621 22.3488 13.9986 22.3763 14.13 22.35C14.2579 22.3323 14.3732 22.2638 14.45 22.16L15.77 20.44C16.2786 19.797 17.2017 19.6651 17.87 20.14Z" fill="#00005E"/>
</svg>
