<svg width="32" height="32" viewBox="0 0 32 32" fill="none" xmlns="http://www.w3.org/2000/svg">
<path fill-rule="evenodd" clip-rule="evenodd" d="M16.09 12.46C15.9641 12.4111 15.8633 12.3134 15.8106 12.1891C15.7579 12.0648 15.7576 11.9244 15.81 11.8C16.9 9.41997 18.81 7.99997 20.81 7.99997H26.18L22.67 4.86997C22.5059 4.67996 22.5081 4.39769 22.6752 4.2103C22.8423 4.02291 23.1225 3.98854 23.33 4.12997L27.83 8.12997C27.9372 8.22304 27.9988 8.35801 27.9988 8.49997C27.9988 8.64192 27.9372 8.7769 27.83 8.86997L23.33 12.87C23.2418 12.9557 23.123 13.0025 23 13C22.7732 13.0214 22.5606 12.8868 22.4829 12.6726C22.4053 12.4585 22.4822 12.2189 22.67 12.09L26.18 8.95997H20.81C19.17 8.95997 17.65 10.16 16.75 12.16C16.6682 12.341 16.4887 12.4581 16.29 12.46C16.2242 12.475 16.1558 12.475 16.09 12.46ZM13.57 18.54C13.7013 18.5879 13.8059 18.6896 13.8574 18.8194C13.909 18.9493 13.9027 19.0951 13.84 19.22L13.52 20C12.49 22.46 10.54 24 8.44 24H4.5C4.22386 24 4 23.7761 4 23.5C4 23.2238 4.22386 23 4.5 23H8.44C10.13 23 11.72 21.69 12.59 19.58L12.92 18.81C12.9687 18.6866 13.0653 18.5882 13.1878 18.5373C13.3103 18.4864 13.4482 18.4874 13.57 18.54ZM27.71 22.29L23.71 18.29C23.3179 17.8978 22.6821 17.8978 22.29 18.29C21.8979 18.6821 21.8979 19.3178 22.29 19.71L24.59 22H21.25C19.5567 21.8535 18.1076 20.7255 17.55 19.12L14.42 12.12C13.563 9.76687 11.3899 8.14785 8.89 7.99997H5C4.44772 7.99997 4 8.44768 4 8.99997C4 9.55225 4.44772 9.99997 5 9.99997H8.89C10.5833 10.1465 12.0324 11.2744 12.59 12.88L15.73 19.88C16.5811 22.2331 18.7519 23.8534 21.25 24H24.59L22.29 26.29C22.1007 26.4777 21.9942 26.7333 21.9942 27C21.9942 27.2666 22.1007 27.5222 22.29 27.71C22.4778 27.8993 22.7334 28.0058 23 28.0058C23.2666 28.0058 23.5222 27.8993 23.71 27.71L27.71 23.71C27.8993 23.5222 28.0058 23.2666 28.0058 23C28.0058 22.7333 27.8993 22.4777 27.71 22.29Z" fill="#00005E"/>
</svg>
