<svg width="32" height="32" viewBox="0 0 32 32" fill="none" xmlns="http://www.w3.org/2000/svg">
<path fill-rule="evenodd" clip-rule="evenodd" d="M17 14.31C17 15.2434 17.7566 16.0001 18.69 16.0001H27.31C27.8163 16.005 28.2984 15.784 28.6252 15.3973C28.952 15.0106 29.0894 14.4983 29 14C28.147 8.87175 24.1283 4.853 19 4H18.7C17.765 4 17.0055 4.75502 17 5.69V14.31ZM19 14V6.06C23.0083 6.85848 26.1415 9.99173 26.94 14H19ZM28.6263 17.5134C28.3208 17.1711 27.8785 16.9829 27.42 17H21.58C20.9561 16.977 20.3823 17.3403 20.1364 17.9142C19.8904 18.488 20.023 19.1541 20.47 19.59L24.59 23.59C24.8929 23.8653 25.2909 24.0123 25.7 24C26.2123 23.9938 26.6926 23.7499 27 23.34C28.0174 21.9955 28.7027 20.4296 29 18.77C29.0689 18.3164 28.9318 17.8557 28.6263 17.5134ZM27.99 18.58C27.7388 20.0876 27.1321 21.5136 26.22 22.74C26.0962 22.9025 25.9042 22.9985 25.7 23C25.5449 23.0011 25.3951 22.944 25.28 22.84L21.16 18.84C21.0058 18.7102 20.9568 18.4936 21.04 18.31C21.1266 18.0911 21.3451 17.9535 21.58 17.97H27.42C27.5965 17.9702 27.7643 18.0468 27.88 18.18C27.9812 18.2866 28.0224 18.4367 27.99 18.58ZM21.48 23.85C21.0887 23.5026 20.4957 23.5157 20.12 23.88C17.7752 26.2754 14.1973 26.979 11.12 25.65C7.98941 24.4118 5.95107 21.3662 6.00001 18C6.0055 13.4443 9.69433 9.75101 14.25 9.74C14.8023 9.74 15.25 9.29228 15.25 8.74C15.25 8.18772 14.8023 7.74 14.25 7.74C8.58976 7.75102 4.00551 12.3397 4.00001 18C3.95295 22.1553 6.46322 25.9128 10.32 27.46C11.5883 27.9866 12.9468 28.2617 14.32 28.27C17.0115 28.266 19.5896 27.1858 21.48 25.27C21.6693 25.0822 21.7758 24.8266 21.7758 24.56C21.7758 24.2934 21.6693 24.0378 21.48 23.85Z" fill="#00005E"/>
</svg>
