<svg width="24" height="24" viewBox="0 0 24 24" fill="none" xmlns="http://www.w3.org/2000/svg">
<g clip-path="url(#clip0_17654_30212)">
<path fill-rule="evenodd" clip-rule="evenodd" d="M22 11.24V12.95L20.42 13.21C20.1856 13.2471 19.9668 13.3507 19.7896 13.5084C19.6123 13.6662 19.484 13.8715 19.42 14.1C19.2524 14.674 19.021 15.2275 18.73 15.75C18.6174 15.9597 18.5669 16.1972 18.5846 16.4345C18.6023 16.6719 18.6875 16.8993 18.83 17.09L19.76 18.39L18.42 19.73L17.12 18.79C16.9078 18.6455 16.6567 18.5688 16.4 18.57C16.1875 18.5698 15.9782 18.6212 15.79 18.72C15.2682 19.0194 14.7103 19.2512 14.13 19.41C13.9034 19.4756 13.7002 19.6046 13.5443 19.7818C13.3884 19.9589 13.2863 20.1768 13.25 20.41L12.98 21.98H11.09L10.83 20.41C10.7925 20.1773 10.69 19.9599 10.5343 19.783C10.3786 19.606 10.1761 19.4767 9.95002 19.41C9.36968 19.2512 8.81188 19.0194 8.29001 18.72C8.10185 18.6212 7.89249 18.5698 7.68 18.57C7.42309 18.5676 7.17168 18.6444 6.96 18.79L5.66001 19.73L4.32001 18.39L5.25 17.09C5.38562 16.8954 5.46404 16.6668 5.47641 16.43C5.48879 16.1931 5.43462 15.9576 5.32001 15.75C5.02041 15.2317 4.78851 14.6772 4.63001 14.1C4.56595 13.8715 4.43767 13.6662 4.26041 13.5084C4.08316 13.3507 3.86438 13.2471 3.63001 13.21L2.06 12.95V11.06L3.63001 10.8C3.86438 10.7628 4.08316 10.6593 4.26041 10.5015C4.43767 10.3437 4.56595 10.1384 4.63001 9.90996C4.79552 9.31931 5.03402 8.7516 5.34 8.21996C5.44942 8.01692 5.49903 7.78704 5.4831 7.55695C5.46717 7.32686 5.38635 7.10599 5.25 6.91997L4.32001 5.61997L5.66001 4.27996L6.96 5.21996C7.17168 5.36554 7.42309 5.44236 7.68 5.43996C7.89249 5.44017 8.10185 5.3887 8.29001 5.28997C8.81188 4.99056 9.36968 4.7587 9.95002 4.59996C10.1761 4.5332 10.3786 4.40389 10.5343 4.22695C10.69 4.05001 10.7925 3.83266 10.83 3.59996L11.09 2.01996H12.98L13.24 3.55996L14.4 0.619969C14.2148 0.430993 13.9939 0.280648 13.7501 0.177655C13.5064 0.0746617 13.2446 0.0210615 12.98 0.019963H11.09C10.6121 0.0134193 10.1476 0.178248 9.78074 0.484593C9.41386 0.790939 9.16882 1.21855 9.09 1.68997L8.9 2.83997C8.49281 2.97647 8.09524 3.14017 7.71 3.32997L6.79001 2.67997C6.45239 2.43552 6.04683 2.30266 5.63001 2.29997C5.3661 2.29976 5.10474 2.35178 4.86103 2.45305C4.61731 2.55431 4.39605 2.7028 4.21 2.88997L2.85999 4.17997C2.52486 4.51534 2.31978 4.95886 2.28132 5.43142C2.24285 5.90397 2.37352 6.37481 2.65 6.75997L3.31 7.66997C3.11864 8.05923 2.95165 8.46 2.81 8.86997L1.66999 9.05997C1.19857 9.13879 0.77098 9.38383 0.464635 9.75071C0.158289 10.1176 -0.00653918 10.5821 4.50102e-06 11.06V12.95C-0.00653918 13.4279 0.158289 13.8923 0.464635 14.2592C0.77098 14.6261 1.19857 14.8712 1.66999 14.95L2.81 15.14C2.95165 15.5499 3.11864 15.9507 3.31 16.34L2.65 17.25C2.37352 17.6351 2.24285 18.106 2.28132 18.5785C2.31978 19.0511 2.52486 19.4946 2.85999 19.83L4.20002 21.17C4.38607 21.3571 4.60734 21.5056 4.85105 21.6069C5.09476 21.7082 5.35609 21.7602 5.62 21.76C6.03682 21.7573 6.44238 21.6244 6.78 21.38L7.70002 20.73C8.08526 20.9198 8.4828 21.0835 8.88999 21.22L9.07999 22.37C9.16095 22.8396 9.40693 23.2648 9.77359 23.5691C10.1403 23.8735 10.6035 24.0369 11.08 24.03H12.97C13.4465 24.0369 13.9097 23.8735 14.2764 23.5691C14.6431 23.2648 14.889 22.8396 14.97 22.37L15.16 21.22C15.5684 21.0826 15.9661 20.9155 16.35 20.72L17.26 21.38C17.6004 21.6264 18.0098 21.7594 18.43 21.76C18.6939 21.7602 18.9553 21.7082 19.199 21.6069C19.4427 21.5056 19.664 21.3571 19.85 21.17L21.19 19.83C21.5251 19.4946 21.7302 19.0511 21.7687 18.5785C21.8071 18.106 21.6765 17.6351 21.4 17.25L20.72 16.31C20.9079 15.9307 21.0716 15.54 21.21 15.14L22.35 14.95C22.8113 14.8729 23.2309 14.6366 23.536 14.2821C23.8411 13.9277 24.0124 13.4776 24.02 13.01V11.12C24.0198 10.9614 23.9996 10.8035 23.96 10.65L22 11.24ZM15.9781 1.00431C16.2215 0.897477 16.4974 0.891938 16.7448 0.988918C18.3645 1.62359 19.814 2.6268 20.9785 3.91901C22.143 5.21123 22.9905 6.75695 23.4539 8.43363C23.5246 8.68962 23.4906 8.96325 23.3594 9.19414C23.2281 9.42504 23.0104 9.59424 22.7543 9.66443L12.9743 12.3444C12.61 12.4442 12.2206 12.3303 11.9675 12.0499C11.7145 11.7695 11.6411 11.3704 11.7777 11.0183L15.4477 1.5583C15.5438 1.31049 15.7347 1.11115 15.9781 1.00431ZM16.9295 3.26833L14.3603 9.89088L21.2064 8.01487C20.8041 7.00404 20.2246 6.07003 19.4928 5.25791C18.7612 4.44612 17.8927 3.77319 16.9295 3.26833ZM14.9494 15.5912C15.77 14.9271 16.3384 14.0021 16.56 12.97L17.63 12.65C17.4754 14.0229 16.8214 15.291 15.7925 16.213C14.7636 17.1349 13.4315 17.6464 12.05 17.65C10.5595 17.65 9.13 17.0579 8.07605 16.0039C7.0221 14.95 6.42999 13.5205 6.42999 12.03C6.43264 10.5412 7.02592 9.11429 8.07959 8.0625C9.13326 7.01071 10.5612 6.41998 12.05 6.41998H12.13L11.72 7.41998C10.5588 7.50077 9.47115 8.01783 8.67542 8.86736C7.87968 9.71688 7.43476 10.836 7.42999 12C7.42999 13.2253 7.91675 14.4004 8.78317 15.2668C9.64959 16.1332 10.8247 16.62 12.05 16.62C13.1056 16.6184 14.1288 16.2553 14.9494 15.5912Z" fill="#00005E"/>
</g>
<defs>
<clipPath id="clip0_17654_30212">
<rect width="24" height="24" fill="white"/>
</clipPath>
</defs>
</svg>
