<svg width="32" height="32" viewBox="0 0 32 32" fill="none" xmlns="http://www.w3.org/2000/svg">
<path fill-rule="evenodd" clip-rule="evenodd" d="M15 7.49C15 6.13 12.76 5 10 5C7.24 5 5 6.13 5 7.52V25.52C5 26.88 7.24 28 10 28C12.76 28 15 26.88 15 25.49V7.49ZM13 9.73V12C12.0596 12.4313 11.0345 12.6466 10 12.63C8.96512 12.6507 7.93913 12.4353 7 12V9.75C7.95991 10.1039 8.97708 10.2768 10 10.26C11.0243 10.2713 12.0416 10.0916 13 9.73ZM10 13.63V13.62C8.97708 13.6368 7.95991 13.4639 7 13.11V15.39C7.94085 15.818 8.96669 16.0266 10 16C11.0357 16.0183 12.0619 15.7994 13 15.36V13.1C12.0416 13.4616 11.0243 13.6413 10 13.63ZM7 16.47C7.95861 16.8307 8.97583 17.0104 10 17C11.0243 17.0113 12.0416 16.8316 13 16.47V18.73C12.062 19.1697 11.0358 19.3887 10 19.37C8.96589 19.3939 7.93994 19.1818 7 18.75V16.47ZM7 19.83V22.09C7.93994 22.5218 8.96589 22.7339 10 22.71C11.0358 22.7287 12.062 22.5097 13 22.07V19.81C12.0439 20.1806 11.0254 20.3639 10 20.35C8.97644 20.3638 7.9592 20.1875 7 19.83ZM7 7.75C7.89905 7.19738 8.94666 6.93548 10 7C11.0533 6.93548 12.1009 7.19738 13 7.75V8.62C12.062 9.05972 11.0358 9.27866 10 9.26C8.96589 9.28385 7.93994 9.07182 7 8.64V7.75ZM10 26C11.0533 26.0645 12.1009 25.8026 13 25.25V23.18C12.0416 23.5416 11.0243 23.7213 10 23.71C8.97644 23.7238 7.9592 23.5475 7 23.19V25.25C7.89905 25.8026 8.94666 26.0645 10 26ZM27 14.49C27.007 14.4202 27.007 14.3498 27 14.28V14.22C26.65 13 24.56 12 22 12C19.44 12 17.35 13 17.06 14.22H17C16.9961 14.2733 16.9961 14.3267 17 14.38C16.9954 14.4232 16.9954 14.4668 17 14.51V25.51C17 26.88 19.24 28 22 28C24.76 28 27 26.88 27 25.49V14.49ZM25 16.37V18.67C24.062 19.1097 23.0358 19.3287 22 19.31C20.9659 19.3339 19.9399 19.1218 19 18.69V16.39C19.9599 16.7439 20.9771 16.9168 22 16.9C23.0243 16.9113 24.0416 16.7316 25 16.37ZM19 19.79V22.09C19.9399 22.5218 20.9659 22.7339 22 22.71C23.0358 22.7287 24.062 22.5097 25 22.07V19.77C24.0439 20.1406 23.0254 20.3239 22 20.31C20.9764 20.3238 19.9592 20.1475 19 19.79ZM19 14.75C19.8991 14.1974 20.9467 13.9355 22 14C23.0533 13.9355 24.1009 14.1974 25 14.75V15.27C24.0611 15.7059 23.0349 15.9214 22 15.9C20.9672 15.9205 19.9427 15.7122 19 15.29V14.75ZM22 26C23.0507 26.0641 24.0962 25.8097 25 25.27V23.19C23.0613 23.8903 20.9387 23.8903 19 23.19V25.26C19.9026 25.8032 20.9483 26.0611 22 26Z" fill="#00005E"/>
</svg>
