<svg width="32" height="32" viewBox="0 0 32 32" fill="none" xmlns="http://www.w3.org/2000/svg">
<path fill-rule="evenodd" clip-rule="evenodd" d="M16 3L25 7.93V28H7V7.93L16 3ZM16.07 26H20V20.7C20.1499 19.9095 19.8115 19.1062 19.1412 18.6612C18.4708 18.2162 17.5992 18.2162 16.9288 18.6612C16.2585 19.1062 15.9201 19.9095 16.07 20.7V26ZM23 9.11V26H21V20.66C21.18 19.492 20.6575 18.3271 19.6654 17.6848C18.6734 17.0425 17.3966 17.0425 16.4046 17.6848C15.4125 18.3271 14.89 19.492 15.07 20.66V26H9V9.11L16 5.28L23 9.11ZM11.5 18C11.7761 18 12 18.2239 12 18.5V20.5C12 20.7761 11.7761 21 11.5 21C11.2239 21 11 20.7761 11 20.5V18.5C11 18.2239 11.2239 18 11.5 18ZM12 12.5C12 12.2239 11.7761 12 11.5 12C11.2239 12 11 12.2239 11 12.5V14.5C11 14.7761 11.2239 15 11.5 15C11.7761 15 12 14.7761 12 14.5V12.5ZM15.5 12.5C15.5 12.2239 15.7239 12 16 12C16.2761 12 16.5 12.2239 16.5 12.5V14.5C16.5 14.7761 16.2761 15 16 15C15.7239 15 15.5 14.7761 15.5 14.5V12.5ZM20 14.5C20 14.7761 20.2239 15 20.5 15C20.7761 15 21 14.7761 21 14.5V12.5C21 12.2239 20.7761 12 20.5 12C20.2239 12 20 12.2239 20 12.5V14.5Z" fill="#00005E"/>
</svg>
