<svg width="32" height="32" viewBox="0 0 32 32" fill="none" xmlns="http://www.w3.org/2000/svg">
<path fill-rule="evenodd" clip-rule="evenodd" d="M25.12 24.67C25.12 24.1177 24.6723 23.67 24.12 23.67C23.5677 23.67 23.12 24.1177 23.12 24.67C23.1201 25.3968 22.5367 25.9891 21.81 26H9.92C8.87668 26.0057 8.02183 25.1731 8 24.13V7.87003C8.02183 6.82692 8.87668 5.99434 9.92 6.00003H17.92V10.71C17.9253 10.9839 18.1461 11.2047 18.42 11.21H23.07V13.64C23.07 14.1923 23.5177 14.64 24.07 14.64C24.6223 14.64 25.07 14.1923 25.07 13.64V10.24C25.0716 9.96931 24.9633 9.70953 24.77 9.52003L19.46 4.29003C19.2737 4.10528 19.0223 4.00113 18.76 4.00001H9.92C7.7722 3.99442 6.02197 5.72233 6 7.87003V24.13C6.02197 26.2777 7.7722 28.0056 9.92 28H21.81C22.6905 27.9974 23.5339 27.6451 24.1547 27.0206C24.7754 26.3961 25.1227 25.5505 25.12 24.67ZM19 6.60003L22.66 10.21H19V6.60003ZM30.49 14.88C30.4952 14.4362 30.3181 14.0096 30 13.7L29.92 13.63C29.2882 13.0344 28.3018 13.0344 27.67 13.63L21.57 19.53C21.5118 19.5897 21.4675 19.6614 21.44 19.74L20.65 22.16C20.5981 22.3137 20.6239 22.483 20.7193 22.6141C20.8147 22.7453 20.9678 22.8221 21.13 22.82C21.1796 22.8295 21.2304 22.8295 21.28 22.82L23.64 22C23.7104 21.9773 23.7752 21.9398 23.83 21.89L30 16C30.3089 15.7089 30.4858 15.3045 30.49 14.88ZM29.33 15.28V15.27L23.23 21.11L21.91 21.55L22.36 20.18L28.36 14.36C28.6021 14.1339 28.9779 14.1339 29.22 14.36L29.33 14.47C29.4407 14.5757 29.5033 14.722 29.5033 14.875C29.5033 15.028 29.4407 15.1743 29.33 15.28ZM11 12.5C11 12.7761 11.2239 13 11.5 13H15.5C15.7761 13 16 12.7761 16 12.5C16 12.2239 15.7761 12 15.5 12H11.5C11.2239 12 11 12.2239 11 12.5ZM19.5 16C19.7761 16 20 16.2239 20 16.5C20 16.7761 19.7761 17 19.5 17H11.5C11.2239 17 11 16.7761 11 16.5C11 16.2239 11.2239 16 11.5 16H19.5ZM16 20.5C16 20.2239 15.7761 20 15.5 20H11.5C11.2239 20 11 20.2239 11 20.5C11 20.7761 11.2239 21 11.5 21H15.5C15.7761 21 16 20.7761 16 20.5Z" fill="#00005E"/>
</svg>
