<svg width="24" height="24" viewBox="0 0 24 24" fill="none" xmlns="http://www.w3.org/2000/svg">
<path fill-rule="evenodd" clip-rule="evenodd" d="M19.12 20.67C19.12 20.1177 18.6723 19.67 18.12 19.67C17.5677 19.67 17.12 20.1177 17.12 20.67C17.1201 21.3968 16.5367 21.9891 15.81 22H3.92C2.87668 22.0057 2.02183 21.1731 2 20.13V3.87003C2.02183 2.82692 2.87668 1.99434 3.92 2.00003H11.92V6.71003C11.9253 6.98394 12.1461 7.20471 12.42 7.21003H17.07V9.64003C17.07 10.1923 17.5177 10.64 18.07 10.64C18.6223 10.64 19.07 10.1923 19.07 9.64003V6.24003C19.0716 5.96931 18.9633 5.70953 18.77 5.52003L13.46 0.290027C13.2737 0.105283 13.0223 0.00113176 12.76 1.3534e-05H3.92C1.7722 -0.00557831 0.0219652 1.72233 0 3.87003V20.13C0.0219652 22.2777 1.7722 24.0056 3.92 24H15.81C16.6905 23.9974 17.5339 23.6451 18.1547 23.0206C18.7754 22.3961 19.1227 21.5505 19.12 20.67ZM13 2.60003L16.66 6.21003H13V2.60003ZM23.8663 11.6967C23.8715 11.2529 23.6944 10.8263 23.3763 10.5167L23.2963 10.4467C22.6646 9.85113 21.6781 9.85113 21.0463 10.4467L14.9463 16.3467C14.8881 16.4064 14.8438 16.4781 14.8163 16.5567L14.0263 18.9767C13.9744 19.1304 14.0002 19.2997 14.0956 19.4309C14.191 19.562 14.3441 19.6388 14.5063 19.6367C14.5559 19.6462 14.6068 19.6462 14.6563 19.6367L17.0163 18.8167C17.0867 18.794 17.1515 18.7565 17.2063 18.7067L23.3763 12.8167C23.6852 12.5256 23.8622 12.1212 23.8663 11.6967ZM22.7063 12.0967V12.0867L16.6063 17.9267L15.2863 18.3667L15.7363 16.9967L21.7363 11.1767C21.9784 10.9506 22.3542 10.9506 22.5963 11.1767L22.7063 11.2867C22.817 11.3924 22.8796 11.5387 22.8796 11.6917C22.8796 11.8447 22.817 11.9911 22.7063 12.0967ZM5 8.50001C5 8.77616 5.22386 9.00001 5.5 9.00001H9.5C9.77614 9.00001 10 8.77616 10 8.50001C10 8.22387 9.77614 8.00001 9.5 8.00001H5.5C5.22386 8.00001 5 8.22387 5 8.50001ZM13.5 12C13.7761 12 14 12.2239 14 12.5C14 12.7762 13.7761 13 13.5 13H5.5C5.22386 13 5 12.7762 5 12.5C5 12.2239 5.22386 12 5.5 12H13.5ZM10 16.5C10 16.2239 9.77614 16 9.5 16H5.5C5.22386 16 5 16.2239 5 16.5C5 16.7762 5.22386 17 5.5 17H9.5C9.77614 17 10 16.7762 10 16.5Z" fill="#00005E"/>
</svg>
