<svg width="32" height="32" viewBox="0 0 32 32" fill="none" xmlns="http://www.w3.org/2000/svg">
<path d="M5.29079 18.3C4.90306 17.91 4.90306 17.28 5.29079 16.89C5.68082 16.5023 6.31075 16.5023 6.70079 16.89L14.5708 24.76L14.5708 5C14.5708 4.44771 15.0185 4 15.5708 4C16.1231 4 16.5708 4.44771 16.5708 5L16.5708 24.76L24.4408 16.89C24.8375 16.5502 25.429 16.5731 25.7984 16.9424C26.1677 17.3118 26.1906 17.9032 25.8508 18.3L16.2808 27.88C16.093 28.0693 15.8374 28.1758 15.5708 28.1758C15.3041 28.1758 15.0486 28.0693 14.8608 27.88L5.29079 18.3Z" fill="#00005E"/>
</svg>
