<svg width="32" height="32" viewBox="0 0 32 32" fill="none" xmlns="http://www.w3.org/2000/svg">
<path d="M28 15C28.5523 15 29 15.4477 29 16C29 16.5523 28.5523 17 28 17H6.56L17.68 27.25C17.9702 27.4853 18.105 27.8629 18.0295 28.2288C17.954 28.5948 17.6808 28.8881 17.3211 28.9893C16.9614 29.0906 16.5753 28.9828 16.32 28.71L3.32 16.71C3.24897 16.6352 3.18842 16.5511 3.14 16.46C3.14 16.39 3.14 16.39 3.14 16.39C3.02869 16.135 3.02869 15.8451 3.14 15.59C3.14 15.57 3.14 15.52 3.14 15.52C3.18842 15.4289 3.24897 15.3448 3.32 15.27L16.32 3.27C16.5753 2.99717 16.9614 2.88944 17.3211 2.99068C17.6808 3.09192 17.954 3.38525 18.0295 3.75119C18.105 4.11714 17.9702 4.49466 17.68 4.73L6.56 15H28Z" fill="#00005E"/>
</svg>
