<svg width="32" height="32" viewBox="0 0 32 32" fill="none" xmlns="http://www.w3.org/2000/svg">
<path d="M14.2 28.8502C16.6901 28.8665 19.0904 27.9207 20.9 26.21L23.31 23.92C23.7104 23.5389 23.7261 22.9054 23.345 22.505C22.9639 22.1046 22.3304 22.0889 21.93 22.47L19.52 24.77C16.6899 27.3867 12.3729 27.5439 9.35999 25.14C8.12486 24.1581 7.34749 22.7118 7.20999 21.14C7.09094 19.5858 7.61928 18.0514 8.66999 16.9L8.99999 16.55L17.87 8.1C19.5599 6.51345 22.1786 6.47017 23.92 8C24.6608 8.66978 25.0975 9.61186 25.13 10.61C25.1653 11.612 24.7811 12.5832 24.07 13.29L24 13.36L15.23 21.91C14.4394 22.6563 13.2161 22.6949 12.38 22C12.0491 21.7255 11.8434 21.3287 11.81 20.9C11.7962 20.4477 11.9699 20.0098 12.29 19.69L18.67 13.43C18.9254 13.1799 19.0281 12.8125 18.9392 12.4663C18.8503 12.12 18.5835 11.8475 18.2392 11.7513C17.8949 11.6551 17.5254 11.7499 17.27 12L10.93 18.24L10.81 18.37C10.1419 19.0833 9.79836 20.0411 9.86086 21.0164C9.92336 21.9917 10.3863 22.8978 11.14 23.52C12.7595 24.8727 15.1373 24.7908 16.66 23.33L25.47 14.8L25.58 14.69C26.6739 13.5866 27.2632 12.0801 27.2083 10.5273C27.1533 8.97448 26.4591 7.5134 25.29 6.49C22.7707 4.27088 18.9771 4.33151 16.53 6.63L7.63999 15.11C7.48586 15.2525 7.33901 15.4027 7.19999 15.56C5.7676 17.11 5.04325 19.1853 5.19999 21.29C5.37053 23.4196 6.4126 25.3843 8.07999 26.72C9.81471 28.112 11.9759 28.8642 14.2 28.8502Z" fill="#00005E"/>
</svg>
