<svg width="32" height="32" viewBox="0 0 32 32" fill="none" xmlns="http://www.w3.org/2000/svg">
<path d="M17.8 23.6H9.2C7.4 23.6 6 25 6 26.8V29.2H21V26.8C21 25 19.5 23.6 17.8 23.6ZM19 27.2H8V26.8C8 26.1 8.5 25.6 9.2 25.6H17.8C18.5 25.6 19 26.1 19 26.8V27.2Z" fill="#00005E"/>
<path d="M28.4219 22.2L20.6219 14.4L21.9219 13.1C22.6219 12.4 22.7219 11.5 22.4219 10.7L23.0219 10.1L23.4219 10.5C23.6219 10.7 23.9219 10.8 24.1219 10.8C24.3219 10.8 24.6219 10.7 24.8219 10.5C25.2219 10.1 25.2219 9.5 24.8219 9.1L19.0219 3.3C18.6219 2.9 18.0219 2.9 17.6219 3.3C17.2219 3.7 17.2219 4.3 17.6219 4.7L18.2219 5.3L17.7219 5.8C16.9219 5.4 15.8219 5.6 15.2219 6.2L10.8219 10.5C10.1219 11.2 10.0219 12.3 10.4219 13.1L9.72191 13.8L9.12191 13.2C8.72191 12.8 8.12191 12.8 7.72191 13.2C7.32191 13.6 7.32191 14.2 7.72191 14.6L13.5219 20.4C13.7219 20.6 14.0219 20.7 14.2219 20.7C14.4219 20.7 14.7219 20.6 14.9219 20.4C15.3219 20 15.3219 19.4 14.9219 19L14.6219 18.7L15.3219 18C16.1219 18.3 17.0219 18.1 17.6219 17.5L19.1219 16L26.9219 23.8C27.1219 24 27.4219 24.1 27.6219 24.1C27.8219 24.1 28.1219 24 28.3219 23.8C28.8219 23.3 28.8219 22.6 28.4219 22.2ZM20.4219 9.9L18.4219 7.9L19.5219 6.8L21.5219 8.8L20.4219 9.9ZM12.5219 13.9L14.5219 15.9L13.3219 17.1L11.3219 15.1L12.5219 13.9ZM16.3219 16C16.2219 16.1 16.1219 16.2 15.9219 16L15.8219 15.9L12.4219 12.5L12.2219 12.3C12.2219 12.2725 12.2219 12 12.2219 11.9L16.5219 7.6C16.6219 7.5 16.7219 7.5 16.8219 7.6L17.0219 7.8L20.4219 11.2L20.5219 11.3C20.6219 11.4 20.6219 11.5 20.5219 11.6L16.3219 16Z" fill="#00005E"/>
</svg>
