<svg width="32" height="32" viewBox="0 0 32 32" fill="none" xmlns="http://www.w3.org/2000/svg">
<path fill-rule="evenodd" clip-rule="evenodd" d="M7.3967 4.00001C7.65607 3.99915 7.90001 4.09863 8.08275 4.26932L13.8429 5.91507C14.3884 5.35083 15.1532 5 16 5C17.6569 5 19 6.34315 19 8C19 8.09272 18.9958 8.18447 18.9876 8.27505L24.2144 10.0173C24.2739 10.0061 24.3348 10.0002 24.3967 10C24.7874 9.99871 25.1431 10.2251 25.3074 10.5796L28.9074 18.3503C28.984 18.5157 29.0139 18.6989 28.994 18.8801C28.7417 21.1716 26.8414 23 24.5 23C22.0391 23 20 20.929 20 18.4679C20 18.3249 20.0307 18.1836 20.0899 18.0535L22.9767 11.7129L18.1413 10.1011C17.8245 10.4239 17.4353 10.6754 17 10.8293L17 22H18.3768C19.6637 22 21 22.8442 21 24.3333V28H11V24.3333C11 22.8442 12.3363 22 13.6232 22H15L15 10.8293C13.8348 10.4175 13 9.30622 13 8C13 7.91821 13.0033 7.83718 13.0097 7.75705L9.28658 6.6933L11.9074 12.3503C11.984 12.5157 12.0139 12.6989 11.994 12.8801C11.7417 15.1716 9.84137 17 7.5 17C5.03912 17 3 14.929 3 12.4679C3 12.3249 3.03065 12.1836 3.08989 12.0535L6.48989 4.58564C6.65179 4.23004 7.00597 4.0013 7.3967 4.00001ZM7.40791 7.39598L5.08414 12.5H9.77251L7.40791 7.39598ZM7.5 15C6.51683 15 5.62973 14.3756 5.22761 13.5H9.774C9.36 14.3979 8.47798 15 7.5 15ZM13.0985 24.1537C13.018 24.2198 13 24.2789 13 24.3333V26H19V24.3333C19 24.2789 18.982 24.2198 18.9015 24.1537C18.8127 24.0808 18.6395 24 18.3768 24H13.6232C13.3605 24 13.1873 24.0808 13.0985 24.1537ZM15 8C15 7.44772 15.4477 7 16 7C16.5523 7 17 7.44771 17 8C17 8.55229 16.5523 9 16 9C15.4477 9 15 8.55228 15 8ZM22.0841 18.5L24.4079 13.396L26.7725 18.5H22.0841ZM22.2276 19.5C22.6297 20.3756 23.5168 21 24.5 21C25.478 21 26.36 20.3979 26.774 19.5H22.2276Z" fill="#00005E"/>
</svg>
