<svg width="32" height="32" viewBox="0 0 32 32" fill="none" xmlns="http://www.w3.org/2000/svg">
<path fill-rule="evenodd" clip-rule="evenodd" d="M25.83 7C27.0285 7 28 7.97154 28 9.17V22.83C28 24.0285 27.0285 25 25.83 25H6.17C4.97154 25 4 24.0285 4 22.83V9.17C4 7.97154 4.97154 7 6.17 7H25.83ZM26 9.17C25.995 9.07825 25.9218 9.00497 25.83 9H6.17C6.07825 9.00497 6.00497 9.07825 6 9.17V22.83C6.00497 22.9218 6.07825 22.995 6.17 23H25.83C25.9218 22.995 25.995 22.9218 26 22.83V9.17ZM17 13.5C17 13.7761 17.2239 14 17.5 14H21.5C21.7761 14 22 13.7761 22 13.5C22 13.2239 21.7761 13 21.5 13H17.5C17.2239 13 17 13.2239 17 13.5ZM23.5 16C23.7761 16 24 16.2239 24 16.5C24 16.7761 23.7761 17 23.5 17H17.5C17.2239 17 17 16.7761 17 16.5C17 16.2239 17.2239 16 17.5 16H23.5ZM21 19.5C21 19.2239 20.7761 19 20.5 19H17.5C17.2239 19 17 19.2239 17 19.5C17 19.7761 17.2239 20 17.5 20H20.5C20.7761 20 21 19.7761 21 19.5ZM14.67 17.1C14.2623 16.4221 13.5311 16.0053 12.74 16H9.42C8.61723 15.9934 7.86522 16.392 7.42 17.06C7.03493 17.6288 6.91801 18.3376 7.1 19L7.31 19.7C7.72683 21.0637 8.98398 21.9965 10.41 22H11.58C12.9851 21.9947 14.2277 21.087 14.66 19.75L14.87 19.1C15.0964 18.4359 15.0235 17.7061 14.67 17.1ZM13.83 17.62C14.0253 17.9799 14.0545 18.4069 13.91 18.79L13.7 19.44C13.4083 20.3661 12.5509 20.997 11.58 21H10.41C9.42074 21.0004 8.54948 20.349 8.27 19.4L8.06 18.71C7.94244 18.3328 7.99733 17.923 8.21 17.59C8.48975 17.2039 8.94353 16.9827 9.42 17H12.74C13.1871 17.0004 13.6011 17.2359 13.83 17.62ZM11 15C9.89543 15 9 14.1046 9 13C9 11.8954 9.89543 11 11 11C12.1046 11 13 11.8954 13 13C13 14.1046 12.1046 15 11 15ZM11 12C10.4477 12 10 12.4477 10 13C10 13.5523 10.4477 14 11 14C11.5523 14 12 13.5523 12 13C12 12.4477 11.5523 12 11 12Z" fill="#00005E"/>
</svg>
