<svg width="24" height="24" viewBox="0 0 24 24" fill="none" xmlns="http://www.w3.org/2000/svg">
<g clip-path="url(#clip0_16202_30682)">
<path d="M22.64 9.6601V8.6601H22.87C23.1319 8.67047 23.3891 8.5878 23.5959 8.42673C23.8027 8.26566 23.9459 8.0366 24 7.7801C24.059 7.52955 24.0283 7.26625 23.9132 7.03602C23.798 6.80579 23.6058 6.62323 23.37 6.5201L12.57 1.5201C12.4226 1.4462 12.2599 1.40771 12.095 1.40771C11.9301 1.40771 11.7674 1.4462 11.62 1.5201L0.82 6.5201C0.579867 6.61961 0.382273 6.80024 0.261661 7.03049C0.14105 7.26075 0.105072 7.52604 0.16 7.7801C0.209454 7.99916 0.32362 8.1983 0.487677 8.35165C0.651734 8.50501 0.858106 8.60551 1.08 8.6401V9.6401C1.08359 9.8412 1.13768 10.0382 1.23728 10.2129C1.33688 10.3876 1.4788 10.5345 1.65 10.6401V20.2001C1.64508 20.2399 1.64508 20.2803 1.65 20.3201H1.12C0.97292 20.3201 0.827279 20.3491 0.691395 20.4054C0.55551 20.4616 0.432042 20.5441 0.32804 20.6481C0.224039 20.7521 0.14154 20.8756 0.0852549 21.0115C0.0289697 21.1474 0 21.293 0 21.4401C0 21.5872 0.0289697 21.7328 0.0852549 21.8687C0.14154 22.0046 0.224039 22.1281 0.32804 22.2321C0.432042 22.3361 0.55551 22.4186 0.691395 22.4748C0.827279 22.5311 0.97292 22.5601 1.12 22.5601H22.75C23.047 22.5601 23.3319 22.4421 23.542 22.2321C23.752 22.022 23.87 21.7371 23.87 21.4401C23.87 21.1431 23.752 20.8582 23.542 20.6481C23.3319 20.4381 23.047 20.3201 22.75 20.3201H22.13V10.6401C22.2873 10.5296 22.4157 10.3828 22.5045 10.2123C22.5932 10.0417 22.6397 9.85236 22.64 9.6601ZM12.06 3.7501L17.79 6.4101H6.34L12.06 3.7501ZM3.9 20.3701H2.78V10.8701H3.9V20.3701ZM3.9 9.7501H2.78V8.6501H3.9V9.7501ZM10.37 20.3701H5C5.00492 20.3303 5.00492 20.2899 5 20.2501V10.6901C5.16818 10.5813 5.30775 10.4336 5.40695 10.2596C5.50615 10.0856 5.56207 9.89026 5.57 9.6901V8.6901H9.88V9.6901C9.87563 9.88384 9.91785 10.0758 10.0031 10.2498C10.0884 10.4238 10.2142 10.5748 10.37 10.6901V20.3701ZM12.78 20.3101H11.5V10.8701H12.78V20.3101ZM12.78 9.7501H11.5V8.6501H12.78V9.7501ZM18.64 20.3701H13.9V10.6301C14.057 10.516 14.1838 10.3653 14.2692 10.191C14.3546 10.0167 14.3961 9.82411 14.39 9.6301V8.6301H18.13V9.6301C18.1253 9.82603 18.1694 10.02 18.2585 10.1946C18.3475 10.3692 18.4786 10.5189 18.64 10.6301V20.3701ZM21 20.3101H19.76V10.8701H21V20.3101ZM21 9.7501H19.76V8.6501H21V9.7501Z" fill="#00005E"/>
</g>
<defs>
<clipPath id="clip0_16202_30682">
<rect width="24" height="24" fill="white"/>
</clipPath>
</defs>
</svg>
