<svg width="32" height="32" viewBox="0 0 32 32" fill="none" xmlns="http://www.w3.org/2000/svg">
<path fill-rule="evenodd" clip-rule="evenodd" d="M8 13V15H6V6C6 5.44772 6.44772 5 7 5C7.55228 5 8 5.44772 8 6V13ZM11 7V15H12V7H11ZM17 15V13V6C17 5.44772 16.5523 5 16 5C15.4477 5 15 5.44772 15 6V15H17ZM20 7V15H21V7H20ZM26 15V13V6C26 5.44772 25.5523 5 25 5C24.4477 5 24 5.44772 24 6V15H26ZM8 19V27C8 27.5523 7.55228 28 7 28C6.44772 28 6 27.5523 6 27V19H8ZM11 22V19H12V22H11ZM15 21V19H17V23C17 23.5523 16.5523 24 16 24C15.4477 24 15 23.5523 15 23V21ZM20 22V19H21V22H20ZM26 27C26 27.5523 25.5523 28 25 28C24.4477 28 24 27.5523 24 27V19H26V27ZM28 17C28 16.4477 27.5523 16 27 16H5C4.44772 16 4 16.4477 4 17C4 17.5523 4.44772 18 5 18H27C27.5523 18 28 17.5523 28 17Z" fill="#00005E"/>
</svg>
