<svg width="32" height="32" viewBox="0 0 32 32" fill="none" xmlns="http://www.w3.org/2000/svg">
<path fill-rule="evenodd" clip-rule="evenodd" d="M23.7781 22.1837V13.8997C23.7781 13.8961 23.7792 13.8927 23.7802 13.8895C23.7812 13.8865 23.7821 13.8836 23.7821 13.8807L15.9301 6.38669L7.76311 14.2777C7.76403 14.2897 7.7673 14.3009 7.77056 14.312C7.77435 14.3249 7.77811 14.3377 7.77811 14.3517V22.1837C7.77811 24.4817 9.64811 26.3517 11.9461 26.3517H19.6101C21.9081 26.3517 23.7781 24.4817 23.7781 22.1837ZM16.6171 4.27669L28.6901 15.7997C29.0901 16.1817 29.1041 16.8147 28.7231 17.2137C28.5271 17.4207 28.2631 17.5237 28.0001 17.5237C27.7521 17.5237 27.5031 17.4317 27.3091 17.2477L25.7781 15.7857V22.1837C25.7781 25.5857 23.0111 28.3517 19.6101 28.3517H11.9461C8.54511 28.3517 5.77811 25.5857 5.77811 22.1837V16.1957L4.69511 17.2427C4.29911 17.6277 3.66411 17.6147 3.28111 17.2187C2.89711 16.8217 2.90811 16.1887 3.30411 15.8047L15.2311 4.28169C15.6191 3.90869 16.2291 3.90569 16.6171 4.27669ZM16.0252 12.1409C16.8462 12.1409 17.5142 12.8089 17.5142 13.6309C17.5142 14.4519 16.8462 15.1199 16.0252 15.1199C15.2042 15.1199 14.5362 14.4519 14.5362 13.6309C14.5362 12.8089 15.2042 12.1409 16.0252 12.1409ZM13.5362 13.6309C13.5362 15.0049 14.6502 16.1199 16.0252 16.1199C17.4002 16.1199 18.5142 15.0049 18.5142 13.6309C18.5142 12.2559 17.4002 11.1409 16.0252 11.1409C14.6502 11.1409 13.5362 12.2559 13.5362 13.6309ZM19.6013 20.095C19.6083 20.339 19.5353 20.618 19.3823 20.924L18.8513 21.986C18.4303 22.828 17.5923 23.352 16.6643 23.352H15.3843C14.4563 23.352 13.6193 22.828 13.1983 21.986L12.6673 20.924C12.5153 20.618 12.4423 20.339 12.4493 20.095C12.4763 19.134 13.2683 18.352 14.2123 18.352H17.8373C18.7823 18.352 19.5733 19.134 19.6013 20.095ZM14.2123 17.352C12.6703 17.352 11.4923 18.608 11.4493 20.066C11.4363 20.519 11.5703 20.965 11.7733 21.37L12.3033 22.432C12.8913 23.61 14.0823 24.352 15.3843 24.352H16.6643C17.9673 24.352 19.1583 23.61 19.7473 22.432L20.2773 21.37C20.4793 20.965 20.6143 20.519 20.6003 20.066C20.5583 18.608 19.3793 17.352 17.8373 17.352H14.2123Z" fill="#00005E"/>
</svg>
