<svg width="32" height="32" viewBox="0 0 32 32" fill="none" xmlns="http://www.w3.org/2000/svg">
<path fill-rule="evenodd" clip-rule="evenodd" d="M24.2187 14.8237C23.7105 14.3042 23.0167 14.0079 22.29 14H21V6.89C21 4.18933 18.8107 2 16.11 2H15.89C13.1893 2 11 4.18933 11 6.89V14H9.70001C8.97596 14.0079 8.28471 14.3032 7.77835 14.8208C7.27199 15.3384 6.99201 16.0359 7.00001 16.76V21.62C6.976 23.5535 7.72111 25.4173 9.0714 26.8013C10.4217 28.1854 12.2665 28.9763 14.2 29H17.8C19.7335 28.9763 21.5783 28.1854 22.9286 26.8013C24.2789 25.4173 25.024 23.5535 25 21.62V16.77C25.008 16.0433 24.727 15.3432 24.2187 14.8237ZM13 14V6.89C13 5.2939 14.2939 4 15.89 4H16.11C17.7061 4 19 5.2939 19 6.89V14H13ZM23 21.62V16.77C23.0114 16.3632 22.6964 16.0215 22.29 16H9.70001C9.50635 16.0078 9.32373 16.0923 9.19242 16.2349C9.06112 16.3774 8.99189 16.5663 9.00001 16.76V21.62C8.95543 24.5396 11.2806 26.9452 14.2 27H17.8C19.2031 26.9763 20.5392 26.3962 21.5145 25.3872C22.4897 24.3782 23.0241 23.0231 23 21.62ZM16 18C17.3807 17.8619 18.6119 18.8693 18.75 20.25C18.8881 21.6307 17.8807 22.8619 16.5 23V24.5C16.5 24.7761 16.2762 25 16 25C15.7239 25 15.5 24.7761 15.5 24.5V23C14.1193 22.8619 13.1119 21.6307 13.25 20.25C13.3881 18.8693 14.6193 17.8619 16 18ZM16 22C16.8284 22 17.5 21.3284 17.5 20.5C17.5 19.6716 16.8284 19 16 19C15.1716 19 14.5 19.6716 14.5 20.5C14.5 21.3284 15.1716 22 16 22Z" fill="#00005E"/>
</svg>
