<svg width="32" height="32" viewBox="0 0 32 32" fill="none" xmlns="http://www.w3.org/2000/svg">
<path fill-rule="evenodd" clip-rule="evenodd" d="M16 4C22.6274 4 28 9.37258 28 16C28 22.6274 22.6274 28 16 28C9.37258 28 4 22.6274 4 16C4 9.37258 9.37258 4 16 4ZM6 16C6.01214 18.289 6.81395 20.5037 8.27 22.27L22.27 8.22C19.2727 5.80759 15.1571 5.32875 11.686 6.98856C8.21491 8.64838 6.00392 12.1525 6 16ZM25.0417 20.2497C23.3957 23.7557 19.8732 25.996 16 26C13.6691 25.9971 11.4125 25.18 9.62 23.69L23.69 9.62C26.1611 12.6025 26.6877 16.7437 25.0417 20.2497Z" fill="#00005E"/>
</svg>
