<svg width="32" height="32" viewBox="0 0 32 32" fill="none" xmlns="http://www.w3.org/2000/svg">
<path fill-rule="evenodd" clip-rule="evenodd" d="M27 23C27.5523 23 28 23.4477 28 24C28 26.0003 26.7235 27.7776 24.8279 28.4163C22.9323 29.0549 20.8405 28.4125 19.63 26.82C18.7682 27.9689 17.4209 28.6516 15.9848 28.6673C14.5486 28.683 13.1868 28.0298 12.3 26.9C11.0709 28.4573 8.98911 29.0632 7.11623 28.4088C5.24334 27.7545 3.9919 25.9839 4 24C4 23.4477 4.44776 23 5.00004 23C5.55233 23 6.00004 23.4477 6.00004 24C6.00577 25.2965 6.94207 26.4015 8.22004 26.62L6.00004 18.23C5.87128 17.7606 6.09926 17.2666 6.54004 17.06L10 15.44V10C10 9.44772 10.4478 9 11 9H13V6C13 5.44772 13.4478 5 14 5H15.5V3C15.5 2.72386 15.7239 2.5 16 2.5C16.2762 2.5 16.5 2.72386 16.5 3V5H18C18.5523 5 19 5.44772 19 6V9H20.93C21.4823 9 21.93 9.44772 21.93 10V15.44L25.45 17.06C25.8947 17.2631 26.1273 17.758 26 18.23L23.79 26.62C25.064 26.3972 25.9952 25.2933 26 24C26 23.4477 26.4478 23 27 23ZM15 7V10H17V7H15ZM12.06 11H12.91H19.96V15.74L16.21 14C16.0745 13.9503 15.9256 13.9503 15.79 14L12.06 15.7V11ZM13.32 24.38H13.3C13.4574 25.5147 14.3236 26.4212 15.45 26.63C15.4409 26.5872 15.4409 26.5428 15.45 26.5V15.28L8.11004 18.61L10.11 26.21C10.7257 25.7845 11.1354 25.121 11.24 24.38V24C11.24 23.4477 11.6878 23 12.24 23H12.32C12.8723 23 13.32 23.4477 13.32 24V24.38ZM21.82 26.21C21.0903 25.7117 20.6556 24.8836 20.66 24C20.66 23.4477 20.2123 23 19.66 23H19.6C19.0478 23 18.6 23.4477 18.6 24C18.6026 25.263 17.7167 26.3536 16.48 26.61C16.4857 26.5735 16.4857 26.5364 16.48 26.5V15.28L23.82 18.62L21.82 26.21Z" fill="#00005E"/>
</svg>
