<svg width="32" height="32" viewBox="0 0 32 32" fill="none" xmlns="http://www.w3.org/2000/svg">
<path fill-rule="evenodd" clip-rule="evenodd" d="M27.3722 7.6491C26.9649 7.23623 26.41 7.00264 25.8301 7H6.17006C5.59014 7.00264 5.03517 7.23623 4.62793 7.6491C4.22068 8.06198 3.99473 8.6201 3.99997 9.2V22.8C3.99473 23.3799 4.22068 23.938 4.62793 24.3509C5.03517 24.7638 5.59014 24.9974 6.17006 25H25.8301C26.41 24.9974 26.9649 24.7638 27.3722 24.3509C27.7794 23.938 28.0054 23.3799 28.0002 22.8V9.2C28.0054 8.6201 27.7794 8.06198 27.3722 7.6491ZM26.0001 22.8C26.006 22.9014 25.9311 22.9895 25.8301 23H6.17006C6.06905 22.9895 5.99417 22.9014 6.00006 22.8V9.2C5.99417 9.09861 6.06905 9.01052 6.17006 9H25.8301C25.9311 9.01052 26.006 9.09861 26.0001 9.2V22.8ZM15.94 16.21L14.9 15.25C14.8298 15.1776 14.7904 15.0808 14.79 14.98V13.58C14.7847 13.3779 14.6221 13.2153 14.42 13.21H13C12.8991 13.2096 12.8024 13.1702 12.73 13.1L11.73 12.1C11.6621 12.0291 11.5681 11.989 11.47 11.989C11.3718 11.989 11.2779 12.0291 11.21 12.1L10.21 13.1C10.1376 13.1702 10.0408 13.2096 9.93997 13.21H8.57997C8.37784 13.2153 8.21522 13.3779 8.20997 13.58V15C8.20959 15.1008 8.17016 15.1976 8.09997 15.27L7.09997 16.27C7.02906 16.3379 6.98897 16.4318 6.98897 16.53C6.98897 16.6282 7.02906 16.7221 7.09997 16.79L8.09997 17.79C8.17016 17.8624 8.20959 17.9592 8.20997 18.06V19.46C8.21522 19.6621 8.37784 19.8247 8.57997 19.83H9.99997C10.1008 19.8304 10.1976 19.8698 10.27 19.94L11.27 20.94C11.3379 21.0109 11.4318 21.051 11.53 21.051C11.6281 21.051 11.7221 21.0109 11.79 20.94L12.79 19.94C12.8624 19.8698 12.9591 19.8304 13.06 19.83H14.46C14.6621 19.8247 14.8247 19.6621 14.83 19.46V18C14.8304 17.8992 14.8698 17.8024 14.94 17.73L15.94 16.73C16.0109 16.6621 16.051 16.5682 16.051 16.47C16.051 16.3718 16.0109 16.2779 15.94 16.21ZM14.82 16.55L14.19 17.05C13.9237 17.3134 13.7788 17.6756 13.79 18.05V18.82H13C12.6256 18.8088 12.2634 18.9537 12 19.22L11.45 19.77L11 19.19C10.7366 18.9237 10.3744 18.7788 9.99997 18.79H9.20997V18C9.22113 17.6256 9.07625 17.2634 8.80997 17L8.25997 16.45L8.80997 16C9.07625 15.7366 9.22113 15.3744 9.20997 15V14.23H9.99997C10.3744 14.2412 10.7366 14.0963 11 13.83L11.55 13.28L12.1 13.83C12.3634 14.0963 12.7256 14.2412 13.1 14.23H13.87V15C13.8588 15.3744 14.0037 15.7366 14.27 16L14.82 16.55ZM17.5 13C17.5 13.2761 17.7238 13.5 18 13.5H21C21.2761 13.5 21.5 13.2761 21.5 13C21.5 12.7239 21.2761 12.5 21 12.5H18C17.7238 12.5 17.5 12.7239 17.5 13ZM24 15.5C24.2761 15.5 24.5 15.7239 24.5 16C24.5 16.2761 24.2761 16.5 24 16.5H18C17.7238 16.5 17.5 16.2761 17.5 16C17.5 15.7239 17.7238 15.5 18 15.5H24ZM21.5 19C21.5 18.7239 21.2761 18.5 21 18.5H18C17.7238 18.5 17.5 18.7239 17.5 19C17.5 19.2761 17.7238 19.5 18 19.5H21C21.2761 19.5 21.5 19.2761 21.5 19Z" fill="#00005E"/>
</svg>
