<svg width="32" height="32" viewBox="0 0 32 32" fill="none" xmlns="http://www.w3.org/2000/svg">
<path fill-rule="evenodd" clip-rule="evenodd" d="M28.91 24.92C29.0758 25.4155 29.0324 25.9572 28.79 26.42C28.5444 26.9001 28.1153 27.2607 27.6 27.42L26.5 27.75C26.3121 27.8084 26.1167 27.8387 25.92 27.84C25.0366 27.8426 24.2562 27.2654 24 26.42L21 16.72V26C21 27.1046 20.1046 28 19 28H12C11.6478 27.9963 11.3029 27.8998 11 27.72C10.6971 27.8998 10.3522 27.9963 10 28H7C5.89543 28 5 27.1046 5 26V11C5 9.89543 5.89543 9 7 9H10V6C10 4.89543 10.8954 4 12 4H19C20.1046 4 21 4.89543 21 6V9.25L21.93 9C22.976 8.67222 24.091 9.24754 24.43 10.29L28.91 24.92ZM7 26H10V11H7V26ZM19 26H12V6H19V26ZM27 25.5L22.52 10.88L21.41 11.21L25.88 25.83L27 25.5ZM16 7.5C16 7.22386 15.7761 7 15.5 7C15.2239 7 15 7.22386 15 7.5V22.5C15 22.7761 15.2239 23 15.5 23C15.7761 23 16 22.7761 16 22.5V7.5Z" fill="#00005E"/>
</svg>
