<svg width="32" height="32" viewBox="0 0 32 32" fill="none" xmlns="http://www.w3.org/2000/svg">
<path fill-rule="evenodd" clip-rule="evenodd" d="M20 4C20.5128 4 20.9355 4.38604 20.9933 4.88338L21 5V7H22.5209C24.3849 7 25.9074 8.46482 26.0068 10.307L26.012 10.4988V12.1765C26.012 12.7288 25.5642 13.1765 25.012 13.1765C24.4991 13.1765 24.0765 12.7904 24.0187 12.2931L24.012 12.1765V10.4988C24.012 9.71948 23.4196 9.07946 22.6643 9.00686L22.5209 9H21V10C21 10.5523 20.5523 11 20 11C19.4872 11 19.0645 10.614 19.0067 10.1166L19 10V9H12V10C12 10.5523 11.5523 11 11 11C10.4872 11 10.0645 10.614 10.0067 10.1166L9.99999 10V9H8.49885C7.76214 9 7.14941 9.53932 7.03219 10.2475V14.9553C7.03219 19.4673 9.64372 23.3356 13.3654 25H19.7342C20.2865 25 20.7342 25.4477 20.7342 26C20.7342 26.5128 20.3481 26.9355 19.8508 26.9933L19.7342 27H8.50202C6.63873 27 5.11654 25.535 5.01713 23.693L5.01196 23.5012V10.4946C5.01196 8.62977 6.47029 7.10477 8.30749 7.00517L8.49885 7H9.99999V5C9.99999 4.44772 10.4477 4 11 4C11.5128 4 11.9355 4.38604 11.9933 4.88338L12 5V7H19V5C19 4.44772 19.4477 4 20 4ZM7.01196 19.7915V23.5012C7.01196 24.2804 7.60422 24.9205 8.35875 24.9931L8.50202 25H11.3047C9.42739 23.7463 7.92534 21.9353 7.01196 19.7915ZM25 15.6505C25.5128 15.6505 25.9355 16.0365 25.9933 16.5338L26 16.6505V20H29.6881C30.2404 20 30.6881 20.4477 30.6881 21C30.6881 21.5128 30.3021 21.9355 29.8047 21.9933L29.6881 22H26V26C26 26.5523 25.5523 27 25 27C24.4872 27 24.0645 26.614 24.0067 26.1166L24 26V22H19.9007C19.3484 22 18.9007 21.5523 18.9007 21C18.9007 20.4872 19.2867 20.0645 19.7841 20.0067L19.9007 20H24V16.6505C24 16.0982 24.4477 15.6505 25 15.6505Z" fill="#00005E"/>
</svg>
