<svg width="32" height="32" viewBox="0 0 32 32" fill="none" xmlns="http://www.w3.org/2000/svg">
<path fill-rule="evenodd" clip-rule="evenodd" d="M26.04 27.1101L26.09 10.5501C26.089 10.3328 26.0028 10.1245 25.85 9.97006L25.18 9.30006C24.131 8.20785 24.0213 6.51886 24.92 5.30006C25.1141 5.05777 25.1505 4.72507 25.0134 4.44656C24.8763 4.16804 24.5904 3.99399 24.28 3.9999H8.64001C7.6246 4.04139 6.66805 4.48773 5.98407 5.23936C5.30009 5.99098 4.94568 6.98526 5.00001 8.00006V8.14006V24.5301C4.91508 26.3569 6.32351 27.9084 8.15001 28.0001H25.15C25.386 28.0001 25.6124 27.9063 25.7793 27.7394C25.9462 27.5725 26.04 27.3461 26.04 27.1101ZM7.46001 6.58005V6.55006C7.7863 6.21863 8.22545 6.02226 8.69001 6.00006H22.44C22.3236 6.49099 22.2864 6.99739 22.33 7.50006H10.5C10.2239 7.50006 10 7.72391 10 8.00006C10 8.2762 10.2239 8.50006 10.5 8.50006H22.5C22.6744 9.15698 22.9844 9.77013 23.41 10.3001H9.00001C8.16128 10.2867 7.39571 9.81969 7.00001 9.08006V8.08006C7.00498 8.02684 7.00498 7.97327 7.00001 7.92005V7.87006C6.97846 7.3964 7.14363 6.93321 7.46001 6.58005ZM7.00001 24.6201C6.95701 25.305 7.44999 25.9071 8.13001 26.0001V11.1901C7.71972 11.0757 7.33582 10.882 7.00001 10.6201V24.6201ZM24 26.0001H9.13001V11.3001H24.08L24 26.0001Z" fill="#00005E"/>
</svg>
