<svg width="32" height="32" viewBox="0 0 32 32" fill="none" xmlns="http://www.w3.org/2000/svg">
<path fill-rule="evenodd" clip-rule="evenodd" d="M13.7878 22.1617C13.2847 21.9461 12.7153 21.9461 12.2122 22.1617L8 23.9669V10C8 8.89543 8.89543 8 10 8H18.4653C18.4261 8.11601 18.3893 8.23287 18.3549 8.35052C18.1269 8.85344 18 9.4119 18 10V10.8284V19V23.9669L13.7878 22.1617ZM20 19V25.4835C20 26.2014 19.2659 26.6854 18.6061 26.4026L13 24L7.39392 26.4026C6.73405 26.6854 6 26.2014 6 25.4835V10C6 7.79086 7.79086 6 10 6H22C24.2091 6 26 7.79086 26 10V19H20ZM20 17H24V10C24 8.89543 23.1046 8 22 8C21.2333 8 20.5673 8.43145 20.2317 9.06481C20.0791 9.63523 20 10.2277 20 10.8284V17Z" fill="#00005E"/>
</svg>
