<svg width="32" height="32" viewBox="0 0 32 32" fill="none" xmlns="http://www.w3.org/2000/svg">
<path fill-rule="evenodd" clip-rule="evenodd" d="M26.15 16H26.19C27.1446 15.9403 28.0534 16.4158 28.5487 17.234C29.0441 18.0522 29.0441 19.0778 28.5487 19.896C28.0534 20.7142 27.1446 21.1896 26.19 21.13C25.962 21.1137 25.7547 20.9916 25.63 20.8C24.3927 25.0158 20.5484 27.9302 16.155 27.983C11.7616 28.0359 7.84842 25.2149 6.51001 21.03C6.41787 21.0913 6.31058 21.1259 6.20001 21.13C5.2454 21.1896 4.33665 20.7142 3.84129 19.896C3.34593 19.0778 3.34593 18.0522 3.84129 17.234C4.33665 16.4158 5.2454 15.9403 6.20001 16C6.58918 14.1649 7.48268 12.4749 8.78001 11.12L5.78001 6.83997C4.96733 7.18417 4.02511 6.95499 3.4613 6.27599C2.8975 5.59698 2.84541 4.62869 3.33312 3.89312C3.82084 3.15756 4.73304 2.82863 5.57795 3.08366C6.42286 3.3387 7.00073 4.11741 7 4.99997C6.99577 5.44304 6.84453 5.87216 6.57001 6.21997L9.52001 10.43C13.2622 7.22909 18.7778 7.22909 22.52 10.43L25.43 6.21997C25.1555 5.87216 25.0042 5.44304 25 4.99997C24.9894 4.11841 25.5573 3.33387 26.398 3.06856C27.2388 2.80326 28.1541 3.11979 28.6514 3.84779C29.1486 4.57579 29.1105 5.54354 28.5576 6.23022C28.0047 6.9169 27.0673 7.16052 26.25 6.82997L23.25 11.11C24.5672 12.4966 25.4591 14.2318 25.82 16.11C25.918 16.044 26.0321 16.006 26.15 16ZM27 3.99997C26.4477 3.99997 26 4.44769 26 4.99997C26 5.55225 26.4477 5.99997 27 5.99997C27.5523 5.99997 28 5.55225 28 4.99997C28 4.44769 27.5523 3.99997 27 3.99997ZM5.00001 5.99997C4.44772 5.99997 4.00001 5.55225 4.00001 4.99997C4.00001 4.44769 4.44772 3.99997 5.00001 3.99997C5.55229 3.99997 6.00001 4.44769 6.00001 4.99997C6.00001 5.55225 5.55229 5.99997 5.00001 5.99997ZM6.00001 20.12C6.07494 19.9724 6.12559 19.8137 6.15001 19.65C6.0539 19.1018 6.00373 18.5465 6.00001 17.99V17.13C6.00728 17.0869 6.00728 17.043 6.00001 17C5.13844 17 4.44001 17.6984 4.44001 18.56C4.44001 19.4215 5.13844 20.12 6.00001 20.12ZM21.6569 23.6568C20.1566 25.1571 18.1217 26 16 26C11.5817 26 8.00001 22.4182 8.00001 18C8.00001 13.5817 11.5817 9.99997 16 9.99997C20.4183 9.99997 24 13.5817 24 18C24 20.1217 23.1572 22.1565 21.6569 23.6568ZM26.32 20.12C27.1306 20.0549 27.7552 19.3781 27.7552 18.565C27.7552 17.7518 27.1306 17.075 26.32 17.01C25.9702 18.0171 25.9702 19.1128 26.32 20.12ZM13 17.5C13.5523 17.5 14 17.0523 14 16.5C14 15.9477 13.5523 15.5 13 15.5C12.4477 15.5 12 15.9477 12 16.5C12 17.0523 12.4477 17.5 13 17.5ZM20 16.5C20 17.0523 19.5523 17.5 19 17.5C18.4477 17.5 18 17.0523 18 16.5C18 15.9477 18.4477 15.5 19 15.5C19.5523 15.5 20 15.9477 20 16.5ZM19.5 13.5C21.1569 13.5 22.5 14.8431 22.5 16.5C22.5 18.1568 21.1569 19.5 19.5 19.5H12.5C10.8432 19.5 9.50001 18.1568 9.50001 16.5C9.50001 14.8431 10.8432 13.5 12.5 13.5H19.5ZM19.5 18.5C20.6046 18.5 21.5 17.6045 21.5 16.5C21.5 15.3954 20.6046 14.5 19.5 14.5H12.5C11.3954 14.5 10.5 15.3954 10.5 16.5C10.5 17.6045 11.3954 18.5 12.5 18.5H19.5Z" fill="#00005E"/>
</svg>
