<svg width="32" height="32" viewBox="0 0 32 32" fill="none" xmlns="http://www.w3.org/2000/svg">
<path fill-rule="evenodd" clip-rule="evenodd" d="M19.2337 24.0072L27.7057 15.5342C28.0967 15.1432 28.0967 14.5112 27.7057 14.1202L17.8787 4.29319C17.4877 3.90219 16.8557 3.90219 16.4647 4.29319L7.99169 12.7652C6.64169 14.1162 6.64169 16.3132 7.99169 17.6642L9.02969 18.7022L4.88269 22.8482C3.70569 24.0252 3.70569 25.9392 4.88269 27.1162C5.47069 27.7052 6.24369 27.9992 7.01669 27.9992C7.78869 27.9992 8.56269 27.7042 9.14969 27.1162L13.2967 22.9692L14.3347 24.0072C15.6847 25.3582 17.8837 25.3582 19.2337 24.0072ZM19.2957 21.1162L25.5847 14.8272L24.8387 14.0812L23.0337 15.8862C22.9367 15.9832 22.8087 16.0322 22.6807 16.0322C22.5527 16.0322 22.4247 15.9832 22.3267 15.8862C22.1317 15.6902 22.1317 15.3742 22.3267 15.1792L24.1317 13.3742L23.1497 12.3922L19.4937 16.0482C19.3967 16.1452 19.2687 16.1942 19.1407 16.1942C19.0127 16.1942 18.8847 16.1452 18.7867 16.0482C18.5917 15.8522 18.5917 15.5362 18.7867 15.3412L22.4417 11.6852L17.1717 6.41419L10.8837 12.7032L19.2957 21.1162ZM15.7487 22.5932C16.3187 23.1632 17.2487 23.1632 17.8187 22.5932L18.5887 21.8232L10.1767 13.4102L9.40569 14.1792C8.83569 14.7512 8.83569 15.6792 9.40569 16.2502L11.1507 17.9952C11.3387 18.1822 11.4437 18.4362 11.4437 18.7022C11.4437 18.9682 11.3387 19.2212 11.1507 19.4092L6.29669 24.2622C5.89969 24.6592 5.89969 25.3052 6.29669 25.7022C6.69269 26.0982 7.33969 26.0982 7.73569 25.7022L12.5897 20.8472C12.9647 20.4722 13.6287 20.4722 14.0037 20.8472L15.7487 22.5932Z" fill="#00005E"/>
</svg>
