<svg width="32" height="32" viewBox="0 0 32 32" fill="none" xmlns="http://www.w3.org/2000/svg">
<path fill-rule="evenodd" clip-rule="evenodd" d="M19.114 7.67496C19.0085 5.63107 17.2884 4 15.1901 4H15.0061L14.8042 4.00505C12.7317 4.10901 11.0781 5.80475 11.0781 7.874V9H8.59908L8.43916 9.00633C7.48884 9.08184 6.71339 9.82453 6.61108 10.788L5.01108 25.788L5.00024 25.976C4.99476 26.4762 5.1753 26.9619 5.51308 27.337L5.64523 27.4709C6.01263 27.8096 6.49619 28 7.00108 28H14.5001C15.0524 28 15.5001 27.5523 15.5001 27C15.5001 26.4477 15.0524 26 14.5001 26H7.00108L8.59908 11H11.0781V13.892L11.0848 14.0086C11.1425 14.5057 11.5646 14.892 12.0781 14.892C12.6311 14.892 13.0781 14.444 13.0781 13.892V11H17.1191V13.892L17.1258 14.0086C17.1835 14.5057 17.6056 14.892 18.1191 14.892C18.6721 14.892 19.1191 14.444 19.1191 13.892V11H21.5971L21.9344 14.6415C21.984 15.1774 22.447 15.5789 22.9845 15.5522C23.5564 15.5238 23.9888 15.0238 23.9346 14.4538L23.5861 10.788L23.5627 10.6295C23.3864 9.69198 22.5662 9 21.5971 9H19.1191V7.874L19.114 7.67496ZM15.0061 6H15.1901L15.3407 6.00565C16.3345 6.08053 17.1191 6.89019 17.1191 7.874V9H13.0781V7.874L13.0839 7.7278C13.1609 6.76281 13.9937 6 15.0061 6ZM21.0006 16C17.6869 16 15.0006 18.6863 15.0006 22C15.0006 25.3137 17.6869 28 21.0006 28C24.3143 28 27.0006 25.3137 27.0006 22C27.0006 18.6863 24.3143 16 21.0006 16ZM21.0006 18C23.2097 18 25.0006 19.7909 25.0006 22C25.0006 24.2091 23.2097 26 21.0006 26C18.7914 26 17.0006 24.2091 17.0006 22C17.0055 19.7929 18.7935 18.0049 21.0006 18ZM20.5006 24.5714C20.5006 24.8081 20.7244 25 21.0006 25C21.2767 25 21.5006 24.8081 21.5006 24.5714V22.5H23.572C23.8087 22.5 24.0006 22.2761 24.0006 22C24.0006 21.7239 23.8087 21.5 23.572 21.5H21.5006V19.4286C21.5006 19.1919 21.2767 19 21.0006 19C20.7244 19 20.5006 19.1919 20.5006 19.4286V21.5H18.4291C18.1925 21.5 18.0006 21.7239 18.0006 22C18.0006 22.2761 18.1925 22.5 18.4291 22.5H20.5006V24.5714Z" fill="#00005E"/>
</svg>
