<svg width="32" height="32" viewBox="0 0 32 32" fill="none" xmlns="http://www.w3.org/2000/svg">
<path fill-rule="evenodd" clip-rule="evenodd" d="M27 12.31C27 8.2728 23.7272 5 19.69 5H12.31C8.2728 5 5 8.2728 5 12.31V19.69C5 23.7272 8.2728 27 12.31 27H19.69C23.7272 27 27 23.7272 27 19.69V12.31ZM7 16V12.31C7 9.37737 9.37737 7 12.31 7H16V16H7ZM12.31 25H16V17H7V19.69C7 22.6226 9.37737 25 12.31 25ZM25 17V19.69C25 22.6226 22.6226 25 19.69 25H17V17H25ZM17 16H25V12.31C25 9.37737 22.6226 7 19.69 7H17V16ZM13.71 22.5L12.52 21.35L13.67 20.21C13.8618 20.0122 13.8618 19.6978 13.67 19.5C13.5761 19.4053 13.4483 19.3521 13.315 19.3521C13.1817 19.3521 13.0539 19.4053 12.96 19.5L11.81 20.64L10.67 19.5C10.5761 19.4053 10.4483 19.3521 10.315 19.3521C10.1817 19.3521 10.0539 19.4053 9.96 19.5C9.76822 19.6978 9.76822 20.0122 9.96 20.21L11.11 21.35L10 22.5C9.80822 22.6978 9.80822 23.0122 10 23.21C10.1998 23.3967 10.5102 23.3967 10.71 23.21L11.85 22.06L13 23.21C13.1998 23.3967 13.5102 23.3967 13.71 23.21C13.9018 23.0122 13.9018 22.6978 13.71 22.5ZM22.5 11C22.7761 11 23 11.2239 23 11.5C23 11.7761 22.7761 12 22.5 12H19.5C19.2239 12 19 11.7761 19 11.5C19 11.2239 19.2239 11 19.5 11H22.5ZM14 11.5C14 11.2239 13.7761 11 13.5 11H12V9.5C12 9.22386 11.7761 9 11.5 9C11.2239 9 11 9.22386 11 9.5V11H9.5C9.22386 11 9 11.2239 9 11.5C9 11.7761 9.22386 12 9.5 12H11V13.5C11 13.7761 11.2239 14 11.5 14C11.7761 14 12 13.7761 12 13.5V12H13.5C13.7761 12 14 11.7761 14 11.5ZM19.5 20C19.2239 20 19 19.7761 19 19.5C19 19.2239 19.2239 19 19.5 19H22.5C22.7761 19 23 19.2239 23 19.5C23 19.7761 22.7761 20 22.5 20H19.5ZM23 21.5C23 21.2239 22.7761 21 22.5 21H19.5C19.2239 21 19 21.2239 19 21.5C19 21.7761 19.2239 22 19.5 22H22.5C22.7761 22 23 21.7761 23 21.5Z" fill="#00005E"/>
</svg>
