<svg width="32" height="32" viewBox="0 0 32 32" fill="none" xmlns="http://www.w3.org/2000/svg">
<path fill-rule="evenodd" clip-rule="evenodd" d="M24 7.37C24 5.5088 22.4912 4 20.63 4H11.37C9.5088 4 8 5.5088 8 7.37V24.63C8 26.4912 9.5088 28 11.37 28H20.63C21.5238 28 22.381 27.6449 23.0129 27.0129C23.6449 26.381 24 25.5238 24 24.63V7.37ZM22 13V24.63C21.9946 25.3844 21.3844 25.9946 20.63 26H11.37C10.6156 25.9946 10.0054 25.3844 10 24.63V13H22ZM10 12H22V7.37C21.9946 6.61564 21.3844 6.00545 20.63 6H11.37C10.6156 6.00545 10.0054 6.61564 10 7.37V12ZM11 16C11 16.5523 11.4477 17 12 17C12.5523 17 13 16.5523 13 16C13 15.4477 12.5523 15 12 15C11.4477 15 11 15.4477 11 16ZM16 17C15.4477 17 15 16.5523 15 16C15 15.4477 15.4477 15 16 15C16.5523 15 17 15.4477 17 16C17 16.5523 16.5523 17 16 17ZM19 16C19 16.5523 19.4477 17 20 17C20.5523 17 21 16.5523 21 16C21 15.4477 20.5523 15 20 15C19.4477 15 19 15.4477 19 16ZM12 20.5C11.4477 20.5 11 20.0523 11 19.5C11 18.9477 11.4477 18.5 12 18.5C12.5523 18.5 13 18.9477 13 19.5C13 20.0523 12.5523 20.5 12 20.5ZM15 19.5C15 20.0523 15.4477 20.5 16 20.5C16.5523 20.5 17 20.0523 17 19.5C17 18.9477 16.5523 18.5 16 18.5C15.4477 18.5 15 18.9477 15 19.5ZM20 20.5C19.4477 20.5 19 20.0523 19 19.5C19 18.9477 19.4477 18.5 20 18.5C20.5523 18.5 21 18.9477 21 19.5C21 20.0523 20.5523 20.5 20 20.5ZM11 23C11 23.5523 11.4477 24 12 24C12.5523 24 13 23.5523 13 23C13 22.4477 12.5523 22 12 22C11.4477 22 11 22.4477 11 23ZM16 24C15.4477 24 15 23.5523 15 23C15 22.4477 15.4477 22 16 22C16.5523 22 17 22.4477 17 23C17 23.5523 16.5523 24 16 24ZM19 23C19 23.5523 19.4477 24 20 24C20.5523 24 21 23.5523 21 23C21 22.4477 20.5523 22 20 22C19.4477 22 19 22.4477 19 23Z" fill="#00005E"/>
</svg>
