<svg width="32" height="32" viewBox="0 0 32 32" fill="none" xmlns="http://www.w3.org/2000/svg">
<path fill-rule="evenodd" clip-rule="evenodd" d="M26.1671 6.85413C25.6286 6.30998 24.8956 6.00264 24.13 6H22V4C22 3.44772 21.5523 3 21 3C20.4477 3 20 3.44772 20 4V6H12V4C12 3.44772 11.5523 3 11 3C10.4477 3 10 3.44772 10 4V6H7.87002C7.10445 6.00264 6.37144 6.30998 5.83292 6.85413C5.2944 7.39828 4.99469 8.13445 4.99995 8.9V24.1C4.99469 24.8656 5.2944 25.6017 5.83292 26.1459C6.37144 26.69 7.10445 26.9974 7.87002 27H24.13C24.8956 26.9974 25.6286 26.69 26.1671 26.1459C26.7056 25.6017 27.0053 24.8656 27.0001 24.1V8.9C27.0053 8.13445 26.7056 7.39828 26.1671 6.85413ZM6.99996 24.1V8.9C6.99441 8.41229 7.3824 8.01093 7.87002 8H10V9C10 9.55228 10.4477 10 11 10C11.5523 10 12 9.55228 12 9V8H20V9C20 9.55228 20.4477 10 21 10C21.5523 10 22 9.55228 22 9V8H24.13C24.6176 8.01093 25.0056 8.41229 25.0001 8.9V16.11C24.0304 20.7304 20.3042 24.2695 15.64 25H7.87002C7.3824 24.9891 6.99441 24.5877 6.99996 24.1ZM24.13 25C24.6099 24.9892 24.9947 24.5999 25 24.12V19.12C23.7744 21.6943 21.7023 23.77 19.13 25H24.13ZM10 12.5C10 12.7761 10.2239 13 10.5 13H21.5C21.7762 13 22 12.7761 22 12.5C22 12.2239 21.7762 12 21.5 12H10.5C10.2239 12 10 12.2239 10 12.5Z" fill="#00005E"/>
</svg>
