<svg width="32" height="32" viewBox="0 0 32 32" fill="none" xmlns="http://www.w3.org/2000/svg">
<path fill-rule="evenodd" clip-rule="evenodd" d="M25.06 14C25.5745 14 26.068 14.2044 26.4318 14.5682C26.7956 14.932 27 15.4255 27 15.94V26.06C27 26.5745 26.7956 27.068 26.4318 27.4318C26.068 27.7956 25.5745 28 25.06 28H18.94C18.4255 28 17.932 27.7956 17.5682 27.4318C17.2044 27.068 17 26.5745 17 26.06V25H8.52C6.59369 24.9947 5.02728 23.4461 5 21.52V9.52C5.00549 7.57824 6.57824 6.00549 8.52 6H9V5C9 4.44772 9.44772 4 10 4C10.5523 4 11 4.44772 11 5V6H18V5C18 4.44772 18.4477 4 19 4C19.5523 4 20 4.44772 20 5V6H20.48C22.4218 6.00549 23.9945 7.57824 24 9.52V14H25.06ZM8.52 23H17V15.94C17 14.8686 17.8686 14 18.94 14H22V9.52C22 8.68053 21.3195 8 20.48 8H20V9C20 9.55228 19.5523 10 19 10C18.4477 10 18 9.55228 18 9V8H11V9C11 9.55228 10.5523 10 10 10C9.44772 10 9 9.55228 9 9V8H8.52C7.6959 7.99971 7.02169 8.65619 7 9.48V21.48C7 22.3195 7.68053 23 8.52 23ZM25 16V26H19V16H25ZM19 11.5C19 11.7761 18.7761 12 18.5 12H10.5C10.2239 12 10 11.7761 10 11.5C10 11.2239 10.2239 11 10.5 11H18.5C18.7761 11 19 11.2239 19 11.5ZM22 25C22.5523 25 23 24.5523 23 24C23 23.4477 22.5523 23 22 23C21.4477 23 21 23.4477 21 24C21 24.5523 21.4477 25 22 25Z" fill="#00005E"/>
</svg>
