<svg width="32" height="32" viewBox="0 0 32 32" fill="none" xmlns="http://www.w3.org/2000/svg">
<path fill-rule="evenodd" clip-rule="evenodd" d="M20 4C20.5128 4 20.9355 4.38604 20.9933 4.88338L21 5V7H22.5209C24.3849 7 25.9074 8.46482 26.0068 10.307L26.012 10.4988V15.1765C26.012 15.7288 25.5642 16.1765 25.012 16.1765C24.4991 16.1765 24.0765 15.7904 24.0187 15.2931L24.012 15.1765V10.4988C24.012 9.71948 23.4196 9.07946 22.6643 9.00686L22.5209 9H21V10C21 10.5523 20.5523 11 20 11C19.4872 11 19.0645 10.614 19.0067 10.1166L19 10V9H12V10C12 10.5523 11.5523 11 11 11C10.4872 11 10.0645 10.614 10.0067 10.1166L9.99999 10V9H8.49885C7.76214 9 7.14941 9.53932 7.03219 10.2475V14.9553C7.03219 19.4673 9.64372 23.3356 13.3654 25H19.7342C20.2865 25 20.7342 25.4477 20.7342 26C20.7342 26.5128 20.3481 26.9355 19.8508 26.9933L19.7342 27H8.50202C6.63873 27 5.11654 25.535 5.01713 23.693L5.01196 23.5012V10.4946C5.01196 8.62977 6.47029 7.10477 8.30749 7.00517L8.49885 7H9.99999V5C9.99999 4.44772 10.4477 4 11 4C11.5128 4 11.9355 4.38604 11.9933 4.88338L12 5V7H19V5C19 4.44772 19.4477 4 20 4ZM7.01196 19.7915V23.5012C7.01196 24.2804 7.60422 24.9205 8.35875 24.9931L8.50202 25H11.3047C9.42739 23.7463 7.92534 21.9353 7.01196 19.7915Z" fill="#00005E"/>
<path d="M25.2 18.58C25.3944 18.4284 25.6704 18.4411 25.85 18.61C26.0406 18.8044 26.0406 19.1156 25.85 19.31L21.85 23.06L20.29 21.5C20.1632 21.3732 20.1136 21.1883 20.1601 21.0151C20.2065 20.8418 20.3418 20.7065 20.5151 20.6601C20.6883 20.6136 20.8732 20.6632 21 20.79L21.89 21.67L25.2 18.58Z" fill="#00005E"/>
<path fill-rule="evenodd" clip-rule="evenodd" d="M30 21C30 17.134 26.866 14 23 14C19.134 14 16 17.134 16 21C16 24.866 19.134 28 23 28C26.866 28 30 24.866 30 21ZM28 21C28 23.7614 25.7614 26 23 26C20.2386 26 18 23.7614 18 21C18 18.2386 20.2386 16 23 16C25.7614 16 28 18.2386 28 21Z" fill="#00005E"/>
</svg>
