<svg width="32" height="32" viewBox="0 0 32 32" fill="none" xmlns="http://www.w3.org/2000/svg">
<path fill-rule="evenodd" clip-rule="evenodd" d="M22.96 19.0624L26.7232 22.8448C27.144 23.2741 27.144 23.9611 26.7232 24.3904L24.6112 26.512C24.0797 27.0469 23.4179 27.434 22.6912 27.6352C21.8281 27.8741 20.9371 27.9967 20.0416 28C16.5152 28 12.9568 26.08 9.3664 22.24C4.9632 17.5168 3.2704 13.264 4.288 9.48159C4.48713 8.75399 4.87455 8.09174 5.4112 7.56159L7.6768 5.27679C7.88032 5.07278 8.15664 4.95813 8.4448 4.95813C8.73297 4.95813 9.00929 5.07278 9.2128 5.27679L12.9472 9.06879C13.1542 9.27268 13.2707 9.55107 13.2707 9.84159C13.2707 10.1321 13.1542 10.4105 12.9472 10.6144L11.0272 12.5344C10.7059 12.8547 10.6178 13.341 10.8064 13.7536C11.4942 15.4198 12.4909 16.941 13.744 18.2368C15.0485 19.453 16.5192 20.4776 18.112 21.28C18.2576 21.3685 18.4221 21.4211 18.592 21.4336C18.8791 21.43 19.1539 21.3167 19.36 21.1168L21.424 19.0624C21.6275 18.8584 21.9038 18.7437 22.192 18.7437C22.4802 18.7437 22.7565 18.8584 22.96 19.0624ZM23.2576 25.12L24.832 23.6224L22.24 21.0112L20.7232 22.4608C20.1616 23.0256 19.3981 23.3434 18.6016 23.344C18.1135 23.3425 17.6329 23.224 17.2 22.9984C15.4479 22.1092 13.8316 20.9745 12.4 19.6288C10.9791 18.1611 9.84305 16.4424 9.0496 14.56C8.54612 13.4231 8.78987 12.0939 9.664 11.2096L11.0368 9.83679L8.4448 7.22559L6.7648 8.91519C6.46343 9.2182 6.24807 9.59591 6.1408 10.0096C5.3152 13.072 6.88 16.7488 10.768 20.8864C13.9648 24.304 17.0848 26.0416 20.0416 26.0416C20.7624 26.0429 21.4799 25.9427 22.1728 25.744C22.5838 25.6369 22.9584 25.4214 23.2576 25.12ZM28 11.68C28 11.1498 27.5702 10.72 27.04 10.72H18.4L20.32 8.71359C20.622 8.49034 20.7661 8.11144 20.6888 7.7439C20.6114 7.37636 20.3269 7.08769 19.9605 7.0051C19.5941 6.92251 19.2132 7.06118 18.9856 7.35999L15.3952 10.9696C15.023 11.344 15.023 11.9488 15.3952 12.3232L18.9856 15.9424C19.1668 16.1221 19.412 16.2223 19.6672 16.2208C19.9224 16.2223 20.1676 16.1221 20.3488 15.9424C20.5328 15.7576 20.6337 15.5058 20.6283 15.2451C20.6228 14.9843 20.5116 14.737 20.32 14.56L18.4 12.64H27.04C27.5702 12.64 28 12.2102 28 11.68Z" fill="#00005E"/>
</svg>
