<svg width="32" height="32" viewBox="0 0 32 32" fill="none" xmlns="http://www.w3.org/2000/svg">
<path fill-rule="evenodd" clip-rule="evenodd" d="M28.0002 12.1C28.0169 10.4198 26.6799 9.03823 25 9H19.46L19 7.74C18.8793 7.29078 18.4649 6.98407 18 7H13.83C13.3651 6.98407 12.9507 7.29078 12.83 7.74L12.34 9H7.00001C5.32016 9.03823 3.98315 10.4198 3.99985 12.1V21.9C3.98315 23.5802 5.32016 24.9618 7.00001 25H25C26.6799 24.9618 28.0169 23.5802 28.0002 21.9V12.1ZM26 12.1V21.9C26.0227 22.4781 25.5777 22.9677 25 23H7.00001C6.42233 22.9677 5.97727 22.4781 6.00001 21.9V12.1C5.97727 11.5219 6.42233 11.0323 7.00001 11H13.65L14.16 9.75L14.46 9H17.3L17.6 9.75L18.11 11H25C25.5777 11.0323 26.0227 11.5219 26 12.1ZM16 12.5C18.483 12.5055 20.4945 14.517 20.5 17C20.5 19.4853 18.4853 21.5 16 21.5C13.5147 21.5 11.5 19.4853 11.5 17C11.5 14.5147 13.5147 12.5 16 12.5ZM16 20.5C17.933 20.5 19.5 18.933 19.5 17C19.5 15.067 17.933 13.5 16 13.5C14.067 13.5 12.5 15.067 12.5 17C12.5 18.933 14.067 20.5 16 20.5ZM17.02 15C17.02 14.7239 16.7961 14.5 16.52 14.5C14.8901 14.4996 13.558 15.8005 13.52 17.43C13.52 17.7061 13.7439 17.93 14.02 17.93C14.2961 17.93 14.52 17.7061 14.52 17.43C14.5577 16.3529 15.4422 15.4993 16.52 15.5C16.7961 15.5 17.02 15.2761 17.02 15ZM23 15C23.5523 15 24 14.5523 24 14C24 13.4477 23.5523 13 23 13C22.4477 13 22 13.4477 22 14C22 14.5523 22.4477 15 23 15Z" fill="#00005E"/>
</svg>
