<svg width="32" height="32" viewBox="0 0 32 32" fill="none" xmlns="http://www.w3.org/2000/svg">
<path fill-rule="evenodd" clip-rule="evenodd" d="M14.76 8.15999C14.6313 8.12704 14.5209 8.04419 14.4534 7.92973C14.3858 7.81527 14.3666 7.67863 14.4 7.54999L15.39 3.86999C15.4227 3.74159 15.506 3.63191 15.621 3.56597C15.7359 3.50002 15.8726 3.48344 16 3.51999C16.2625 3.58432 16.4264 3.84564 16.37 4.10999L15.37 7.78999C15.3075 8.00884 15.1076 8.15981 14.88 8.15999C14.8406 8.16973 14.7994 8.16973 14.76 8.15999ZM11.89 8.99999L9.28001 6.27999C9.14059 6.15461 9.08304 5.96177 9.13094 5.78049C9.17884 5.59921 9.32414 5.45996 9.5073 5.41981C9.69045 5.37967 9.88067 5.44537 10 5.58999L12.59 8.28999C12.6847 8.38387 12.7379 8.51167 12.7379 8.64499C12.7379 8.77831 12.6847 8.90611 12.59 8.99999C12.5024 9.09639 12.3801 9.15396 12.25 9.16C12.1126 9.16063 11.9816 9.10238 11.89 8.99999ZM27.92 17C28.3026 18.7674 27.2348 20.525 25.49 21L18.59 22.66L13.09 26.43C12.5705 26.7919 11.9532 26.9872 11.32 26.99C11.0981 26.9911 10.8767 26.9677 10.66 26.92C9.78668 26.7287 9.03071 26.1862 8.57001 25.42L4.46001 18.64C3.52836 17.0698 3.96432 15.047 5.46001 14L10.93 10.77L11.05 10.71C11.3032 10.6321 11.5745 10.7569 11.68 11L13.54 15.89L16.83 17.25L15.33 14.95C15.2507 14.8325 15.2287 14.6856 15.27 14.55L17.03 7.86999C17.0594 7.75214 17.1351 7.65116 17.24 7.58999C17.3324 7.5498 17.4301 7.52287 17.53 7.50999L22.39 6.58999C23.1997 6.40146 24.0513 6.54941 24.75 6.99999C25.5078 7.48147 26.0437 8.2439 26.24 9.11999L27.92 17ZM25 19.07C25.7325 18.8786 26.1771 18.1361 26 17.4L24.28 9.44999C24.2094 9.08406 23.9927 8.7627 23.68 8.55999C23.4217 8.39528 23.1069 8.34462 22.81 8.41999L17.62 9.41999L16.29 14.48C18.7461 18.234 18.74 18.24 18.4215 18.5585L18.42 18.56C18.325 18.6488 18.2001 18.6987 18.07 18.7C18.0042 18.715 17.9358 18.715 17.87 18.7L12.96 16.7C12.8321 16.644 12.7315 16.5398 12.68 16.41L11.32 12.84L6.54001 15.69C5.96491 16.1572 5.82389 16.9776 6.21001 17.61L10.32 24.39C10.4939 24.6866 10.784 24.897 11.12 24.97C11.4256 25.0406 11.7467 24.9749 12 24.79L17.67 20.92C17.77 20.8503 17.8818 20.7995 18 20.77L25 19.07Z" fill="#00005E"/>
</svg>
