<svg width="32" height="32" viewBox="0 0 32 32" fill="none" xmlns="http://www.w3.org/2000/svg">
<path fill-rule="evenodd" clip-rule="evenodd" d="M30 11.35C30.5523 11.35 31 11.7977 31 12.35C31 12.9023 30.5523 13.35 30 13.35H27.85C27.8902 13.5238 27.9104 13.7016 27.91 13.88V22.6C27.9704 22.7246 28.0012 22.8615 28 23V24.48C28 25.8607 26.8807 26.98 25.5 26.98C24.1193 26.98 23 25.8607 23 24.48V23V22.94H9V23V24.48C9 25.8607 7.88071 26.98 6.5 26.98C5.11929 26.98 4 25.8607 4 24.48V23V22.96V13.71C3.99017 13.5902 3.99017 13.4698 4 13.35H2C1.44772 13.35 1 12.9023 1 12.35C1 11.7977 1.44772 11.35 2 11.35H5.25H5.34L8.2 8.65C9.31196 7.59363 10.7863 7.0032 12.32 7H19.56C21.1459 7.00139 22.6667 7.63057 23.79 8.75L26.46 11.4C26.5511 11.3728 26.6451 11.356 26.74 11.35H30ZM6 20.94L25.91 20.95V14.84L25.04 15.74C23.783 17.0139 22.0697 17.7338 20.28 17.74H11.23C9.52282 17.7421 7.88124 17.0826 6.65 15.9L6 15.28V20.94ZM7.43 15.18L6.6 14.48H24.86L24.32 15.03C23.2703 16.1138 21.8288 16.7301 20.32 16.74H11.32C9.87148 16.7369 8.47928 16.1786 7.43 15.18ZM9.6 10.1L6.15 13.34C6.11111 13.3824 6.07754 13.4295 6.05 13.48H25.71L22.38 10.17C21.6317 9.42249 20.6177 9.00181 19.56 9H12.32C11.3067 9.00891 10.3346 9.40205 9.6 10.1ZM7 22.94V23V24.48C7 24.7561 6.77614 24.98 6.5 24.98C6.22386 24.98 6 24.7561 6 24.48V23V22.94H7ZM26 24.48V23V22.94H25V23V24.48C25 24.7561 25.2239 24.98 25.5 24.98C25.7761 24.98 26 24.7561 26 24.48ZM20.26 19.41C20.26 19.1339 20.0361 18.91 19.76 18.91H12.15C11.8761 18.9153 11.6553 19.1361 11.65 19.41C11.65 19.6861 11.8739 19.91 12.15 19.91H19.76C20.0361 19.91 20.26 19.6861 20.26 19.41Z" fill="#00005E"/>
</svg>
