<svg width="32" height="32" viewBox="0 0 32 32" fill="none" xmlns="http://www.w3.org/2000/svg">
<path fill-rule="evenodd" clip-rule="evenodd" d="M27.8642 17.528C27.9182 17.083 27.6692 16.656 27.2542 16.484L25.3332 15.688C24.9512 15.53 24.5512 15.382 24.1432 15.24L25.3152 14.067C25.7062 13.677 25.7062 13.044 25.3152 12.653C24.9252 12.263 24.2922 12.263 23.9012 12.653L23.1272 13.428L22.4542 7.831C22.3292 6.787 21.4422 6 20.3902 6H11.4802C10.4292 6 9.54219 6.787 9.41719 7.831L8.71819 13.652L8.01019 12.944C7.61919 12.554 6.98619 12.554 6.59519 12.944C6.20519 13.335 6.20519 13.968 6.59519 14.358L7.53319 15.295C7.12819 15.439 6.73219 15.591 6.35119 15.751L4.61019 16.487C4.20019 16.661 3.95319 17.086 4.00719 17.528C4.00719 17.528 4.60619 21.807 4.78019 23.196C4.80019 23.354 4.84819 23.664 4.84819 23.664C4.96219 25.545 6.34519 27 8.18419 27H8.51219C10.2372 27 11.6432 25.681 11.8142 24H19.8822C20.0532 25.681 21.4592 27 23.1842 27H23.5122C25.3182 27 26.6992 25.542 26.9052 23.709L27.0552 22.924L27.8642 17.528ZM11.4802 8C11.4412 8 11.4072 8.029 11.4022 8.069L10.4972 15.609C11.1482 15.462 11.8022 15.339 12.4602 15.245C12.4722 13.338 14.0252 11.789 15.9352 11.789C17.8462 11.789 19.4012 13.339 19.4122 15.248C20.0702 15.342 20.7242 15.469 21.3752 15.616L20.4692 8.069C20.4642 8.029 20.4302 8 20.3902 8H11.4802ZM9.80519 24C9.65619 24.574 9.13319 25 8.51219 25H8.18419C7.56319 25 7.04019 24.574 6.89119 24H9.80519ZM24.8052 24C24.6562 24.574 24.1332 25 23.5122 25H23.1842C22.5632 25 22.0402 24.574 21.8912 24H24.8052ZM23.8562 19.246C23.8562 18.836 24.8712 18.29 25.7142 18.092L25.7782 18.118L25.5082 20.351C24.7152 20.118 23.8562 19.623 23.8562 19.246ZM13.4722 15.119C15.1112 14.956 16.7612 14.961 18.4002 15.127C18.3252 13.827 17.2542 12.789 15.9352 12.789C14.6202 12.789 13.5512 13.823 13.4722 15.119ZM20.8482 22H10.8482H6.56219L6.47419 21.271C7.54419 20.941 8.74319 20.235 8.74319 19.246C8.74319 18.546 8.14119 17.985 7.40919 17.6C12.8732 15.508 18.8232 15.49 24.2992 17.551C23.5202 17.937 22.8562 18.513 22.8562 19.246C22.8562 20.318 24.2622 21.061 25.3882 21.348L25.3092 22H20.8482ZM6.09619 18.144L6.35219 20.264C7.06119 20.009 7.74319 19.582 7.74319 19.246C7.74319 18.87 6.88819 18.377 6.09619 18.144Z" fill="#00005E"/>
</svg>
