<svg width="24" height="24" viewBox="0 0 24 24" fill="none" xmlns="http://www.w3.org/2000/svg">
<path fill-rule="evenodd" clip-rule="evenodd" d="M3.79 2C3.31526 2 2.85997 2.18859 2.52428 2.52428C2.18859 2.85997 2 3.31526 2 3.79V19.218C2.00211 19.69 2.19051 20.142 2.52426 20.4757C2.85804 20.8095 3.31014 20.9979 3.78214 21H8.5C9.05229 21 9.5 21.4477 9.5 22C9.5 22.5523 9.05229 23 8.5 23H3.78L3.77642 23C2.77596 22.9964 1.81749 22.5974 1.11005 21.89C0.402606 21.1825 0.00358593 20.224 6.3777e-06 19.2236L0 19.22V3.79C0 2.78483 0.399302 1.82083 1.11007 1.11007C1.82083 0.399302 2.78483 0 3.79 0H12C12.2652 0 12.5196 0.105357 12.7071 0.292893L17.7071 5.29289C17.8946 5.48043 18 5.73478 18 6V10.0709C21.3923 10.5561 24 13.4735 24 17C24 20.866 20.866 24 17 24C13.134 24 10 20.866 10 17C10 13.4735 12.6077 10.5561 16 10.0709V7H11.5C11.2239 7 11 6.77614 11 6.5V2H3.79ZM12 2.41421V6H15.5858L12 2.41421ZM4 6.5C4 6.77614 4.22386 7 4.5 7H7.5C7.77614 7 8 6.77614 8 6.5C8 6.22386 7.77614 6 7.5 6H4.5C4.22386 6 4 6.22386 4 6.5ZM11.5 11C11.7761 11 12 10.7761 12 10.5C12 10.2239 11.7761 10 11.5 10H4.5C4.22386 10 4 10.2239 4 10.5C4 10.7761 4.22386 11 4.5 11H11.5ZM4.5 14H7.5C7.77614 14 8 14.2239 8 14.5C8 14.7761 7.77614 15 7.5 15H4.5C4.22386 15 4 14.7761 4 14.5C4 14.2239 4.22386 14 4.5 14ZM22 17C22 19.7614 19.7614 22 17 22C15.9608 22 14.9957 21.683 14.1961 21.1404L21.1694 14.2393C21.6943 15.0304 22 15.9795 22 17ZM19.754 12.8262L12.7977 19.7105C12.293 18.9296 12 17.999 12 17C12 14.2386 14.2386 12 17 12C18.0176 12 18.9643 12.304 19.754 12.8262Z" fill="#00005E"/>
</svg>
