<svg width="32" height="32" viewBox="0 0 32 32" fill="none" xmlns="http://www.w3.org/2000/svg">
<path fill-rule="evenodd" clip-rule="evenodd" d="M19.3246 4C20.7473 4 21.9109 5.20957 21.9951 6.73663L22 6.91419V10.2918C23.1784 10.8177 23.9997 11.9998 23.9997 13.3745V25.6265C23.9997 27.4905 22.4897 29.0005 20.6267 29.0005H11.3737C9.5107 29.0005 7.9997 27.4905 7.9997 25.6265V13.3745C7.9997 11.9999 8.8214 10.8179 10 10.2919V6.91419C10 5.364 11.11 4.09704 12.5114 4.00532L12.6744 4H19.3246ZM20.0002 6.83885V10.0005H14V6.00177H19.2317L19.3281 6.00829C19.707 6.05992 20.0002 6.41197 20.0002 6.83885ZM13 6.00177V10.0005H11.9998V6.83885L12.0058 6.73374C12.0531 6.32065 12.3759 6.00177 12.7673 6.00177H13ZM21.9997 13.3745C21.9997 12.6165 21.3837 12.0005 20.6267 12.0005H11.3737C10.6157 12.0005 9.9997 12.6165 9.9997 13.3745V16.2276H21.9997V13.3745ZM21.9997 17.2276H9.9997V25.6265C9.9997 26.3845 10.6157 27.0005 11.3737 27.0005H20.6267C21.3837 27.0005 21.9997 26.3845 21.9997 25.6265V17.2276ZM12.9294 20.501C12.9294 21.054 12.4814 21.501 11.9294 21.501C11.3774 21.501 10.9294 21.054 10.9294 20.501C10.9294 19.949 11.3774 19.501 11.9294 19.501C12.4814 19.501 12.9294 19.949 12.9294 20.501ZM15.9294 21.501C16.4814 21.501 16.9294 21.054 16.9294 20.501C16.9294 19.949 16.4814 19.501 15.9294 19.501C15.3774 19.501 14.9294 19.949 14.9294 20.501C14.9294 21.054 15.3774 21.501 15.9294 21.501ZM20.9294 20.501C20.9294 21.054 20.4814 21.501 19.9294 21.501C19.3774 21.501 18.9294 21.054 18.9294 20.501C18.9294 19.949 19.3774 19.501 19.9294 19.501C20.4814 19.501 20.9294 19.949 20.9294 20.501ZM11.9294 25.001C12.4814 25.001 12.9294 24.554 12.9294 24.001C12.9294 23.449 12.4814 23.001 11.9294 23.001C11.3774 23.001 10.9294 23.449 10.9294 24.001C10.9294 24.554 11.3774 25.001 11.9294 25.001ZM16.9294 24.001C16.9294 24.554 16.4814 25.001 15.9294 25.001C15.3774 25.001 14.9294 24.554 14.9294 24.001C14.9294 23.449 15.3774 23.001 15.9294 23.001C16.4814 23.001 16.9294 23.449 16.9294 24.001ZM19.9294 25.001C20.4814 25.001 20.9294 24.554 20.9294 24.001C20.9294 23.449 20.4814 23.001 19.9294 23.001C19.3774 23.001 18.9294 23.449 18.9294 24.001C18.9294 24.554 19.3774 25.001 19.9294 25.001Z" fill="#00005E"/>
</svg>
