<svg width="32" height="32" viewBox="0 0 32 32" fill="none" xmlns="http://www.w3.org/2000/svg">
<path fill-rule="evenodd" clip-rule="evenodd" d="M17 26C17.5523 26 18 26.4478 18 27C18 27.5523 17.5523 28.0001 17 28.0001H10.92C8.76996 28.0111 7.01651 26.2801 7 24.13V7.87004C7.01651 5.72004 8.76996 3.98896 10.92 3.99999H19.69C19.9523 4.00115 20.2037 4.1053 20.39 4.29004L25.7 9.53004C25.8909 9.71712 25.9989 9.9728 26 10.24V16C26 16.5523 25.5523 17 25 17C24.4477 17 24 16.5523 24 16V11.39H19.42C19.1439 11.39 18.92 11.1662 18.92 10.89V6.00004H10.92C9.87449 5.98891 9.01645 6.8246 9 7.87004V24.13C9.01645 25.1755 9.87449 26.0112 10.92 26H17ZM23.73 10.39L19.89 6.61004V10.39H23.73ZM19.4142 27.9142L27.7071 19.7071L26.2929 18.2929L18 26.5L19.4142 27.9142Z" fill="#00005E"/>
<path fill-rule="evenodd" clip-rule="evenodd" d="M30 23C30 19.134 26.866 16 23 16C19.134 16 16 19.134 16 23C16 26.866 19.134 30 23 30C26.866 30 30 26.866 30 23ZM28 23C28 25.7614 25.7614 28 23 28C20.2386 28 18 25.7614 18 23C18 20.2386 20.2386 18 23 18C25.7614 18 28 20.2386 28 23Z" fill="#00005E"/>
<path fill-rule="evenodd" clip-rule="evenodd" d="M11.5 11C11.2239 11 11 10.7761 11 10.5C11 10.2239 11.2239 10 11.5 10H14.5C14.7761 10 15 10.2239 15 10.5C15 10.7761 14.7761 11 14.5 11H11.5ZM19 14.5C19 14.7761 18.7761 15 18.5 15H11.5C11.2239 15 11 14.7761 11 14.5C11 14.2239 11.2239 14 11.5 14H18.5C18.7761 14 19 14.2239 19 14.5ZM14.5 18H11.5C11.2239 18 11 18.2239 11 18.5C11 18.7761 11.2239 19 11.5 19H14.5C14.7761 19 15 18.7761 15 18.5C15 18.2239 14.7761 18 14.5 18Z" fill="#00005E"/>
</svg>
