<svg width="32" height="32" viewBox="0 0 32 32" fill="none" xmlns="http://www.w3.org/2000/svg">
<path fill-rule="evenodd" clip-rule="evenodd" d="M21.9951 6.73663C21.9109 5.20957 20.7473 4 19.3246 4H12.6744L12.5114 4.00532C11.11 4.09704 10 5.364 10 6.91419V10.2919C8.8214 10.8179 7.9997 11.9999 7.9997 13.3745V22.6265C7.9997 24.4905 9.5107 26.0005 11.3737 26.0005H15V26.3809L15.0052 26.5729C15.1049 28.4166 16.6314 29.8809 18.5 29.8809H24.1763L24.2662 29.8728C24.4994 29.8305 24.6763 29.6264 24.6763 29.3809C24.6763 29.1048 24.4524 28.8809 24.1763 28.8809H18.5L18.3356 28.8756C17.0315 28.7909 16 27.7064 16 26.3809V26.0005H20.6267C22.4897 26.0005 23.9997 24.4905 23.9997 22.6265V13.3745C23.9997 11.9998 23.1784 10.8177 22 10.2918V6.91419L21.9951 6.73663ZM20.0002 10.0005V6.83885C20.0002 6.41197 19.707 6.05992 19.3281 6.00829L19.2317 6.00177H14V10.0005H20.0002ZM13 10.0005H11.9998V6.83885L12.0058 6.73374C12.0531 6.32065 12.3759 6.00177 12.7673 6.00177H13V10.0005ZM21.9997 13.3745V15.2276H9.9997V13.3745C9.9997 12.6165 10.6157 12.0005 11.3737 12.0005H20.6267C21.3837 12.0005 21.9997 12.6165 21.9997 13.3745ZM9.9997 16.2276H21.9997V22.6265C21.9997 23.3845 21.3837 24.0005 20.6267 24.0005H11.3737C10.6157 24.0005 9.9997 23.3845 9.9997 22.6265V16.2276ZM11.9294 22.501C12.4814 22.501 12.9294 22.054 12.9294 21.501C12.9294 20.949 12.4814 20.501 11.9294 20.501C11.3774 20.501 10.9294 20.949 10.9294 21.501C10.9294 22.054 11.3774 22.501 11.9294 22.501ZM16.9294 21.501C16.9294 22.054 16.4814 22.501 15.9294 22.501C15.3774 22.501 14.9294 22.054 14.9294 21.501C14.9294 20.949 15.3774 20.501 15.9294 20.501C16.4814 20.501 16.9294 20.949 16.9294 21.501ZM19.9294 22.501C20.4814 22.501 20.9294 22.054 20.9294 21.501C20.9294 20.949 20.4814 20.501 19.9294 20.501C19.3774 20.501 18.9294 20.949 18.9294 21.501C18.9294 22.054 19.3774 22.501 19.9294 22.501ZM12.9294 18.501C12.9294 19.054 12.4814 19.501 11.9294 19.501C11.3774 19.501 10.9294 19.054 10.9294 18.501C10.9294 17.949 11.3774 17.501 11.9294 17.501C12.4814 17.501 12.9294 17.949 12.9294 18.501ZM15.9294 19.501C16.4814 19.501 16.9294 19.054 16.9294 18.501C16.9294 17.949 16.4814 17.501 15.9294 17.501C15.3774 17.501 14.9294 17.949 14.9294 18.501C14.9294 19.054 15.3774 19.501 15.9294 19.501ZM20.9294 18.501C20.9294 19.054 20.4814 19.501 19.9294 19.501C19.3774 19.501 18.9294 19.054 18.9294 18.501C18.9294 17.949 19.3774 17.501 19.9294 17.501C20.4814 17.501 20.9294 17.949 20.9294 18.501Z" fill="#00005E"/>
</svg>
