<svg width="32" height="32" viewBox="0 0 32 32" fill="none" xmlns="http://www.w3.org/2000/svg">
<path fill-rule="evenodd" clip-rule="evenodd" d="M21.13 4C17.76 4 15 5.37 15 7.06V16.8C15 18.49 17.73 19.86 21.1 19.86C24.47 19.86 27.2 18.49 27.2 16.8V7.06C27.23 5.37 24.5 4 21.13 4ZM17 9.52C18.2806 10.1 19.6745 10.387 21.08 10.36C22.5007 10.3888 23.9094 10.0947 25.2 9.5V12.5C23.9467 13.2108 22.5197 13.5572 21.08 13.5C19.6541 13.5466 18.2428 13.2007 17 12.5V9.52ZM25.23 7.17C24.96 6.79 23.52 6 21.13 6C18.75 6 17.31 6.79 17.03 7.17V8.36C18.2728 9.06065 19.6841 9.40656 21.11 9.36C22.5497 9.41715 23.9767 9.07079 25.23 8.36V7.17ZM21.13 17.86C18.75 17.86 17.31 17.07 17.03 16.7V13.7C18.3106 14.28 19.7045 14.567 21.11 14.54C22.5312 14.5737 23.941 14.2794 25.23 13.68V16.68C25 17.07 23.52 17.86 21.13 17.86ZM9.88 21.94C13.2189 26.0788 19.2805 26.728 23.42 23.39V23.44C23.6987 23.2149 24.0762 23.1556 24.4105 23.2844C24.7448 23.4132 24.9849 23.7105 25.0405 24.0644C25.0961 24.4183 24.9587 24.7749 24.68 25C22.6134 26.6498 20.0444 27.5426 17.4 27.53C16.979 27.5316 16.5583 27.5082 16.14 27.46C13.0687 27.1423 10.2525 25.6082 8.32 23.2C5.00745 19.039 4.92115 13.1665 8.11 8.91L5.29 9.68C4.76512 9.80229 4.23774 9.48662 4.09754 8.96624C3.95733 8.44585 4.25473 7.90796 4.77 7.75L9.77 6.39C10.0266 6.32106 10.3 6.35704 10.53 6.49C10.7618 6.62244 10.931 6.84208 11 7.1L12.3 12.08C12.3808 12.3359 12.3553 12.6136 12.2293 12.8506C12.1033 13.0875 11.8874 13.2639 11.63 13.34C11.544 13.3551 11.456 13.3551 11.37 13.34C10.9051 13.3559 10.4907 13.0492 10.37 12.6L9.69 10.1C7.03981 13.6262 7.11803 18.5006 9.88 21.94Z" fill="#00005E"/>
</svg>
