<svg width="32" height="32" viewBox="0 0 32 32" fill="none" xmlns="http://www.w3.org/2000/svg">
<path fill-rule="evenodd" clip-rule="evenodd" d="M29.0058 4C29.0058 3.73336 28.8993 3.47777 28.71 3.29C28.5222 3.10069 28.2666 2.9942 28 2.9942C27.7334 2.9942 27.4778 3.10069 27.29 3.29L3.29 27.29C3.10069 27.4778 2.9942 27.7334 2.9942 28C2.9942 28.2666 3.10069 28.5222 3.29 28.71C3.47777 28.8993 3.73336 29.0058 4 29.0058C4.26664 29.0058 4.52223 28.8993 4.71 28.71L28.71 4.71C28.8993 4.52223 29.0058 4.26664 29.0058 4ZM7.5 21.5C7.22386 21.5 7 21.2761 7 21V12.65C7.0055 9.53187 9.53187 7.0055 12.65 7H21C21.2761 7 21.5 7.22386 21.5 7.5C21.5 7.77614 21.2761 8 21 8H12.65C10.0842 8.0055 8.0055 10.0842 8 12.65V21C8 21.2761 7.77614 21.5 7.5 21.5ZM26.99 19.78C26.9917 18.3428 26.3083 16.9908 25.15 16.14C25.1044 16.1057 25.0538 16.0787 25 16.06V11C25 10.7239 24.7761 10.5 24.5 10.5C24.2239 10.5 24 10.7239 24 11V19.62C24 20.5164 23.6439 21.3761 23.01 22.01C22.3761 22.6439 21.5164 23 20.62 23H12.49C12.2139 23 11.99 23.2239 11.99 23.5C11.9747 23.7231 11.9747 23.9469 11.99 24.17C12.3362 26.384 14.2492 28.0121 16.49 28.0001H26.49C26.7661 28.0001 26.99 27.7761 26.99 27.5V19.78ZM26 19.78V27H16.49C14.7419 27.0086 13.254 25.7295 13 24H20.6C21.7651 24.0053 22.8843 23.5462 23.7101 22.7242C24.5358 21.9022 25 20.7851 25 19.62V17.33C25.6384 17.9861 25.997 18.8646 26 19.78Z" fill="#00005E"/>
</svg>
