<svg width="32" height="32" viewBox="0 0 32 32" fill="none" xmlns="http://www.w3.org/2000/svg">
<path fill-rule="evenodd" clip-rule="evenodd" d="M28 16C28 9.37258 22.6274 4 16 4C9.37258 4 4 9.37258 4 16C4 22.6274 9.37258 28 16 28C22.6274 28 28 22.6274 28 16ZM20.0698 12.23V12.24L13.7998 18.09L12.1598 16.45C11.7697 16.0623 11.1398 16.0623 10.7498 16.45C10.3621 16.84 10.3621 17.47 10.7498 17.86L13.7498 20.86L21.4298 13.7C21.8357 13.3244 21.8603 12.6909 21.4848 12.285C21.1092 11.8791 20.4757 11.8544 20.0698 12.23Z" fill="#00005E"/>
</svg>
