<svg width="32" height="32" viewBox="0 0 32 32" fill="none" xmlns="http://www.w3.org/2000/svg">
<path fill-rule="evenodd" clip-rule="evenodd" d="M16 4C22.6274 4 28 9.37258 28 16C28 22.6274 22.6274 28 16 28C9.37258 28 4 22.6274 4 16C4 9.37258 9.37258 4 16 4ZM16 26C18.6522 26 21.1957 24.9464 23.0711 23.0711C24.9464 21.1957 26 18.6522 26 16C26 10.4772 21.5228 6 16 6C10.4772 6 6 10.4772 6 16C6 21.5228 10.4772 26 16 26ZM20.07 12.23V12.24L13.8 18.09L12.16 16.45C11.77 16.0623 11.14 16.0623 10.75 16.45C10.3623 16.84 10.3623 17.47 10.75 17.86L13.75 20.86L21.43 13.7C21.8359 13.3244 21.8606 12.6909 21.485 12.285C21.1094 11.8791 20.4759 11.8544 20.07 12.23Z" fill="#00005E"/>
</svg>
