<svg width="32" height="32" viewBox="0 0 32 32" fill="none" xmlns="http://www.w3.org/2000/svg">
<path fill-rule="evenodd" clip-rule="evenodd" d="M28.72 17.21C29.0995 16.8118 29.0861 16.1817 28.69 15.8L16.62 4.28001C16.2324 3.90536 15.6176 3.90536 15.23 4.28001L3.30999 15.8C3.12068 15.9878 3.01419 16.2434 3.01419 16.51C3.01419 16.7767 3.12068 17.0322 3.30999 17.22C3.70003 17.6077 4.32995 17.6077 4.71999 17.22L15.93 6.39001L27.31 17.25C27.4969 17.425 27.7439 17.5217 28 17.52C28.2722 17.519 28.5322 17.407 28.72 17.21ZM18 15.5C18 17.433 16.433 19 14.5 19C12.567 19 11 17.433 11 15.5C11 13.567 12.567 12 14.5 12C16.433 12 18 13.567 18 15.5ZM13 15.5C13 16.3284 13.6716 17 14.5 17C15.3284 17 16 16.3284 16 15.5C16 14.6716 15.3284 14 14.5 14C13.6716 14 13 14.6716 13 15.5ZM23.2678 19.2678C23.7366 18.7989 24 18.1631 24 17.5C24 16.1193 22.8807 15 21.5 15C20.1193 15 19 16.1193 19 17.5C19 18.8807 20.1193 20 21.5 20C22.163 20 22.7989 19.7366 23.2678 19.2678ZM21.5 19C20.6716 19 20 18.3284 20 17.5C20 16.6716 20.6716 16 21.5 16C22.3284 16 23 16.6716 23 17.5C23 18.3284 22.3284 19 21.5 19ZM25.55 21.83C24.9902 21.282 24.2332 20.9827 23.45 21H19.45C18.7969 20.3571 17.9165 19.9977 17 20H12.14C10.8909 19.9608 9.70767 20.56 8.99999 21.59C8.44429 22.4534 8.29447 23.5167 8.58999 24.5L9.13999 26.29C9.63426 27.9064 11.1297 29.0077 12.82 29.0001H16.06C17.008 28.9968 17.9208 28.6402 18.62 28H22.36C24.0859 27.9949 25.6032 26.8559 26.09 25.2L26.25 24.64C26.5388 23.6456 26.2715 22.5727 25.55 21.83ZM17.77 25.74C17.5296 26.4836 16.8414 26.9907 16.06 27H12.82C12.0157 27.0039 11.3042 26.4795 11.07 25.71L10.53 23.92C10.3986 23.4942 10.4646 23.032 10.71 22.66C11.0499 22.2192 11.584 21.9726 12.14 22H17C17.4338 22.0002 17.8447 22.1947 18.12 22.53C18.4341 22.9803 18.5052 23.5568 18.31 24.07L17.77 25.74ZM25.29 24.36C25.4824 23.71 25.3018 23.0069 24.82 22.53C24.4547 22.1739 23.9598 21.9824 23.45 22H20.14C20.4944 22.8563 20.5264 23.812 20.23 24.69L19.7 26.35C19.6197 26.5736 19.5227 26.7909 19.41 27H22.36C23.6415 26.9949 24.7676 26.1492 25.13 24.92L25.29 24.36Z" fill="#00005E"/>
</svg>
