<svg width="32" height="32" viewBox="0 0 32 32" fill="none" xmlns="http://www.w3.org/2000/svg">
<path d="M17.3015 16L26.8092 25.4985C26.984 25.6718 27.0823 25.9077 27.0823 26.1538C27.0823 26.4 26.984 26.6359 26.8092 26.8092C26.6359 26.984 26.4 27.0823 26.1538 27.0823C25.9077 27.0823 25.6718 26.984 25.4985 26.8092L16 17.3015L6.50154 26.8092C6.32822 26.984 6.09228 27.0823 5.84615 27.0823C5.60003 27.0823 5.36409 26.984 5.19077 26.8092C5.01602 26.6359 4.91772 26.4 4.91772 26.1538C4.91772 25.9077 5.01602 25.6718 5.19077 25.4985L14.6985 16L5.19077 6.50154C4.82881 6.13958 4.82881 5.55273 5.19077 5.19077C5.55273 4.82881 6.13958 4.82881 6.50154 5.19077L16 14.6985L25.4985 5.19077C25.8604 4.82881 26.4473 4.82881 26.8092 5.19077C27.1712 5.55273 27.1712 6.13958 26.8092 6.50154L17.3015 16Z" fill="#00005E"/>
</svg>
