<svg width="32" height="32" viewBox="0 0 32 32" fill="none" xmlns="http://www.w3.org/2000/svg">
<path fill-rule="evenodd" clip-rule="evenodd" d="M26.2 6C26.688 6.01049 27.1519 6.21449 27.4895 6.56708C27.8271 6.91968 28.0107 7.39197 28 7.88V19.12C28.0107 19.608 27.8271 20.0803 27.4895 20.4329C27.1519 20.7855 26.688 20.9895 26.2 21H5.79999C5.31195 20.9895 4.84809 20.7855 4.5105 20.4329C4.17291 20.0803 3.98926 19.608 3.99999 19.12V7.88C3.98926 7.39197 4.17291 6.91968 4.5105 6.56708C4.84809 6.21449 5.31195 6.01049 5.79999 6H26.2ZM26 19V8H5.99999V19H26ZM21 17.5C21 17.2239 20.7761 17 20.5 17H11.5C11.2238 17 11 17.2239 11 17.5C11 17.7761 11.2238 18 11.5 18H20.5C20.7761 18 21 17.7761 21 17.5ZM8.99999 11.78C8.4477 11.78 7.99999 11.3323 7.99999 10.78C7.99999 10.2277 8.4477 9.78 8.99999 9.78C9.55227 9.78 9.99999 10.2277 9.99999 10.78C9.99999 11.3323 9.55227 11.78 8.99999 11.78ZM12.67 10.78C12.67 11.3323 13.1177 11.78 13.67 11.78C14.2223 11.78 14.67 11.3323 14.67 10.78C14.67 10.2277 14.2223 9.78 13.67 9.78C13.1177 9.78 12.67 10.2277 12.67 10.78ZM18.33 11.78C17.7777 11.78 17.33 11.3323 17.33 10.78C17.33 10.2277 17.7777 9.78 18.33 9.78C18.8823 9.78 19.33 10.2277 19.33 10.78C19.33 11.3323 18.8823 11.78 18.33 11.78ZM22 10.78C22 11.3323 22.4477 11.78 23 11.78C23.5523 11.78 24 11.3323 24 10.78C24 10.2277 23.5523 9.78 23 9.78C22.4477 9.78 22 10.2277 22 10.78ZM11 15.1C10.4477 15.1 9.99999 14.6523 9.99999 14.1C9.99999 13.5477 10.4477 13.1 11 13.1C11.5523 13.1 12 13.5477 12 14.1C12 14.6523 11.5523 15.1 11 15.1ZM14.92 14.1C14.92 14.6523 15.3677 15.1 15.92 15.1C16.4723 15.1 16.92 14.6523 16.92 14.1C16.92 13.5477 16.4723 13.1 15.92 13.1C15.3677 13.1 14.92 13.5477 14.92 14.1ZM20.85 15.1C20.2977 15.1 19.85 14.6523 19.85 14.1C19.85 13.5477 20.2977 13.1 20.85 13.1C21.4023 13.1 21.85 13.5477 21.85 14.1C21.85 14.6523 21.4023 15.1 20.85 15.1ZM12.9879 24.2742C12.587 23.8943 11.9541 23.9113 11.5742 24.3121C11.1943 24.713 11.2113 25.3459 11.6121 25.7258L15.3363 29.2552C15.722 29.6208 16.3263 29.6208 16.712 29.2552L20.4362 25.7258C20.837 25.3459 20.854 24.713 20.4741 24.3121C20.0942 23.9113 19.4613 23.8943 19.0604 24.2742L16.0241 27.1517L12.9879 24.2742Z" fill="#00005E"/>
</svg>
