<svg width="32" height="32" viewBox="0 0 32 32" fill="none" xmlns="http://www.w3.org/2000/svg">
<path fill-rule="evenodd" clip-rule="evenodd" d="M22.9998 5.00012H8.99979C6.7905 5.00012 4.99979 6.79084 4.99979 9.00012V23.0001C4.99979 25.2094 6.7905 27.0001 8.99979 27.0001H22.9998C25.2091 27.0001 26.9998 25.2094 26.9998 23.0001V9.00012C26.9998 6.79084 25.2091 5.00012 22.9998 5.00012ZM8.99979 7.00012H22.9998C24.1045 7.00012 24.9998 7.89541 24.9998 9.00012V23.0001C24.9998 24.1048 24.1045 25.0001 22.9998 25.0001H8.99979C7.89507 25.0001 6.99979 24.1048 6.99979 23.0001V9.00012C6.99979 7.89541 7.89507 7.00012 8.99979 7.00012ZM15.9994 9.33412C14.0222 9.33412 12.4194 10.937 12.4194 12.9141L12.4248 13.1121C12.4974 14.4241 13.2864 15.5662 14.444 16.1236L14.527 16.161L12.9113 22.0335C12.8237 22.3518 13.0632 22.6661 13.3934 22.6661H18.6064L18.6869 22.6598C18.9742 22.6137 19.1687 22.3253 19.0885 22.0335L17.473 16.16L17.5566 16.1236C18.7715 15.5382 19.5804 14.3082 19.5804 12.9141C19.5804 10.9368 17.9773 9.33412 15.9994 9.33412ZM15.9994 10.3341C17.4251 10.3341 18.5804 11.4891 18.5804 12.9141C18.5804 14.0593 17.82 15.0517 16.7285 15.3747L16.6457 15.4074C16.4365 15.5123 16.3241 15.7533 16.3883 15.9867L17.95 21.666H14.049L15.6125 15.9868C15.6848 15.7241 15.5334 15.4519 15.2722 15.3746C14.1799 15.0517 13.4194 14.0594 13.4194 12.9141C13.4194 11.4893 14.5745 10.3341 15.9994 10.3341Z" fill="#00005E"/>
</svg>
