<svg width="32" height="32" viewBox="0 0 32 32" fill="none" xmlns="http://www.w3.org/2000/svg">
<path fill-rule="evenodd" clip-rule="evenodd" d="M27.33 13C28.3041 13.1629 29.0135 14.0124 29.0002 15V17.07C28.977 18.0407 28.26 18.8546 27.3 19L25.9 19.24C25.7339 19.7479 25.53 20.2426 25.29 20.72L26.1 21.85C26.671 22.6455 26.5821 23.7374 25.89 24.43L24.41 25.91C24.0367 26.2856 23.5296 26.4978 23 26.5C22.592 26.5099 22.1907 26.3948 21.85 26.17L20.75 25.38C20.2656 25.6301 19.7604 25.8375 19.24 26L19 27.33C18.8371 28.3041 17.9876 29.0135 17 29.0002H15C14.0124 29.0135 13.1629 28.3041 13 27.33L12.78 25.95C12.2622 25.7806 11.7575 25.5734 11.27 25.33L10.17 26.12C9.82962 26.3664 9.42025 26.4994 9.00001 26.5C8.46205 26.5005 7.94658 26.2842 7.57001 25.9L6.09001 24.42C5.39787 23.7274 5.309 22.6355 5.88001 21.84L6.67001 20.74C6.41995 20.2556 6.2125 19.7504 6.05001 19.23L4.67001 19C3.69587 18.8371 2.98649 17.9876 2.99982 17V15C2.98649 14.0124 3.69587 13.1629 4.67001 13L6.05001 12.76C6.21518 12.2406 6.42254 11.7356 6.67001 11.25L5.88001 10.15C5.309 9.35455 5.39787 8.26264 6.09001 7.57L7.59001 6.09C7.96336 5.71441 8.47043 5.50223 9.00001 5.5C9.41683 5.50269 9.82239 5.63555 10.16 5.88L11.26 6.67C11.7444 6.41994 12.2497 6.21249 12.77 6.05L13 4.67C13.1629 3.69587 14.0124 2.98648 15 2.99981H17C17.9876 2.98648 18.8371 3.69587 19 4.67L19.24 6C19.7565 6.18434 20.258 6.40834 20.74 6.67L21.83 5.88C22.1704 5.63356 22.5798 5.5006 23 5.5C23.5365 5.4969 24.0518 5.70949 24.43 6.09L25.96 7.57C26.6521 8.26264 26.741 9.35455 26.17 10.15L25.38 11.25C25.6301 11.7344 25.8375 12.2396 26 12.76L27.33 13ZM27 17V15L25.3 14.72C24.7621 14.6367 24.3235 14.245 24.18 13.72C24.004 13.0839 23.7487 12.4724 23.42 11.9C23.1588 11.4361 23.19 10.8628 23.5 10.43L24.5 9L23 7.5L21.58 8.53C21.3494 8.69409 21.073 8.78154 20.79 8.78C20.5518 8.77841 20.3178 8.71649 20.11 8.6C19.5376 8.27135 18.9261 8.01601 18.29 7.84C17.7577 7.70851 17.3606 7.26378 17.29 6.72L17 5H15L14.72 6.7C14.6442 7.24136 14.2494 7.68356 13.72 7.82C13.0839 7.99601 12.4724 8.25135 11.9 8.58C11.6954 8.69429 11.4644 8.7529 11.23 8.75C10.9439 8.75162 10.6643 8.66426 10.43 8.5L9.00001 7.5L7.50001 9L8.53001 10.42C8.83456 10.8381 8.8734 11.3935 8.63001 11.85C8.29061 12.4336 8.02842 13.0589 7.85001 13.71C7.71357 14.2393 7.27137 14.6342 6.73001 14.71L5.00001 15V17L6.70001 17.28C7.24137 17.3558 7.68357 17.7507 7.82001 18.28C7.99602 18.9161 8.25136 19.5276 8.58001 20.1C8.84125 20.5639 8.81005 21.1372 8.50001 21.57L7.50001 23L9.00001 24.5L10.42 23.47C10.6543 23.3057 10.9339 23.2184 11.22 23.22C11.4544 23.2171 11.6854 23.2757 11.89 23.39C12.4624 23.7187 13.0739 23.974 13.71 24.15C14.2394 24.2864 14.6342 24.7286 14.71 25.27L15 27H17L17.28 25.3C17.3558 24.7586 17.7507 24.3164 18.28 24.18C18.9161 24.004 19.5276 23.7487 20.1 23.42C20.3046 23.3057 20.5357 23.2471 20.77 23.25C21.0561 23.2484 21.3357 23.3357 21.57 23.5L23 24.5L24.5 23.01L23.5 21.58C23.1804 21.1532 23.1375 20.5797 23.39 20.11C23.7145 19.5356 23.9696 18.9246 24.15 18.29C24.2874 17.7651 24.7237 17.3721 25.26 17.29L27 17ZM16 9.92C19.3556 9.92551 22.0745 12.6444 22.08 16C22.08 19.3579 19.3579 22.08 16 22.08C12.6421 22.08 9.92001 19.3579 9.92001 16C9.92001 12.6421 12.6421 9.92 16 9.92ZM16 21.08C18.8033 21.0745 21.0745 18.8033 21.08 16C21.08 13.1944 18.8056 10.92 16 10.92C13.1944 10.92 10.92 13.1944 10.92 16C10.92 18.8056 13.1944 21.08 16 21.08Z" fill="#00005E"/>
</svg>
