<svg width="32" height="32" viewBox="0 0 32 32" fill="none" xmlns="http://www.w3.org/2000/svg">
<path fill-rule="evenodd" clip-rule="evenodd" d="M14.73 6.91C14.73 6.36543 14.2945 5.92089 13.75 5.91C13.1977 5.91 12.75 6.35771 12.75 6.91V11.33L4.75 3.33C4.36892 2.92683 3.73316 2.90892 3.33 3.29C2.92683 3.67108 2.90892 4.30683 3.29 4.71L11.22 12.63H7C6.44771 12.63 6 13.0777 6 13.63C6 14.1823 6.44771 14.63 7 14.63H13.73C14.2823 14.63 14.73 14.1823 14.73 13.63V6.91ZM29.0311 27.9896C29.0217 27.7229 28.9061 27.471 28.71 27.29L20.25 18.83H24.67C25.2223 18.83 25.67 18.3823 25.67 17.83C25.67 17.2777 25.2223 16.83 24.67 16.83H18C17.4477 16.83 17 17.2777 17 17.83V24.56C17 25.1123 17.4477 25.56 18 25.56C18.5523 25.56 19 25.1123 19 24.56V20.36L27.34 28.71C27.5278 28.8993 27.7834 29.0058 28.05 29.0058C28.3166 29.0058 28.5722 28.8993 28.76 28.71C28.9429 28.5156 29.0404 28.2563 29.0311 27.9896Z" fill="#00005E"/>
</svg>
