<svg width="32" height="32" viewBox="0 0 32 32" fill="none" xmlns="http://www.w3.org/2000/svg">
<path fill-rule="evenodd" clip-rule="evenodd" d="M13 26C13.5523 26 14 26.4477 14 27C14 27.5523 13.5523 28 13 28H9.92C7.76996 28.0111 6.01651 26.28 6 24.13V7.87C6.01651 5.71999 7.76996 3.98891 9.92 3.99995H18.69C18.9523 4.0011 19.2037 4.10525 19.39 4.29L24.7 9.53C24.8909 9.71707 24.9989 9.97275 25 10.24V13C25 13.5523 24.5523 14 24 14C23.4477 14 23 13.5523 23 13V11H18.5C18.2239 11 18 10.7761 18 10.5V6H9.92C8.87449 5.98886 8.01645 6.82456 8 7.87V24.13C8.01645 25.1754 8.87449 26.0111 9.92 26H13ZM22.33 10L19 6.71V10H22.33ZM10.5 10.9999C10.2239 10.9999 10 10.7761 10 10.4999C10 10.2238 10.2239 9.99995 10.5 9.99995H13.5C13.7761 9.99995 14 10.2238 14 10.4999C14 10.7761 13.7761 10.9999 13.5 10.9999H10.5ZM22 14.9999C25.866 14.9999 29 18.134 29 21.9999C29 25.8659 25.866 28.9999 22 28.9999C18.134 28.9999 15 25.8659 15 21.9999C15 18.134 18.134 14.9999 22 14.9999ZM22 26.9999C24.7614 26.9999 27 24.7614 27 21.9999C27 19.2385 24.7614 16.9999 22 16.9999C19.2386 16.9999 17 19.2385 17 21.9999C17 24.7614 19.2386 26.9999 22 26.9999ZM24.85 19.6099C24.6704 19.441 24.3944 19.4283 24.2 19.5799L20.89 22.6699L20 21.7899C19.8732 21.6631 19.6883 21.6136 19.5151 21.66C19.3418 21.7064 19.2065 21.8418 19.1601 22.015C19.1136 22.1883 19.1632 22.3731 19.29 22.4999L20.85 24.0599L24.85 20.3099C25.0406 20.1155 25.0406 19.8044 24.85 19.6099ZM10 14.4999C10 14.7761 10.2239 14.9999 10.5 14.9999H16.5C16.7761 14.9999 17 14.7761 17 14.4999C17 14.2238 16.7761 13.9999 16.5 13.9999H10.5C10.2239 13.9999 10 14.2238 10 14.4999ZM13.5 17.9999C13.7761 17.9999 14 18.2238 14 18.4999C14 18.7761 13.7761 18.9999 13.5 18.9999H10.5C10.2239 18.9999 10 18.7761 10 18.4999C10 18.2238 10.2239 17.9999 10.5 17.9999H13.5Z" fill="#00005E"/>
</svg>
