<svg width="32" height="32" viewBox="0 0 32 32" fill="none" xmlns="http://www.w3.org/2000/svg">
<path fill-rule="evenodd" clip-rule="evenodd" d="M26 8C26 7.44772 25.5523 7 25 7H13V4C13 3.44772 12.5523 3 12 3C11.4477 3 11 3.44772 11 4V19H7C6.44772 19 6 19.4477 6 20V28H26V8ZM13 9H24V26H13V9ZM11 26H12V21H8V26H11ZM15 13.5C15 13.7761 15.2239 14 15.5 14C15.7761 14 16 13.7761 16 13.5V11.5C16 11.2239 15.7761 11 15.5 11C15.2239 11 15 11.2239 15 11.5V13.5ZM15 18.5C15 18.7761 15.2239 19 15.5 19C15.7761 19 16 18.7761 16 18.5V16.5C16 16.2239 15.7761 16 15.5 16C15.2239 16 15 16.2239 15 16.5V18.5ZM15.5 24C15.2239 24 15 23.7761 15 23.5V21.5C15 21.2239 15.2239 21 15.5 21C15.7761 21 16 21.2239 16 21.5V23.5C16 23.7761 15.7761 24 15.5 24Z" fill="#00005E"/>
</svg>
