<svg width="32" height="32" viewBox="0 0 32 32" fill="none" xmlns="http://www.w3.org/2000/svg">
<path fill-rule="evenodd" clip-rule="evenodd" d="M17 25C17.5523 25 18 25.4477 18 26C18 26.5523 17.5523 27 17 27H10.78C8.69464 26.9945 7.0055 25.3054 7 23.22V7.79003C7 5.69687 8.69684 4.00002 10.79 4.00002H19C19.2658 3.9985 19.5213 4.10285 19.71 4.29003L24.71 9.29003C24.8972 9.47875 25.0015 9.73423 25 10V15C25 15.5523 24.5523 16 24 16C23.4477 16 23 15.5523 23 15V11H18.5C18.2239 11 18 10.7762 18 10.5V6.00003H10.79C9.80141 6.00003 9 6.80144 9 7.79003V23.22C9 24.2031 9.79693 25 10.78 25H17ZM22.59 10L19 6.41003V10H22.59ZM11.5 11C11.2239 11 11 10.7762 11 10.5C11 10.2239 11.2239 10 11.5 10H14.5C14.7761 10 15 10.2239 15 10.5C15 10.7762 14.7761 11 14.5 11H11.5ZM25.89 20C26.0335 20.1475 26.0335 20.3825 25.89 20.53L25.04 21.41C24.9698 21.4824 24.9304 21.5792 24.93 21.68V22.93C24.9327 23.0282 24.8963 23.1233 24.8287 23.1946C24.7612 23.2659 24.6681 23.3074 24.57 23.31H24.33V27.93L21.89 26.34L19.65 28V23.31H19.41C19.204 23.3046 19.0399 23.136 19.04 22.93V21.68C19.0396 21.5792 19.0002 21.4824 18.93 21.41L18.08 20.53C17.9402 20.3772 17.9402 20.1429 18.08 19.99L18.94 19.11C19.002 19.0334 19.0371 18.9385 19.04 18.84V17.59C19.0399 17.384 19.204 17.2154 19.41 17.21H20.63C20.725 17.2099 20.8157 17.17 20.88 17.1L21.74 16.21C21.8081 16.1395 21.902 16.0998 22 16.1C22.0937 16.1062 22.1822 16.1452 22.25 16.21L23.1 17.1C23.1681 17.1706 23.262 17.2103 23.36 17.21H24.53C24.6281 17.2126 24.7212 17.2541 24.7887 17.3254C24.8563 17.3967 24.8927 17.4919 24.89 17.59V18.84C24.8914 18.9407 24.9307 19.0371 25 19.11L25.89 20ZM21.89 25.13L23.37 26.08V23.32C23.2832 23.3218 23.2005 23.3577 23.14 23.42L22.29 24.31C22.2196 24.3771 22.1272 24.4162 22.03 24.42C21.932 24.4203 21.8381 24.3806 21.77 24.31L20.91 23.42C20.8526 23.3592 20.7736 23.3233 20.69 23.32V26.02L21.89 25.13ZM24.77 20.27L24.36 20.73C24.1004 20.9971 23.9597 21.3577 23.97 21.73V22.36H23.4C23.0226 22.3541 22.66 22.5064 22.4 22.78L22.01 23.18L21.61 22.78C21.3515 22.5043 20.9879 22.3516 20.61 22.36H20V21.73C20.0103 21.3577 19.8696 20.9971 19.61 20.73L19.17 20.27L19.62 19.81C19.877 19.542 20.0141 19.1811 20 18.81V18.18H20.58C20.9579 18.1885 21.3215 18.0358 21.58 17.76L21.98 17.35L22.37 17.76C22.63 18.0337 22.9926 18.186 23.37 18.18H23.94V18.81C23.9297 19.1823 24.0704 19.543 24.33 19.81L24.77 20.27ZM18.5 15C18.7761 15 19 14.7762 19 14.5C19 14.2239 18.7761 14 18.5 14H11.5C11.2239 14 11 14.2239 11 14.5C11 14.7762 11.2239 15 11.5 15H18.5ZM11.5 18H14.5C14.7761 18 15 18.2239 15 18.5C15 18.7762 14.7761 19 14.5 19H11.5C11.2239 19 11 18.7762 11 18.5C11 18.2239 11.2239 18 11.5 18Z" fill="#00005E"/>
</svg>
