<svg width="32" height="32" viewBox="0 0 32 32" fill="none" xmlns="http://www.w3.org/2000/svg">
<path fill-rule="evenodd" clip-rule="evenodd" d="M27 13.27C27 12.7177 26.5523 12.27 26 12.27C25.4477 12.27 25 12.7177 25 13.27V23.44C25 24.3016 24.3016 25 23.44 25H8.56C7.69844 25 7 24.3016 7 23.44V8.56C7 7.69844 7.69844 7 8.56 7H22.36C22.9123 7 23.36 6.55228 23.36 6C23.36 5.44772 22.9123 5 22.36 5H8.56C6.59615 5.00549 5.00549 6.59615 5 8.56V23.44C5.00549 25.4039 6.59615 26.9945 8.56 27H23.44C25.4039 26.9945 26.9945 25.4039 27 23.44V13.27ZM28.4558 6.71C28.4558 6.44336 28.3493 6.18777 28.16 6C27.77 5.61228 27.14 5.61228 26.75 6L15.82 16.93L11.16 12.28C10.77 11.8923 10.14 11.8923 9.75 12.28C9.36228 12.67 9.36228 13.3 9.75 13.69L15.82 19.76L28.16 7.42C28.3493 7.23223 28.4558 6.97664 28.4558 6.71Z" fill="#00005E"/>
</svg>
