<svg width="32" height="32" viewBox="0 0 32 32" fill="none" xmlns="http://www.w3.org/2000/svg">
<path fill-rule="evenodd" clip-rule="evenodd" d="M26.5812 11.4188C26.313 11.1506 25.9493 11 25.57 11H21.72C22.0817 10.6601 22.416 10.2923 22.72 9.89996L23.39 9.04996C24.3501 7.70917 24.1842 5.86762 23 4.71996C22.5078 4.26863 21.8677 4.01259 21.2 3.99995C20.3315 3.99751 19.5141 4.40995 19 5.10996L18.35 5.99996C17.4333 7.18055 16.7818 8.54486 16.44 9.99996C16.1027 8.54328 15.4508 7.17802 14.53 5.99996L13.86 5.12996C13.3554 4.43211 12.5511 4.01328 11.69 3.99995C11.0123 4.00713 10.3609 4.26341 9.86 4.71996C8.68931 5.87734 8.53651 7.71514 9.5 9.04996L10.18 9.89996C10.4811 10.2947 10.8156 10.6627 11.18 11H6.43C6.05074 11 5.68701 11.1506 5.41884 11.4188C5.15066 11.687 5 12.0507 5 12.43V15.57C5 16.3597 5.64023 17 6.43 17H7V23.07C7 25.7927 9.20724 28 11.93 28H20.07C22.7928 28 25 25.7927 25 23.07V17H25.57C26.3598 17 27 16.3597 27 15.57V12.43C27 12.0507 26.8493 11.687 26.5812 11.4188ZM10.56 5.45996C10.8716 5.17976 11.2713 5.01707 11.69 4.99996C12.2377 5.00936 12.749 5.27612 13.07 5.71996L13.74 6.58996C14.7345 7.87439 15.3819 9.39305 15.62 11H12.75C12.0871 10.5136 11.4977 9.93436 11 9.27996L10.35 8.45996C9.67465 7.54383 9.7636 6.27307 10.56 5.45996ZM17.27 11C17.5047 9.39388 18.1487 7.87519 19.14 6.58996L19.82 5.70996C20.1442 5.27111 20.6545 5.00857 21.2 4.99996C21.6224 5.00489 22.0281 5.16507 22.34 5.44996C23.1571 6.24898 23.2636 7.52673 22.59 8.44996L21.91 9.30996C21.4053 9.95639 20.8091 10.5257 20.14 11H17.27ZM7 13V15H16V13H7ZM11.93 26C10.3118 26 9 24.6882 9 23.07V17H16V26H11.93ZM23 23.07V17H17V26H20.07C21.6882 26 23 24.6882 23 23.07ZM25 13V15H17V13H25Z" fill="#00005E"/>
</svg>
