<svg width="32" height="32" viewBox="0 0 32 32" fill="none" xmlns="http://www.w3.org/2000/svg">
<path fill-rule="evenodd" clip-rule="evenodd" d="M26 26V17.39C26 16.338 25.637 15.326 25 14.532V15.916C25 19.276 22.311 22 18.993 22H11.043C11.26 24.24 13.055 26 15.254 26H26ZM6 10.084V20H18.993C21.203 20 23 18.168 23 15.916V10.084C23 7.832 21.203 6 18.993 6H10.006C7.797 6 6 7.832 6 10.084ZM25.461 12.205C27.051 13.417 28 15.355 28 17.39V28H15.254C11.952 28 9.246 25.346 9.022 22H4V10.084C4 6.724 6.689 4 10.006 4H18.993C22.311 4 25 6.724 25 10.084V12.025C25.162 12.049 25.321 12.098 25.461 12.205ZM8.5 10C8.5 9.724 8.724 9.5 9 9.5H19C19.276 9.5 19.5 9.724 19.5 10C19.5 10.276 19.276 10.5 19 10.5H9C8.724 10.5 8.5 10.276 8.5 10ZM14 14.5C14.276 14.5 14.5 14.276 14.5 14C14.5 13.724 14.276 13.5 14 13.5H9C8.724 13.5 8.5 13.724 8.5 14C8.5 14.276 8.724 14.5 9 14.5H14Z" fill="#00005E"/>
</svg>
