<svg width="32" height="32" viewBox="0 0 32 32" fill="none" xmlns="http://www.w3.org/2000/svg">
<path fill-rule="evenodd" clip-rule="evenodd" d="M12.5 14C11.3057 14.0027 10.1596 13.5294 9.31507 12.6849C8.47058 11.8404 7.99733 10.6943 7.99998 9.5C7.99998 7.01472 10.0147 5 12.5 5C14.9853 5 17 7.01472 17 9.5C17 11.9853 14.9853 14 12.5 14ZM15 9.5C15.0004 8.60278 14.5142 7.7759 13.73 7.34C13.0378 8.8318 11.7939 9.99688 10.26 10.59C10.7606 11.6464 11.9288 12.2123 13.0681 11.9503C14.2075 11.6883 15.0111 10.669 15 9.5ZM9.99999 9.5C9.99999 8.11929 11.1193 7 12.5 7C12.5932 6.99455 12.6867 6.99455 12.78 7C12.2034 8.17816 11.2141 9.10343 9.99999 9.6V9.5ZM18 11.5C18 13.433 19.567 15 21.5 15C23.433 15 25 13.433 25 11.5C25 9.567 23.433 8 21.5 8C19.567 8 18 9.567 18 11.5ZM20 11.5C20 10.6716 20.6716 10 21.5 10C22.3284 10 23 10.6716 23 11.5C23 12.3284 22.3284 13 21.5 13C20.6716 13 20 12.3284 20 11.5ZM26.73 20.78C27.0389 19.7325 26.8707 18.6021 26.27 17.69C25.5386 16.6069 24.3066 15.9702 23 16H19.21C18.4016 15.3589 17.4018 15.0068 16.37 15H9.76C8.30675 14.9755 6.92195 15.6164 6 16.74C5.03675 17.9356 4.72271 19.5283 5.16 21L5.76 23C6.50184 25.385 8.71231 27.0074 11.21 27.0001H14.65C16.3245 27.0096 17.9172 26.2773 19 25H21.52C23.8767 24.9916 25.9492 23.4392 26.62 21.18L26.73 20.78ZM18.37 17.91C18.9575 18.6784 19.1051 19.6964 18.76 20.6L18.17 22.44C17.6757 23.9662 16.2542 25 14.65 25H11.21C9.57997 25.0071 8.13951 23.941 7.67 22.38L7.07 20.38C6.84086 19.5555 7.01921 18.6712 7.55 18C8.09286 17.3435 8.90848 16.9744 9.76 17H16.37C17.1384 16.9929 17.8706 17.326 18.37 17.91ZM24.76 20.22H24.81C24.9514 19.7289 24.8749 19.2008 24.6 18.77C24.2268 18.2646 23.6278 17.9763 23 18H20.67C21.0228 19.0409 21.0228 20.1691 20.67 21.21L20.09 23H21.52C22.9704 22.9731 24.2364 22.0104 24.65 20.62L24.76 20.22Z" fill="#00005E"/>
</svg>
