<svg width="32" height="32" viewBox="0 0 32 32" fill="none" xmlns="http://www.w3.org/2000/svg">
<path fill-rule="evenodd" clip-rule="evenodd" d="M28 15C28 13.3431 26.6569 12 25 12H19V6.62C18.9945 5.17529 17.8247 4.00548 16.38 4H6.62C5.17529 4.00548 4.00548 5.17529 4 6.62V16.38C4.00548 17.8247 5.17529 18.9945 6.62 19H12V25C12 26.6569 13.3431 28 15 28H25.05C26.668 27.9732 27.9732 26.668 28 25.05V15ZM12 17H6.62C6.45557 17 6.29787 16.9347 6.18159 16.8184C6.06532 16.7021 6 16.5444 6 16.38V6.62C6 6.27758 6.27758 6 6.62 6H16.38C16.5444 6 16.7021 6.06532 16.8184 6.18159C16.9347 6.29787 17 6.45557 17 6.62V12H16.54C16.4082 12.0051 16.284 12.0632 16.1955 12.1611C16.1071 12.2589 16.0618 12.3883 16.07 12.52C16.0807 12.7883 16.3015 13.0002 16.57 13H17V16.38C17 16.5444 16.9347 16.7021 16.8184 16.8184C16.7021 16.9347 16.5444 17 16.38 17H13V16.58C13.0054 16.4474 12.9579 16.318 12.8678 16.2205C12.7778 16.1229 12.6526 16.0652 12.52 16.06C12.3852 16.0455 12.2507 16.09 12.151 16.182C12.0514 16.2739 11.9963 16.4045 12 16.54V17ZM26 25.05V15C26 14.4477 25.5523 14 25 14H19V16.38C18.9945 17.8247 17.8247 18.9945 16.38 19H14V25C14 25.5523 14.4477 26 15 26H25.05C25.5639 25.9749 25.9749 25.5639 26 25.05ZM12.98 14.73C13.0521 14.7961 13.143 14.838 13.24 14.85C13.4045 14.8486 13.5579 14.7663 13.65 14.63C13.9173 14.2366 14.2566 13.8973 14.65 13.63C14.821 13.5409 14.9255 13.3613 14.9185 13.1686C14.9116 12.9759 14.7944 12.8044 14.6175 12.7278C14.4405 12.6512 14.2353 12.6832 14.09 12.81C13.601 13.1359 13.1798 13.5536 12.85 14.04C12.774 14.1482 12.7449 14.2825 12.7694 14.4124C12.7939 14.5424 12.8698 14.6569 12.98 14.73Z" fill="#00005E"/>
</svg>
