<svg width="32" height="32" viewBox="0 0 32 32" fill="none" xmlns="http://www.w3.org/2000/svg">
<path fill-rule="evenodd" clip-rule="evenodd" d="M24.1615 7.72529L24.161 7.72343C23.588 5.72215 21.3866 4.71532 19.4424 5.23378L19.4277 5.23767L4.69845 9.64644L4.68379 9.65133C2.70814 10.3099 1.58224 12.3279 2.13849 14.2747L2.14091 14.2832L4.64113 22.4839C5.21737 24.4803 7.41582 25.4841 9.35768 24.9662L9.37375 24.962L15.6284 23.0691C15.6096 23.2767 15.6 23.4871 15.6 23.7C15.6 24.6592 15.7966 25.4862 16.2297 26.1626C16.6673 26.8461 17.2882 27.285 17.9731 27.5637C19.2653 28.0896 20.9552 28.1 22.5 28.1C24.0449 28.1 25.7348 28.0896 27.027 27.5637C27.7118 27.285 28.3327 26.8461 28.7703 26.1626C29.2034 25.4862 29.4 24.6592 29.4 23.7C29.4 20.8674 27.6062 18.3793 25.1126 17.3298L26.6339 13.3576C26.759 13.0308 26.7042 12.6623 26.4894 12.386L25.7 13C26.4894 12.386 26.489 12.3856 26.4887 12.3852L26.488 12.3843L26.4866 12.3825L26.4832 12.3782L26.4748 12.3677C26.4712 12.3633 26.4672 12.3583 26.4627 12.3528C26.4592 12.3485 26.4554 12.3439 26.4512 12.339C26.4326 12.3167 26.4079 12.288 26.3775 12.2544C26.3168 12.1875 26.2317 12.0994 26.1241 12.0024C25.9224 11.8207 25.6194 11.5877 25.2294 11.4142L24.1615 7.72529ZM23.1302 11.3552L22.2395 8.27807L22.2385 8.27473C22.0116 7.48059 21.0212 6.88983 19.9709 7.16276L5.30294 11.5532C4.29076 11.8977 3.8216 12.8702 4.05942 13.7178L4.5214 15.2331L15.957 11.8209C16.2216 11.7419 16.5002 11.8924 16.5791 12.157C16.6581 12.4216 16.5076 12.7002 16.243 12.7791L4.81303 16.1897L6.55912 21.9168L6.56154 21.9253C6.78834 22.7191 7.77801 23.3097 8.82777 23.0376L16.2404 20.7943C17.0016 19.1621 18.3819 17.8876 20.0567 17.2495L18.5661 13.3576C18.4487 13.051 18.4893 12.7063 18.6747 12.4353L19.5 13C18.6747 12.4353 18.675 12.4349 18.6753 12.4344L18.676 12.4335L18.6774 12.4314L18.6806 12.4268L18.6885 12.4155C18.6946 12.407 18.702 12.3967 18.7109 12.3847C18.7285 12.3608 18.752 12.3301 18.781 12.2941C18.8387 12.2226 18.9201 12.1282 19.0241 12.0241C19.2273 11.821 19.5426 11.5549 19.9612 11.3646C20.3909 11.1693 20.9358 11.0524 21.5524 11.1757C21.9128 11.2477 22.2651 11.3954 22.6072 11.6181C22.7787 11.5113 22.9531 11.4238 23.1302 11.3552ZM22.5 18.8C19.8412 18.8 17.6 20.9633 17.6 23.7C17.6 24.3908 17.7409 24.8138 17.9141 25.0842C18.0827 25.3476 18.3368 25.5525 18.727 25.7113C19.5848 26.0604 20.8449 26.1 22.5 26.1C24.1552 26.1 25.4153 26.0604 26.2731 25.7113C26.6632 25.5525 26.9173 25.3476 27.086 25.0842C27.2591 24.8138 27.4 24.3908 27.4 23.7C27.4 21.0523 25.1477 18.8 22.5 18.8ZM21.9879 16.7L20.6673 13.2519C20.7066 13.2268 20.7472 13.2043 20.7888 13.1854C20.9092 13.1307 21.0267 13.1101 21.1601 13.1368C21.2984 13.1645 21.5478 13.262 21.8929 13.6071C22.2834 13.9976 22.9166 13.9976 23.3071 13.6071C23.6185 13.2957 23.851 13.2069 23.9881 13.1809C24.1266 13.1546 24.2594 13.175 24.3985 13.2337C24.4391 13.2509 24.4788 13.2707 24.5171 13.2925L23.2122 16.7H21.9879Z" fill="#00005E"/>
</svg>
