<svg width="32" height="32" viewBox="0 0 32 32" fill="none" xmlns="http://www.w3.org/2000/svg">
<path fill-rule="evenodd" clip-rule="evenodd" d="M26.29 6C27.2997 6.02356 28.2585 6.44811 28.9546 7.17986C29.6507 7.91162 30.0269 8.89039 30 9.9L30 18C30 18 30 19 29 19C28 19 28 18 28 18V20.5103C28.1854 20.6699 28.3639 20.8341 28.5351 21H30L30 21L28.5351 21C29.6201 22.0519 30.4066 23.1744 30.737 23.678C30.8465 23.845 30.8465 24.055 30.737 24.222C30.031 25.298 27.2425 29.2 23.9095 29.2C20.5765 29.2 17.788 25.298 17.082 24.222C16.9725 24.055 16.9725 23.845 17.082 23.678C17.788 22.602 20.5765 18.7 23.9095 18.7C25.4366 18.7 26.8494 19.5191 28 20.5102V13H3.99998V22.1C3.95447 23.0944 4.7163 23.9409 5.70998 24H15C15 24 16 24 16 25C16 26 15 26 15 26H5.71C3.60948 25.9455 1.94966 24.2006 2 22.1V9.9C1.97315 8.89039 2.34932 7.91162 3.04542 7.17986C3.74153 6.44811 4.70031 6.02356 5.71 6H26.29ZM23.9095 19.7C24.99 19.7 26.0634 20.2526 27.0131 21H26.29H25.9999V23.985C25.9919 22.8879 25.1003 22 24 22C22.896 22 22 22.896 22 24C22 25.1053 22.896 26 24 26C25.1013 26 25.9934 25.1119 26 24.0122V26L26 26V24H26.29C26.3135 23.9986 26.3369 23.9968 26.3601 23.9945C26.3369 23.9968 26.3135 23.9986 26.29 24H26C26 23.9959 26 23.9919 26 23.9878V21L27.0131 21C28.1691 21.9098 29.1415 23.1081 29.7195 23.95C28.6655 25.484 26.3045 28.2 23.9095 28.2C21.514 28.2 19.1525 25.4835 18.0995 23.95C19.1535 22.416 21.5145 19.7 23.9095 19.7ZM4 9.9C3.95449 8.9056 4.71632 8.05912 5.71 8H26.29C27.2837 8.05912 28.0455 8.9056 28 9.9V12H4V9.9Z" fill="#00005E"/>
</svg>
