<svg width="32" height="32" viewBox="0 0 32 32" fill="none" xmlns="http://www.w3.org/2000/svg">
<path fill-rule="evenodd" clip-rule="evenodd" d="M24.82 7C26.6565 7.09704 28.0737 8.65244 28 10.49V21.49C28.085 23.3352 26.6646 24.903 24.82 25H7.17999C5.34352 24.903 3.92628 23.3476 3.99999 21.51V10.51C3.91498 8.6648 5.33538 7.097 7.17999 7H24.82ZM7.17999 9C6.4471 9.10843 5.92806 9.77263 5.99999 10.51V12H26V10.51C26.0719 9.77263 25.5529 9.10843 24.82 9H7.17999ZM26 21.49C26.0719 22.2274 25.5529 22.8916 24.82 23H7.17999C6.4471 22.8916 5.92806 22.2274 5.99999 21.49V13H26V21.49ZM19 19.5C19 20.3284 18.3284 21 17.5 21C16.6716 21 16 20.3284 16 19.5C16 18.6716 16.6716 18 17.5 18C18.3284 18 19 18.6716 19 19.5ZM22.5 21C23.3284 21 24 20.3284 24 19.5C24 18.6716 23.3284 18 22.5 18C21.6716 18 21 18.6716 21 19.5C21 20.3284 21.6716 21 22.5 21Z" fill="#00005E"/>
</svg>
