<svg width="32" height="32" viewBox="0 0 32 32" fill="none" xmlns="http://www.w3.org/2000/svg">
<path fill-rule="evenodd" clip-rule="evenodd" d="M4.11626 9.8C4.11626 7.14848 6.26474 5 8.91626 5C11.5678 5 13.7163 7.14848 13.7163 9.8C13.7163 12.4515 11.5678 14.6 8.91626 14.6C6.26474 14.6 4.11626 12.4515 4.11626 9.8ZM11.7963 9.8C11.7963 8.21216 10.5041 6.92 8.91626 6.92C7.32842 6.92 6.03626 8.21216 6.03626 9.8C6.03626 11.3878 7.32842 12.68 8.91626 12.68C10.5041 12.68 11.7963 11.3878 11.7963 9.8ZM24.3119 11.1613C24.1984 8.29109 21.8367 6 18.9386 6H16.0129V8H18.9386L19.124 8.005C20.9036 8.10117 22.3162 9.57384 22.3162 11.3776V12.9021L20.7071 11.2929L20.6129 11.2097C20.2206 10.9047 19.6534 10.9324 19.2929 11.2929C18.9024 11.6834 18.9024 12.3166 19.2929 12.7071L22.5751 15.9893L22.6693 16.0725C23.0616 16.3775 23.6287 16.3498 23.9892 15.9895L27.2724 12.7072L27.3556 12.613C27.6607 12.2208 27.6331 11.6535 27.2726 11.293L27.1785 11.2098C26.7862 10.9047 26.219 10.9324 25.8584 11.2928L24.3162 12.8342V11.3776L24.3119 11.1613ZM22.8 18.3199C20.1485 18.3199 18 20.4684 18 23.1199C18 25.7715 20.1485 27.9199 22.8 27.9199C25.4515 27.9199 27.6 25.7715 27.6 23.1199C27.6 20.4684 25.4515 18.3199 22.8 18.3199ZM22.8 20.2399C24.3878 20.2399 25.68 21.5321 25.68 23.1199C25.68 24.7078 24.3878 25.9999 22.8 25.9999C21.2122 25.9999 19.92 24.7078 19.92 23.1199C19.92 21.5321 21.2122 20.2399 22.8 20.2399ZM9.29626 20.4277V21.6024C9.29626 23.4062 10.7088 24.8789 12.4885 24.9751L12.6739 24.98H16.3007V26.98H12.6739C9.77579 26.98 7.41402 24.689 7.30053 21.8188L7.29626 21.6024V20.3997L5.70711 21.9893C5.34662 22.3498 4.77939 22.3776 4.3871 22.0725L4.29289 21.9893C3.93241 21.6289 3.90468 21.0616 4.2097 20.6693L4.29289 20.5751L7.57513 17.2929C7.93558 16.9324 8.50274 16.9047 8.89503 17.2096L8.98924 17.2928L12.2724 20.575C12.663 20.9655 12.6631 21.5987 12.2726 21.9892C11.9122 22.3498 11.345 22.3776 10.9527 22.0726L10.8584 21.9895L9.29626 20.4277Z" fill="#00005E"/>
</svg>
