<svg width="32" height="32" viewBox="0 0 32 32" fill="none" xmlns="http://www.w3.org/2000/svg">
<path fill-rule="evenodd" clip-rule="evenodd" d="M28 16C28 9.37258 22.6274 4 16 4C9.37258 4 4 9.37258 4 16C4 22.6274 9.37258 28 16 28C22.6274 28 28 22.6274 28 16ZM9.48 23.61H9.52C9.55289 21.5909 11.2108 19.9777 13.23 20H18.77C20.7892 19.9777 22.4471 21.5909 22.48 23.61C18.7378 26.8109 13.2222 26.8109 9.48 23.61ZM23.39 22.72C27.03 18.7272 26.8402 12.5651 22.9614 8.80386C19.0825 5.04264 12.9175 5.04264 9.03863 8.80386C5.15978 12.5651 4.96998 18.7272 8.61 22.72C9.08121 20.5464 11.0059 18.9966 13.23 19H18.77C20.9941 18.9966 22.9188 20.5464 23.39 22.72ZM18.8284 10.1716C18.0783 9.42143 17.0609 9 16 9C13.7909 9 12 10.7909 12 13C12 15.2091 13.7909 17 16 17C18.2091 17 20 15.2091 20 13C20 11.9391 19.5786 10.9217 18.8284 10.1716ZM13 13C13 11.3431 14.3431 10 16 10H16.11C15.6698 11.4898 14.4953 12.6491 13 13.07V13ZM16 16C17.4381 15.994 18.6695 14.9683 18.9356 13.555C19.2017 12.1418 18.4274 10.7385 17.09 10.21C16.5662 12.0893 15.086 13.5505 13.2 14.05C13.6368 15.2192 14.7519 15.9957 16 16Z" fill="#00005E"/>
</svg>
