<svg width="32" height="32" viewBox="0 0 32 32" fill="none" xmlns="http://www.w3.org/2000/svg">
<path fill-rule="evenodd" clip-rule="evenodd" d="M4.42633 15.9999C4.42633 9.64396 9.65447 4.42627 16.0852 4.42627C16.2864 4.42627 16.4983 4.45672 16.6299 4.47564C16.6379 4.47679 16.6456 4.4779 16.653 4.47896C16.8226 4.50318 16.8956 4.51154 16.938 4.51154C17.3906 4.51154 17.7868 4.81562 17.9039 5.25288C18.021 5.69014 17.8298 6.15152 17.4377 6.37773C15.5363 7.47467 14.2713 9.61373 14.2713 11.9922C14.2713 15.6182 17.2344 18.5813 20.8604 18.5813C22.7888 18.5813 24.5657 17.7676 25.8284 16.3564C26.1164 16.0344 26.5787 15.9339 26.9744 16.107C27.3702 16.2802 27.6101 16.6879 27.5691 17.118C27.0086 23.003 22.0585 27.5736 16 27.5736C9.64924 27.5736 4.42633 22.3506 4.42633 15.9999ZM14.1463 6.62099C9.73969 7.51877 6.42633 11.4112 6.42633 15.9999C6.42633 21.2461 10.7538 25.5736 16 25.5736C20.0716 25.5736 23.5277 23.0896 24.94 19.5634C23.7083 20.2227 22.3163 20.5813 20.8604 20.5813C16.1299 20.5813 12.2713 16.7227 12.2713 11.9922C12.2713 9.98766 12.964 8.09855 14.1463 6.62099Z" fill="#00005E"/>
</svg>
