<svg width="32" height="32" viewBox="0 0 32 32" fill="none" xmlns="http://www.w3.org/2000/svg">
<path fill-rule="evenodd" clip-rule="evenodd" d="M18 4C18.2342 4 18.4597 4.08217 18.6382 4.23013L18.7233 4.30952L23.7233 9.54752C23.8713 9.70254 23.9648 9.9001 23.9918 10.1105L24 10.238V10.5V14C24 14.5523 23.5523 15 23 15C22.4872 15 22.0645 14.614 22.0067 14.1166L22 14V11H17.5C17.2545 11 17.0504 10.8231 17.0081 10.5899L17 10.5V6H9.832C8.87087 6 8.08251 6.74031 8.00607 7.68176L8 7.832V24.168C8 25.1291 8.74031 25.9175 9.68176 25.9939L9.832 26H14C14.5523 26 15 26.4477 15 27C15 27.5128 14.614 27.9355 14.1166 27.9933L14 28H9.832C7.78185 28 6.10762 26.3898 6.00499 24.3652L6 24.168V7.832C6 5.78185 7.61016 4.10762 9.63481 4.00499L9.832 4H17.5H18ZM18 6.4484L21.3901 10H18V6.4484ZM18 12.5C18 12.2239 17.7761 12 17.5 12H10.5L10.4101 12.0081C10.1769 12.0504 10 12.2545 10 12.5C10 12.7761 10.2239 13 10.5 13H17.5L17.5899 12.9919C17.8231 12.9496 18 12.7455 18 12.5ZM14.5 16C14.7761 16 15 16.2239 15 16.5C15 16.7455 14.8231 16.9496 14.5899 16.9919L14.5 17H10.5C10.2239 17 10 16.7761 10 16.5C10 16.2545 10.1769 16.0504 10.4101 16.0081L10.5 16H14.5ZM22.2999 16.2841C22.3969 16.2041 22.5139 16.1641 22.6309 16.1641C22.7789 16.1641 22.9259 16.2271 23.0279 16.3501C24.4359 18.0531 26.5229 18.6651 28.3869 19.0431C28.5949 19.0871 28.7549 19.2541 28.7889 19.4631C28.8919 20.0581 28.9439 20.6591 28.9459 21.2631C28.9459 25.6651 25.3379 29.9411 22.6309 29.9411C19.9249 29.9411 16.3169 25.6471 16.3169 21.2631C16.3179 20.6591 16.3699 20.0571 16.4729 19.4631C16.5079 19.2541 16.6679 19.0871 16.8759 19.0431C18.7399 18.6651 20.8269 18.0531 22.2349 16.3501C22.2539 16.3261 22.2769 16.3051 22.2999 16.2841ZM26.9299 20.7641C25.5159 20.4051 23.9639 19.8311 22.6329 18.7561C21.3069 19.8281 19.7539 20.4021 18.3329 20.7641C18.3219 20.9321 18.3169 21.0991 18.3169 21.2661C18.3169 24.7811 21.2469 27.9411 22.6309 27.9411C23.8479 27.9411 26.9459 24.9791 26.9459 21.2631C26.9449 21.0971 26.9409 20.9311 26.9299 20.7641Z" fill="#00005E"/>
</svg>
