<svg width="32" height="32" viewBox="0 0 32 32" fill="none" xmlns="http://www.w3.org/2000/svg">
<path fill-rule="evenodd" clip-rule="evenodd" d="M13.5 4C12.9477 4 12.5 4.44772 12.5 5C12.5 5.55228 12.9477 6 13.5 6H15.5V8H15.2978C9.92501 8.37871 5.81705 12.95 6.00628 18.3394C6.19552 23.7288 10.614 28 16 28C21.386 28 25.8045 23.7288 25.9937 18.3394C26.183 12.95 22.075 8.37871 16.7022 8H16.5V6H18.5C19.0523 6 19.5 5.55228 19.5 5C19.5 4.44772 19.0523 4 18.5 4H16.5H15.5H13.5ZM8.00001 17.9896C7.99425 22.4058 11.5681 25.9914 15.9843 26C20.4052 26 23.9914 22.4208 24 18C24 13.5837 20.4214 10.0029 16.0052 10C11.589 9.99713 8.00577 13.5733 8.00001 17.9896ZM16 12C15.4477 12 15 12.398 15 12.8889V19.1111C15 19.602 15.4477 20 16 20C16.5523 20 17 19.602 17 19.1111V12.8889C17 12.398 16.5523 12 16 12ZM16 24C16.5523 24 17 23.5523 17 23C17 22.4477 16.5523 22 16 22C15.4477 22 15 22.4477 15 23C15 23.5523 15.4477 24 16 24Z" fill="#00005E"/>
</svg>
