<svg width="32" height="32" viewBox="0 0 32 32" fill="none" xmlns="http://www.w3.org/2000/svg">
<path fill-rule="evenodd" clip-rule="evenodd" d="M13.67 7.36V7.25C13.7591 6.48446 14.4425 5.92971 15.21 6H15.68C16.4475 5.92971 17.1309 6.48446 17.22 7.25V7.36H13.67ZM11.67 7.36V7.25C11.7565 5.37798 13.3374 3.92656 15.21 4H15.68C17.5526 3.92656 19.1335 5.37798 19.22 7.25V7.36H26C26.5523 7.36 27 7.80771 27 8.36C27 8.91228 26.5523 9.36 26 9.36H24.13C24.1391 9.41294 24.1391 9.46706 24.13 9.52L23.2 23.6C23.0006 26.6276 20.4941 28.9856 17.46 29H13.7C10.6368 28.9821 8.12354 26.5698 7.98 23.51L7.24 9.51V9.36H6C5.44772 9.36 5 8.91228 5 8.36C5 7.80771 5.44772 7.36 6 7.36H11.67ZM22.14 9.42V9.36L22.136 9.42H9.27L10 23.42C10.0997 25.4008 11.717 26.9657 13.7 27H17.46C19.4531 26.9876 21.094 25.4297 21.21 23.44L22.136 9.42H22.14ZM12.5 23C12.2239 23 12 22.7761 12 22.5V12.5C12 12.2239 12.2239 12 12.5 12C12.7761 12 13 12.2239 13 12.5V22.5C13 22.7761 12.7761 23 12.5 23ZM15.5 23C15.2239 23 15 22.7761 15 22.5V12.5C15 12.2239 15.2239 12 15.5 12C15.7761 12 16 12.2239 16 12.5V22.5C16 22.7761 15.7761 23 15.5 23ZM18 22.5C18 22.7761 18.2239 23 18.5 23C18.7761 23 19 22.7761 19 22.5V12.5C19 12.2239 18.7761 12 18.5 12C18.2239 12 18 12.2239 18 12.5V22.5Z" fill="#00005E"/>
</svg>
