<svg width="24" height="24" viewBox="0 0 24 24" fill="none" xmlns="http://www.w3.org/2000/svg">
<path fill-rule="evenodd" clip-rule="evenodd" d="M2 6.41C2 5.63128 2.63128 5 3.41 5H20.59C21.3687 5 22 5.63128 22 6.41V14.03H2V6.41ZM2 15.03V16.02C2 16.7987 2.63128 17.43 3.41 17.43H20.59C21.3687 17.43 22 16.7987 22 16.02V15.03H2ZM3.41 3C1.52671 3 0 4.52671 0 6.41V16.02C0 17.9033 1.52671 19.43 3.41 19.43H9.86V19.8101C9.86 20.2079 9.70197 20.5894 9.42066 20.8707C9.34946 20.9419 9.27184 21.0052 9.18916 21.0601H7.28003C6.72774 21.0601 6.28003 21.5078 6.28003 22.0601C6.28003 22.6123 6.72774 23.0601 7.28003 23.0601H16.72C17.2723 23.0601 17.72 22.6123 17.72 22.0601C17.72 21.5078 17.2723 21.0601 16.72 21.0601H14.8209C14.7382 21.0052 14.6606 20.9419 14.5894 20.8707C14.3081 20.5894 14.15 20.2079 14.15 19.8101V19.43H20.59C22.4733 19.43 24 17.9033 24 16.02V6.41C24 4.52671 22.4733 3 20.59 3H3.41ZM13.485 21.0601C13.2674 20.6832 13.15 20.2527 13.15 19.8101V19.43H10.86V19.8101C10.86 20.2527 10.7426 20.6832 10.5251 21.0601H13.485ZM12 15.42C11.8457 15.42 11.6949 15.4658 11.5666 15.5515C11.4384 15.6372 11.3384 15.759 11.2793 15.9016C11.2203 16.0441 11.2049 16.2009 11.235 16.3522C11.2651 16.5035 11.3393 16.6425 11.4484 16.7516C11.5575 16.8607 11.6965 16.935 11.8478 16.9651C11.9991 16.9952 12.1559 16.9797 12.2985 16.9207C12.441 16.8616 12.5628 16.7617 12.6485 16.6334C12.7342 16.5051 12.78 16.3543 12.78 16.2C12.78 15.9932 12.6978 15.7948 12.5515 15.6485C12.4052 15.5022 12.2068 15.42 12 15.42Z" fill="#00005E"/>
</svg>
