<svg width="32" height="32" viewBox="0 0 32 32" fill="none" xmlns="http://www.w3.org/2000/svg">
<path fill-rule="evenodd" clip-rule="evenodd" d="M28 20.56C28.0007 18.8129 26.7267 17.3265 25 17.06V17V10.37C24.9945 6.85423 22.1458 4.00551 18.63 4H10.37C6.85423 4.00551 4.00551 6.85423 4 10.37V22H16V24.44C16 26.4061 17.5939 28 19.56 28H28V20.56ZM6 20V10.37C6 7.95652 7.95652 6 10.37 6H18.63C21.0435 6 23 7.95652 23 10.37V17H19.56C17.8129 16.9993 16.3265 18.2733 16.06 20H6ZM26 26V20.56C26 19.6984 25.3016 19 24.44 19H19.56C18.6984 19 18 19.6984 18 20.56V24.44C18 25.3016 18.6984 26 19.56 26H26ZM9 10.5C9 10.7761 9.22386 11 9.5 11H18.5C18.7761 11 19 10.7761 19 10.5C19 10.2239 18.7761 10 18.5 10H9.5C9.22386 10 9 10.2239 9 10.5ZM14.5 14C14.7761 14 15 14.2239 15 14.5C15 14.7761 14.7761 15 14.5 15H9.5C9.22386 15 9 14.7761 9 14.5C9 14.2239 9.22386 14 9.5 14H14.5ZM24.4 21.55C24.3947 21.2761 24.1739 21.0553 23.9 21.05H19.9C19.6239 21.05 19.4 21.2739 19.4 21.55C19.4 21.8261 19.6239 22.05 19.9 22.05H23.9C24.1761 22.05 24.4 21.8261 24.4 21.55Z" fill="#00005E"/>
</svg>
