<svg width="32" height="32" viewBox="0 0 32 32" fill="none" xmlns="http://www.w3.org/2000/svg">
<path fill-rule="evenodd" clip-rule="evenodd" d="M19.6379 4.22939C19.4594 4.0814 19.2339 3.99921 18.9996 3.99921H10.8316L10.6345 4.0042C8.6107 4.10689 6.9996 5.78202 6.9996 7.83121V24.1682L7.00459 24.3654C7.10726 26.3896 8.78206 27.9992 10.8316 27.9992H15.6996L15.8162 27.9925C16.3136 27.9347 16.6996 27.512 16.6996 26.9992C16.6996 26.4469 16.2519 25.9992 15.6996 25.9992H10.8316L10.6814 25.9931C9.74018 25.9167 8.9996 25.1287 8.9996 24.1682V7.83121L9.00568 7.6811C9.08221 6.74042 9.87142 5.99921 10.8316 5.99921L17.9996 5.99902V10.4996L18.0077 10.5895C18.05 10.8227 18.2541 10.9996 18.4996 10.9996H22.999L22.9996 16.1412L23.0063 16.2578C23.0641 16.7552 23.4868 17.1412 23.9996 17.1412C24.5519 17.1412 24.9996 16.6935 24.9996 16.1412V10.4996V10.2382L24.9914 10.1107C24.9644 9.90035 24.871 9.70281 24.723 9.54779L19.723 4.30879L19.6379 4.22939ZM22.3896 9.99938L18.9994 6.44686L18.999 9.99901L22.3896 9.99938ZM18.4996 11.9996C18.7757 11.9996 18.9996 12.2235 18.9996 12.4996C18.9996 12.7451 18.8227 12.9492 18.5895 12.9916L18.4996 12.9996H11.4996C11.2235 12.9996 10.9996 12.7757 10.9996 12.4996C10.9996 12.2541 11.1765 12.05 11.4097 12.0077L11.4996 11.9996H18.4996ZM15.9996 16.4996C15.9996 16.2235 15.7757 15.9996 15.4996 15.9996H11.4996L11.4097 16.0077C11.1765 16.05 10.9996 16.2541 10.9996 16.4996C10.9996 16.7757 11.2235 16.9996 11.4996 16.9996H15.4996L15.5895 16.9916C15.8227 16.9492 15.9996 16.7451 15.9996 16.4996ZM16.224 21.8503C16.4281 21.7141 16.6961 21.7479 16.8608 21.9184L16.9174 21.9887L17.3036 22.5671C17.3932 21.902 17.6133 21.2554 17.9581 20.668C18.6293 19.5257 19.7198 18.7027 20.9927 18.3806C22.679 17.9691 24.4487 18.5365 25.6009 19.8565C25.7825 20.0645 25.761 20.3804 25.553 20.562C25.345 20.7436 25.0291 20.7221 24.8475 20.5141C23.9401 19.4745 22.5519 19.0294 21.2339 19.351C20.2253 19.6063 19.3565 20.262 18.8204 21.1744C18.4738 21.7648 18.2839 22.4307 18.2602 23.107L19.0893 22.0997C19.2452 21.9101 19.5115 21.8647 19.7185 21.9801L19.793 22.031C19.9827 22.1869 20.028 22.4532 19.9126 22.6602L19.8617 22.7348L18.2757 24.6638C18.1907 24.7672 18.0755 24.8261 17.9559 24.8419C17.8695 24.8536 17.7843 24.8423 17.7073 24.8121C17.6555 24.792 17.6067 24.763 17.5631 24.7254C17.5238 24.6916 17.4895 24.6515 17.4619 24.6062L16.0856 22.5437C15.9323 22.314 15.9943 22.0036 16.224 21.8503ZM26.6721 21.9669C26.6056 21.8986 26.5232 21.8533 26.4357 21.8316C26.402 21.8233 26.3671 21.8183 26.3316 21.8172C26.1836 21.8122 26.0333 21.872 25.9286 21.9993L24.3426 23.9273L24.2917 24.0018C24.1762 24.2088 24.2215 24.4751 24.4111 24.631L24.4856 24.6819C24.6926 24.7974 24.9589 24.7521 25.1148 24.5625L25.7984 23.7304C25.5239 25.182 24.4477 26.3938 22.9745 26.7533C21.7219 27.0688 20.4012 26.697 19.4831 25.771C19.2887 25.5749 18.9721 25.5735 18.776 25.7679C18.5799 25.9624 18.5785 26.2789 18.7729 26.475C19.9391 27.6513 21.6224 28.1251 23.2152 27.7239C25.0702 27.2712 26.4233 25.7557 26.7762 23.9417L27.2837 24.7208L27.3395 24.7917C27.5023 24.964 27.7699 25.0008 27.9756 24.8669C28.207 24.7162 28.2724 24.4064 28.1217 24.175L26.7437 22.0594C26.7235 22.0258 26.6995 21.9949 26.6724 21.9673L26.6721 21.9669Z" fill="#00005E"/>
</svg>
