<svg width="32" height="32" viewBox="0 0 32 32" fill="none" xmlns="http://www.w3.org/2000/svg">
<path fill-rule="evenodd" clip-rule="evenodd" d="M28 16C28 9.37258 22.6274 4 16 4C9.37258 4 4 9.37258 4 16C4 22.6274 9.37258 28 16 28C22.6274 28 28 22.6274 28 16ZM17.34 16L20.68 19.34C21.0677 19.73 21.0677 20.36 20.68 20.75C20.4922 20.9393 20.2366 21.0458 19.97 21.0458C19.7034 21.0458 19.4478 20.9393 19.26 20.75L15.93 17.41L12.59 20.75C12.4037 20.9347 12.1523 21.0389 11.89 21.04C11.6242 21.0415 11.3687 20.9372 11.18 20.75C10.7923 20.36 10.7923 19.73 11.18 19.34L14.51 16L11.18 12.66C10.8402 12.2632 10.8631 11.6718 11.2324 11.3024C11.6018 10.9331 12.1932 10.9102 12.59 11.25L15.93 14.59L19.26 11.25C19.4478 11.0607 19.7034 10.9542 19.97 10.9542C20.2366 10.9542 20.4922 11.0607 20.68 11.25C21.0677 11.64 21.0677 12.27 20.68 12.66L17.34 16Z" fill="#00005E"/>
</svg>
