<svg width="32" height="32" viewBox="0 0 32 32" fill="none" xmlns="http://www.w3.org/2000/svg">
<path fill-rule="evenodd" clip-rule="evenodd" d="M16 4C22.6274 4 28 9.37258 28 16C28 22.6274 22.6274 28 16 28C9.37258 28 4 22.6274 4 16C4 9.37258 9.37258 4 16 4ZM16 26C18.6522 26 21.1957 24.9464 23.0711 23.0711C24.9464 21.1957 26 18.6522 26 16C26 10.4772 21.5228 6 16 6C10.4772 6 6 10.4772 6 16C6 21.5228 10.4772 26 16 26ZM20.68 12.66C21.0677 12.27 21.0677 11.64 20.68 11.25C20.4922 11.0607 20.2366 10.9542 19.97 10.9542C19.7034 10.9542 19.4478 11.0607 19.26 11.25L15.93 14.59L12.59 11.25C12.1932 10.9102 11.6018 10.9331 11.2324 11.3024C10.8631 11.6718 10.8402 12.2632 11.18 12.66L14.51 16L11.18 19.34C10.7923 19.73 10.7923 20.36 11.18 20.75C11.57 21.1377 12.2 21.1377 12.59 20.75L15.93 17.41L19.26 20.75C19.4478 20.9393 19.7034 21.0458 19.97 21.0458C20.2366 21.0458 20.4922 20.9393 20.68 20.75C21.0677 20.36 21.0677 19.73 20.68 19.34L17.34 16L20.68 12.66Z" fill="#00005E"/>
</svg>
