<svg width="32" height="32" viewBox="0 0 32 32" fill="none" xmlns="http://www.w3.org/2000/svg">
<path fill-rule="evenodd" clip-rule="evenodd" d="M10 9.5C10 10.328 9.328 11 8.5 11C7.672 11 7 10.328 7 9.5C7 8.672 7.672 8 8.5 8C9.328 8 10 8.672 10 9.5ZM18 9.5C18 10.328 17.328 11 16.5 11C15.672 11 15 10.328 15 9.5C15 8.672 15.672 8 16.5 8C17.328 8 18 8.672 18 9.5ZM24.5 11C25.328 11 26 10.328 26 9.5C26 8.672 25.328 8 24.5 8C23.672 8 23 8.672 23 9.5C23 10.328 23.672 11 24.5 11ZM10 16.5C10 17.328 9.328 18 8.5 18C7.672 18 7 17.328 7 16.5C7 15.672 7.672 15 8.5 15C9.328 15 10 15.672 10 16.5ZM16.5 18C17.328 18 18 17.328 18 16.5C18 15.672 17.328 15 16.5 15C15.672 15 15 15.672 15 16.5C15 17.328 15.672 18 16.5 18ZM26 16.5C26 17.328 25.328 18 24.5 18C23.672 18 23 17.328 23 16.5C23 15.672 23.672 15 24.5 15C25.328 15 26 15.672 26 16.5ZM8.5 25C9.328 25 10 24.328 10 23.5C10 22.672 9.328 22 8.5 22C7.672 22 7 22.672 7 23.5C7 24.328 7.672 25 8.5 25ZM18 23.5C18 24.328 17.328 25 16.5 25C15.672 25 15 24.328 15 23.5C15 22.672 15.672 22 16.5 22C17.328 22 18 22.672 18 23.5ZM24.5 25C25.328 25 26 24.328 26 23.5C26 22.672 25.328 22 24.5 22C23.672 22 23 22.672 23 23.5C23 24.328 23.672 25 24.5 25Z" fill="#00005E"/>
</svg>
