<svg width="32" height="32" viewBox="0 0 32 32" fill="none" xmlns="http://www.w3.org/2000/svg">
<path fill-rule="evenodd" clip-rule="evenodd" d="M24 7.87C24 5.73266 22.2673 4 20.13 4H11.87C9.73266 4 8 5.73266 8 7.87V24.13C8 25.1564 8.40773 26.1407 9.1335 26.8665C9.85926 27.5923 10.8436 28 11.87 28H20.13C21.1564 28 22.1407 27.5923 22.8665 26.8665C23.5923 26.1407 24 25.1564 24 24.13V7.87ZM22 7.87V24.13C22 24.626 21.803 25.1016 21.4523 25.4523C21.1016 25.803 20.626 26 20.13 26H11.87C11.374 26 10.8984 25.803 10.5477 25.4523C10.197 25.1016 10 24.626 10 24.13V7.87C10 6.83723 10.8372 6 11.87 6H20.13C20.626 6 21.1016 6.19702 21.4523 6.54771C21.803 6.8984 22 7.37405 22 7.87ZM13.5 8C13.2239 8 13 7.77614 13 7.5C13 7.22386 13.2239 7 13.5 7H18.5C18.7761 7 19 7.22386 19 7.5C19 7.77614 18.7761 8 18.5 8H13.5ZM18.59 17.45H18.62L17 19.07V12C17 11.4477 16.5523 11 16 11C15.4477 11 15 11.4477 15 12V19.07L13.38 17.45C12.9792 17.1699 12.4345 17.2207 12.0925 17.5702C11.7504 17.9197 11.7113 18.4653 12 18.86L15.32 22.19C15.5078 22.3793 15.7634 22.4858 16.03 22.4858C16.2966 22.4858 16.5522 22.3793 16.74 22.19L20 18.86C20.3398 18.4632 20.3169 17.8718 19.9476 17.5024C19.5782 17.1331 18.9868 17.1102 18.59 17.45Z" fill="#00005E"/>
</svg>
