<svg width="32" height="32" viewBox="0 0 32 32" fill="none" xmlns="http://www.w3.org/2000/svg">
<path fill-rule="evenodd" clip-rule="evenodd" d="M21.3177 6.26897L13.0244 14.0099L10.707 11.6931C10.3164 11.3026 9.68328 11.3027 9.29281 11.6932C8.90233 12.0838 8.90241 12.717 9.29298 13.1075L12.9767 16.7903L22.6823 7.73103C23.0861 7.35419 23.1079 6.7214 22.731 6.31766C22.3542 5.91392 21.7214 5.89212 21.3177 6.26897ZM28 24C28 21.7909 26.2091 20 24 20H8C5.79086 20 4 21.7909 4 24C4 26.2091 5.79086 28 8 28H24C26.2091 28 28 26.2091 28 24ZM26 24C26 25.1046 25.1046 26 24 26H8C6.89543 26 6 25.1046 6 24C6 22.8954 6.89543 22 8 22H24C25.1046 22 26 22.8954 26 24ZM9 24C9 24.5523 8.55228 25 8 25C7.44772 25 7 24.5523 7 24C7 23.4477 7.44772 23 8 23C8.55228 23 9 23.4477 9 24Z" fill="#00005E"/>
</svg>
