<svg width="32" height="32" viewBox="0 0 32 32" fill="none" xmlns="http://www.w3.org/2000/svg">
<path fill-rule="evenodd" clip-rule="evenodd" d="M15.29 18.73L10.5 14C10.0941 13.6079 10.0829 12.9609 10.475 12.555C10.8671 12.1491 11.5141 12.1379 11.92 12.53L15 15.61V5C15 4.44772 15.4477 4 16 4C16.5523 4 17 4.44772 17 5V15.61L20.08 12.58C20.3337 12.3263 20.7034 12.2273 21.0499 12.3201C21.3964 12.413 21.667 12.6836 21.7599 13.0301C21.8527 13.3766 21.7537 13.7463 21.5 14L16.71 18.73C16.5222 18.9193 16.2666 19.0258 16 19.0258C15.7334 19.0258 15.4778 18.9193 15.29 18.73ZM28 24C28 21.7909 26.2091 20 24 20H8C5.79086 20 4 21.7909 4 24C4 26.2091 5.79086 28 8 28H24C26.2091 28 28 26.2091 28 24ZM26 24C26 25.1046 25.1046 26 24 26H8C6.89543 26 6 25.1046 6 24C6 22.8954 6.89543 22 8 22H24C25.1046 22 26 22.8954 26 24ZM8 25C8.55228 25 9 24.5523 9 24C9 23.4477 8.55228 23 8 23C7.44772 23 7 23.4477 7 24C7 24.5523 7.44772 25 8 25Z" fill="#00005E"/>
</svg>
