<svg width="32" height="32" viewBox="0 0 32 32" fill="none" xmlns="http://www.w3.org/2000/svg">
<path fill-rule="evenodd" clip-rule="evenodd" d="M27.9 11.24C27.878 8.88009 25.9499 6.98333 23.59 6.99986H8.31C5.95007 6.98333 4.022 8.88009 4 11.24V21.08C4.022 23.4399 5.95007 25.3366 8.31 25.3201H14.45C15.0023 25.3201 15.45 24.8723 15.45 24.32C15.45 23.7677 15.0023 23.32 14.45 23.32H8.31C7.05459 23.3367 6.02192 22.3353 6 21.08V11.24C6.02192 9.98464 7.05459 8.98326 8.31 8.99997H23.59C24.8454 8.98326 25.8781 9.98464 25.9 11.24V14C25.9 14.5523 26.3477 15 26.9 15C27.4523 15 27.9 14.5523 27.9 14V11.24ZM24.85 11C24.9704 11.2215 24.9109 11.4977 24.71 11.65L16.27 17.27C16.1889 17.3205 16.0956 17.3481 16 17.35C15.9013 17.348 15.8048 17.3204 15.72 17.27L7.19 11.65C6.95804 11.4981 6.89312 11.1869 7.045 10.955C7.19688 10.723 7.50804 10.6581 7.74 10.81L16 16.25L24.15 10.86C24.3825 10.7083 24.6937 10.7706 24.85 11ZM27.01 18.09L26.87 18C26.1861 17.3318 25.0939 17.3318 24.41 18L17.54 24.83C17.4838 24.8855 17.4426 24.9543 17.42 25.03L16.52 27.84C16.4719 28.021 16.5211 28.214 16.65 28.35C16.7439 28.4405 16.8695 28.4908 17 28.49C17.0529 28.4995 17.1071 28.4995 17.16 28.49L19.82 27.6C19.8937 27.5795 19.9598 27.5377 20.01 27.48L27.01 20.63C27.3483 20.2939 27.5386 19.8368 27.5386 19.36C27.5386 18.8831 27.3483 18.426 27.01 18.09ZM26.28 18.84C26.5697 19.1355 26.5652 19.6099 26.27 19.9L19.39 26.67L17.78 27.21L18.33 25.46L25.11 18.72C25.405 18.4329 25.875 18.4329 26.17 18.72L26.28 18.84Z" fill="#00005E"/>
</svg>
