<svg width="32" height="32" viewBox="0 0 32 32" fill="none" xmlns="http://www.w3.org/2000/svg">
<path d="M23 15C23.5523 15 24 15.4477 24 16C24 16.5523 23.5523 17 23 17H9C8.44772 17 8 16.5523 8 16C8 15.4477 8.44772 15 9 15H23Z" fill="#00005E"/>
<path d="M23 20C23.5523 20 24 20.4477 24 21C24 21.5523 23.5523 22 23 22H9C8.44772 22 8 21.5523 8 21C8 20.4477 8.44772 20 9 20H23Z" fill="#00005E"/>
<path d="M23 10C23.5523 10 24 10.4477 24 11C24 11.5523 23.5523 12 23 12H9C8.44772 12 8 11.5523 8 11C8 10.4477 8.44772 10 9 10H23Z" fill="#00005E"/>
</svg>
