<svg width="32" height="32" viewBox="0 0 32 32" fill="none" xmlns="http://www.w3.org/2000/svg">
<path fill-rule="evenodd" clip-rule="evenodd" d="M16.1321 2.9999H9.86909C7.18 2.9999 5.00009 5.17942 5.00009 7.8679V24.1309C5.00009 26.8202 7.17981 28.9999 9.86909 28.9999H16.1321L16.3489 28.9952C18.6493 28.8943 20.5351 27.1967 20.9258 24.9831L20.946 24.852L25.9451 24.8529C27.6333 24.8529 29.0011 23.4842 29.0011 21.7959V11.7499C29.0011 11.4874 28.8979 11.2354 28.7137 11.0484L24.9907 7.26637L24.8913 7.17796C24.7169 7.04257 24.5014 6.9679 24.2781 6.9679L20.915 6.967L20.8848 6.81004C20.4017 4.63031 18.4571 2.9999 16.1321 2.9999ZM9.86909 4.9999H16.1321C17.7158 4.9999 19.0001 6.28419 19.0001 7.8679V7.9679H18.1441C17.0081 7.9679 16.0881 8.8889 16.0881 10.0249V21.7959C16.0881 22.9319 17.0081 23.8529 18.1441 23.8529H19.0001V24.1309C19.0001 25.7155 17.7159 26.9999 16.1321 26.9999H9.86909C8.28438 26.9999 7.00009 25.7156 7.00009 24.1309V7.8679C7.00009 6.28407 8.28449 4.9999 9.86909 4.9999ZM18.1441 8.9679H20.0001H23.199V12.27L23.207 12.3599C23.2494 12.5931 23.4535 12.77 23.699 12.77H27.001L27.0011 21.7959C27.0011 22.3779 26.5271 22.8529 25.9451 22.8529H23.5341H20.0001H18.1441C17.5621 22.8529 17.0881 22.3779 17.0881 21.7959V10.0249C17.0881 9.4419 17.5621 8.9679 18.1441 8.9679ZM26.618 11.77L24.199 9.31332V11.77H26.618ZM22.2132 14.9318C22.2132 14.6557 21.9893 14.4318 21.7132 14.4318H20.0662L19.9763 14.4399C19.7431 14.4822 19.5662 14.6863 19.5662 14.9318C19.5662 15.2079 19.79 15.4318 20.0662 15.4318H21.7132L21.8031 15.4237C22.0363 15.3814 22.2132 15.1773 22.2132 14.9318ZM23.3612 17.0792C23.6373 17.0792 23.8612 17.3031 23.8612 17.5792C23.8612 17.8247 23.6843 18.0288 23.4511 18.0711L23.3612 18.0792H20.0662C19.79 18.0792 19.5662 17.8553 19.5662 17.5792C19.5662 17.3337 19.7431 17.1296 19.9763 17.0873L20.0662 17.0792H23.3612ZM14.4998 7.0001C14.7759 7.0001 14.9998 7.22396 14.9998 7.5001C14.9998 7.74556 14.8229 7.94971 14.5897 7.99204L14.4998 8.0001H11.4998C11.2236 8.0001 10.9998 7.77624 10.9998 7.5001C10.9998 7.25464 11.1767 7.05049 11.4099 7.00816L11.4998 7.0001H14.4998ZM11.9998 23.2501C11.9998 22.5601 12.5598 22.0001 13.2498 22.0001C13.9398 22.0001 14.4998 22.5601 14.4998 23.2501C14.4998 23.9401 13.9398 24.5001 13.2498 24.5001C12.5598 24.5001 11.9998 23.9401 11.9998 23.2501Z" fill="#00005E"/>
</svg>
