<svg width="32" height="32" viewBox="0 0 32 32" fill="none" xmlns="http://www.w3.org/2000/svg">
<path fill-rule="evenodd" clip-rule="evenodd" d="M8.7715 5.0435C8.31109 4.97696 7.82857 4.9858 7.33831 5.08202C5.37975 5.46541 3.99989 7.28232 3.99989 9.3193V12.0173L4.00662 12.1339C4.06439 12.6313 4.48706 13.0173 4.99989 13.0173L10.321 13.017L10.305 17.1654C8.37796 17.5143 6.99989 18.4412 6.99989 19.5293V27.5043C6.99989 28.8913 9.23889 30.0153 11.9999 30.0153C14.7619 30.0153 16.9999 28.8913 16.9999 27.5043V24.8163C17.1972 24.8909 17.4156 24.9021 17.622 24.845L18.649 25.6131L18.7789 25.7001C19.3112 26.0189 19.9888 25.99 20.4932 25.6143L21.502 24.859L22.5804 25.6644L22.7102 25.7513C23.2422 26.0699 23.9198 26.041 24.4242 25.6653L25.326 24.99L25.4792 25.1166L25.5838 25.1969C26.5766 25.8964 27.9999 25.2001 27.9999 23.9413V8.7993L27.9925 8.67776L27.962 8.47136C27.6191 6.49312 25.8942 5.0173 23.8509 5.0173H8.99989L8.88327 5.02403C8.84533 5.02844 8.80803 5.03497 8.7715 5.0435ZM11.7487 7.0173C12.0597 7.53236 12.263 8.1229 12.325 8.76087L12.3396 8.95894L12.3059 17.0219C14.9253 17.1014 16.9999 18.1939 16.9999 19.5293V22.9315C17.4647 22.7042 18.0194 22.7247 18.4715 22.9938L18.6018 23.0805L19.572 23.806L20.5809 23.0518C21.0868 22.6743 21.7654 22.6453 22.296 22.965L22.4254 23.0522L23.502 23.856L24.4205 23.1704C24.8691 22.8361 25.4536 22.7774 25.9464 22.9879L25.999 23.013V8.871L25.9816 8.76073C25.7927 7.81254 24.9876 7.09618 24.0146 7.0234L23.8509 7.0173H11.7487ZM7.723 7.04467C9.01118 6.79186 10.1823 7.6708 10.3295 8.90936L10.34 9.036L10.33 11.017H5.99899L5.99989 9.3193L6.00594 9.14504C6.07812 8.10768 6.78835 7.22764 7.723 7.04467ZM11.9999 19.0173C13.6599 19.0173 14.6879 19.5083 14.9999 19.7643V20.7546C14.3004 21.1548 13.1859 21.4422 11.9069 21.4422C10.7359 21.4422 9.70297 21.2015 8.99989 20.8539V19.7643C9.31189 19.5083 10.3399 19.0173 11.9999 19.0173ZM11.9069 22.4422C13.073 22.4422 14.1543 22.2336 14.9999 21.8682V24.0681C14.3004 24.4683 13.1859 24.7557 11.9069 24.7557C10.7359 24.7557 9.70297 24.515 8.99989 24.1674V21.9449C9.81546 22.2627 10.8246 22.4422 11.9069 22.4422ZM8.99989 25.2584V27.2693C9.31189 27.5243 10.3399 28.0153 11.9999 28.0153C13.6599 28.0153 14.6879 27.5243 14.9999 27.2693V25.1817C14.1543 25.5471 13.073 25.7557 11.9069 25.7557C10.8246 25.7557 9.81546 25.5762 8.99989 25.2584ZM23.4999 10.0173C23.776 10.0173 23.9999 10.2412 23.9999 10.5173C23.9999 10.7628 23.823 10.9669 23.5898 11.0092L23.4999 11.0173H15.4999C15.2238 11.0173 14.9999 10.7934 14.9999 10.5173C14.9999 10.2718 15.1768 10.0677 15.41 10.0254L15.4999 10.0173H23.4999ZM19.9999 14.5173C19.9999 14.2412 19.776 14.0173 19.4999 14.0173H15.4999L15.41 14.0254C15.1768 14.0677 14.9999 14.2718 14.9999 14.5173C14.9999 14.7934 15.2238 15.0173 15.4999 15.0173H19.4999L19.5898 15.0092C19.823 14.9669 19.9999 14.7628 19.9999 14.5173Z" fill="#00005E"/>
</svg>
