<svg width="32" height="32" viewBox="0 0 32 32" fill="none" xmlns="http://www.w3.org/2000/svg">
<path fill-rule="evenodd" clip-rule="evenodd" d="M27.09 9.5C28.2923 8.31347 28.3102 6.37854 27.13 5.17L26.82 4.87C25.6328 3.70097 23.7272 3.70097 22.54 4.87L6.67999 20.67L3.99999 27.36C3.94439 27.5033 3.96232 27.6646 4.04802 27.7922C4.13372 27.9197 4.27635 27.9973 4.42999 28C4.48917 28.014 4.55081 28.014 4.60999 28L11 25.33L27.09 9.5ZM7.22999 24.76L8.19999 22.25C8.86485 22.5095 9.36625 23.0703 9.54999 23.76L7.22999 24.76ZM10.39 23.12L23.38 10.34L21.64 8.6L8.76999 21.41C9.50424 21.7582 10.082 22.368 10.39 23.12ZM25.68 8.07V8.12L24.09 9.64L22.35 7.9L24 6.3C24.4083 5.8998 25.0617 5.8998 25.47 6.3L25.75 6.57C25.9401 6.77798 26.0395 7.05308 26.0264 7.33453C26.0133 7.61599 25.8886 7.88063 25.68 8.07Z" fill="#00005E"/>
</svg>
