<svg width="32" height="32" viewBox="0 0 32 32" fill="none" xmlns="http://www.w3.org/2000/svg">
<path fill-rule="evenodd" clip-rule="evenodd" d="M18.42 14.05C18.4332 13.9649 18.4756 13.8871 18.54 13.83L25.41 6.99999C26.0939 6.33179 27.1861 6.33179 27.87 6.99999L28.01 7.17999C28.6847 7.86508 28.6847 8.9649 28.01 9.64999L21.01 16.5C20.9545 16.5512 20.8901 16.5919 20.82 16.62L18.16 17.51C18.1071 17.5195 18.0529 17.5195 18 17.51C17.8674 17.5116 17.7403 17.4571 17.65 17.36C17.5155 17.2272 17.4655 17.0309 17.52 16.85L18.42 14.05ZM19.33 14.47L18.79 16.22L20.4 15.67L27.28 8.90999C27.4235 8.76898 27.5044 8.5762 27.5044 8.37499C27.5044 8.17378 27.4235 7.98101 27.28 7.83999L27.16 7.71999C26.8663 7.43936 26.4037 7.43936 26.11 7.71999L19.33 14.47ZM28 14C28 13.4477 27.5523 13 27 13C26.4477 13 26 13.4477 26 14V21.74C26 22.3394 25.7619 22.9142 25.3381 23.3381C24.9142 23.7619 24.3394 24 23.74 24H8.24C7.00516 23.9945 6.00548 22.9948 6 21.76V12.26C6 11.0118 7.01184 9.99999 8.26 9.99999H19C19.5523 9.99999 20 9.55228 20 8.99999C20 8.44771 19.5523 7.99999 19 7.99999H8.26C5.90727 7.99999 4 9.90726 4 12.26V21.76C4 22.8845 4.44671 23.963 5.24187 24.7581C6.03702 25.5533 7.11548 26 8.24 26H23.74C24.8698 26 25.9534 25.5512 26.7523 24.7523C27.5512 23.9534 28 22.8698 28 21.74V14Z" fill="#00005E"/>
</svg>
