<svg width="32" height="32" viewBox="0 0 32 32" fill="none" xmlns="http://www.w3.org/2000/svg">
<path fill-rule="evenodd" clip-rule="evenodd" d="M9.71127 19.5694C10.6868 12.5027 15.7613 8.14697 25.1777 6.45833C23.6695 15.8852 19.3603 21.0074 12.2013 22.0711C11.655 22.1523 11.2779 22.6609 11.3591 23.2072C11.4403 23.7535 11.9489 24.1305 12.4952 24.0494C13.2842 23.9321 14.0429 23.7711 14.7711 23.5664L16.7785 25.5737C16.9737 25.769 17.2903 25.769 17.4856 25.5737L19.5509 23.5083C19.6224 23.4369 19.6706 23.3454 19.689 23.246L20.132 20.858C24.0254 17.7578 26.4373 12.5725 27.3525 5.37888C27.436 4.72221 26.87 4.16703 26.2151 4.26331C19.0887 5.31095 13.9583 7.76638 10.8978 11.6162L8.50686 12.0552C8.40712 12.0736 8.31531 12.1218 8.24361 12.1935L6.18837 14.2487C5.99311 14.444 5.99311 14.7605 6.18837 14.9558L8.20483 16.9723C7.9996 17.7158 7.84126 18.4904 7.73006 19.2959C7.65453 19.843 8.03682 20.3477 8.58391 20.4233C9.13101 20.4988 9.63574 20.1165 9.71127 19.5694ZM17.132 24.5131L15.8443 23.2254C16.9604 22.828 17.9986 22.3193 18.9587 21.7002L18.7341 22.911L17.132 24.5131ZM8.54238 15.8956C8.93437 14.7839 9.44007 13.7477 10.0586 12.787L8.84061 13.0107L7.24903 14.6023L8.54238 15.8956ZM18.7837 9.60832C17.8562 10.5358 17.8562 12.0396 18.7837 12.9671C19.7112 13.8946 21.215 13.8946 22.1425 12.9671C23.07 12.0396 23.07 10.5358 22.1425 9.60832C21.215 8.68082 19.7112 8.68082 18.7837 9.60832ZM21.4354 12.26C20.8984 12.7969 20.0278 12.7969 19.4908 12.26C18.9538 11.723 18.9538 10.8524 19.4908 10.3154C20.0278 9.77845 20.8984 9.77845 21.4354 10.3154C21.9723 10.8524 21.9723 11.723 21.4354 12.26ZM8.2213 20.8778C8.02604 20.6826 7.70946 20.6826 7.51419 20.8778L4.86254 23.5295C4.66728 23.7247 4.66728 24.0413 4.86254 24.2366C5.05781 24.4318 5.37439 24.4318 5.56965 24.2366L8.2213 21.5849C8.41656 21.3897 8.41656 21.0731 8.2213 20.8778ZM10.1658 23.5295C10.3611 23.3342 10.6777 23.3342 10.873 23.5295C11.0682 23.7247 11.0682 24.0413 10.873 24.2366L8.2213 26.8882C8.02604 27.0835 7.70946 27.0835 7.51419 26.8882C7.31893 26.693 7.31893 26.3764 7.51419 26.1811L10.1658 23.5295ZM9.54713 22.2037C9.35186 22.0084 9.03528 22.0084 8.84002 22.2037L4.86254 26.1811C4.66728 26.3764 4.66728 26.693 4.86254 26.8882C5.05781 27.0835 5.37439 27.0835 5.56965 26.8882L9.54713 22.9108C9.74239 22.7155 9.74239 22.3989 9.54713 22.2037Z" fill="#00005E"/>
</svg>
