<svg width="24" height="24" viewBox="0 0 24 24" fill="none" xmlns="http://www.w3.org/2000/svg">
<g clip-path="url(#clip0_12120_25186)">
<path fill-rule="evenodd" clip-rule="evenodd" d="M6.62967 2.37506C6.8053 2.58815 7.12042 2.61853 7.33352 2.4429L8.72826 1.29339C9.16015 0.937431 9.79022 0.961539 10.1937 1.34946L10.2347 1.3889C11.0257 2.14948 12.2762 2.14948 13.0672 1.3889C13.4711 1.00054 14.1096 1.00054 14.5135 1.3889L15.5832 2.41747C15.7823 2.60887 16.0988 2.60266 16.2902 2.40361C16.4816 2.20456 16.4754 1.88803 16.2764 1.69664L15.2066 0.668067C14.4156 -0.0925171 13.1651 -0.0925169 12.3741 0.668067C11.9702 1.05643 11.3317 1.05643 10.9278 0.668067L10.8868 0.628624C10.1174 -0.111134 8.91587 -0.157107 8.09225 0.521704L6.69751 1.67121C6.48442 1.84684 6.45405 2.16196 6.62967 2.37506ZM18.6104 0.0999559C18.0968 0.0999559 17.6667 0.488984 17.6154 0.999981L16.3912 12.5022H14.9118V8.60005C14.9118 8.21313 14.6886 7.86093 14.3387 7.69576C13.9889 7.53058 13.5751 7.58206 13.2763 7.82794L8.95592 11.3839V8.60005C8.95592 8.21313 8.73272 7.86093 8.38283 7.69576C8.03294 7.53058 7.61916 7.58206 7.32042 7.82794L1.3645 12.7301C1.13371 12.92 1 13.2033 1 13.5022V23C1 23.5523 1.44772 24 2 24H22.1012C22.6535 24 23.1012 23.5523 23.1012 23V13.5022C23.1012 13.4851 23.1008 13.4682 23.1 13.4514C23.1025 13.4012 23.1014 13.3506 23.0963 13.3L21.7872 0.999981C21.7358 0.488984 21.3058 0.0999559 20.7922 0.0999559H18.6104ZM18.4068 12.4L19.5149 2.09996H19.8876L20.9958 12.4H18.4068ZM3 22V13.9743L6.95592 10.7183V13.5022C6.95592 13.8891 7.17912 14.2413 7.52901 14.4065C7.8789 14.5716 8.29267 14.5202 8.59141 14.2743L12.9118 10.7183V13.5022C12.9118 14.0545 13.3596 14.5022 13.9118 14.5022H21.1012V22H10.2583V16.8286C10.2583 16.5524 10.0345 16.3286 9.75833 16.3286H5.64404C5.3679 16.3286 5.14404 16.5524 5.14404 16.8286V22H3ZM9.25833 22H6.14404V17.3286H9.25833V22Z" fill="#00005E"/>
</g>
<defs>
<clipPath id="clip0_12120_25186">
<rect width="24" height="24" fill="white"/>
</clipPath>
</defs>
</svg>
