<svg width="32" height="32" viewBox="0 0 32 32" fill="none" xmlns="http://www.w3.org/2000/svg">
<path fill-rule="evenodd" clip-rule="evenodd" d="M10.6297 6.37509C10.8053 6.58819 11.1204 6.61856 11.3335 6.44294L12.7283 5.29343C13.1602 4.93747 13.7902 4.96158 14.1937 5.3495L14.2347 5.38894C15.0257 6.14952 16.2762 6.14952 17.0672 5.38894C17.4711 5.00058 18.1096 5.00058 18.5135 5.38894L19.5832 6.41751C19.7823 6.60891 20.0988 6.6027 20.2902 6.40365C20.4816 6.20459 20.4754 5.88807 20.2764 5.69668L19.2066 4.6681C18.4156 3.90752 17.1651 3.90752 16.3741 4.6681C15.9702 5.05647 15.3317 5.05647 14.9278 4.66811L14.8868 4.62866C14.1174 3.8889 12.9159 3.84293 12.0923 4.52174L10.6975 5.67125C10.4844 5.84688 10.454 6.162 10.6297 6.37509ZM22.6104 4.37144C22.0968 4.37144 21.6667 4.76047 21.6154 5.27146L20.3864 17.5022H18.9118V13.6001C18.9118 13.2132 18.6886 12.861 18.3387 12.6958C17.9889 12.5306 17.5751 12.5821 17.2763 12.828L12.9559 16.384V13.6001C12.9559 13.2132 12.7327 12.861 12.3828 12.6958C12.0329 12.5306 11.6192 12.5821 11.3204 12.828L5.3645 17.7301C5.13371 17.9201 5 18.2033 5 18.5022V28.0001C5 28.5524 5.44772 29.0001 6 29.0001H26.1012C26.6535 29.0001 27.1012 28.5524 27.1012 28.0001V18.5022L27.1011 18.4854C27.1009 18.474 27.1005 18.4627 27.1 18.4514C27.1025 18.4013 27.1014 18.3507 27.0963 18.3L25.7872 5.27146C25.7358 4.76047 25.3058 4.37144 24.7922 4.37144H22.6104ZM22.4068 17.4L23.5149 6.37144H23.8876L24.9958 17.4H22.4068ZM7 27.0001V18.9743L10.9559 15.7183V18.5022C10.9559 18.8891 11.1791 19.2413 11.529 19.4065C11.8789 19.5717 12.2927 19.5202 12.5914 19.2743L16.9118 15.7183V18.5022C16.9118 19.0545 17.3596 19.5022 17.9118 19.5022H25.1012V27.0001H14.2583V21.8286C14.2583 21.5524 14.0345 21.3286 13.7583 21.3286H9.64404C9.3679 21.3286 9.14404 21.5524 9.14404 21.8286V27.0001H7ZM13.2583 27.0001H10.144V22.3286H13.2583V27.0001Z" fill="#00005E"/>
</svg>
