<svg width="32" height="32" viewBox="0 0 32 32" fill="none" xmlns="http://www.w3.org/2000/svg">
<path fill-rule="evenodd" clip-rule="evenodd" d="M28.67 22.63C29.1083 23.0772 29.1083 23.7928 28.67 24.24L26.47 26.45C25.9163 27.0071 25.227 27.4104 24.47 27.62C23.571 27.8688 22.6428 27.9966 21.71 28C18.0367 28 14.33 26 10.59 22C6.00334 17.08 4.24 12.65 5.3 8.70999C5.50743 7.95207 5.91099 7.26223 6.47 6.70999L8.83 4.32999C9.042 4.11748 9.32983 3.99805 9.63 3.99805C9.93017 3.99805 10.218 4.11748 10.43 4.32999L14.32 8.27999C14.5356 8.49237 14.657 8.78235 14.657 9.08499C14.657 9.38762 14.5356 9.6776 14.32 9.88999L12.32 11.89C11.9853 12.2236 11.8936 12.7302 12.09 13.16C12.8064 14.8957 13.8447 16.4802 15.15 17.83C16.5089 19.0968 18.0408 20.1642 19.7 21C19.8516 21.0922 20.023 21.147 20.2 21.16C20.499 21.1563 20.7853 21.0382 21 20.83L23.15 18.69C23.362 18.4775 23.6498 18.358 23.95 18.358C24.2502 18.358 24.538 18.4775 24.75 18.69L28.67 22.63ZM25.06 25L26.7 23.44L24 20.72L22.42 22.23C21.835 22.8183 21.0397 23.1494 20.21 23.15C19.7016 23.1484 19.2009 23.025 18.75 22.79C16.9249 21.8637 15.2413 20.6818 13.75 19.28C12.2699 17.7512 11.0865 15.9608 10.26 14C9.73554 12.8157 9.98945 11.4311 10.9 10.51L12.33 9.07999L9.63 6.35999L7.88 8.11999C7.56608 8.43562 7.34174 8.82907 7.23 9.25999C6.37 12.45 8 16.28 12.05 20.59C15.38 24.15 18.63 25.96 21.71 25.96C22.4609 25.9614 23.2082 25.857 23.93 25.65C24.3581 25.5384 24.7483 25.3139 25.06 25ZM18 13.53C17.6123 13.92 17.6123 14.5499 18 14.94C18.39 15.3277 19.02 15.3277 19.41 14.94L22.7 11.65L26 14.94C26.39 15.3277 27.02 15.3277 27.41 14.94C27.7977 14.5499 27.7977 13.92 27.41 13.53L24.12 10.23L27.4 6.93999C27.702 6.70186 27.8407 6.31163 27.7567 5.93631C27.6727 5.561 27.3809 5.26712 27.0062 5.18045C26.6315 5.09378 26.2403 5.22968 26 5.52999L22.7 8.81999L19.4 5.52999C19.0009 5.21532 18.4293 5.25002 18.0712 5.61066C17.7131 5.9713 17.6825 6.54316 18 6.93999L21.29 10.23L18 13.53Z" fill="#00005E"/>
</svg>
