<svg width="32" height="32" viewBox="0 0 32 32" fill="none" xmlns="http://www.w3.org/2000/svg">
<path fill-rule="evenodd" clip-rule="evenodd" d="M28.0002 22.12V9.89C28.0167 8.31813 26.7617 7.02739 25.19 7H6.82001C6.06237 7.0079 5.33907 7.31716 4.80992 7.85945C4.28077 8.40173 3.98933 9.1324 4.00001 9.89V22.11C3.98328 23.6819 5.23829 24.9726 6.81001 25H25.18C25.9359 24.9921 26.6577 24.6842 27.1865 24.1441C27.7154 23.604 28.008 22.8759 28.0002 22.12ZM24.94 10.69H24.93L16.28 16.62C16.1944 16.6782 16.0935 16.7095 15.99 16.71C15.8899 16.7081 15.7925 16.6768 15.71 16.62L7.00001 10.69C6.88329 10.6235 6.79899 10.5119 6.76686 10.3815C6.73472 10.2511 6.75755 10.1131 6.83001 10C6.9826 9.77186 7.29057 9.70938 7.52001 9.86L16 15.6L24.37 9.86C24.5992 9.7026 24.9126 9.7608 25.07 9.99C25.2274 10.2192 25.1692 10.5326 24.94 10.69Z" fill="#00005E"/>
</svg>
