<svg width="32" height="32" viewBox="0 0 32 32" fill="none" xmlns="http://www.w3.org/2000/svg">
<path fill-rule="evenodd" clip-rule="evenodd" d="M28.0001 9.89C28.0167 8.31813 26.7617 7.02739 25.19 7H6.81998C6.06234 7.0079 5.33904 7.31716 4.80989 7.85945C4.28074 8.40173 3.9893 9.1324 3.99998 9.89V22.11C3.98325 23.6819 5.23826 24.9726 6.80998 25H25.19C26.7601 24.9781 28.0167 23.6902 28.0001 22.12V9.89ZM6.81998 9H25.19C25.3987 8.99997 25.598 9.08695 25.74 9.24C25.9089 9.41394 26.0024 9.64754 26 9.89V22.11C26.0169 22.5813 25.6511 22.9784 25.18 23H6.80998C6.60123 23 6.40192 22.9131 6.25998 22.76C6.09104 22.5861 5.9976 22.3525 5.99998 22.11V9.91C5.98636 9.68017 6.06547 9.45448 6.21959 9.28344C6.37371 9.1124 6.58998 9.01031 6.81998 9ZM23.75 10.6H23.7L16 16.38L8.29998 10.6C8.07906 10.4343 7.76566 10.4791 7.59998 10.7C7.43429 10.9209 7.47906 11.2343 7.69998 11.4L15.75 17.4C15.8354 17.467 15.9414 17.5023 16.05 17.5C16.1583 17.5007 16.2638 17.4656 16.35 17.4L24.35 11.4C24.4929 11.2928 24.5678 11.1175 24.5464 10.9402C24.525 10.7628 24.4107 10.6104 24.2464 10.5402C24.0821 10.47 23.8929 10.4928 23.75 10.6Z" fill="#00005E"/>
</svg>
