<svg width="32" height="32" viewBox="0 0 32 32" fill="none" xmlns="http://www.w3.org/2000/svg">
<path fill-rule="evenodd" clip-rule="evenodd" d="M27 10.25C26.9986 10.0581 26.9276 9.87328 26.8 9.72999L22.68 5.24999C22.5298 5.08963 22.3196 4.99905 22.1 4.99998H7.09995C6.54034 5.00263 6.00471 5.22748 5.61088 5.62506C5.21705 6.02263 4.9973 6.56038 4.99993 7.11999V26.47C4.99993 26.6786 5.08349 26.8785 5.23193 27.0251C5.38038 27.1717 5.58136 27.2527 5.78995 27.25C5.97414 27.2493 6.15182 27.1818 6.28995 27.06L6.91995 26.54C7.06431 26.4233 7.24435 26.3598 7.42995 26.36C7.60011 26.3592 7.76562 26.4155 7.89995 26.52L9.63995 27.82C9.92125 28.0317 10.3087 28.0317 10.59 27.82L12.59 26.34C12.726 26.2388 12.8904 26.1828 13.06 26.18C13.2324 26.184 13.3996 26.2397 13.54 26.34L15.41 27.74C15.6912 27.9517 16.0787 27.9517 16.36 27.74L18.18 26.38C18.4653 26.1808 18.8446 26.1808 19.13 26.38L21.08 27.84C21.3709 28.0778 21.789 28.0778 22.08 27.84L23.81 26.55C24.0912 26.3496 24.4687 26.3496 24.75 26.55L25.81 27.34C26.045 27.479 26.3351 27.4869 26.5773 27.3607C26.8194 27.2345 26.9792 26.9923 27 26.72V10.25ZM22 7.46999L24.33 9.99999H22V7.46999ZM24.21 24.4C24.477 24.4013 24.7427 24.4383 25 24.51V11H21.5C21.2238 11 21 10.7761 21 10.5V6.99999H7.09995C7.04713 7.01449 7.01302 7.06565 7.01995 7.11999V24.36C7.1631 24.3497 7.30681 24.3497 7.44995 24.36C8.05034 24.3648 8.63423 24.5571 9.11995 24.91L10.12 25.68L11.37 24.74C12.3581 23.9933 13.7218 23.9933 14.71 24.74L15.87 25.6L16.97 24.78C17.9625 24.0465 19.3174 24.0465 20.31 24.78L21.54 25.7L22.54 24.95C23.0228 24.5915 23.6086 24.3985 24.21 24.4ZM19.78 14.71C20.1705 14.3227 20.175 13.6928 19.79 13.3C19.6022 13.1107 19.3466 13.0042 19.08 13.0042C18.8134 13.0042 18.5578 13.1107 18.37 13.3L16 15.59L13.66 13.29C13.4136 13.0065 13.029 12.885 12.6644 12.9755C12.2998 13.066 12.0167 13.3532 11.9314 13.719C11.8461 14.0848 11.973 14.4676 12.26 14.71L14.61 17L12.3 19.29C11.9123 19.68 11.9123 20.31 12.3 20.7C12.4846 20.8884 12.7362 20.9962 13 21C13.2623 20.9989 13.5137 20.8947 13.7 20.71L16 18.41L18.33 20.71C18.5178 20.8993 18.7734 21.0058 19.04 21.0058C19.3066 21.0058 19.5622 20.8993 19.75 20.71C20.1377 20.32 20.1377 19.69 19.75 19.3L17.46 17L19.78 14.71Z" fill="#00005E"/>
</svg>
