<svg width="32" height="32" viewBox="0 0 32 32" fill="none" xmlns="http://www.w3.org/2000/svg">
<path fill-rule="evenodd" clip-rule="evenodd" d="M28 16C28 9.37258 22.6274 4 16 4C9.37258 4 4 9.37258 4 16C4 22.6274 9.37258 28 16 28C22.6274 28 28 22.6274 28 16ZM23.0711 23.0711C21.1957 24.9464 18.6522 26 16 26C10.4772 26 6 21.5228 6 16C6 10.4772 10.4772 6 16 6C21.5228 6 26 10.4772 26 16C26 18.6522 24.9464 21.1957 23.0711 23.0711ZM16 10C16.5523 10 17 10.4477 17 11V18C17 18.5523 16.5523 19 16 19C15.4477 19 15 18.5523 15 18V11C15 10.4477 15.4477 10 16 10ZM16 23C16.5523 23 17 22.5523 17 22C17 21.4477 16.5523 21 16 21C15.4477 21 15 21.4477 15 22C15 22.5523 15.4477 23 16 23Z" fill="#00005E"/>
</svg>
