<svg width="32" height="32" viewBox="0 0 32 32" fill="none" xmlns="http://www.w3.org/2000/svg">
<path fill-rule="evenodd" clip-rule="evenodd" d="M28 5C28 4.44772 27.5523 4 27 4H20.71C20.1577 4 19.71 4.44772 19.71 5C19.71 5.55228 20.1577 6 20.71 6H24.63L17.47 13.16C17.0823 13.55 17.0823 14.18 17.47 14.57C17.86 14.9577 18.49 14.9577 18.88 14.57L26 7.45V11.29C26 11.8423 26.4477 12.29 27 12.29C27.5523 12.29 28 11.8423 28 11.29V5ZM14.4034 16.8982C14.0381 16.8103 13.6544 16.9346 13.41 17.22L6 24.63V20.71C6 20.1577 5.55228 19.71 5 19.71C4.44772 19.71 4 20.1577 4 20.71V27C4 27.5523 4.44772 28 5 28H11.29C11.8423 28 12.29 27.5523 12.29 27C12.29 26.4477 11.8423 26 11.29 26H7.45L14.82 18.63C15.1054 18.3856 15.2297 18.0019 15.1418 17.6366C15.0539 17.2713 14.7687 16.9861 14.4034 16.8982Z" fill="#00005E"/>
</svg>
