<svg width="32" height="32" viewBox="0 0 32 32" fill="none" xmlns="http://www.w3.org/2000/svg">
<path fill-rule="evenodd" clip-rule="evenodd" d="M10.15 9.9C10.54 10.2877 11.17 10.2877 11.56 9.9L15 6.47V20C15 20.5523 15.4477 21 16 21C16.5523 21 17 20.5523 17 20V6.47L20.44 9.9C20.6937 10.1519 21.0624 10.2493 21.4074 10.1555C21.7523 10.0618 22.0211 9.79116 22.1124 9.44555C22.2037 9.09993 22.1037 8.73187 21.85 8.48L16.71 3.35C16.5222 3.16068 16.2666 3.0542 16 3.0542C15.7334 3.0542 15.4778 3.16068 15.29 3.35L10.15 8.48C9.96069 8.66776 9.8542 8.92336 9.8542 9.19C9.8542 9.45663 9.96069 9.71223 10.15 9.9ZM28 15.09C27.9136 13.3063 26.4043 11.9265 24.62 12H20C19.4477 12 19 12.4477 19 13C19 13.5523 19.4477 14 20 14H24.62C25.2963 13.9398 25.9019 14.4182 26 15.09V24.91C25.9019 25.5818 25.2963 26.0602 24.62 26H7.38C6.70372 26.0602 6.09811 25.5818 6 24.91V15.09C6.09811 14.4182 6.70372 13.9398 7.38 14H12C12.5523 14 13 13.5523 13 13C13 12.4477 12.5523 12 12 12H7.38C5.59574 11.9265 4.0864 13.3063 4 15.09V24.91C4.0864 26.6937 5.59574 28.0735 7.38 28H24.62C26.4043 28.0735 27.9136 26.6937 28 24.91V15.09Z" fill="#00005E"/>
</svg>
