<svg width="24" height="24" viewBox="0 0 24 24" fill="none" xmlns="http://www.w3.org/2000/svg">
<g clip-path="url(#clip0_17651_30202)">
<path fill-rule="evenodd" clip-rule="evenodd" d="M2.55372 2.0317C2.66758 1.9836 2.79004 1.95919 2.91364 1.95998L5.99999 1.96C6.55227 1.96 6.99999 1.51228 6.99999 0.959999C6.99999 0.407715 6.55227 -0.0400006 5.99999 -0.0400006H2.92283C2.52877 -0.0420271 2.1384 0.0360007 1.77539 0.189365C1.41129 0.343186 1.08235 0.569567 0.808629 0.854694C0.534908 1.13982 0.322135 1.47772 0.183297 1.84779C0.0475121 2.20972 -0.0147713 2.595 -1.26814e-05 2.98111V5.96C-1.26814e-05 6.51228 0.447703 6.96 0.999987 6.96C1.55227 6.96 1.99999 6.51228 1.99999 5.96V2.96C1.99999 2.94428 1.99962 2.92856 1.99888 2.91286C1.99305 2.7894 2.01243 2.66604 2.05585 2.55031C2.09927 2.43459 2.1658 2.32892 2.2514 2.23976C2.337 2.15059 2.43987 2.0798 2.55372 2.0317ZM21.0863 1.95998C21.2099 1.95919 21.3324 1.9836 21.4463 2.0317C21.5601 2.0798 21.663 2.15059 21.7486 2.23976C21.8342 2.32892 21.9007 2.43459 21.9441 2.55031C21.9876 2.66604 22.0069 2.78939 22.0011 2.91286C22.0004 2.92856 22 2.94428 22 2.96V5.96C22 6.51228 22.4477 6.96 23 6.96C23.5523 6.96 24 6.51228 24 5.96V2.98111C24.0148 2.595 23.9525 2.20973 23.8167 1.84779C23.6779 1.47773 23.4651 1.13982 23.1914 0.854694C22.9176 0.569564 22.5887 0.343185 22.2246 0.189365C21.8616 0.0360007 21.4712 -0.0420271 21.0772 -0.0400006H18C17.4477 -0.0400006 17 0.407715 17 0.959999C17 1.51228 17.4477 1.96 18 1.96L21.08 1.96002L21.0863 1.95998ZM23 16.96C23.5523 16.96 24 17.4077 24 17.96V21.04C24 21.8144 23.6924 22.5571 23.1448 23.1047C22.5971 23.6523 21.8544 23.96 21.08 23.96H18C17.4477 23.96 17 23.5122 17 22.96C17 22.4077 17.4477 21.96 18 21.96H21.08C21.324 21.96 21.558 21.863 21.7305 21.6905C21.9031 21.518 22 21.284 22 21.04V17.96C22 17.4077 22.4477 16.96 23 16.96ZM2 17.96C2 17.4077 1.55228 16.96 1 16.96C0.447715 16.96 0 17.4077 0 17.96V21.04C0 21.8144 0.307642 22.5571 0.855248 23.1047C1.40285 23.6523 2.14557 23.96 2.92 23.96H6C6.55228 23.96 7 23.5122 7 22.96C7 22.4077 6.55228 21.96 6 21.96H2.92C2.676 21.96 2.442 21.863 2.26946 21.6905C2.09693 21.518 2 21.284 2 21.04V17.96ZM7.46002 8.03003C7.73616 8.03003 7.96002 8.25389 7.96002 8.53003V10.46C7.96002 10.7362 7.73616 10.96 7.46002 10.96C7.18388 10.96 6.96002 10.7362 6.96002 10.46V8.53003C6.96002 8.25389 7.18388 8.03003 7.46002 8.03003ZM17.04 8.53003C17.04 8.25389 16.8161 8.03003 16.54 8.03003C16.2638 8.03003 16.04 8.25389 16.04 8.53003V10.46C16.04 10.7362 16.2638 10.96 16.54 10.96C16.8161 10.96 17.04 10.7362 17.04 10.46V8.53003ZM12.72 7.8999C12.9962 7.8999 13.22 8.12376 13.22 8.3999V12.0499C13.22 12.5647 13.0164 13.0587 12.6537 13.424C12.2909 13.7893 11.7983 13.9963 11.2835 13.9999C11.0073 14.0018 10.7819 13.7795 10.78 13.5034C10.7781 13.2272 11.0004 13.0018 11.2766 12.9999C11.5274 12.9982 11.7674 12.8973 11.9441 12.7194C12.1208 12.5414 12.22 12.3007 12.22 12.0499V8.3999C12.22 8.12376 12.4439 7.8999 12.72 7.8999ZM9.21649 16.1203C8.99018 15.9621 8.67844 16.0173 8.5202 16.2436C8.36197 16.4699 8.41715 16.7816 8.64346 16.9398C9.61443 17.6187 10.7684 17.9874 11.9531 17.9971C13.1378 18.0069 14.2978 17.6575 15.2798 16.9947L15.3606 16.9369C15.5853 16.7764 15.6373 16.4642 15.4768 16.2395C15.3163 16.0147 15.0041 15.9627 14.7794 16.1232L14.7149 16.1693C13.9016 16.7166 12.9417 17.0052 11.9613 16.9972C10.9788 16.9891 10.0218 16.6833 9.21649 16.1203Z" fill="#00005E"/>
</g>
<defs>
<clipPath id="clip0_17651_30202">
<rect width="24" height="24" fill="white"/>
</clipPath>
</defs>
</svg>
