<svg width="32" height="32" viewBox="0 0 32 32" fill="none" xmlns="http://www.w3.org/2000/svg">
<path fill-rule="evenodd" clip-rule="evenodd" d="M28 16.49C27.9908 15.3572 27.6425 14.253 27 13.32C28.344 9.81379 26.6376 5.87648 23.16 4.46C22.4023 4.15947 21.5951 4.00345 20.78 4C19.1583 3.99894 17.5926 4.59319 16.38 5.67C15.397 4.83575 14.1493 4.37848 12.86 4.38C11.185 4.38372 9.60268 5.14913 8.56 6.46C7.7561 7.46598 7.31248 8.71233 7.3 10C7.31637 10.4779 7.39366 10.9517 7.53 11.41C6.00929 12.8166 5.51341 15.0153 6.28313 16.9384C7.05284 18.8616 8.92874 20.111 11 20.08H11.23C11.8307 22.5582 14.0401 24.31 16.59 24.33C18.4026 24.3131 20.0931 23.4137 21.12 21.92C21.5462 22.0192 21.9824 22.0696 22.42 22.07C25.0251 22.0508 27.2742 20.2408 27.85 17.7C27.9405 17.3027 27.9907 16.8973 28 16.49ZM26 16.47C25.9913 16.7293 25.9579 16.9871 25.9 17.24C25.5446 18.8811 24.0991 20.0566 22.42 20.07C22.1403 20.0707 21.8615 20.0372 21.59 19.97L20.25 19.65L19.47 20.78C18.6895 21.9452 17.2903 22.534 15.9115 22.2774C14.5327 22.0208 13.439 20.968 13.13 19.6L12.76 18.08H11C9.34315 18.08 8 16.7369 8 15.08C8.00194 14.2594 8.33342 13.4739 8.92 12.9L9.78 12L9.45 10.84C9.36397 10.5676 9.31355 10.2853 9.3 10C9.31868 9.17116 9.60649 8.37089 10.12 7.72C10.7853 6.88519 11.7926 6.39625 12.86 6.39C13.6801 6.39005 14.4737 6.68056 15.1 7.21L16.42 8.32L17.71 7.18C19.0057 6.02229 20.8432 5.69348 22.46 6.33C24.918 7.34634 26.1164 10.138 25.16 12.62L24.79 13.62L25.37 14.47C25.77 15.0612 25.989 15.7563 26 16.47ZM10 25C10 23.3432 8.65685 22 7 22C5.34315 22 4 23.3432 4 25C4 26.6569 5.34315 28 7 28C8.65685 28 10 26.6569 10 25ZM8 25C8 25.5523 7.55228 26 7 26C6.44772 26 6 25.5523 6 25C6 24.4477 6.44772 24 7 24C7.55228 24 8 24.4477 8 25ZM13.21 8.00001C13.21 7.72386 12.9861 7.50001 12.71 7.50001C11.3293 7.50001 10.21 8.6193 10.21 10C10.21 10.2761 10.4339 10.5 10.71 10.5C10.9861 10.5 11.21 10.2761 11.21 10C11.21 9.17158 11.8816 8.50001 12.71 8.50001C12.9861 8.50001 13.21 8.27615 13.21 8.00001Z" fill="#00005E"/>
</svg>
