<svg width="32" height="32" viewBox="0 0 32 32" fill="none" xmlns="http://www.w3.org/2000/svg">
<path fill-rule="evenodd" clip-rule="evenodd" d="M26.41 10.73C27.0876 9.86845 27.1935 8.68838 26.68 7.72C25.53 5.49 21.23 4 16 4C10.77 4 6.47 5.49 5.32 7.72C4.81609 8.68685 4.92156 9.85866 5.59 10.72L5.66 10.8L11.24 17.28L12.76 19.05V26.2C12.76 27.1902 13.5598 27.9945 14.55 28C14.8731 27.9976 15.1901 27.9114 15.47 27.75L18.36 26C18.9034 25.6768 19.2375 25.0923 19.24 24.46V19.06L26.13 11.06L26.34 10.82C26.3708 10.7967 26.395 10.7656 26.41 10.73ZM24.73 9.62C24.3183 9.91165 23.8714 10.1502 23.4 10.33C22.58 8.81 19.74 7.75 16.15 7.75C12.56 7.75 9.61 8.85 8.85 10.42C8.29071 10.2233 7.75954 9.9544 7.27 9.62L7.2 9.53C6.97685 9.28657 6.93643 8.92689 7.1 8.64C7.77 7.34 11.28 6 16 6C20.72 6 24.23 7.34 24.9 8.64C25.0636 8.92689 25.0232 9.28657 24.8 9.53L24.73 9.62ZM16.15 8.75C12.87 8.75 10.44 9.72 9.82 10.74C11.836 11.2723 13.9151 11.528 16 11.5C18.1758 11.5298 20.3446 11.247 22.44 10.66C21.74 9.67 19.35 8.75 16.15 8.75ZM23.12 11.54L17.48 18C17.3251 18.1811 17.24 18.4117 17.24 18.65V24.33L14.76 25.8V18.69C14.76 18.4517 14.6749 18.2211 14.52 18.04L12.76 16.04L8.88 11.54C11.1887 12.2332 13.5896 12.5704 16 12.54C18.4104 12.571 20.8114 12.2338 23.12 11.54Z" fill="#00005E"/>
</svg>
