<svg width="32" height="32" viewBox="0 0 32 32" fill="none" xmlns="http://www.w3.org/2000/svg">
<path fill-rule="evenodd" clip-rule="evenodd" d="M5 11C4.44772 11 4 10.5523 4 10V6.92C4 5.30733 5.30733 4 6.92 4H10C10.5523 4 11 4.44772 11 5C11 5.55228 10.5523 6 10 6H6.92C6.4119 6 6 6.4119 6 6.92V10C6 10.5523 5.55228 11 5 11ZM25.08 4C26.6927 4 28 5.30733 28 6.92V10C28 10.5523 27.5523 11 27 11C26.4477 11 26 10.5523 26 10V6.92C26 6.676 25.9031 6.442 25.7305 6.26946C25.558 6.09693 25.324 6 25.08 6H22C21.4477 6 21 5.55228 21 5C21 4.44772 21.4477 4 22 4H25.08ZM28 22C28 21.4477 27.5523 21 27 21C26.4477 21 26 21.4477 26 22V25.08C26 25.324 25.9031 25.558 25.7305 25.7305C25.558 25.9031 25.324 26 25.08 26H22C21.4477 26 21 26.4477 21 27C21 27.5523 21.4477 28 22 28H25.08C26.6927 28 28 26.6927 28 25.08V22ZM10 26C10.5523 26 11 26.4477 11 27C11 27.5523 10.5523 28 10 28H6.92C5.30733 28 4 26.6927 4 25.08V22C4 21.4477 4.44772 21 5 21C5.55228 21 6 21.4477 6 22V25.08C6 25.324 6.09693 25.558 6.26946 25.7305C6.442 25.9031 6.676 26 6.92 26H10ZM15.98 25.81C19.846 25.81 22.98 22.676 22.98 18.81H23C23 18.2577 22.5523 17.81 22 17.81C21.4477 17.81 21 18.2577 21 18.81C21.0115 20.2528 20.3992 21.6303 19.3203 22.5884C18.2415 23.5465 16.8014 23.9918 15.37 23.81C12.7961 23.4302 10.9162 21.1804 11 18.58V13.41C10.9413 10.8317 12.8095 8.61215 15.36 8.23C16.7914 8.04815 18.2315 8.49351 19.3103 9.45162C20.3892 10.4097 21.0015 11.7872 20.99 13.23C20.99 13.7823 21.4377 14.23 21.99 14.23C22.5423 14.23 22.99 13.7823 22.99 13.23C22.9912 11.2211 22.1293 9.30855 20.6236 7.97881C19.1178 6.64906 17.1133 6.03033 15.12 6.28C11.5787 6.78212 8.95956 9.83351 9 13.41V18.58C8.93475 22.1732 11.5611 25.2502 15.12 25.75C15.405 25.7895 15.6923 25.8096 15.98 25.81ZM16 22.89C15.4477 22.89 15 22.4423 15 21.89C15 21.3377 15.4477 20.89 16 20.89C17.1046 20.89 18 19.9946 18 18.89V13.1C18.0001 12.4145 17.6491 11.7767 17.07 11.41C16.4415 11.0231 15.6565 10.9928 15 11.33C14.364 11.6637 13.9754 12.3322 14 13.05V19C14 19.5523 13.5523 20 13 20C12.4477 20 12 19.5523 12 19V13.05C11.9718 11.5535 12.8091 10.175 14.15 9.51C15.43 8.87864 16.9469 8.96207 18.15 9.73C19.3014 10.4639 19.999 11.7345 20 13.1V18.89C20 21.0991 18.2091 22.89 16 22.89ZM16 19C16.5523 19 17 18.5523 17 18V15C17 14.4477 16.5523 14 16 14C15.4477 14 15 14.4477 15 15V18C15 18.5523 15.4477 19 16 19Z" fill="#00005E"/>
</svg>
