<svg width="32" height="32" viewBox="0 0 32 32" fill="none" xmlns="http://www.w3.org/2000/svg">
<path fill-rule="evenodd" clip-rule="evenodd" d="M16 4C22.6274 4 28 9.37258 28 16C28 22.6274 22.6274 28 16 28C9.37258 28 4 22.6274 4 16C4 9.37258 9.37258 4 16 4ZM23.35 22.76C26.8212 18.8801 26.7349 12.9859 23.1516 9.20934C19.5682 5.43272 13.6867 5.03719 9.63 8.3L12.34 11C12.5293 11.1878 12.6358 11.4434 12.6358 11.71C12.6358 11.9766 12.5293 12.2322 12.34 12.42C12.1513 12.6072 11.8958 12.7115 11.63 12.71C11.3642 12.7115 11.1087 12.6072 10.92 12.42L8.23 9.72C5.8125 12.7157 5.32922 16.8332 6.98732 20.3073C8.64542 23.7814 12.1505 25.9953 16 26C18.1035 26.0017 20.1527 25.3326 21.85 24.09L18.71 20.95C18.3223 20.56 18.3223 19.93 18.71 19.54C18.8978 19.3507 19.1534 19.2442 19.42 19.2442C19.6866 19.2442 19.9422 19.3507 20.13 19.54L23.35 22.76ZM17.78 10.43C17.6943 10.6418 17.4885 10.7804 17.26 10.78H17.08C16.7926 10.6804 16.6372 10.3697 16.73 10.08L17.4 8.08C17.4625 7.89244 17.6204 7.75247 17.8141 7.71284C18.0078 7.6732 18.2079 7.73991 18.3391 7.88784C18.4702 8.03576 18.5125 8.24244 18.45 8.43L17.78 10.43ZM19.26 12.78C19.4053 12.7765 19.5441 12.7195 19.65 12.62L21.31 10.95C21.4164 10.8481 21.4765 10.7073 21.4765 10.56C21.4765 10.4127 21.4164 10.2719 21.31 10.17C21.0927 9.95916 20.7473 9.95916 20.53 10.17L18.87 11.84C18.7636 11.9419 18.7035 12.0827 18.7035 12.23C18.7035 12.3773 18.7636 12.5181 18.87 12.62C18.9748 12.7212 19.1143 12.7785 19.26 12.78ZM16.04 10.97L16.07 11C15.8145 10.9959 15.5686 11.0972 15.39 11.28L14 12.66C13.9647 12.692 13.9344 12.7291 13.91 12.77C13.0426 13.7703 12.7688 15.1548 13.19 16.41C13.0787 16.4579 12.9771 16.5257 12.89 16.61L9.28 20.23C8.92428 20.6136 8.92428 21.2064 9.28 21.59L10.41 22.72C10.7936 23.0757 11.3864 23.0757 11.77 22.72L15.39 19.1C15.4743 19.0129 15.5421 18.9113 15.59 18.8C16.8456 19.215 18.2269 18.9418 19.23 18.08C19.2709 18.0556 19.308 18.0253 19.34 17.99L20.72 16.61C21.0757 16.2264 21.0757 15.6336 20.72 15.25L16.72 11.25C16.5371 11.0737 16.294 10.9736 16.04 10.97ZM14.65 13.42L16.07 12L20 15.93L18.66 17.28C18.1581 17.708 17.5196 17.9422 16.86 17.94C16.5609 17.9431 16.2634 17.8958 15.98 17.8L15.12 17.5L14.76 18.34L11.09 22L10 20.91L13.57 17.33L14.42 16.97L14.13 16.1C13.8266 15.177 14.0234 14.1626 14.65 13.42ZM21.26 14.78L21.43 14.75L23.43 14.08C23.5691 14.0366 23.6847 13.9388 23.7506 13.8088C23.8165 13.6789 23.8271 13.5279 23.78 13.39C23.7344 13.2502 23.6346 13.1345 23.5031 13.0688C23.3716 13.003 23.2192 12.9926 23.08 13.04L21.08 13.7C20.7926 13.7996 20.6372 14.1103 20.73 14.4C20.8096 14.6252 21.0212 14.7769 21.26 14.78Z" fill="#00005E"/>
</svg>
