<svg width="32" height="32" viewBox="0 0 32 32" fill="none" xmlns="http://www.w3.org/2000/svg">
<path fill-rule="evenodd" clip-rule="evenodd" d="M28 16C28 9.37258 22.6274 4 16 4C9.37258 4 4 9.37258 4 16C4 22.6274 9.37258 28 16 28C22.6274 28 28 22.6274 28 16ZM19.7035 11.23C19.7035 11.0827 19.7636 10.9419 19.87 10.84L21.53 9.17C21.7473 8.95916 22.0927 8.95916 22.31 9.17C22.4164 9.27186 22.4765 9.41273 22.4765 9.56C22.4765 9.70727 22.4164 9.84814 22.31 9.95L20.65 11.62C20.5441 11.7195 20.4053 11.7765 20.26 11.78C20.1143 11.7785 19.9748 11.7212 19.87 11.62C19.7636 11.5181 19.7035 11.3773 19.7035 11.23ZM17.73 9.05C17.676 9.19305 17.6829 9.35194 17.749 9.4898C17.8151 9.62767 17.9347 9.73251 18.08 9.78H18.26C18.4961 9.77565 18.7041 9.62364 18.78 9.4L19.45 7.4C19.5466 7.11005 19.3899 6.79665 19.1 6.7C18.8101 6.60335 18.4967 6.76005 18.4 7.05L17.73 9.05ZM20.72 16.61H20.73L19.34 18C19.308 18.0353 19.2709 18.0656 19.23 18.09C18.2269 18.9518 16.8456 19.225 15.59 18.81C15.5421 18.9213 15.4743 19.0229 15.39 19.11L11.77 22.73C11.3864 23.0857 10.7936 23.0857 10.41 22.73L9.28 21.59C8.92428 21.2064 8.92428 20.6136 9.28 20.23L12.9 16.61C12.9871 16.5257 13.0887 16.4579 13.2 16.41C12.7788 15.1548 13.0526 13.7703 13.92 12.77C13.9444 12.7291 13.9747 12.692 14.01 12.66L15.39 11.28C15.5686 11.0972 15.8145 10.9959 16.07 10.9999C16.324 11.0036 16.5671 11.1037 16.75 11.28L20.75 15.28C21.0791 15.6667 21.0662 16.2386 20.72 16.61ZM24.44 13.08H24.43C24.5783 13.0396 24.7023 12.9379 24.771 12.8005C24.8397 12.6631 24.8466 12.5028 24.79 12.36C24.7444 12.2202 24.6446 12.1045 24.5131 12.0388C24.3816 11.973 24.2292 11.9626 24.09 12.01L22.09 12.67C21.8026 12.7696 21.6472 13.0803 21.74 13.37C21.8196 13.5952 22.0312 13.7469 22.27 13.75H22.44L24.44 13.08ZM20 15.93L16.07 12L14.72 13.36C14.0934 14.1026 13.8966 15.117 14.2 16.04L14.49 16.91L13.64 17.27L10 20.91L11.09 22L14.68 18.41L15.04 17.57L15.9 17.87C16.1834 17.9658 16.4809 18.0131 16.78 18.01C17.4396 18.0122 18.0781 17.778 18.58 17.35L20 15.93Z" fill="#00005E"/>
</svg>
