<svg width="32" height="32" viewBox="0 0 32 32" fill="none" xmlns="http://www.w3.org/2000/svg">
<path fill-rule="evenodd" clip-rule="evenodd" d="M26.6582 24.0711L27.9702 14.2171C28.0992 13.2521 27.7982 12.2691 27.1432 11.5221C26.6802 10.9931 26.0742 10.6241 25.4122 10.4531V9.91609C25.4122 8.28509 24.1682 6.95809 22.6382 6.95809H16.3802C16.1262 6.95809 15.8822 6.79009 15.7422 6.52009C15.2582 5.58309 14.3332 5.00009 13.3272 5.00009H9.36223C7.83323 5.00009 6.58923 6.32709 6.58923 7.95809V10.4521C5.92623 10.6231 5.32023 10.9921 4.85623 11.5211C4.20223 12.2691 3.90023 13.2521 4.02923 14.2171L5.34223 24.0711C5.56523 25.7411 7.02723 27.0001 8.74323 27.0001H23.2582C24.9732 27.0001 26.4352 25.7411 26.6582 24.0711ZM8.58923 7.95809V11.3461H23.4122V9.91609C23.4122 9.39609 23.0572 8.95809 22.6382 8.95809H16.3802C15.3752 8.95809 14.4492 8.37609 13.9652 7.43809C13.8252 7.16809 13.5812 7.00009 13.3272 7.00009H9.36223C8.94323 7.00009 8.58923 7.43809 8.58923 7.95809ZM25.6382 12.8401C25.3642 12.5261 24.9752 12.3471 24.5712 12.3471L7.42923 12.3461C7.01923 12.3461 6.63923 12.5201 6.36123 12.8391C6.08723 13.1521 5.95923 13.5581 6.01123 13.9531L7.32523 23.8071C7.41623 24.4871 8.02523 25.0001 8.74323 25.0001H23.2582C23.9752 25.0001 24.5852 24.4871 24.6762 23.8071L25.9882 13.9531C26.0412 13.5581 25.9132 13.1531 25.6382 12.8401Z" fill="#00005E"/>
</svg>
