<svg width="32" height="32" viewBox="0 0 32 32" fill="none" xmlns="http://www.w3.org/2000/svg">
<path fill-rule="evenodd" clip-rule="evenodd" d="M28 16C28 19.052 26.854 21.961 24.771 24.19C24.395 24.595 23.76 24.616 23.357 24.238C22.954 23.861 22.933 23.229 23.31 22.825C25.044 20.968 26 18.543 26 16C26 10.486 21.514 6 16 6C10.486 6 6 10.486 6 16C6 21.514 10.486 26 16 26C16.553 26 17 26.447 17 27C17 27.553 16.553 28 16 28C9.383 28 4 22.617 4 16C4 9.383 9.383 4 16 4C22.617 4 28 9.383 28 16ZM22.6088 14.3218L22.3948 19.0968C22.3238 19.7858 21.7818 20.2838 21.1318 20.2838H20.5138V28.0838C20.5138 28.3608 20.2898 28.5838 20.0138 28.5838C19.7368 28.5838 19.5138 28.3608 19.5138 28.0838V20.2838H18.9118C18.2498 20.2838 17.7068 19.7768 17.6498 19.1028L17.5098 14.3428C17.5018 14.0668 17.7188 13.8358 17.9948 13.8278C18.2818 13.8238 18.5018 14.0378 18.5098 14.3138L18.6478 19.0448C18.6578 19.1668 18.7758 19.2838 18.9118 19.2838H19.5138V14.3838C19.5138 14.1078 19.7368 13.8838 20.0138 13.8838C20.2898 13.8838 20.5138 14.1078 20.5138 14.3838V19.2838H21.1318C21.2688 19.2838 21.3828 19.1718 21.3988 19.0228L21.6108 14.2778C21.6218 14.0088 21.8428 13.7998 22.1098 13.7998C22.1158 13.7998 22.1238 13.7998 22.1318 13.8008C22.4068 13.8128 22.6208 14.0458 22.6088 14.3218ZM16.5992 8.3246C16.5992 8.0476 16.3762 7.8246 16.0992 7.8246C11.5362 7.8246 7.8242 11.5366 7.8242 16.0996C7.8242 16.3756 8.0482 16.5996 8.3242 16.5996C8.6002 16.5996 8.8242 16.3756 8.8242 16.0996C8.8242 12.0876 12.0882 8.8246 16.0992 8.8246C16.3762 8.8246 16.5992 8.6006 16.5992 8.3246Z" fill="#00005E"/>
</svg>
