<svg width="32" height="32" viewBox="0 0 32 32" fill="none" xmlns="http://www.w3.org/2000/svg">
<path fill-rule="evenodd" clip-rule="evenodd" d="M27.1 21.88C27.6261 21.9767 27.983 22.4702 27.91 23C27.4368 25.7548 25.0451 27.7662 22.25 27.76H9.82C6.60799 27.7545 4.0055 25.1521 4 21.94V16.19C4.00334 13.0543 6.48635 10.483 9.62 10.37L21.24 4.65003C21.5925 4.47786 21.9989 4.45268 22.37 4.58003C22.7452 4.70666 23.0523 4.98126 23.22 5.34003L26.38 12.13C27.1524 12.8995 27.687 13.875 27.92 14.94C28.036 15.4923 27.6823 16.0341 27.13 16.15C26.5777 16.266 26.036 15.9123 25.92 15.36C25.5604 13.6177 24.029 12.3659 22.25 12.36H9.82C7.70866 12.3655 6 14.0787 6 16.19V21.94C6.0055 24.0475 7.71255 25.7545 9.82 25.76H22.25C24.0642 25.7643 25.6198 24.4658 25.94 22.68C26.0412 22.14 26.5592 21.7827 27.1 21.88ZM21.68 5.55003L11.9 10.38H22.25C23.0999 10.387 23.9372 10.5852 24.7 10.96L22.32 5.80003C22.2665 5.68068 22.1646 5.58976 22.04 5.55003C21.9252 5.49994 21.7948 5.49994 21.68 5.55003ZM21.0942 22.71C21.0942 22.9767 21.2007 23.2323 21.39 23.42C21.78 23.8078 22.41 23.8078 22.8 23.42L26.38 19.85C26.5693 19.6623 26.6758 19.4067 26.6758 19.14C26.6758 18.8734 26.5693 18.6178 26.38 18.43L22.8 14.86C22.5556 14.5747 22.1719 14.4504 21.8066 14.5382C21.4413 14.6261 21.1561 14.9113 21.0682 15.2766C20.9803 15.6419 21.1046 16.0256 21.39 16.27L23.18 18.06H14.18C13.6277 18.06 13.18 18.5077 13.18 19.06C13.18 19.6123 13.6277 20.06 14.18 20.06H23.36L21.39 22C21.2007 22.1878 21.0942 22.4434 21.0942 22.71Z" fill="#00005E"/>
</svg>
