<svg width="32" height="32" viewBox="0 0 32 32" fill="none" xmlns="http://www.w3.org/2000/svg">
<path fill-rule="evenodd" clip-rule="evenodd" d="M9 6H17C17.5523 6 18 6.44772 18 7V21H8V7C8 6.44772 8.44772 6 9 6ZM6 21V7C6 5.34315 7.34315 4 9 4H17C18.6569 4 20 5.34315 20 7V15H21.5C22.8807 15 24 16.1193 24 17.5V22.25C24 22.6642 24.3358 23 24.75 23C25.1642 23 25.5 22.6642 25.5 22.25V14C24.1193 14 23 12.8807 23 11.5C23 10.1864 24.0132 9.10937 25.3007 9.00783L23.6464 7.35355C23.4512 7.15829 23.4512 6.84171 23.6464 6.64645C23.8417 6.45118 24.1583 6.45118 24.3536 6.64645L27.3536 9.64645C27.4511 9.74402 27.4999 9.87187 27.5 9.99975C27.814 10.4176 28 10.9371 28 11.5C28 12.5252 27.383 13.4062 26.5 13.792V22.25C26.5 23.2165 25.7165 24 24.75 24C23.7835 24 23 23.2165 23 22.25V17.5C23 16.6716 22.3284 16 21.5 16H20V21C21.1046 21 22 21.8954 22 23V28H4V23C4 21.8954 4.89543 21 6 21ZM27 11.5C27 12.3284 26.3284 13 25.5 13C24.6716 13 24 12.3284 24 11.5C24 10.6716 24.6716 10 25.5 10C26.3284 10 27 10.6716 27 11.5ZM20 23H6V26H20V23ZM16 8H10V11H16V8ZM9 7V12H17V7H9Z" fill="#00005E"/>
</svg>
