<svg width="32" height="32" viewBox="0 0 32 32" fill="none" xmlns="http://www.w3.org/2000/svg">
<path fill-rule="evenodd" clip-rule="evenodd" d="M25.5182 12.6608L25.6422 13.0888C25.7722 12.7158 25.9122 12.2828 26.0632 11.7478C26.2482 11.0918 25.8672 10.4078 25.2112 10.2218L10.8862 6.04379C10.2432 5.85979 9.55422 6.24379 9.36822 6.89779L7.43222 13.7228C7.33122 14.0798 7.39522 14.4598 7.60622 14.7648C7.70422 14.9048 7.74722 15.0618 7.76422 15.2218L22.3132 10.8958C22.5542 10.8268 22.7962 10.7928 23.0362 10.7928C24.1582 10.7928 25.1902 11.5288 25.5182 12.6608ZM25.7052 21.1018C25.7572 21.0048 25.8092 20.8488 25.7532 20.6568L23.5972 13.2178C23.5132 12.9268 23.2472 12.7928 23.0362 12.7928C22.9812 12.7928 22.9252 12.8018 22.8712 12.8168L7.43722 17.4048C7.23122 17.4658 7.12622 17.5928 7.07322 17.6898C7.01922 17.7868 6.96722 17.9428 7.02322 18.1358L9.17922 25.5748C9.26422 25.8658 9.53122 25.9988 9.74322 25.9988C9.79722 25.9988 9.85322 25.9908 9.90822 25.9748L25.3392 21.3868C25.5462 21.3258 25.6512 21.1988 25.7052 21.1018ZM27.1352 14.8138L27.1146 14.8675C26.9753 15.2306 26.8543 15.5461 26.7532 15.8998C26.7142 16.0358 26.6442 16.1498 26.5592 16.2528L27.6742 20.0978C28.0732 21.4708 27.2832 22.9058 25.9102 23.3038L10.4632 27.8958C10.2232 27.9658 9.98122 27.9988 9.74322 27.9988C8.62022 27.9988 7.58622 27.2638 7.25822 26.1318L5.10322 18.6928C4.79922 17.6478 5.18822 16.5688 5.99722 15.9368C5.99245 15.9306 5.9863 15.9257 5.98009 15.9209C5.97331 15.9155 5.96645 15.9101 5.96122 15.9028C5.40922 15.1048 5.24422 14.1118 5.50822 13.1788L7.44422 6.35179C7.93122 4.63779 9.72222 3.63879 11.4392 4.12179L25.7652 8.29979C27.4742 8.78479 28.4742 10.5768 27.9872 12.2928C27.6542 13.4698 27.3672 14.2158 27.1352 14.8138ZM18.3273 19.7756C18.3273 18.7306 17.4763 17.8796 16.4313 17.8796C15.3863 17.8796 14.5353 18.7306 14.5353 19.7756C14.5353 20.8206 15.3863 21.6716 16.4313 21.6716C17.4763 21.6716 18.3273 20.8206 18.3273 19.7756ZM19.3273 19.7756C19.3273 21.3716 18.0283 22.6716 16.4313 22.6716C14.8343 22.6716 13.5353 21.3716 13.5353 19.7756C13.5353 18.1786 14.8343 16.8796 16.4313 16.8796C18.0283 16.8796 19.3273 18.1786 19.3273 19.7756ZM12.558 8.97769C12.778 8.97769 12.979 8.83269 13.04 8.61069C13.114 8.34569 12.958 8.06969 12.691 7.99669L11.201 7.58469C10.937 7.50869 10.66 7.66769 10.587 7.93369C10.512 8.19869 10.669 8.47469 10.935 8.54769L12.425 8.95969C12.469 8.97269 12.514 8.97769 12.558 8.97769ZM12.0982 23.8396C12.1782 24.1046 12.0282 24.3826 11.7632 24.4616L10.2832 24.9056C10.2352 24.9206 10.1872 24.9276 10.1392 24.9276C9.92422 24.9276 9.72522 24.7876 9.66122 24.5706C9.58022 24.3066 9.73122 24.0276 9.99622 23.9486L11.4762 23.5046C11.7392 23.4246 12.0192 23.5746 12.0982 23.8396ZM22.7388 15.1237C23.0038 15.0447 23.1538 14.7667 23.0738 14.5017C22.9958 14.2367 22.7138 14.0847 22.4518 14.1667L20.9708 14.6107C20.7058 14.6897 20.5558 14.9687 20.6358 15.2327C20.6998 15.4497 20.8988 15.5897 21.1138 15.5897C21.1618 15.5897 21.2098 15.5827 21.2578 15.5677L22.7388 15.1237Z" fill="#00005E"/>
</svg>
