<svg width="32" height="32" viewBox="0 0 32 32" fill="none" xmlns="http://www.w3.org/2000/svg">
<path fill-rule="evenodd" clip-rule="evenodd" d="M16 5C9.92487 5 5 9.92487 5 16C5 22.0751 9.92487 27 16 27C22.0751 27 27 22.0751 27 16C27 14.843 26.8217 13.7296 26.4919 12.6846C26.3256 12.158 26.6178 11.5962 27.1444 11.43C27.6711 11.2637 28.2328 11.5559 28.3991 12.0826C28.7897 13.32 29 14.6364 29 16C29 23.1797 23.1797 29 16 29C8.8203 29 3 23.1797 3 16C3 8.8203 8.8203 3 16 3C17.1809 3 18.3265 3.15771 19.4162 3.45379C19.9492 3.59859 20.2639 4.14803 20.1191 4.681C19.9743 5.21396 19.4248 5.52862 18.8919 5.38382C17.9715 5.13376 17.0021 5 16 5ZM16 10.1C12.7415 10.1 10.1 12.7415 10.1 16C10.1 19.2585 12.7415 21.9 16 21.9C19.2585 21.9 21.9 19.2585 21.9 16C21.9 15.3552 21.7967 14.7356 21.6063 14.1561C21.52 13.8938 21.6628 13.6112 21.9251 13.525C22.1875 13.4388 22.47 13.5815 22.5563 13.8439C22.7794 14.5228 22.9 15.2478 22.9 16C22.9 19.8107 19.8107 22.9 16 22.9C12.1892 22.9 9.09998 19.8107 9.09998 16C9.09998 12.1892 12.1892 9.09998 16 9.09998C16.7521 9.09998 17.4771 9.2205 18.1561 9.44368C18.4184 9.5299 18.5612 9.81247 18.475 10.0748C18.3888 10.3371 18.1062 10.4799 17.8439 10.3937C17.2644 10.2032 16.6447 10.1 16 10.1ZM16 17.6C16.8837 17.6 17.6 16.8837 17.6 16C17.6 15.7405 17.5382 15.4954 17.4285 15.2786L20.4665 12.2407L23.032 12.438C23.1775 12.4492 23.3207 12.3963 23.4239 12.2931L28.0942 7.62273C28.2323 7.48466 28.2773 7.27884 28.2096 7.09571C28.1418 6.91257 27.9737 6.78563 27.779 6.77065L25.1706 6.57001L24.97 3.96161C24.955 3.76692 24.828 3.59876 24.6449 3.53102C24.4618 3.46327 24.256 3.50833 24.1179 3.64641L19.4476 8.31672C19.3443 8.41993 19.2914 8.56309 19.3026 8.70862L19.5361 11.7443C19.5364 11.7482 19.5367 11.752 19.5371 11.7558L16.7214 14.5715C16.5047 14.4618 16.2596 14.4 16 14.4C15.1164 14.4 14.4 15.1164 14.4 16C14.4 16.8837 15.1164 17.6 16 17.6ZM20.3173 8.86122L24.0563 5.12221L24.2064 7.07401C24.2253 7.3199 24.4207 7.51528 24.6666 7.53419L26.6184 7.68433L22.8794 11.4233L20.5003 11.2403L20.3173 8.86122Z" fill="#00005E"/>
</svg>
