<svg width="32" height="32" viewBox="0 0 32 32" fill="none" xmlns="http://www.w3.org/2000/svg">
<path fill-rule="evenodd" clip-rule="evenodd" d="M27.67 23C27.8874 23.196 28.008 23.4774 28 23.77V27C28 27.5523 27.5523 28 27 28H25C24.4477 28 24 27.5523 24 27V23.78C24.0007 23.4978 24.1205 23.229 24.33 23.04L25.21 22.23C24.8409 21.9671 24.6479 21.5214 24.7088 21.0724C24.7696 20.6234 25.0743 20.2451 25.5 20.09V15.81L23 17.26V20.7C23 23.2 19.23 24.5 15.5 24.5C11.77 24.5 8 23.2 8 20.7V17.26L3.62 14.7C3.31851 14.5261 3.12913 14.2079 3.12 13.86C3.1115 13.5149 3.28161 13.1898 3.57 13L14.95 5.47999C15.2837 5.26021 15.7163 5.26021 16.05 5.47999L27.43 13.02C27.7184 13.2098 27.8885 13.5349 27.88 13.88C27.8709 14.2279 27.6815 14.5461 27.38 14.72L26.5 15.23V20.1C26.9244 20.3079 27.1953 20.7374 27.2 21.21C27.1967 21.5745 27.0319 21.9188 26.75 22.15L27.67 23ZM21 20.7V19.6C19.4961 18.4946 17.6531 17.9499 15.79 18.06C12.47 18.06 10.14 19.36 10 20.57V20.7C10 21.34 12.09 22.5 15.5 22.5C18.91 22.5 21 21.34 21 20.7ZM21 16.68V16.7V18.35C19.4113 17.4602 17.6099 17.0211 15.79 17.08C13.7271 16.9693 11.6871 17.5577 10 18.75V16.75C10.73 15.7 12.91 14.75 15.81 14.75C17.6924 14.6532 19.5554 15.169 21.12 16.22C21.0408 16.3603 20.9995 16.5189 21 16.68ZM21.91 15.6L25 13.8L15.5 7.50999L6 13.8L9.48 15.83C10.63 14.6 13 13.77 15.81 13.77C17.9944 13.6508 20.1519 14.298 21.91 15.6ZM27 23.77V27H25V23.78L26 22.86L27 23.77Z" fill="#00005E"/>
</svg>
