<svg width="32" height="32" viewBox="0 0 32 32" fill="none" xmlns="http://www.w3.org/2000/svg">
<path fill-rule="evenodd" clip-rule="evenodd" d="M29.78 10.1C30.1902 10.461 30.2348 11.0844 29.88 11.5L28.05 13.63C27.8769 13.8285 27.6326 13.9506 27.37 13.97H27.29C27.0517 13.97 26.8211 13.8849 26.64 13.73L24.35 11.73C24.0785 11.496 23.9524 11.1349 24.0193 10.7828C24.0862 10.4306 24.3359 10.1409 24.6743 10.0228C25.0127 9.90464 25.3885 9.97602 25.66 10.21L26.26 10.73C26.2781 8.35347 24.5335 6.33088 22.18 6.00003H21.79C19.3113 6.01591 17.2808 7.97327 17.1741 10.4497C17.0674 12.9261 18.9219 15.0509 21.39 15.28C21.9423 15.28 22.39 15.7277 22.39 16.28C22.39 16.8323 21.9423 17.28 21.39 17.28C17.7228 17.1447 14.8597 14.0622 14.995 10.395C15.1303 6.72786 18.2128 3.86472 21.88 4.00003C22.08 4.06003 22.27 4.06003 22.45 4.06003C25.6304 4.49979 28.0628 7.11602 28.27 10.32L28.37 10.21C28.5424 10.0085 28.7878 9.88362 29.0522 9.86299C29.3167 9.84236 29.5784 9.92762 29.78 10.1ZM27.67 22.55L23.75 18.61C23.538 18.3975 23.2502 18.2781 22.95 18.2781C22.6498 18.2781 22.362 18.3975 22.15 18.61L20 20.73C19.6474 21.079 19.1096 21.1598 18.67 20.93C17.0077 20.1077 15.4748 19.0465 14.12 17.78C12.8169 16.4399 11.7787 14.8656 11.06 13.14C10.8636 12.7102 10.9553 12.2036 11.29 11.87L13.29 9.87003C13.505 9.65937 13.6262 9.37103 13.6262 9.07003C13.6262 8.76902 13.505 8.48069 13.29 8.27003L9.43 4.33003C9.21801 4.11752 8.93017 3.99809 8.63 3.99809C8.32983 3.99809 8.042 4.11752 7.83 4.33003L5.47 6.69003C4.91174 7.24285 4.5083 7.93248 4.3 8.69003C3.24 12.6167 5.00334 17.0167 9.59 21.89C13.33 25.89 17.0367 27.89 20.71 27.89C21.6428 27.8866 22.571 27.7588 23.47 27.51C24.227 27.3004 24.9163 26.8972 25.47 26.34L27.67 24.15C27.8825 23.938 28.0019 23.6502 28.0019 23.35C28.0019 23.0499 27.8825 22.762 27.67 22.55ZM25.69 23.33L24.06 24.91C23.7477 25.218 23.3624 25.4417 22.94 25.56C22.2135 25.761 21.4637 25.8652 20.71 25.87C17.63 25.87 14.38 24.07 11.05 20.52C7 16.2 5.37 12.41 6.23 9.24003C6.34157 8.81195 6.56605 8.42169 6.88 8.11003L8.63 6.36003L11.32 9.05003L9.91 10.46C8.97145 11.3865 8.71179 12.8006 9.26 14C10.0862 15.9551 11.2698 17.7389 12.75 19.26C14.2447 20.6494 15.928 21.8209 17.75 22.74C18.9634 23.3807 20.4529 23.1534 21.42 22.18L23 20.64L25.69 23.33ZM21.5 8.20003C21.2239 8.20003 21 8.42388 21 8.70003V11.55C21 11.8262 21.2239 12.05 21.5 12.05C21.7761 12.05 22 11.8262 22 11.55V8.70003C22 8.42388 21.7761 8.20003 21.5 8.20003Z" fill="#00005E"/>
</svg>
