<svg width="32" height="32" viewBox="0 0 32 32" fill="none" xmlns="http://www.w3.org/2000/svg">
<path fill-rule="evenodd" clip-rule="evenodd" d="M6.93525 24.5009L7.30002 25.7401C7.6325 26.6189 8.38363 27.2724 9.30002 27.4801L10.69 27.9201C10.9068 27.9881 11.1328 28.0219 11.36 28.0201H11.64C12.56 27.9101 13.18 27.2801 13.03 26.6101L11.2 18.3801C11.1296 18.1259 10.9788 17.9013 10.77 17.7401C10.4116 17.4756 9.97525 17.3384 9.53002 17.3501L9.48002 17.31C9.07424 17.3066 8.67568 17.4175 8.33002 17.6301L6.89002 18.6301C6.82347 18.6671 6.75961 18.7074 6.69858 18.7506C5.74785 14.6704 5.9234 12.6844 6.32002 11.67C6.56618 11.0557 6.86633 10.424 7.26516 9.81537C8.29906 9.7641 9.31769 9.54275 10.28 9.16C12.1345 8.37386 14.1171 7.93329 16.13 7.86C18.4925 7.97289 20.7993 8.6154 22.88 9.74C23.2199 9.93442 23.6093 10.0248 24 10C24.3392 9.98512 24.6767 9.94605 25.0098 9.88316C25.4367 10.5403 25.6875 11.1557 25.83 11.61C26.0466 12.2675 26.1735 13.9902 25.1829 18.5092L23.85 17.59C23.5048 17.3764 23.1059 17.2654 22.7 17.27L22.65 17.31C22.2054 17.3028 21.7704 17.4396 21.41 17.7C21.201 17.8591 21.0528 18.085 20.99 18.34L19.15 26.57C19 27.24 19.62 27.87 20.55 27.98H20.82C21.0473 27.9826 21.2735 27.9489 21.49 27.88L22.88 27.44C23.7964 27.2323 24.5475 26.5788 24.88 25.7L25.2398 24.4864C25.5844 24.393 25.8546 24.1246 25.95 23.78C28.39 14.87 28.15 12.22 27.75 11C27.07 8.89 24.58 4 16.26 4C8.19002 4 5.67002 8 4.47002 10.92C3.52002 13.29 3.99993 17.5 6.00002 23.8C6.12927 24.2126 6.50776 24.4929 6.93525 24.5009ZM24.292 8.94986C22.9271 7.43945 20.5079 6 16.26 6C12.0114 6 9.60448 7.17802 8.1361 8.71466C8.74523 8.61818 9.34342 8.45594 9.92002 8.23C11.8882 7.39551 13.9934 6.93108 16.13 6.86C18.6812 6.95928 21.1754 7.64356 23.42 8.86C23.4825 8.90168 23.6995 8.99643 24.292 8.94986ZM9.30002 19.3701H9.33002L9.30395 19.3877L9.30002 19.3701ZM9.30395 19.3877L10.74 25.8401L9.82002 25.5501C9.56746 25.4933 9.34175 25.3522 9.18002 25.1501L7.78002 20.4301C7.84472 20.3658 7.91892 20.3118 8.00002 20.2701L9.30395 19.3877ZM21.36 25.84L22.8 19.37L24.13 20.27C24.2005 20.3142 24.2645 20.368 24.32 20.43L22.93 25.15C22.7631 25.3511 22.5347 25.4916 22.28 25.55L21.36 25.84Z" fill="#00005E"/>
</svg>
