<svg width="32" height="32" viewBox="0 0 32 32" fill="none" xmlns="http://www.w3.org/2000/svg">
<path fill-rule="evenodd" clip-rule="evenodd" d="M16.4815 27.876C23.9625 23.764 27.9995 17.157 27.9995 13.029C27.9995 9.153 24.7755 6 20.8125 6C18.0335 6 15.4755 7.591 14.2975 10.054C14.0595 10.552 14.2705 11.149 14.7685 11.388C15.2675 11.626 15.8645 11.414 16.1025 10.917C16.9505 9.145 18.7985 8 20.8125 8C23.6725 8 25.9995 10.256 25.9995 13.029C25.9995 16.545 22.2705 22.228 16.0005 25.853C9.72949 22.228 5.99949 16.545 5.99949 13.029C5.99949 10.256 8.32749 8 11.1875 8C11.9135 8 12.6155 8.142 13.2735 8.422C13.7825 8.639 14.3705 8.401 14.5845 7.894C14.8015 7.385 14.5645 6.798 14.0565 6.582C13.1485 6.195 12.1835 6 11.1875 6C7.22449 6 4.00049 9.153 4.00049 13.029C4.00049 17.157 8.03749 23.764 15.5185 27.876C15.6675 27.959 15.8335 28 16.0005 28C16.1665 28 16.3325 27.959 16.4815 27.876ZM20.1766 9.8974C20.1526 10.1724 20.3556 10.4164 20.6296 10.4404C22.1586 10.5774 23.1026 11.3404 23.5186 12.7734C23.5816 12.9924 23.7826 13.1334 23.9986 13.1334C24.0446 13.1334 24.0916 13.1274 24.1386 13.1144C24.4036 13.0374 24.5566 12.7594 24.4796 12.4944C23.9426 10.6464 22.6776 9.6204 20.7196 9.4444C20.4436 9.4254 20.2016 9.6214 20.1766 9.8974Z" fill="#00005E"/>
</svg>
