<svg width="32" height="32" viewBox="0 0 32 32" fill="none" xmlns="http://www.w3.org/2000/svg">
<path fill-rule="evenodd" clip-rule="evenodd" d="M28.7 15C28.8982 15.1858 29.0123 15.4442 29.0162 15.7158C29.0198 15.9874 28.913 16.2488 28.72 16.44C28.5322 16.6293 28.2766 16.7358 28.01 16.7358C27.7434 16.7358 27.4878 16.6293 27.3 16.44L26 15.18V21.74C25.9945 25.195 23.195 27.9945 19.74 28H12.26C8.80498 27.9945 6.0055 25.195 5.99999 21.74V15.16L4.70999 16.42C4.31996 16.8077 3.69003 16.8077 3.29999 16.42C3.11068 16.2322 3.0042 15.9767 3.0042 15.71C3.0042 15.4434 3.11068 15.1878 3.29999 15L15.23 3.28001C15.6176 2.90536 16.2324 2.90536 16.62 3.28001L28.7 15ZM14 26H18V21.71C18.0174 20.9784 17.6339 20.2957 17 19.93C16.3229 19.5504 15.4911 19.5774 14.84 20C14.3393 20.3669 14.0306 20.94 14 21.56V26ZM24 13.24V21.74C24 24.0927 22.0927 26 19.74 26H19V21.71C19.0306 20.59 18.4345 19.5463 17.4542 19.0036C16.474 18.4608 15.273 18.5096 14.34 19.13C13.523 19.6723 13.0227 20.5797 13 21.56V26H12.26C11.1302 26 10.0466 25.5512 9.24772 24.7523C8.44881 23.9534 7.99999 22.8698 7.99999 21.74V13.2L15.93 5.40001L24 13.24Z" fill="#00005E"/>
</svg>
