<svg width="32" height="32" viewBox="0 0 32 32" fill="none" xmlns="http://www.w3.org/2000/svg">
<path fill-rule="evenodd" clip-rule="evenodd" d="M28.39 14.51C28.5959 14.6949 28.716 14.9568 28.7219 15.2335C28.7273 15.5102 28.6181 15.7768 28.42 15.97C28.2298 16.1695 27.9657 16.2817 27.69 16.28C27.4325 16.279 27.1854 16.1787 27 16L26 15V21.66C26 25.1615 23.1615 28 19.66 28H12.34C8.84631 28 6.01102 25.1737 6 21.68V15L5 16C4.59131 16.3866 3.9466 16.3687 3.56 15.96C3.1734 15.5513 3.19131 14.9066 3.6 14.52L15.23 3.28001C15.6176 2.90536 16.2324 2.90536 16.62 3.28001L28.39 14.51ZM24 21.66V13.09L15.93 5.39001L8 13.05V21.66C8.0055 24.0546 9.94537 25.9945 12.34 26H19.66C22.0546 25.9945 23.9945 24.0546 24 21.66ZM16.13 23.64C16.0568 23.6685 15.9786 23.6821 15.9 23.68C15.8123 23.677 15.7266 23.653 15.65 23.61C12.08 21.56 10.1599 18.28 10.1599 16.22C10.1489 14.3019 11.692 12.7365 13.61 12.72C14.0881 12.7115 14.5624 12.8071 15 13C15.1224 13.0524 15.2182 13.1524 15.2653 13.2769C15.3125 13.4014 15.3069 13.5397 15.25 13.66C15.1364 13.9109 14.8413 14.0227 14.59 13.91C14.2767 13.7656 13.9349 13.6938 13.59 13.7C12.2242 13.7165 11.1289 14.8342 11.14 16.2C11.14 17.95 12.91 20.77 15.88 22.58C18.88 20.77 20.61 17.95 20.61 16.2C20.6268 15.0414 19.8231 14.032 18.6901 13.7889C17.5571 13.5458 16.4101 14.1365 15.95 15.2C15.8957 15.3206 15.795 15.4141 15.6707 15.4593C15.5464 15.5045 15.4091 15.4976 15.29 15.44C15.0391 15.3264 14.9273 15.0313 15.04 14.78C15.7146 13.2997 17.3339 12.4943 18.9214 12.8495C20.5089 13.2047 21.6306 14.6234 21.61 16.25C21.61 18.31 19.69 21.59 16.13 23.64Z" fill="#00005E"/>
</svg>
