<svg width="32" height="32" viewBox="0 0 32 32" fill="none" xmlns="http://www.w3.org/2000/svg">
<path fill-rule="evenodd" clip-rule="evenodd" d="M29.87 16.14C30.1414 15.662 29.9761 15.0546 29.5 14.78L12.84 5.13001C12.3595 4.85387 11.7461 5.01952 11.47 5.50001C11.1939 5.9805 11.3595 6.59387 11.84 6.87001L13 7.54001V11.59L2.43 17.71C2.19856 17.842 2.02934 18.0608 1.95988 18.318C1.89041 18.5752 1.92645 18.8495 2.06 19.08C2.24187 19.3868 2.57337 19.5735 2.93 19.57C3.10517 19.5712 3.2776 19.5264 3.43 19.44L5 18.53V27H27V15.64L28.5 16.51C28.7305 16.6436 29.0048 16.6796 29.262 16.6101C29.5192 16.5407 29.738 16.3715 29.87 16.14ZM7 25V17.37L14 13.32V25H7ZM25 25V14.48L15 8.69001V25H25ZM18.5 16.5C17.3954 16.5 16.5 15.6046 16.5 14.5C16.5 13.3954 17.3954 12.5 18.5 12.5C19.6046 12.5 20.5 13.3954 20.5 14.5C20.5 15.6046 19.6046 16.5 18.5 16.5ZM18.5 13.5C17.9477 13.5 17.5 13.9477 17.5 14.5C17.5 15.0523 17.9477 15.5 18.5 15.5C19.0523 15.5 19.5 15.0523 19.5 14.5C19.5 13.9477 19.0523 13.5 18.5 13.5Z" fill="#00005E"/>
</svg>
