<svg width="32" height="32" viewBox="0 0 32 32" fill="none" xmlns="http://www.w3.org/2000/svg">
<path fill-rule="evenodd" clip-rule="evenodd" d="M10 14C11.6569 14 13 12.6569 13 11C13 10.7107 12.8546 10.2445 12.5036 9.62112C12.1677 9.02454 11.7068 8.39314 11.2256 7.8043C10.7886 7.26939 10.3492 6.78702 10 6.42011C9.65077 6.78702 9.21145 7.26939 8.77437 7.8043C8.29324 8.39314 7.83227 9.02454 7.49638 9.62112C7.1454 10.2445 7 10.7107 7 11C7 12.6569 8.34315 14 10 14ZM10 15C12.2091 15 14 13.2091 14 11C14 8.79086 10 5 10 5C10 5 6 8.79086 6 11C6 13.2091 7.79086 15 10 15ZM23.8867 13.3838C24.0882 13.4854 24.1966 13.7095 24.1513 13.9306L23.1334 18.8988L25.4489 19.3732C25.6226 19.4088 25.7644 19.5336 25.8217 19.7014C25.879 19.8691 25.8433 20.0546 25.7277 20.189L20.1845 26.6362C20.036 26.8089 19.7896 26.8594 19.5851 26.7591C19.3807 26.6588 19.2698 26.433 19.3155 26.2098L20.408 20.8778L18.0925 20.4033C17.9169 20.3674 17.774 20.2402 17.7179 20.07C17.6619 19.8997 17.7012 19.7125 17.821 19.5792L23.2897 13.496C23.4405 13.3281 23.6852 13.2822 23.8867 13.3838ZM19.148 19.5988L21.0985 19.9985C21.3691 20.0539 21.5434 20.3181 21.488 20.5886L20.6817 24.524L24.4148 20.1821L22.4429 19.7781C22.1723 19.7227 21.998 19.4584 22.0534 19.1879L22.802 15.5342L19.148 19.5988ZM14.7908 9.09066C15.1846 9.03101 15.5883 9 16 9C18.7192 9 21.122 10.3558 22.5691 12.4327L24.21 11.2894C22.405 8.6987 19.401 7 16 7C15.4877 7 14.9839 7.0386 14.4913 7.11321L14.7908 9.09066ZM8 17C8 16.6988 8.0166 16.4018 8.04887 16.1099L6.06098 15.8901C6.02066 16.2549 6 16.6252 6 17C6 22.5228 10.4772 27 16 27C16.469 27 16.931 26.9676 17.3838 26.9049L17.1093 24.9238C16.7472 24.974 16.3769 25 16 25C11.5817 25 8 21.4183 8 17Z" fill="#00005E"/>
</svg>
