<svg width="32" height="32" viewBox="0 0 32 32" fill="none" xmlns="http://www.w3.org/2000/svg">
<path fill-rule="evenodd" clip-rule="evenodd" d="M26.72 9.40001C26.8987 9.58538 26.999 9.83254 27 10.09V24.81C26.9895 25.4015 26.7444 25.9645 26.3187 26.3752C25.8929 26.786 25.3215 27.0107 24.73 27H24.67L7.28 26.91C6.04498 26.9268 5.02733 25.9448 5 24.71V7.20001C5.02733 5.96122 6.05111 4.97768 7.29 5.00001H22C22.2707 4.99843 22.5305 5.10667 22.72 5.30001L26.72 9.40001ZM24.51 10L22 7.41001V10H24.51ZM25 11V24.81C25 24.9 24.88 25 24.68 25L7.29 24.91C7.12 24.91 7 24.8 7 24.71V7.20001C7 7.11001 7.12 7.00001 7.29 7.00001H21V10.5C21 10.7761 21.2239 11 21.5 11H25ZM19 17L24.44 22.33C24.5872 22.4719 24.6332 22.6891 24.5561 22.8785C24.4791 23.0679 24.2945 23.1912 24.09 23.19C23.9581 23.1881 23.8323 23.1342 23.74 23.04L18.35 17.74C18.0939 17.4911 17.6861 17.4911 17.43 17.74L14.61 20.45C13.9642 21.0684 12.9458 21.0684 12.3 20.45L11.22 19.45C10.9618 19.2062 10.5582 19.2062 10.3 19.45L8.99 20.71C8.89784 20.8041 8.77169 20.8571 8.64 20.8571C8.50831 20.8571 8.38216 20.8041 8.29 20.71C8.19534 20.6161 8.1421 20.4883 8.1421 20.355C8.1421 20.2217 8.19534 20.0939 8.29 20L9.6 18.73C10.2498 18.1216 11.2602 18.1216 11.91 18.73L12.98 19.73C13.2361 19.979 13.6439 19.979 13.9 19.73L16.68 17C17.3292 16.3803 18.3508 16.3803 19 17ZM12.78 15.92C11.1231 15.92 9.78 14.5769 9.78 12.92C9.78 11.2632 11.1231 9.92001 12.78 9.92001C14.4369 9.92001 15.78 11.2632 15.78 12.92C15.78 14.5769 14.4369 15.92 12.78 15.92ZM12.78 10.92C11.6754 10.92 10.78 11.8154 10.78 12.92C10.78 14.0246 11.6754 14.92 12.78 14.92C13.8846 14.92 14.78 14.0246 14.78 12.92C14.78 11.8154 13.8846 10.92 12.78 10.92Z" fill="#00005E"/>
</svg>
