<svg width="32" height="32" viewBox="0 0 32 32" fill="none" xmlns="http://www.w3.org/2000/svg">
<path fill-rule="evenodd" clip-rule="evenodd" d="M4.00982 5C4.00982 4.447 4.45682 4 5.00982 4C8.86382 4 11.9998 7.136 11.9998 10.99V13.962L14.7388 11.224C15.1298 10.833 15.7628 10.833 16.1538 11.224C16.5438 11.614 16.5438 12.247 16.1538 12.638L11.6598 17.13C11.4648 17.325 11.2088 17.423 10.9528 17.423C10.6968 17.423 10.4418 17.325 10.2458 17.13L5.75382 12.638C5.36382 12.247 5.36382 11.614 5.75382 11.224C6.14482 10.833 6.77782 10.833 7.16782 11.224L9.99982 14.056V10.99C9.99982 8.238 7.76182 6 5.00982 6C4.45682 6 4.00982 5.553 4.00982 5ZM22.4141 22.5391H25.9801C25.9815 22.5113 25.9854 22.4842 25.9894 22.457C25.9942 22.4235 25.9991 22.3899 25.9991 22.3551V17.1391H22.4141C20.9441 17.1391 19.7481 18.3501 19.7481 19.8391C19.7481 21.3281 20.9441 22.5391 22.4141 22.5391ZM25.8981 12.0281C27.1811 13.0661 27.9991 14.6381 27.9991 16.3931V22.3551C27.9991 25.4731 25.4201 28.0091 22.2501 28.0091H9.74912C6.57912 28.0091 4.00012 25.4731 4.00012 22.3551V16.0091C4.00012 15.4561 4.44712 15.0091 5.00012 15.0091C5.55312 15.0091 6.00012 15.4561 6.00012 16.0091V22.3551C6.00012 24.3701 7.68212 26.0091 9.74912 26.0091H22.2501C23.8901 26.0091 25.2721 24.9711 25.7791 23.5391H22.4141C20.3931 23.5391 18.7481 21.8791 18.7481 19.8391C18.7481 17.7991 20.3931 16.1391 22.4141 16.1391H25.9731C25.8361 14.2451 24.2271 12.7401 22.2501 12.7401H18.9681C18.4151 12.7401 17.9681 12.2931 17.9681 11.7401C17.9681 11.1871 18.4151 10.7401 18.9681 10.7401H22.2501C22.6031 10.7401 22.9481 10.7761 23.2841 10.8371L21.4571 6.1771L15.4051 9.3821C14.9151 9.6421 14.3121 9.4531 14.0541 8.9661C13.7951 8.4771 13.9811 7.8731 14.4701 7.6141L20.5901 4.3731C21.0901 4.1271 21.6221 4.0921 22.1201 4.2671C22.6181 4.4381 23.0181 4.7961 23.2481 5.2721C23.2481 5.2711 23.2731 5.3281 23.5031 5.9251L25.8981 12.0281ZM22.8076 21.0387C23.4706 21.0387 24.0076 20.5007 24.0076 19.8387C24.0076 19.1757 23.4706 18.6387 22.8076 18.6387C22.1446 18.6387 21.6076 19.1757 21.6076 19.8387C21.6076 20.5007 22.1446 21.0387 22.8076 21.0387Z" fill="#00005E"/>
</svg>
