<svg width="32" height="32" viewBox="0 0 32 32" fill="none" xmlns="http://www.w3.org/2000/svg">
<path fill-rule="evenodd" clip-rule="evenodd" d="M28 16C28 9.383 22.617 4 16 4C9.383 4 4 9.383 4 16C4 22.617 9.383 28 16 28C22.617 28 28 22.617 28 16ZM25.966 16.664C25.622 21.868 21.29 26 16 26C10.486 26 6 21.514 6 16C6 10.611 10.289 6.215 15.631 6.019V11.023L15.603 11.052L15.631 11.08V15.019C15.631 15.926 16.37 16.664 17.277 16.664H25.966ZM22.839 8.724L16.631 14.931V11.437L20.823 7.245C21.558 7.652 22.231 8.152 22.839 8.724ZM16.631 6.032V10.023L19.873 6.781C18.866 6.356 17.773 6.104 16.631 6.032ZM23.532 9.443C24.021 10.003 24.452 10.611 24.807 11.27L20.412 15.664H17.312L23.532 9.443ZM25.983 15.664C25.942 14.454 25.692 13.298 25.258 12.232L21.826 15.664H25.983Z" fill="#00005E"/>
</svg>
