<svg width="32" height="32" viewBox="0 0 32 32" fill="none" xmlns="http://www.w3.org/2000/svg">
<path fill-rule="evenodd" clip-rule="evenodd" d="M20.9933 4.88338C20.9355 4.38604 20.5128 4 20 4C19.4477 4 19 4.44772 19 5V7H12V5L11.9933 4.88338C11.9355 4.38604 11.5128 4 11 4C10.4477 4 9.99999 4.44772 9.99999 5V7H8.49885L8.30749 7.00517C6.47029 7.10477 5.01196 8.62977 5.01196 10.4946V23.5012L5.01713 23.693C5.11654 25.535 6.63873 27 8.50202 27H19.7342L19.8508 26.9933C20.3481 26.9355 20.7342 26.5128 20.7342 26C20.7342 25.6419 20.546 25.3278 20.2631 25.1511L27.7071 17.7071L26.2929 16.2929L17.5858 25H13.3654C9.64372 23.3356 7.03219 19.4673 7.03219 14.9553V10.2475C7.14941 9.53932 7.76214 9 8.49885 9H9.99999V10L10.0067 10.1166C10.0645 10.614 10.4872 11 11 11C11.5523 11 12 10.5523 12 10V9H19V10L19.0067 10.1166C19.0645 10.614 19.4872 11 20 11C20.5523 11 21 10.5523 21 10V9H22.5209L22.6643 9.00686C23.4196 9.07946 24.012 9.71948 24.012 10.4988V15.1765L24.0187 15.2931C24.0765 15.7904 24.4991 16.1765 25.012 16.1765C25.5642 16.1765 26.012 15.7288 26.012 15.1765V10.4988L26.0068 10.307C25.9074 8.46482 24.3849 7 22.5209 7H21V5L20.9933 4.88338ZM7.01196 23.5012V19.7915C7.92534 21.9353 9.42739 23.7463 11.3047 25H8.50202L8.35875 24.9931C7.60422 24.9205 7.01196 24.2804 7.01196 23.5012Z" fill="#00005E"/>
<path fill-rule="evenodd" clip-rule="evenodd" d="M30 21C30 17.134 26.866 14 23 14C19.134 14 16 17.134 16 21C16 24.866 19.134 28 23 28C26.866 28 30 24.866 30 21ZM28 21C28 23.7614 25.7614 26 23 26C20.2386 26 18 23.7614 18 21C18 18.2386 20.2386 16 23 16C25.7614 16 28 18.2386 28 21Z" fill="#00005E"/>
</svg>
