<svg width="32" height="32" viewBox="0 0 32 32" fill="none" xmlns="http://www.w3.org/2000/svg">
<path fill-rule="evenodd" clip-rule="evenodd" d="M16 28C22.6274 28 28 22.6274 28 16C28 9.37258 22.6274 4 16 4C9.37258 4 4 9.37258 4 16C4 22.6274 9.37258 28 16 28ZM15.8248 13.8306V13.8213C14.7642 13.8167 13.9011 14.6715 13.8955 15.7321C13.89 16.7927 14.7457 17.6558 15.8063 17.6614C16.866 17.6669 17.73 16.8112 17.7356 15.7506C17.7356 14.6937 16.8817 13.8361 15.8248 13.8306ZM18.6586 15.7506C18.6531 17.3134 17.3876 18.5789 15.8248 18.5844C14.2546 18.59 12.978 17.3207 12.9725 15.7506C12.967 14.1804 14.2362 12.9038 15.8063 12.8983C17.3765 12.8937 18.6531 14.162 18.6586 15.7321V15.7506ZM18.7233 10.7383H12.9263C11.7605 10.7438 10.8171 11.6863 10.8125 12.8521V18.649C10.8171 19.814 11.7605 20.7583 12.9263 20.7638H18.7233C19.8882 20.7583 20.8316 19.814 20.8371 18.649V12.8521C20.8316 11.6863 19.8882 10.7438 18.7233 10.7383ZM21.7602 18.649C21.7546 20.3244 20.3986 21.6814 18.7233 21.6869H12.9263C11.251 21.6814 9.89403 20.3244 9.88942 18.649V12.8521C9.89403 11.1767 11.251 9.82074 12.9263 9.8152H18.7233C20.3986 9.82074 21.7546 11.1767 21.7602 12.8521V18.649Z" fill="#00005E"/>
</svg>
