<svg width="32" height="32" viewBox="0 0 32 32" fill="none" xmlns="http://www.w3.org/2000/svg">
<path fill-rule="evenodd" clip-rule="evenodd" d="M28 17.33V17.39V17.52C28 18.0723 27.5523 18.52 27 18.52C26.4477 18.52 26 18.0723 26 17.52C26 16.5535 25.2165 15.77 24.25 15.77C23.2835 15.77 22.5 16.5535 22.5 17.52C22.5 18.0723 22.0523 18.52 21.5 18.52C20.9477 18.52 20.5 18.0723 20.5 17.52C20.5 16.5535 19.7165 15.77 18.75 15.77C17.7835 15.77 17 16.5535 17 17.52C16.9909 17.8679 16.8015 18.1861 16.5 18.36V21.41C16.8045 21.5857 16.9943 21.9085 17 22.26V24.91C17 26.6552 15.5852 28.07 13.84 28.07C12.0948 28.07 10.68 26.6552 10.68 24.91C10.68 24.3577 11.1277 23.91 11.68 23.91C12.2323 23.91 12.68 24.3577 12.68 24.91C12.68 25.5506 13.1993 26.07 13.84 26.07C14.4807 26.07 15 25.5506 15 24.91V22.26C15.0057 21.9085 15.1955 21.5857 15.5 21.41V18.36C15.1985 18.1861 15.0091 17.8679 15 17.52C15 16.5535 14.2165 15.77 13.25 15.77C12.2835 15.77 11.5 16.5535 11.5 17.52C11.5 18.0723 11.0523 18.52 10.5 18.52C9.94772 18.52 9.5 18.0723 9.5 17.52C9.47275 16.5794 8.6907 15.8376 7.75 15.86C6.8093 15.8376 6.02725 16.5794 6 17.52C6 18.0723 5.55228 18.52 5 18.52C4.44772 18.52 4 18.0723 4 17.52V17.39V17.33C4.11027 11.0084 9.17959 5.895 15.5 5.73V3.5C15.5 3.22386 15.7239 3 16 3C16.2761 3 16.5 3.22386 16.5 3.5V5.73C22.8204 5.895 27.8897 11.0084 28 17.33ZM7.75 13.86C8.53446 13.8635 9.29891 14.1079 9.94 14.56C10.6545 11.9744 12.107 9.65308 14.12 7.88C10.7124 8.48724 7.86692 10.825 6.61 14.05C6.97842 13.9303 7.36266 13.8662 7.75 13.86ZM15.5 14.6C14.848 14.1199 14.0597 13.8607 13.25 13.86C12.422 13.8629 11.6176 14.1368 10.96 14.64C11.7333 12.0024 13.3228 9.67772 15.5 8V14.6ZM18.75 13.86C19.5862 13.8606 20.3986 14.1384 21.06 14.65C20.3649 11.9681 18.7512 9.61488 16.5 8V14.61C17.1508 14.1264 17.9392 13.8636 18.75 13.86ZM24.25 13.86C23.4699 13.862 22.7092 14.1028 22.07 14.55C21.4489 11.9373 19.9917 9.59882 17.92 7.89C21.3127 8.50258 24.1424 10.8361 25.39 14.05C25.0216 13.9303 24.6373 13.8662 24.25 13.86Z" fill="#00005E"/>
</svg>
