<svg width="32" height="32" viewBox="0 0 32 32" fill="none" xmlns="http://www.w3.org/2000/svg">
<path fill-rule="evenodd" clip-rule="evenodd" d="M16 4C22.6274 4 28 9.37258 28 16C28 22.6274 22.6274 28 16 28C9.37258 28 4 22.6274 4 16C4 9.37258 9.37258 4 16 4ZM17.16 25.93C18.798 24.6264 20.0809 22.9308 20.89 21H16.5V25.93H17.16ZM14.37 25.88C12.7669 24.5886 11.5208 22.9087 10.75 21H15.5V26C15.1207 25.9903 14.7429 25.9501 14.37 25.88ZM6 16C5.99931 17.3772 6.28538 18.7394 6.84 20H9.37C9.03955 18.8219 8.87464 17.6036 8.88 16.38V16H6ZM6.05 15C6.19754 13.5902 6.6405 12.2272 7.35 11H10C9.45486 12.2713 9.11723 13.6218 9 15H6.05ZM16.58 6H16.5V10H20.21C19.3092 8.41573 18.0697 7.04989 16.58 6ZM24.63 11C25.364 12.2216 25.831 13.5849 26 15H22.8C22.6774 13.6227 22.34 12.273 21.8 11H24.63ZM21.8 15C21.6713 13.6147 21.306 12.2618 20.72 11H16.5V15H21.8ZM15.5 6.1V10H11.67C12.6374 8.42876 13.9465 7.09574 15.5 6.1ZM15.5 11H11.17C10.5483 12.2544 10.1523 13.6083 10 15H15.5V11ZM10.42 20C10.0559 18.8275 9.86716 17.6077 9.86 16.38V16H15.5V20H10.42ZM16.5 20H21.24C21.6471 18.7708 21.8563 17.4848 21.86 16.19V16H16.5V20ZM22.8694 16.0876C22.8646 16.0577 22.86 16.0288 22.86 16H26C26.0007 17.3772 25.7146 18.7394 25.16 20H22.31C22.6857 18.7648 22.8778 17.4811 22.88 16.19C22.88 16.1537 22.8746 16.12 22.8694 16.0876ZM24 10C22.647 8.20146 20.7268 6.91193 18.55 6.34C19.6905 7.38902 20.6412 8.62724 21.36 10H24ZM8 10C9.37018 8.17906 11.3212 6.88073 13.53 6.32C12.3163 7.35573 11.2999 8.60247 10.53 10H8ZM7.35 21C8.47918 22.9503 10.234 24.462 12.33 25.29C11.1823 24.0449 10.2889 22.5876 9.7 21H7.35ZM24.68 21C23.4369 23.1274 21.4598 24.7276 19.12 25.5C20.3691 24.206 21.3482 22.6763 22 21H24.68Z" fill="#00005E"/>
</svg>
