<svg width="32" height="32" viewBox="0 0 32 32" fill="none" xmlns="http://www.w3.org/2000/svg">
<path fill-rule="evenodd" clip-rule="evenodd" d="M3.77988 17.26C3.38657 16.8755 3.37763 16.2455 3.75988 15.85L6.32988 12.94C7.62917 11.4876 9.6912 10.99 11.5099 11.69L13.1999 12.35C14.4793 12.8509 15.9293 12.2908 16.5399 11.06L17.6999 8.74C18.3776 7.37474 19.6814 6.4283 21.1894 6.20688C22.6975 5.98546 24.2183 6.51718 25.2599 7.63L29.0099 11.63C29.3882 12.0332 29.368 12.6667 28.9649 13.045C28.5617 13.4233 27.9282 13.4032 27.5499 13L23.7599 9C23.1667 8.36492 22.2998 8.06102 21.44 8.18671C20.5801 8.3124 19.8365 8.8517 19.4499 9.63L18.3399 12C17.2777 14.1694 14.7237 15.1544 12.4799 14.26L10.7599 13.56C9.71119 13.1276 8.5035 13.4134 7.75988 14.27L5.18988 17.17C5.00031 17.3858 4.72711 17.5096 4.43988 17.51C4.19681 17.5097 3.96218 17.4208 3.77988 17.26ZM20.7599 23C20.7599 23.2761 20.9837 23.5 21.2599 23.5C21.536 23.5 21.7599 23.2761 21.7599 23V12C21.7599 11.7239 21.536 11.5 21.2599 11.5C20.9837 11.5 20.7599 11.7239 20.7599 12V23ZM24.2599 23.5C23.9837 23.5 23.7599 23.2761 23.7599 23V14C23.7599 13.7239 23.9837 13.5 24.2599 13.5C24.536 13.5 24.7599 13.7239 24.7599 14V23C24.7599 23.2761 24.536 23.5 24.2599 23.5ZM6.23988 25.83C6.23988 25.2777 6.6876 24.83 7.23988 24.83H26.6399C27.1922 24.83 27.6399 25.2777 27.6399 25.83C27.6399 26.3823 27.1922 26.83 26.6399 26.83H7.23988C6.6876 26.83 6.23988 26.3823 6.23988 25.83ZM18.2599 23.5C17.9837 23.5 17.7599 23.2761 17.7599 23V16C17.7599 15.7239 17.9837 15.5 18.2599 15.5C18.536 15.5 18.7599 15.7239 18.7599 16V23C18.7599 23.2761 18.536 23.5 18.2599 23.5ZM14.7599 23C14.7599 23.2761 14.9837 23.5 15.2599 23.5C15.536 23.5 15.7599 23.2761 15.7599 23V19C15.7599 18.7239 15.536 18.5 15.2599 18.5C14.9837 18.5 14.7599 18.7239 14.7599 19V23ZM12.2599 23.5C11.9837 23.5 11.7599 23.2761 11.7599 23V17C11.7599 16.7239 11.9837 16.5 12.2599 16.5C12.536 16.5 12.7599 16.7239 12.7599 17V23C12.7599 23.2761 12.536 23.5 12.2599 23.5ZM8.75988 23C8.75988 23.2761 8.98374 23.5 9.25988 23.5C9.53602 23.5 9.75988 23.2761 9.75988 23V17C9.75988 16.7239 9.53602 16.5 9.25988 16.5C8.98374 16.5 8.75988 16.7239 8.75988 17V23Z" fill="#00005E"/>
</svg>
