<svg width="32" height="32" viewBox="0 0 32 32" fill="none" xmlns="http://www.w3.org/2000/svg">
<path fill-rule="evenodd" clip-rule="evenodd" d="M5.707 27.707L27.707 5.70701C28.098 5.31601 28.098 4.68401 27.707 4.29301C27.316 3.90201 26.684 3.90201 26.293 4.29301L4.293 26.293C3.902 26.684 3.902 27.316 4.293 27.707C4.488 27.902 4.744 28 5 28C5.256 28 5.512 27.902 5.707 27.707ZM5.3243 20.9971C3.3683 18.8051 2.1903 16.8451 2.1413 16.7631C1.9533 16.4471 1.9523 16.0531 2.1413 15.7371C2.3913 15.3191 8.3413 5.50011 16.0003 5.50011C17.1753 5.50011 18.3843 5.73511 19.5903 6.19911C20.1063 6.39711 20.3633 6.97711 20.1643 7.49211C19.9663 8.00811 19.3863 8.26311 18.8723 8.06611C17.8963 7.69011 16.9293 7.50011 16.0003 7.50011C10.3683 7.50011 5.4703 14.3061 4.1863 16.2501C4.6453 16.9461 5.5673 18.2651 6.8173 19.6651C7.1843 20.0771 7.1493 20.7091 6.7373 21.0771C6.5463 21.2471 6.3083 21.3311 6.0713 21.3311C5.7963 21.3311 5.5223 21.2181 5.3243 20.9971ZM29.8589 16.7623C29.6089 17.1803 23.6589 27.0003 15.9999 27.0003C14.7029 27.0003 13.3699 26.7143 12.0359 26.1493C11.5269 25.9343 11.2899 25.3473 11.5049 24.8393C11.7199 24.3293 12.3079 24.0933 12.8159 24.3073C13.9009 24.7663 14.9729 25.0003 15.9999 25.0003C21.6309 25.0003 26.5299 18.1943 27.8139 16.2503C27.2899 15.4553 26.1639 13.8503 24.6329 12.2353C24.2529 11.8353 24.2699 11.2023 24.6709 10.8223C25.0709 10.4433 25.7049 10.4583 26.0839 10.8603C28.3889 13.2913 29.7999 15.6383 29.8589 15.7373C30.0469 16.0523 30.0469 16.4473 29.8589 16.7623ZM20.672 14.466C20.89 15.035 21 15.636 21 16.25C21 19.007 18.757 21.25 16 21.25C15.407 21.25 14.828 21.147 14.278 20.945C14.021 20.854 13.732 20.983 13.637 21.242C13.542 21.502 13.674 21.789 13.934 21.885C14.594 22.127 15.29 22.25 16 22.25C19.309 22.25 22 19.559 22 16.25C22 15.513 21.868 14.793 21.607 14.108C21.508 13.85 21.217 13.723 20.961 13.82C20.704 13.918 20.574 14.207 20.672 14.466ZM11 16.25C11 16.799 11.088 17.339 11.263 17.855C11.352 18.117 11.211 18.4 10.95 18.489C10.896 18.507 10.843 18.516 10.79 18.516C10.581 18.516 10.386 18.384 10.316 18.176C10.106 17.556 10 16.908 10 16.25C10 12.941 12.691 10.25 16 10.25C16.556 10.25 17.105 10.326 17.632 10.475C17.897 10.55 18.052 10.827 17.977 11.093C17.9 11.358 17.621 11.508 17.359 11.437C16.921 11.312 16.464 11.25 16 11.25C13.243 11.25 11 13.493 11 16.25Z" fill="#00005E"/>
</svg>
