<svg width="32" height="32" viewBox="0 0 32 32" fill="none" xmlns="http://www.w3.org/2000/svg">
<path fill-rule="evenodd" clip-rule="evenodd" d="M24.78 12C24.7789 15.458 22.5562 18.5238 19.27 19.6L19 20.27L20 21.35C20.5055 21.959 20.5424 22.8306 20.09 23.48L19.38 24.48L20.07 25.56C20.5201 26.282 20.4033 27.2205 19.79 27.81L18.03 29.5C17.3593 30.1337 16.3107 30.1337 15.64 29.5L13.55 27.56C13.198 27.2317 12.9986 26.7715 13 26.29V19C11.1087 17.9809 9.70687 16.2439 9.11001 14.18C8.17343 10.804 9.50785 7.20792 12.42 5.26005C13.7068 4.41257 15.2195 3.97341 16.76 4.00005C17.138 4.00147 17.5155 4.02819 17.89 4.08005C21.8398 4.63344 24.7787 8.01164 24.78 12ZM18.67 17.7C21.0907 16.8474 22.7154 14.5665 22.73 12C22.73 8.68634 20.0437 6.00005 16.73 6.00005C15.5969 5.96988 14.4813 6.28366 13.53 6.90005C11.3059 8.34888 10.2811 11.0748 11 13.63C11.4494 15.1875 12.5099 16.4969 13.94 17.26L15 17.83V26.21L16.83 27.9L18.29 26.5L17.7 25.56L17 24.45L17.73 23.37L18.32 22.51L17.52 21.59L16.72 20.66L17.18 19.52L17.45 18.85L17.79 18L18.67 17.7ZM15.71 8.33005C16.373 8.33005 17.0089 8.59344 17.4778 9.06228C17.9466 9.53112 18.21 10.167 18.21 10.83C18.21 12.2108 17.0907 13.33 15.71 13.33C14.3293 13.33 13.21 12.2108 13.21 10.83C13.21 9.44933 14.3293 8.33005 15.71 8.33005ZM15.71 12.33C16.1078 12.33 16.4894 12.172 16.7707 11.8907C17.052 11.6094 17.21 11.2279 17.21 10.83C17.21 10.0016 16.5384 9.33005 15.71 9.33005C14.8816 9.33005 14.21 10.0016 14.21 10.83C14.21 11.6585 14.8816 12.33 15.71 12.33Z" fill="#00005E"/>
</svg>
