<svg width="32" height="32" viewBox="0 0 32 32" fill="none" xmlns="http://www.w3.org/2000/svg">
<path fill-rule="evenodd" clip-rule="evenodd" d="M27.4895 9.56708C27.1519 9.21449 26.688 9.01049 26.2 9H5.79999C5.31195 9.01049 4.84809 9.21449 4.5105 9.56708C4.17291 9.91968 3.98926 10.392 3.99999 10.88V22.12C3.98926 22.608 4.17291 23.0803 4.5105 23.4329C4.84809 23.7855 5.31195 23.9895 5.79999 24H26.2C26.688 23.9895 27.1519 23.7855 27.4895 23.4329C27.8271 23.0803 28.0107 22.608 28 22.12V10.88C28.0107 10.392 27.8271 9.91968 27.4895 9.56708ZM26 11V22H5.99999V11H26ZM20.5 20C20.7761 20 21 20.2239 21 20.5C21 20.7761 20.7761 21 20.5 21H11.5C11.2238 21 11 20.7761 11 20.5C11 20.2239 11.2238 20 11.5 20H20.5ZM7.99999 13.78C7.99999 14.3323 8.4477 14.78 8.99999 14.78C9.55227 14.78 9.99999 14.3323 9.99999 13.78C9.99999 13.2277 9.55227 12.78 8.99999 12.78C8.4477 12.78 7.99999 13.2277 7.99999 13.78ZM13.67 14.78C13.1177 14.78 12.67 14.3323 12.67 13.78C12.67 13.2277 13.1177 12.78 13.67 12.78C14.2223 12.78 14.67 13.2277 14.67 13.78C14.67 14.3323 14.2223 14.78 13.67 14.78ZM17.33 13.78C17.33 14.3323 17.7777 14.78 18.33 14.78C18.8823 14.78 19.33 14.3323 19.33 13.78C19.33 13.2277 18.8823 12.78 18.33 12.78C17.7777 12.78 17.33 13.2277 17.33 13.78ZM23 14.78C22.4477 14.78 22 14.3323 22 13.78C22 13.2277 22.4477 12.78 23 12.78C23.5523 12.78 24 13.2277 24 13.78C24 14.3323 23.5523 14.78 23 14.78ZM9.99999 17.1C9.99999 17.6523 10.4477 18.1 11 18.1C11.5523 18.1 12 17.6523 12 17.1C12 16.5477 11.5523 16.1 11 16.1C10.4477 16.1 9.99999 16.5477 9.99999 17.1ZM15.92 18.1C15.3677 18.1 14.92 17.6523 14.92 17.1C14.92 16.5477 15.3677 16.1 15.92 16.1C16.4723 16.1 16.92 16.5477 16.92 17.1C16.92 17.6523 16.4723 18.1 15.92 18.1ZM19.85 17.1C19.85 17.6523 20.2977 18.1 20.85 18.1C21.4023 18.1 21.85 17.6523 21.85 17.1C21.85 16.5477 21.4023 16.1 20.85 16.1C20.2977 16.1 19.85 16.5477 19.85 17.1Z" fill="#00005E"/>
</svg>
