<svg width="32" height="32" viewBox="0 0 32 32" fill="none" xmlns="http://www.w3.org/2000/svg">
<path fill-rule="evenodd" clip-rule="evenodd" d="M29.0001 21.84V20H27V9.14997C26.9869 8.56645 26.7424 8.01205 26.3204 7.60881C25.8985 7.20558 25.3335 6.98656 24.75 6.99997H7.25C6.66648 6.98656 6.10155 7.20558 5.67956 7.60881C5.25757 8.01205 5.01311 8.56645 5 9.14997V20H3V21.85C3.01578 22.9683 3.47594 24.0344 4.27892 24.813C5.08189 25.5916 6.16169 26.0187 7.28 26H24.72C25.8372 26.001 26.9117 25.5712 27.72 24.8C28.5431 24.0366 29.0076 22.9625 29.0001 21.84ZM7 20V9.14997C7 9.08997 7.1 8.99997 7.25 8.99997H24.75C24.9 8.99997 25 9.08997 25 9.14997V20H19.67C19.5105 20.0028 19.3604 20.076 19.26 20.2C19.0379 20.4822 18.7974 20.7495 18.54 21H13.44C13.0994 20.6522 12.8745 20.3901 12.7691 20.2672L12.7691 20.2672C12.726 20.2169 12.7029 20.19 12.7 20.19C12.6066 20.0694 12.4625 19.9992 12.31 20H7ZM26.35 23.34C26.7678 22.9577 27.0041 22.4163 27.0001 21.85V21H19.9C19.75 21.18 19.48 21.48 19.09 21.86C18.9961 21.9505 18.8705 22.0008 18.74 22H13.23C13.0979 21.9992 12.9717 21.9451 12.88 21.85C12.537 21.516 12.2918 21.2391 12.1296 21.0559L12.1296 21.0559L12.08 21H5V21.86C5.04879 23.0729 6.06675 24.0194 7.28 23.98H24.72C25.3255 23.9846 25.9094 23.7553 26.35 23.34ZM16 12C16.5523 12 17 11.5523 17 11C17 10.4477 16.5523 9.99997 16 9.99997C15.4477 9.99997 15 10.4477 15 11C15 11.5523 15.4477 12 16 12Z" fill="#00005E"/>
</svg>
