<svg width="32" height="32" viewBox="0 0 32 32" fill="none" xmlns="http://www.w3.org/2000/svg">
<path fill-rule="evenodd" clip-rule="evenodd" d="M24.8284 20.7075C25.7424 20.3945 26.4784 19.6505 26.6984 18.6975C27.7054 14.3405 26.2234 8.64952 21.7514 6.15652C17.4004 3.73852 12.1514 5.39852 9.1194 8.50152L8.8974 8.72752C8.5544 9.07652 8.2824 9.50252 8.1604 9.97952C7.7334 11.6545 8.5184 13.4425 10.1954 14.3775C10.8294 14.7325 11.5364 14.9145 12.2344 14.9145C12.6204 14.9145 13.0014 14.8585 13.3684 14.7475C13.4069 14.7355 13.4431 14.7188 13.4794 14.702C13.5063 14.6896 13.5333 14.6772 13.5614 14.6665C13.7964 15.6625 14.4044 16.5745 15.3154 17.1925L12.2544 23.1665C10.1264 23.3845 8.0204 23.9665 6.0184 24.9145L5.5574 25.1315C5.0744 25.3605 4.8654 25.9435 5.0904 26.4345C5.2544 26.7905 5.6024 26.9995 5.9664 26.9995C6.1034 26.9995 6.2424 26.9705 6.3754 26.9085L6.8364 26.6905C11.6594 24.4075 17.1564 24.4835 21.9184 26.8965C22.3944 27.1375 22.9754 26.9425 23.2134 26.4575C23.4524 25.9745 23.2584 25.3855 22.7814 25.1435C19.8144 23.6385 16.5894 22.9525 13.3844 23.0855L16.1664 17.6565C16.6494 17.8425 17.1594 17.9415 17.6654 17.9415C18.0484 17.9415 18.4304 17.8865 18.7964 17.7765C18.8335 17.7647 18.8677 17.7491 18.902 17.7335C18.9314 17.7201 18.961 17.7066 18.9924 17.6955C19.2534 18.8035 19.9654 19.8255 21.0554 20.4345C21.6904 20.7875 22.3964 20.9685 23.0944 20.9685C23.4804 20.9685 24.4384 20.8395 24.8014 20.7165L24.8284 20.7075ZM20.0144 7.49252C16.3794 6.02152 12.1774 7.73652 9.9644 10.4655C9.8414 11.2905 10.2844 12.1915 11.1264 12.6615C11.6584 12.9565 12.2754 13.0325 12.8144 12.8705C13.2734 12.7315 14.3454 11.4575 14.3944 11.3935C15.9304 9.31952 17.8994 7.95952 20.0144 7.49252ZM20.7544 8.36552C21.3414 10.1305 21.2164 12.1435 20.4154 14.1455C20.2714 14.5035 20.0504 14.8285 19.7734 15.0945L19.729 15.1375C19.3398 15.5159 18.2604 16.5655 16.5564 15.6885C15.3444 15.0655 15.0414 14.0835 15.0414 13.2585C15.0404 12.4045 15.4304 11.5995 16.0114 10.9805C17.3904 9.51352 19.0334 8.60352 20.7544 8.36552ZM21.0294 15.1535C22.0794 12.9125 22.3534 10.6105 21.8144 8.55052C24.5724 10.7405 25.5084 14.6545 24.8984 17.8525C24.8984 17.8755 24.8014 18.1695 24.5124 18.4635C24.3674 18.6115 24.1334 18.7855 23.6754 18.9245C23.1374 19.0885 22.4954 19.0505 21.9864 18.7165C20.2614 17.5815 21.0294 15.1535 21.0294 15.1535Z" fill="#00005E"/>
</svg>
