<svg width="24" height="24" viewBox="0 0 24 24" fill="none" xmlns="http://www.w3.org/2000/svg">
<path fill-rule="evenodd" clip-rule="evenodd" d="M3 4C3 3.44772 2.55228 3 2 3C1.44772 3 1 3.44772 1 4V22H23V4C23 3.44772 22.5523 3 22 3C21.4477 3 21 3.44772 21 4V4.23754L15.9735 8.83871L9.00499 7.24399L3 9.99243V4ZM3 11.0922V14.8243L7.92332 11.8999H15.2461L21 9.82849V5.59324L16.2618 9.93053L9.11265 8.29448L3 11.0922ZM21 10.8913L15.4206 12.8999H8.19793L3 15.9875V19.8708L8.72735 16.6817H16.7555L21 14.881V10.8913ZM21 15.9673L16.9588 17.6817H8.98699L4.82352 20H21V15.9673Z" fill="#00005E"/>
</svg>
