<svg width="32" height="32" viewBox="0 0 32 32" fill="none" xmlns="http://www.w3.org/2000/svg">
<path fill-rule="evenodd" clip-rule="evenodd" d="M16 28C22.6274 28 28 22.6274 28 16C28 9.37258 22.6274 4 16 4C9.37258 4 4 9.37258 4 16C4 22.6274 9.37258 28 16 28ZM16.465 15.055C16.8502 14.4014 17.5674 14.0168 18.325 14.0575C18.9407 14.0035 19.5492 14.2215 19.9905 14.6541C20.4318 15.0868 20.6618 15.6909 20.62 16.3075V20.575H18.9025V16.6975C18.9025 15.9475 18.5575 15.4675 17.785 15.4675C17.4407 15.441 17.1024 15.5691 16.8618 15.8169C16.6213 16.0647 16.5033 16.4066 16.54 16.75V20.62H14.8225V14.2H16.465V15.055ZM13.2175 20.5825H11.5V14.2H13.2175V20.5825ZM13.1474 12.79C12.984 13.0731 12.6819 13.2475 12.355 13.2475C12.0281 13.2475 11.726 13.0731 11.5626 12.79C11.3991 12.5069 11.3991 12.1581 11.5626 11.875C11.726 11.5919 12.0281 11.4175 12.355 11.4175C12.6819 11.4175 12.984 11.5919 13.1474 11.875C13.3109 12.1581 13.3109 12.5069 13.1474 12.79Z" fill="#00005E"/>
</svg>
