<svg width="32" height="32" viewBox="0 0 32 32" fill="none" xmlns="http://www.w3.org/2000/svg">
<path fill-rule="evenodd" clip-rule="evenodd" d="M15.11 4C15.6623 4 16.11 4.44772 16.11 5V9C16.11 9.55228 15.6623 10 15.11 10C14.5577 10 14.11 9.55228 14.11 9V7.49L7.71 13.89C7.45813 14.1437 7.09006 14.2437 6.74445 14.1524C6.39884 14.0611 6.12819 13.7923 6.03445 13.4474C5.94071 13.1024 6.03813 12.7337 6.29 12.48L12.77 6H11.11C10.5577 6 10.11 5.55228 10.11 5C10.11 4.44772 10.5577 4 11.11 4H15.11ZM15 17.49C15 16.12 12.76 15 10 15C7.24 15 5 16.12 5 17.51V25.51C5 26.87 7.24 28 10 28C12.76 28 15 26.87 15 25.49V17.49ZM7 22.09V19.79C7.95991 20.1439 8.97708 20.3168 10 20.3C11.0243 20.3113 12.0416 20.1316 13 19.77V22.07C12.0611 22.5059 11.0349 22.7214 10 22.7C8.96724 22.7205 7.94274 22.5122 7 22.09ZM10 17C8.94666 16.9355 7.89905 17.1974 7 17.75V18.68C7.93994 19.1118 8.96589 19.3239 10 19.3C11.0358 19.3187 12.062 19.0997 13 18.66V17.75C12.1009 17.1974 11.0533 16.9355 10 17ZM13 25.25C12.1009 25.8026 11.0533 26.0645 10 26C8.94666 26.0645 7.89905 25.8026 7 25.25V23.19C7.95991 23.5439 8.97708 23.7168 10 23.7C11.0243 23.7113 12.0416 23.5316 13 23.17V25.25ZM22 8C24.76 8 27 9.13 27 10.49V25.49C27 26.87 24.76 28 22 28C19.24 28 17 26.87 17 25.51V10.51C17 9.13 19.24 8 22 8ZM25 15.34V13.07C24.0416 13.4316 23.0243 13.6113 22 13.6C20.976 13.6188 19.9579 13.4424 19 13.08V15.38C19.9399 15.8118 20.9659 16.0239 22 16C23.0373 16.0124 24.0637 15.7866 25 15.34ZM19 16.47C19.9586 16.8307 20.9758 17.0104 22 17C23.0243 17.0113 24.0416 16.8316 25 16.47V18.73C24.0611 19.1659 23.035 19.3814 22 19.36C20.9667 19.3866 19.9409 19.178 19 18.75V16.47ZM19 19.85V22.11C19.9399 22.5418 20.9659 22.7539 22 22.73C23.0358 22.7487 24.062 22.5297 25 22.09V19.83C24.0416 20.1916 23.0243 20.3713 22 20.36C20.9771 20.3768 19.9599 20.2039 19 19.85ZM19 10.75C19.8991 10.1974 20.9467 9.93548 22 10C23.0533 9.93548 24.1009 10.1974 25 10.75V12C24.062 12.4397 23.0358 12.6587 22 12.64C20.9643 12.6576 19.9383 12.4387 19 12V10.75ZM22 26C23.0533 26.0645 24.1009 25.8026 25 25.25V23.17C24.0439 23.5406 23.0254 23.7239 22 23.71C20.9764 23.7238 19.9592 23.5475 19 23.19V25.25C19.8991 25.8026 20.9467 26.0645 22 26Z" fill="#00005E"/>
</svg>
