<svg width="32" height="32" viewBox="0 0 32 32" fill="none" xmlns="http://www.w3.org/2000/svg">
<g clip-path="url(#clip0)">
<path fill-rule="evenodd" clip-rule="evenodd" d="M18.383 4.14543C17.675 4.33175 16.8098 4.71478 15.8909 5.46157C14.9152 4.67822 14.0426 4.28622 13.3342 4.1059C12.9003 3.99546 12.5396 3.96747 12.2691 3.97202C12.1343 3.97428 12.0229 3.98461 11.9369 3.99645C11.8939 4.00237 11.8573 4.00866 11.8273 4.0145C11.8123 4.01742 11.799 4.02023 11.7873 4.02283L11.7711 4.02654L11.764 4.02826L11.7606 4.02907L11.759 4.02947C11.7582 4.02966 11.7575 4.02986 12 5L11.7575 4.02986C11.4778 4.09977 11.2419 4.28696 11.1103 4.54343C10.9787 4.79989 10.9642 5.10067 11.0704 5.36863L12.8697 9.90584C9.61403 10.4724 7.1 13.2498 7.1 16.7V22.6C7.1 22.7907 7.12651 23.0662 7.14789 23.2884L7.1545 23.3573C7.15939 23.4086 7.16404 23.4582 7.16836 23.5057C6.48006 24.0868 6 24.9442 6 26C6 27.8681 7.69162 28.8 9.2 28.8H15H16.9H22.8C24.3084 28.8 26 27.8681 26 26C26 24.8979 25.4173 24.0526 24.7323 23.4984C24.7364 23.4531 24.7409 23.406 24.7455 23.3573L24.7521 23.2883L24.7521 23.2882C24.7735 23.0661 24.8 22.7907 24.8 22.6V16.7C24.8 13.2168 22.2376 10.4192 18.9366 9.89017L20.7296 5.36863C20.841 5.08769 20.8194 4.77144 20.6708 4.50829C20.5222 4.24513 20.2625 4.06329 19.9644 4.01361L19.8 5C19.9644 4.01361 19.9638 4.0135 19.9631 4.01339L19.9618 4.01317L19.9589 4.01271L19.9528 4.01174L19.9384 4.00957C19.9279 4.00804 19.9155 4.00637 19.9013 4.00462C19.873 4.00114 19.8375 3.99741 19.7953 3.99416C19.7107 3.98765 19.5988 3.98305 19.4627 3.98621C19.1903 3.99254 18.8215 4.03002 18.383 4.14543ZM17.8 11.8H17.8C19.6427 11.8 21.305 12.8082 22.1258 14.2856C22.1646 14.3555 22.2106 14.4189 22.2622 14.4754C22.6063 15.1413 22.8 15.8967 22.8 16.7V22.6C22.8 22.689 22.7825 22.8742 22.7545 23.1677C22.7308 23.4168 22.7 23.7429 22.7 24C22.7 24.3589 22.8923 24.6902 23.2039 24.8682C23.7179 25.162 24 25.5833 24 26C24 26.2155 23.9136 26.3844 23.7343 26.5245C23.538 26.6779 23.2149 26.8 22.8 26.8H16.9H15H9.2C8.78506 26.8 8.46202 26.6779 8.26564 26.5245C8.0864 26.3844 8 26.2155 8 26C8 25.5128 8.25791 25.1187 8.69614 24.8682C8.77736 24.8218 8.85047 24.765 8.91418 24.7H11.6C11.8761 24.7 12.1 24.4761 12.1 24.2C12.1 23.9239 11.8761 23.7 11.6 23.7H9.18966C9.1786 23.5165 9.16061 23.3264 9.1455 23.1677C9.11754 22.8742 9.1 22.689 9.1 22.6V16.7C9.1 15.8967 9.29368 15.1413 9.63776 14.4754C9.68941 14.4189 9.73535 14.3555 9.77415 14.2856C10.595 12.8082 12.2573 11.8 14.1 11.8M14.9792 9.8L13.6077 6.34136C14.0506 6.56751 14.592 6.93266 15.2088 7.52264C15.6016 7.89841 16.2227 7.89151 16.6071 7.50711C17.1927 6.92151 17.7356 6.56243 18.1922 6.34165L16.8208 9.8H14.9792Z" fill="#00005E"/>
</g>
<defs>
<clipPath id="clip0">
<rect width="19.9" height="24.8" fill="white" transform="translate(6 4)"/>
</clipPath>
</defs>
</svg>
