<svg width="32" height="32" viewBox="0 0 32 32" fill="none" xmlns="http://www.w3.org/2000/svg">
<path fill-rule="evenodd" clip-rule="evenodd" d="M16 4C20.9196 4.10919 24.8395 8.14932 24.8 13.07C24.8 17.57 19.11 28 16 28C12.89 28 7.2 17.53 7.2 13.07C7.16052 8.14932 11.0804 4.10919 16 4ZM16 26C17.84 25.25 22.8 17 22.8 13.07C22.8397 9.25364 19.815 6.10884 16 6C12.185 6.10884 9.16028 9.25364 9.2 13.07C9.2 17 14.16 25.27 16 26ZM16 9C17.0609 9 18.0783 9.42143 18.8284 10.1716C19.5786 10.9217 20 11.9391 20 13C20 15.2091 18.2091 17 16 17C13.7909 17 12 15.2091 12 13C12 10.7909 13.7909 9 16 9ZM16 16C17.6569 16 19 14.6569 19 13C19 11.3431 17.6569 10 16 10C14.3431 10 13 11.3431 13 13C13 14.6569 14.3431 16 16 16Z" fill="#00005E"/>
</svg>
