<svg width="32" height="32" viewBox="0 0 32 32" fill="none" xmlns="http://www.w3.org/2000/svg">
<path fill-rule="evenodd" clip-rule="evenodd" d="M16 26C16.5523 26 17 26.4477 17 27C17 27.5523 16.5523 28 16 28H9.66C8.25864 28.0623 7.07013 26.981 7 25.58V6.42C7.07013 5.01902 8.25864 3.93774 9.66 4H16C16.5523 4 17 4.44772 17 5C17 5.55229 16.5523 6 16 6H9.66C9.28 6 9 6.22 9 6.42V25.58C9 25.78 9.28 26 9.66 26H16ZM25 5.11C24.9986 4.71547 24.7896 4.35079 24.45 4.15C24.2797 4.05172 24.0866 4 23.89 4C23.7012 4.00123 23.5156 4.04934 23.35 4.14L15.59 8.45C15.2287 8.65385 15.0037 9.03515 15 9.45V22.55C15.0037 22.9649 15.2287 23.3462 15.59 23.55L23.35 27.86C23.5156 27.9507 23.7012 27.9988 23.89 28C24.1844 28 24.4667 27.8831 24.6749 27.6749C24.8831 27.4667 25 27.1844 25 26.89V5.11ZM23 6.66V25.38L17 22.05V10L23 6.66ZM18.17 17.06C18.17 17.3361 18.3939 17.56 18.67 17.56C18.9461 17.56 19.17 17.3361 19.17 17.06V14.61C19.17 14.3339 18.9461 14.11 18.67 14.11C18.3939 14.11 18.17 14.3339 18.17 14.61V17.06Z" fill="#00005E"/>
</svg>
