<svg width="32" height="32" viewBox="0 0 32 32" fill="none" xmlns="http://www.w3.org/2000/svg">
<path fill-rule="evenodd" clip-rule="evenodd" d="M25 9.45C24.9963 9.03514 24.7713 8.65384 24.41 8.45L16.65 4.14C16.4844 4.04933 16.2988 4.00123 16.11 4C15.497 4 15 4.49696 15 5.11V26.89C15 27.503 15.497 28 16.11 28C16.2988 27.9988 16.4844 27.9507 16.65 27.86L24.41 23.55C24.7713 23.3462 24.9963 22.9649 25 22.55V9.45ZM23 10V22.05L17 25.38V6.62L23 10ZM9.15 9C9.11022 9 9.07206 9.0158 9.04393 9.04393C9.0158 9.07206 9 9.11022 9 9.15V23.85C9 23.9328 9.06716 24 9.15 24H11C11.5523 24 12 24.4477 12 25C12 25.5523 11.5523 26 11 26H9.15C7.96259 26 7 25.0374 7 23.85V9.15C7 7.96259 7.96259 7 9.15 7H11C11.5523 7 12 7.44772 12 8C12 8.55228 11.5523 9 11 9H9.15ZM18 18.5C18 18.7761 18.2239 19 18.5 19C18.7761 19 19 18.7761 19 18.5V15.5C19 15.2239 18.7761 15 18.5 15C18.2239 15 18 15.2239 18 15.5V18.5Z" fill="#00005E"/>
</svg>
