<svg width="32" height="32" viewBox="0 0 32 32" fill="none" xmlns="http://www.w3.org/2000/svg">
<path fill-rule="evenodd" clip-rule="evenodd" d="M19 8C19 9.65685 20.3431 11 22 11C23.6569 11 25 9.65685 25 8C25 6.34315 23.6569 5 22 5C20.3431 5 19 6.34315 19 8ZM21 8C21 7.44772 21.4477 7 22 7C22.5523 7 23 7.44772 23 8C23 8.55228 22.5523 9 22 9C21.4477 9 21 8.55228 21 8ZM10.5 16C8.567 16 7 14.433 7 12.5C7 10.567 8.567 9 10.5 9C12.433 9 14 10.567 14 12.5C14 14.433 12.433 16 10.5 16ZM10.5 11C9.67157 11 9 11.6716 9 12.5C9 13.3284 9.67157 14 10.5 14C11.3284 14 12 13.3284 12 12.5C12 11.6716 11.3284 11 10.5 11ZM13.81 17.2401L13.85 17.2301C14.8726 17.56 15.7221 18.2828 16.2116 19.2393C16.7011 20.1958 16.7905 21.3076 16.46 22.3301L16.16 23.2401C15.4445 25.4849 13.3561 27.0066 11 27.0001H9.62C7.23533 27.0125 5.12701 25.4537 4.44 23.1701L4.18 22.3201C4.06033 21.9347 3.99964 21.5335 4 21.1301C4 20.048 4.42986 19.0102 5.19501 18.2451C5.96016 17.4799 6.99792 17.05 8.08 17.05H12.57C12.9908 17.0478 13.4092 17.1119 13.81 17.2401ZM14.52 21.7201C14.6923 21.1985 14.6491 20.6297 14.4 20.1401C14.1544 19.6599 13.7253 19.2993 13.21 19.1401C13.007 19.072 12.7941 19.0382 12.58 19.0401H8.09C7.42822 19.0364 6.8042 19.3479 6.40934 19.879C6.01448 20.4101 5.89591 21.0974 6.09 21.7301L6.35 22.5701C6.78032 24.0157 8.11166 25.0051 9.62 25.0001H11C12.4688 24.9865 13.7648 24.0366 14.22 22.6401L14.52 21.7201ZM27.5 15C27.7761 15 28 15.2239 28 15.5C28 15.7761 27.7761 16 27.5 16H16.5C16.2239 16 16 15.7761 16 15.5C16 15.2239 16.2239 15 16.5 15H17.3C17.2951 14.9167 17.2951 14.8333 17.3 14.75C17.3 13.0048 18.7148 11.59 20.46 11.59H23.58C23.9192 11.587 24.2566 11.6376 24.58 11.74C25.9698 12.1915 26.8622 13.5447 26.73 15H27.5ZM19.3 14.75C19.3036 14.8346 19.317 14.9185 19.34 15H24.7C24.8514 14.4223 24.5273 13.8266 23.96 13.64C23.8472 13.6027 23.7287 13.5857 23.61 13.59H20.46C19.8194 13.59 19.3 14.1093 19.3 14.75Z" fill="#00005E"/>
</svg>
