<svg width="24" height="24" viewBox="0 0 24 24" fill="none" xmlns="http://www.w3.org/2000/svg">
<path d="M23.25 2.74C23.0877 2.62568 22.9002 2.55232 22.7034 2.5262C22.5066 2.50008 22.3064 2.52197 22.12 2.59L2.19997 8.65C1.98507 8.4922 1.72655 8.40486 1.45997 8.4C1.13191 8.40262 0.818028 8.5341 0.586048 8.76608C0.354067 8.99806 0.222585 9.31194 0.219971 9.64V14.64C0.222585 14.9681 0.354067 15.2819 0.586048 15.5139C0.818028 15.7459 1.13191 15.8774 1.45997 15.88C1.63948 15.881 1.81696 15.842 1.97954 15.7659C2.14213 15.6898 2.28574 15.5785 2.39997 15.44L3.73997 15.85C3.65508 16.4067 3.68869 16.9751 3.83861 17.5179C3.98853 18.0607 4.25139 18.5658 4.60997 19C5.47939 20.0505 6.67088 20.7851 7.99997 21.09C8.53669 21.2231 9.08703 21.2936 9.63997 21.3C10.5118 21.3352 11.377 21.1345 12.1443 20.7192C12.9116 20.3039 13.5527 19.6892 14 18.94L22.18 21.44C22.2995 21.4553 22.4205 21.4553 22.54 21.44C22.8058 21.4401 23.0648 21.3561 23.28 21.2C23.4335 21.082 23.5583 20.9307 23.6449 20.7575C23.7315 20.5843 23.7777 20.3937 23.78 20.2V3.75C23.7781 3.55168 23.729 3.35665 23.6369 3.18103C23.5447 3.00541 23.4121 2.85424 23.25 2.74ZM8.24997 19.89C7.20228 19.6329 6.26785 19.0392 5.58997 18.2C5.35737 17.9252 5.18186 17.6068 5.0737 17.2634C4.96553 16.92 4.92687 16.5585 4.95997 16.2L12.78 18.59C12.2483 19.2408 11.5307 19.714 10.7231 19.9463C9.91545 20.1785 9.05617 20.1589 8.25997 19.89H8.24997ZM21.25 18.57L2.93997 13V11L21.3 5.45L21.25 18.57Z" fill="#00005E"/>
</svg>
