<svg width="32" height="32" viewBox="0 0 32 32" fill="none" xmlns="http://www.w3.org/2000/svg">
<path fill-rule="evenodd" clip-rule="evenodd" d="M3 8C3 8.55228 3.44772 9 4 9H28C28.5523 9 29 8.55228 29 8C29 7.44772 28.5523 7 28 7H4C3.44772 7 3 7.44772 3 8ZM28 15C28.5523 15 29 15.4477 29 16C29 16.5523 28.5523 17 28 17H4C3.44772 17 3 16.5523 3 16C3 15.4477 3.44772 15 4 15H28ZM28 23C28.5523 23 29 23.4477 29 24C29 24.5523 28.5523 25 28 25H4C3.44772 25 3 24.5523 3 24C3 23.4477 3.44772 23 4 23H28Z" fill="#00005E"/>
</svg>
