<svg width="32" height="32" viewBox="0 0 32 32" fill="none" xmlns="http://www.w3.org/2000/svg">
<path fill-rule="evenodd" clip-rule="evenodd" d="M9.99999 15.86C9.93299 19.2436 12.6166 22.0435 16 22.12C16.6522 22.1173 17.3001 22.0127 17.92 21.81C20.4205 20.8849 22.059 18.4755 22 15.81V10.14C22.062 7.47357 20.4225 5.06251 17.92 4.13999C17.3028 3.92272 16.6543 3.80787 16 3.79999C12.6166 3.87649 9.93299 6.67635 9.99999 10.06V15.86ZM12 15.86V10.06C11.9326 7.78073 13.721 5.8761 16 5.79998C16.4411 5.79911 16.8796 5.86658 17.3 5.99999C18.9924 6.66098 20.0775 8.32472 20 10.14V15.78C20.0688 17.588 18.9852 19.2414 17.3 19.9C16.8818 20.0447 16.4425 20.1191 16 20.12C13.721 20.0439 11.9326 18.1392 12 15.86ZM26 15.43C26.0753 20.6654 22.1963 25.1175 17 25.76V28C17 28.5523 16.5523 29 16 29C15.4477 29 15 28.5523 15 28V25.76C9.80365 25.1175 5.92471 20.6654 5.99999 15.43C5.99999 14.8777 6.44771 14.43 6.99999 14.43C7.55228 14.43 7.99999 14.8777 7.99999 15.43C7.90494 19.9494 11.4811 23.6954 16 23.81C20.5189 23.6954 24.095 19.9494 24 15.43C24 14.8777 24.4477 14.43 25 14.43C25.5523 14.43 26 14.8777 26 15.43ZM14.83 10.5C14.83 10.7761 15.0539 11 15.33 11H16.67C16.9461 11 17.17 10.7761 17.17 10.5C17.17 10.2238 16.9461 9.99999 16.67 9.99999H15.33C15.0539 9.99999 14.83 10.2238 14.83 10.5ZM16.67 15C16.9461 15 17.17 15.2238 17.17 15.5C17.17 15.7761 16.9461 16 16.67 16H15.33C15.0539 16 14.83 15.7761 14.83 15.5C14.83 15.2238 15.0539 15 15.33 15H16.67ZM13.5 13C13.5 13.2761 13.7239 13.5 14 13.5H18C18.2761 13.5 18.5 13.2761 18.5 13C18.5 12.7238 18.2761 12.5 18 12.5H14C13.7239 12.5 13.5 12.7238 13.5 13Z" fill="#00005E"/>
</svg>
