<svg width="32" height="32" viewBox="0 0 32 32" fill="none" xmlns="http://www.w3.org/2000/svg">
<path fill-rule="evenodd" clip-rule="evenodd" d="M4.7 28.64C4.51374 28.8247 4.26234 28.9289 4 28.93C3.7342 28.9315 3.47872 28.8272 3.29 28.64C3.10069 28.4522 2.9942 28.1966 2.9942 27.93C2.9942 27.6634 3.10069 27.4078 3.29 27.22L27.29 3.21999C27.68 2.83227 28.31 2.83227 28.7 3.21999C28.8893 3.40776 28.9958 3.66335 28.9958 3.92999C28.9958 4.19663 28.8893 4.45223 28.7 4.63999L4.7 28.64ZM11.82 17.17C11.9235 17.1695 12.0244 17.1382 12.11 17.08C12.33 16.9212 12.3871 16.618 12.24 16.39C11.7399 15.6633 11.4715 14.8022 11.47 13.92V9.32999C11.468 7.92223 12.1458 6.60011 13.29 5.77999C14.505 4.88666 16.0759 4.63352 17.51 5.09999C18.8851 5.53637 19.9579 6.62048 20.38 7.99999C20.4209 8.12572 20.5109 8.22956 20.6296 8.28794C20.7482 8.34631 20.8854 8.35427 21.01 8.30999C21.2722 8.22423 21.4154 7.94231 21.33 7.67999C20.7955 6.00829 19.4832 4.69976 17.81 4.16999C16.0686 3.61416 14.1666 3.9225 12.69 4.99999C11.3035 6.00817 10.4793 7.61575 10.47 9.32999V13.95C10.477 15.0214 10.8044 16.0662 11.41 16.95C11.5021 17.0863 11.6555 17.1686 11.82 17.17ZM8.34 21C8.4745 20.9966 8.60288 20.9431 8.7 20.85C8.90761 20.6692 8.9383 20.3579 8.77 20.14C7.41886 18.5209 6.67917 16.4788 6.68 14.37C6.68 14.0939 6.45614 13.87 6.18 13.87C5.90386 13.87 5.68 14.0939 5.68 14.37C5.67871 16.7124 6.49978 18.981 8 20.78C8.07534 20.8999 8.19977 20.9804 8.34 21ZM15.09 19.66C15.0728 19.9272 15.2731 20.1587 15.54 20.18C15.7065 20.19 15.8735 20.19 16.04 20.18C16.6402 20.179 17.2368 20.088 17.81 19.91C20.0811 19.1752 21.6172 17.057 21.61 14.67V14.39C21.61 14.1138 21.3861 13.89 21.11 13.89C20.8339 13.89 20.61 14.1138 20.61 14.39V14.67C20.6332 16.6355 19.3781 18.3886 17.51 19C16.9024 19.189 16.2643 19.2603 15.63 19.21C15.3571 19.1868 15.1164 19.3874 15.09 19.66ZM26.44 14.37C26.3789 19.6879 22.2718 24.0813 16.97 24.5V28.5C16.97 28.7761 16.7461 29 16.47 29C16.1939 29 15.97 28.7761 15.97 28.5V24.58C14.451 24.5732 12.9521 24.2317 11.58 23.58C11.3971 23.5194 11.2653 23.3592 11.2411 23.1681C11.2169 22.977 11.3047 22.789 11.4667 22.6848C11.6287 22.5806 11.8361 22.5787 12 22.68C13.2545 23.2566 14.6194 23.5535 16 23.55C18.4692 23.5847 20.8511 22.637 22.6215 20.9153C24.3919 19.1937 25.4058 16.8392 25.44 14.37C25.44 14.0939 25.6639 13.87 25.94 13.87C26.2161 13.87 26.44 14.0939 26.44 14.37Z" fill="#00005E"/>
</svg>
