<svg width="32" height="32" viewBox="0 0 32 32" fill="none" xmlns="http://www.w3.org/2000/svg">
<path fill-rule="evenodd" clip-rule="evenodd" d="M28 8.58C28 6.05054 25.9494 4 23.42 4H11.58C9.05052 4 6.99999 6.05054 6.99999 8.58V15C6.99999 15.5523 7.4477 16 7.99999 16C8.55227 16 8.99999 15.5523 8.99999 15V8.58C9.00547 7.15738 10.1574 6.00548 11.58 6H23.42C24.8426 6.00548 25.9945 7.15738 26 8.58V20.42C25.9945 21.8426 24.8426 22.9945 23.42 23H18C17.4477 23 17 23.4477 17 24C17 24.5523 17.4477 25 18 25H23.42C25.9494 25 28 22.9495 28 20.42V8.58ZM13 27C13 26.4477 12.5523 26 12 26H7.43999L18.14 15.44C18.5376 15.0506 18.5443 14.4126 18.155 14.015C17.7656 13.6174 17.1276 13.6106 16.73 14L5.99999 24.61V20C5.99999 19.4477 5.55227 19 4.99999 19C4.4477 19 3.99999 19.4477 3.99999 20V27C3.99431 27.0264 3.99431 27.0536 3.99999 27.08C4.00551 27.1824 4.02572 27.2834 4.05999 27.38C4.10375 27.4691 4.15742 27.5529 4.21999 27.63V27.7C4.31059 27.7989 4.42382 27.8744 4.54999 27.92C4.6918 27.981 4.84582 28.0084 4.99999 28H12C12.5523 28 13 27.5523 13 27Z" fill="#00005E"/>
</svg>
