<svg width="32" height="32" viewBox="0 0 32 32" fill="none" xmlns="http://www.w3.org/2000/svg">
<path fill-rule="evenodd" clip-rule="evenodd" d="M25.1725 13.58H25.2325C25.5814 13.5877 25.9253 13.6648 26.2441 13.8067C26.5629 13.9486 26.8502 14.1526 27.0894 14.4066C27.3286 14.6607 27.5149 14.9599 27.6373 15.2867C27.7597 15.6134 27.8159 15.9613 27.8025 16.31V24.86C27.8269 25.5543 27.5756 26.23 27.1034 26.7397C26.6313 27.2493 25.9767 27.5514 25.2825 27.58H11.2825C10.5884 27.5514 9.9338 27.2493 9.46165 26.7397C8.9895 26.23 8.73817 25.5543 8.76253 24.86V22.54C8.44276 22.2185 8.20001 21.8288 8.05253 21.4L7.05253 18.48L5.19253 13.23C4.93218 12.5807 4.93601 11.8554 5.2032 11.2089C5.47039 10.5624 5.97976 10.046 6.62253 9.77001L19.6025 5.13001C19.843 5.04323 20.0969 4.99923 20.3525 5.00001C20.915 5.02302 21.4567 5.2187 21.904 5.56044C22.3513 5.90218 22.6825 6.3734 22.8525 6.91001L25.1725 13.58ZM8.75253 18.04V16.23C8.74164 15.5568 8.99536 14.9062 9.45913 14.4182C9.92289 13.9301 10.5597 13.6435 11.2325 13.62H23.1025L21.0125 7.70001C20.9582 7.50923 20.8484 7.3389 20.6971 7.21069C20.5457 7.08249 20.3596 7.00219 20.1625 6.98001C20.1036 6.96384 20.0414 6.96384 19.9825 6.98001L7.21253 11.48C7.12947 11.5122 7.05431 11.5619 6.99219 11.6258C6.93007 11.6896 6.88243 11.7661 6.85253 11.85C6.75244 12.1107 6.75244 12.3993 6.85253 12.66L8.65253 17.77L8.75253 18.04ZM25.5451 25.3022C25.6891 25.1395 25.7635 24.9269 25.7525 24.71V18.58H10.7525V24.71C10.7414 24.9253 10.8145 25.1365 10.9563 25.2989C11.0982 25.4613 11.2977 25.5621 11.5125 25.58H24.9825C25.1992 25.5646 25.4012 25.4648 25.5451 25.3022ZM10.7525 17.58H25.7525V16.7C25.7525 16.1 25.4025 15.58 24.9825 15.58H11.5125C11.1025 15.58 10.7525 16.1 10.7525 16.7V17.58ZM15.6425 22.4601C15.6425 23.1615 15.0739 23.7301 14.3725 23.7301C13.6711 23.7301 13.1025 23.1615 13.1025 22.4601C13.1025 21.7587 13.6711 21.1901 14.3725 21.1901C15.0739 21.1901 15.6425 21.7587 15.6425 22.4601Z" fill="#00005E"/>
</svg>
