<svg width="32" height="32" viewBox="0 0 32 32" fill="none" xmlns="http://www.w3.org/2000/svg">
<path fill-rule="evenodd" clip-rule="evenodd" d="M28 14.59V17C27.9971 20.0988 26.7208 23.0601 24.47 25.19C22.187 27.3638 19.1523 28.5712 16 28.5601H15.46C9.06095 28.3129 4.0006 23.0538 4 16.65V14.59C4.13675 8.08605 9.49523 2.91065 16 3C22.5048 2.91065 27.8633 8.08605 28 14.59ZM26 15.75V14.59C25.8689 9.18823 21.4025 4.90496 16 5C10.5975 4.90496 6.13109 9.18823 6 14.59V15.77C6.7387 20.7083 11.007 24.3449 16 24.29C17.7487 24.288 19.4686 23.8443 21 23C23.7287 21.5203 25.5866 18.8264 26 15.75ZM17 26.51V25.25C18.3916 25.1298 19.7483 24.7499 21 24.13V25.28C19.7672 25.9648 18.4046 26.3838 17 26.51ZM6.91 20.7C7.7791 22.5894 9.20658 24.167 11 25.22V24.14C9.37461 23.347 7.96982 22.1655 6.91 20.7ZM16 26.56H15.54C14.318 26.5029 13.1174 26.2181 12 25.72V24.57C13.278 25.0538 14.6334 25.3012 16 25.3V26.56ZM23.07 23.76C24.1042 22.7752 24.901 21.5681 25.4 20.23C24.5233 21.5802 23.3631 22.7234 22 23.58V24.64C22.3746 24.3692 22.732 24.0753 23.07 23.76ZM24.95 12.8239C24.9312 12.6901 24.859 12.5697 24.75 12.49C24.6415 12.4125 24.5064 12.3816 24.375 12.4041C24.2435 12.4267 24.1265 12.5008 24.05 12.61L23 14.17C22.9693 12.722 22.479 11.3212 21.6 10.17C20.4235 8.61984 18.6711 7.61023 16.74 7.37C16.537 7.35474 16.333 7.35474 16.13 7.37C12.2913 7.14752 8.99173 10.0631 8.74 13.9C8.66692 15.6942 9.3193 17.4423 10.55 18.75C11.8477 20.1439 13.6467 20.9642 15.55 21.03C15.8261 21.03 16.05 20.8061 16.05 20.53C16.05 20.2539 15.8261 20.03 15.55 20.03C13.8964 19.9729 12.3355 19.252 11.22 18.03C10.169 16.9178 9.61029 15.4291 9.67 13.9C9.85275 10.5921 12.682 8.05826 15.99 8.24L16.51 8.29C18.1741 8.4967 19.6846 9.36551 20.7 10.7C21.5774 11.84 21.9981 13.2663 21.88 14.7L20.2 12.86C20.0022 12.6682 19.6878 12.6682 19.49 12.86C19.3953 12.9539 19.3421 13.0817 19.3421 13.215C19.3421 13.3483 19.3953 13.4761 19.49 13.57L22 16.25C22.093 16.3562 22.2289 16.4149 22.37 16.41C22.5212 16.3988 22.66 16.3221 22.75 16.2L24.85 13.2C24.9328 13.0933 24.9688 12.9576 24.95 12.8239Z" fill="#00005E"/>
</svg>
