<svg width="32" height="32" viewBox="0 0 32 32" fill="none" xmlns="http://www.w3.org/2000/svg">
<path fill-rule="evenodd" clip-rule="evenodd" d="M11 16C11 13.7909 9.20914 12 7 12C4.79086 12 3 13.7909 3 16C3 18.2091 4.79086 20 7 20C9.20914 20 11 18.2091 11 16ZM9 16C9 17.1046 8.10457 18 7 18C5.89543 18 5 17.1046 5 16C5 14.8954 5.89543 14 7 14C8.10457 14 9 14.8954 9 16ZM21 16C21 13.7909 19.2091 12 17 12C14.7909 12 13 13.7909 13 16C13 18.2091 14.7909 20 17 20C19.2091 20 21 18.2091 21 16ZM19 16C19 17.1046 18.1046 18 17 18C15.8954 18 15 17.1046 15 16C15 14.8954 15.8954 14 17 14C18.1046 14 19 14.8954 19 16ZM30 16C30 15.7239 29.7761 15.5 29.5 15.5C29.2239 15.5 29 15.7239 29 16C29 17.3807 27.8807 18.5 26.5 18.5C25.1193 18.5 24 17.3807 24 16C24 14.6193 25.1193 13.5 26.5 13.5C26.7761 13.5 27 13.2761 27 13C27 12.7239 26.7761 12.5 26.5 12.5C25.0844 12.5 23.8082 13.3527 23.2664 14.6606C22.7247 15.9685 23.0241 17.4739 24.0251 18.4749C25.0261 19.4759 26.5315 19.7753 27.8394 19.2336C29.1473 18.6918 30 17.4156 30 16Z" fill="#00005E"/>
</svg>
