<svg width="32" height="32" viewBox="0 0 32 32" fill="none" xmlns="http://www.w3.org/2000/svg">
<path fill-rule="evenodd" clip-rule="evenodd" d="M16 10C17.1046 10 18 9.10457 18 8C18 6.89543 17.1046 6 16 6C14.8954 6 14 6.89543 14 8C14 9.10457 14.8954 10 16 10ZM20 8C20 8.74219 19.7979 9.43716 19.4456 10.0329C19.8892 10.0989 20.301 10.2621 20.6589 10.5H21C21.8284 10.5 22.5 9.82843 22.5 9V8H20ZM23.5 8H25C25.5523 8 26 7.55228 26 7C26 6.44772 25.5523 6 25 6H19.4649C18.7733 4.8044 17.4806 4 16 4C14.5194 4 13.2267 4.8044 12.5351 6H7C6.44772 6 6 6.44772 6 7C6 7.55228 6.44772 8 7 8H8.5V9C8.5 10.1878 9.32838 11.1821 10.439 11.4368C10.1605 11.892 10 12.4273 10 13V21C10 22.6569 11.3431 24 13 24L13 25C13 26.6569 14.3431 28 16 28C17.6569 28 19 26.6569 19 25V24C20.6569 24 22 22.6569 22 21V13C22 12.4273 21.8395 11.892 21.561 11.4368C22.6716 11.1821 23.5 10.1878 23.5 9V8ZM12.5544 10.0329C12.1108 10.0989 11.699 10.2621 11.3411 10.5H11C10.1716 10.5 9.5 9.82843 9.5 9V8H12C12 8.74219 12.2021 9.43716 12.5544 10.0329ZM13 22L13 17C13 15.3431 14.3431 14 16 14C17.6569 14 19 15.3431 19 17V22C19.5523 22 20 21.5523 20 21V13C20 12.4477 19.5523 12 19 12H16H13C12.4477 12 12 12.4477 12 13V21C12 21.5523 12.4477 22 13 22ZM16 16C16.5523 16 17 16.4477 17 17V25C17 25.5523 16.5523 26 16 26C15.4477 26 15 25.5523 15 25V17C15 16.4477 15.4477 16 16 16Z" fill="#00005E"/>
</svg>
