<svg width="32" height="32" viewBox="0 0 32 32" fill="none" xmlns="http://www.w3.org/2000/svg">
<path d="M27.22 13.44C28.1353 14.7976 28.235 16.5471 27.48 18C26.761 19.3668 25.3542 20.2331 23.81 20.26C22.6869 20.2718 21.6061 19.8323 20.81 19.04C20.4223 18.6499 20.4223 18.02 20.81 17.63C20.9978 17.4406 21.2534 17.3342 21.52 17.3342C21.7866 17.3342 22.0422 17.4406 22.23 17.63C22.7232 18.1168 23.4162 18.344 24.102 18.2438C24.7877 18.1436 25.3867 17.7275 25.72 17.12C26.1463 16.296 26.0729 15.3023 25.53 14.55C25.4593 14.4459 25.3713 14.3546 25.27 14.28C24.5788 13.7804 23.6782 13.6744 22.89 14C22.2323 14.3015 21.7649 14.9073 21.64 15.62C21.5033 16.4185 20.8102 17.0018 20 17H10V19C10 19.5522 9.55228 20 9 20C8.44772 20 8 19.5522 8 19V17H6V19C6 19.5522 5.55228 20 5 20C4.44772 20 4 19.5522 4 19V16.88C4 15.8417 4.8417 15 5.88 15H19.68C19.9862 13.7201 20.8746 12.6578 22.08 12.13C23.4836 11.536 25.093 11.6981 26.35 12.56C26.6995 12.7878 26.9962 13.0878 27.22 13.44Z" fill="#00005E"/>
</svg>
