<svg width="24" height="24" viewBox="0 0 24 24" fill="none" xmlns="http://www.w3.org/2000/svg">
<path fill-rule="evenodd" clip-rule="evenodd" d="M1 1C0.447715 1 0 1.44772 0 2V19.5C0 21.7091 1.79086 23.5 4 23.5H19.25H19.5C19.5798 23.5 19.6574 23.4907 19.7318 23.473C21.8522 23.2337 23.5 21.4343 23.5 19.25V8.5C23.5 7.94772 23.0523 7.5 22.5 7.5H17V7V4V2C17 1.44772 16.5523 1 16 1H1ZM4 21.5H15.6438C15.2358 20.8475 15 20.0763 15 19.25V7V4V3H2V19.5C2 20.6046 2.89543 21.5 4 21.5ZM21.5 19.25C21.5 20.4926 20.4926 21.5 19.25 21.5C18.0074 21.5 17 20.4926 17 19.25V9.5H21.5V19.25ZM11 12.5C11 12.7761 10.7761 13 10.5 13H4.5C4.22386 13 4 12.7761 4 12.5C4 12.2239 4.22386 12 4.5 12H10.5C10.7761 12 11 12.2239 11 12.5ZM4.5 15.5H7.5C7.77614 15.5 8 15.7239 8 16C8 16.2761 7.77614 16.5 7.5 16.5H4.5C4.22386 16.5 4 16.2761 4 16C4 15.7239 4.22386 15.5 4.5 15.5ZM4 4.5C3.72386 4.5 3.5 4.72386 3.5 5V9C3.5 9.27614 3.72386 9.5 4 9.5H13C13.2761 9.5 13.5 9.27614 13.5 9V5C13.5 4.72386 13.2761 4.5 13 4.5H4ZM4.5 8.5V5.5H12.5V8.5H4.5Z" fill="#00005E"/>
</svg>
