<svg width="32" height="32" viewBox="0 0 32 32" fill="none" xmlns="http://www.w3.org/2000/svg">
<path fill-rule="evenodd" clip-rule="evenodd" d="M13 22C13.5523 22 14 22.4477 14 23C14 23.5523 13.5523 24 13 24H7.3C4.92746 23.9945 3.0055 22.0725 3 19.7V9.3C3.0055 6.92746 4.92746 5.0055 7.3 5H22.7C25.0725 5.0055 26.9945 6.92746 27 9.3V14C27 14.5523 26.5523 15 26 15C25.4477 15 25 14.5523 25 14V9.3C25 8.69 24.7577 8.10499 24.3263 7.67365C23.895 7.24232 23.31 7 22.7 7H7.3C6.69 7 6.10499 7.24232 5.67365 7.67365C5.24232 8.10499 5 8.69 5 9.3V19.7C5 20.31 5.24232 20.895 5.67365 21.3263C6.10499 21.7577 6.69 22 7.3 22H13ZM22.87 9.54L15.22 14.54C15.1409 14.5949 15.0462 14.6229 14.95 14.62C14.8506 14.623 14.7528 14.595 14.67 14.54L6.93 9.54C6.76935 9.44836 6.67241 9.27552 6.67797 9.09065C6.68354 8.90578 6.7907 8.73908 6.95657 8.65727C7.12244 8.57546 7.31993 8.59189 7.47 8.7L14.94 13.53L22.33 8.71C22.4773 8.5816 22.6859 8.55079 22.8641 8.63114C23.0422 8.71148 23.1572 8.88825 23.1585 9.08367C23.1598 9.27909 23.0471 9.45735 22.87 9.54ZM22 15C25.866 15 29 18.134 29 22C29 25.866 25.866 29 22 29C18.134 29 15 25.866 15 22C15 18.134 18.134 15 22 15ZM22 27C23.3261 27 24.5979 26.4732 25.5355 25.5355C26.4732 24.5979 27 23.3261 27 22C27 19.2386 24.7614 17 22 17C19.2386 17 17 19.2386 17 22C17 24.7614 19.2386 27 22 27ZM22 22C22.5523 22 23 22.4477 23 23V25C23 25.5523 22.5523 26 22 26C21.4477 26 21 25.5523 21 25V23C21 22.4477 21.4477 22 22 22ZM22 20.56C22.5523 20.56 23 20.1123 23 19.56C23 19.0077 22.5523 18.56 22 18.56C21.4477 18.56 21 19.0077 21 19.56C21 20.1123 21.4477 20.56 22 20.56Z" fill="#00005E"/>
</svg>
