<svg width="32" height="32" viewBox="0 0 32 32" fill="none" xmlns="http://www.w3.org/2000/svg">
<path fill-rule="evenodd" clip-rule="evenodd" d="M16 4C22.6274 4 28 9.37258 28 16C28 22.6274 22.6274 28 16 28C9.37258 28 4 22.6274 4 16C4 9.37258 9.37258 4 16 4ZM16 26C18.6522 26 21.1957 24.9464 23.0711 23.0711C24.9464 21.1957 26 18.6522 26 16C26 10.4772 21.5228 6 16 6C10.4772 6 6 10.4772 6 16C6 21.5228 10.4772 26 16 26ZM20.86 15.3L14 9.3C13.5831 8.9642 12.9757 9.01629 12.622 9.41817C12.2684 9.82005 12.2939 10.4292 12.68 10.8L18.68 16.05L12.68 21.3C12.2663 21.6648 12.226 22.2956 12.59 22.71C12.9548 23.1237 13.5856 23.164 14 22.8L20.86 16.8C21.0753 16.6102 21.1986 16.337 21.1986 16.05C21.1986 15.763 21.0753 15.4898 20.86 15.3Z" fill="#00005E"/>
</svg>
