<svg width="32" height="32" viewBox="0 0 32 32" fill="none" xmlns="http://www.w3.org/2000/svg">
<path fill-rule="evenodd" clip-rule="evenodd" d="M22.5 11.6194V19.6504C22.5 21.0864 21.352 22.2634 19.939 22.2694V25.0004L16.74 22.2694H12.072C10.654 22.2694 9.5 21.0894 9.5 19.6504V11.6194C9.5 10.1794 10.654 9.0004 12.072 9.0004H19.928C21.346 9.0004 22.5 10.1794 22.5 11.6194ZM28 16.0004C28 9.3734 22.627 4.0004 16 4.0004C9.373 4.0004 4 9.3734 4 16.0004C4 22.6274 9.373 28.0004 16 28.0004C22.627 28.0004 28 22.6274 28 16.0004ZM12.5705 13.7344C12.5705 13.1114 12.9795 12.6064 13.4835 12.6064C13.9885 12.6064 14.3975 13.1114 14.3975 13.7344C14.3975 14.3574 13.9885 14.8624 13.4835 14.8624C12.9795 14.8624 12.5705 14.3574 12.5705 13.7344ZM17.5276 14.5782C17.4916 14.4482 17.4676 14.3102 17.4676 14.1662C17.4676 13.4512 17.9376 12.8712 18.5156 12.8712C19.0946 12.8712 19.5646 13.4512 19.5646 14.1662C19.5646 14.3102 19.5406 14.4482 19.5046 14.5782C19.3656 14.0462 18.9776 13.6602 18.5156 13.6602C18.0546 13.6602 17.6666 14.0462 17.5276 14.5782ZM16.0004 18.6971C17.3144 18.6971 18.5054 18.1581 19.0354 17.3241C19.1284 17.1781 19.3094 17.1431 19.4404 17.2461C19.5724 17.3491 19.6034 17.5511 19.5114 17.6961C18.8774 18.6971 17.4984 19.3451 16.0004 19.3451C14.5024 19.3451 13.1234 18.6971 12.4884 17.6961C12.3954 17.5511 12.4274 17.3491 12.5594 17.2461C12.6904 17.1421 12.8734 17.1781 12.9654 17.3241C13.4944 18.1581 14.6854 18.6971 16.0004 18.6971Z" fill="#00005E"/>
</svg>
