<svg width="32" height="32" viewBox="0 0 32 32" fill="none" xmlns="http://www.w3.org/2000/svg">
<path d="M16.7498 15.0448L12.6722 10.8928V10.8946L16.7498 15.0448Z" fill="white"/>
<path d="M12.6721 10.8948L16.7496 15.0447L12.7008 19.0345C12.7008 19.035 12.7006 19.0358 12.7002 19.0368L12.6985 19.0355L12.6589 19.0754L12.6591 19.0695C12.5125 19.2136 10.9869 20.713 8.08234 23.5679L4 19.4115L8.57332 14.9187L8.57364 14.9192L12.6721 10.8948Z" fill="#0099FF"/>
<path d="M12.7023 19.0735L16.7293 23.1941L19.3954 20.5843L16.7316 23.2256L12.6573 19.0757L12.7023 19.0735ZM18.0488 8.00073L27.9979 8.00146L27.9915 17.9239L25.0811 15.0193L19.3954 20.5843L20.804 19.188L16.7557 15.0497L16.7493 15.0449L20.9613 10.9077L18.0488 8.00073Z" fill="#0C00A7"/>
<path d="M12.6289 19.0926L12.6353 19.0973L12.6564 19.075L12.6517 19.0715L12.6289 19.0926Z" fill="white"/>
<path d="M16.7551 15.0508V15.049L16.7487 15.0443L16.7551 15.0508Z" fill="white"/>
<path d="M12.6657 10.8865L8.56702 14.9126L8.57346 14.9191L12.6722 10.8947L12.6657 10.8865Z" fill="white"/>
<path d="M12.6564 19.0751L16.7323 23.2254L20.824 19.1887L16.7516 15.0408L12.6564 19.0751Z" fill="#001EF5"/>
</svg>
