<svg width="32" height="32" viewBox="0 0 32 32" fill="none" xmlns="http://www.w3.org/2000/svg">
<path fill-rule="evenodd" clip-rule="evenodd" d="M7.54504 6.58791L8.6057 7.64857C11.3394 4.9149 15.7715 4.9149 18.5052 7.64857L22.8685 12.0119C23.9837 11.4792 25.3597 11.6747 26.2834 12.5983C27.4549 13.7699 27.4549 15.6694 26.2834 16.841L17.091 26.0333C15.9194 27.2049 14.0199 27.2049 12.8483 26.0333C11.9247 25.1097 11.7292 23.7336 12.2619 22.6185L7.8986 18.2552C5.16493 15.5215 5.16493 11.0893 7.8986 8.35567L6.83794 7.29501C6.64267 7.09975 6.64267 6.78317 6.83794 6.58791C7.0332 6.39264 7.34978 6.39264 7.54504 6.58791ZM17.091 9.06278L22.4544 14.4262L23.7306 13.8166C24.1094 13.6356 24.5669 13.7103 24.8692 14.0125C25.2597 14.4031 25.2597 15.0362 24.8692 15.4267L15.6768 24.6191C15.2862 25.0097 14.6531 25.0097 14.2626 24.6191C13.9603 24.3169 13.8857 23.8594 14.0666 23.4806L14.6763 22.2044L9.31281 16.841C7.36019 14.8883 7.36019 11.7225 9.31281 9.76989L10.0199 9.06278C11.9725 7.11016 15.1384 7.11016 17.091 9.06278ZM16.3839 11.1841C16.5791 10.9888 16.5791 10.6723 16.3839 10.477C14.8218 8.9149 12.2891 8.9149 10.727 10.477C10.5318 10.6723 10.5318 10.9888 10.727 11.1841C10.9223 11.3794 11.2389 11.3794 11.4341 11.1841C12.6057 10.0125 14.5052 10.0125 15.6768 11.1841C15.872 11.3794 16.1886 11.3794 16.3839 11.1841ZM17.4445 26.3869C17.2493 26.5822 17.2493 26.8987 17.4445 27.094C18.4208 28.0703 20.0038 28.0703 20.9801 27.094C21.9564 26.1177 21.9564 24.5348 20.9801 23.5585C20.7848 23.3632 20.4682 23.3632 20.273 23.5585C20.0777 23.7537 20.0777 24.0703 20.273 24.2656C20.8588 24.8514 20.8588 25.8011 20.273 26.3869C19.6872 26.9727 18.7374 26.9727 18.1516 26.3869C17.9564 26.1916 17.6398 26.1916 17.4445 26.3869Z" fill="#00005E"/>
</svg>
