<svg width="24" height="24" viewBox="0 0 24 24" fill="none" xmlns="http://www.w3.org/2000/svg">
<path fill-rule="evenodd" clip-rule="evenodd" d="M0.856336 2.02122C1.12083 1.94187 1.39957 2.09196 1.47892 2.35646L2.526 5.84672C4.72175 3.50585 8.14904 2.00012 12 2.00012C18.6274 2.00012 24 6.45972 24 11.9609C24 17.4621 18.6274 21.9217 12 21.9217C5.37258 21.9217 0 17.4621 0 11.9609C0 10.058 0.642875 8.27963 1.75818 6.76743L0.521096 2.64381C0.441748 2.37931 0.591839 2.10057 0.856336 2.02122ZM3.5211 12.6438L2.54756 9.39868C2.19027 10.2203 2 11.0867 2 11.9609C2 12.9736 2.25535 13.976 2.7299 14.9102C2.92497 15.2285 3.14209 15.5059 3.37119 15.7358C4.01135 16.3781 4.65438 16.5759 5.1712 16.4763C5.68803 16.3768 6.21149 15.9541 6.56713 15.1199C6.91995 14.2924 7.05157 13.16 6.81502 11.9324C6.57848 10.7049 6.03548 9.70249 5.4004 9.06529C4.76024 8.423 4.11721 8.22513 3.60038 8.32472C3.49947 8.34417 3.39831 8.37593 3.29819 8.42067L4.47892 12.3565C4.55827 12.621 4.40818 12.8997 4.14368 12.979C3.87919 13.0584 3.60045 12.9083 3.5211 12.6438ZM4.83392 17.5002C6.59555 18.9628 9.07933 19.9217 12 19.9217C17.8877 19.9217 22 16.025 22 11.9609C22 11.1353 21.8303 10.3165 21.5104 9.53598C21.224 9.28511 20.8863 9.15912 20.5674 9.18286C19.8393 9.23708 19.1298 10.0776 19.22 11.2887C19.2405 11.5641 19.0339 11.804 18.7585 11.8245C18.4832 11.845 18.2433 11.6384 18.2228 11.363C18.1079 9.82029 19.0181 8.29546 20.4931 8.18563C20.5901 8.1784 20.6856 8.1776 20.7794 8.18283C19.1424 5.7772 15.976 4.00012 12 4.00012C8.52821 4.00012 5.67373 5.35504 3.91573 7.30025C5.63379 7.33748 7.30666 9.19885 7.79696 11.7432C8.33523 14.5365 7.24436 17.0952 5.36042 17.4583C5.18521 17.492 5.0093 17.5056 4.83392 17.5002ZM11.9443 9.5022C11.2162 9.55642 10.5068 10.397 10.597 11.6081C10.6175 11.8834 10.4109 12.1233 10.1355 12.1438C9.8601 12.1643 9.62024 11.9577 9.59973 11.6823C9.48486 10.1396 10.3951 8.6148 11.8701 8.50496C13.345 8.39513 14.4711 9.76833 14.5859 11.311C14.6064 11.5864 14.3998 11.8263 14.1244 11.8468C13.8491 11.8673 13.6092 11.6607 13.5887 11.3853C13.4985 10.1742 12.6724 9.44798 11.9443 9.5022Z" fill="#00005E"/>
</svg>
