<svg width="32" height="32" viewBox="0 0 32 32" fill="none" xmlns="http://www.w3.org/2000/svg">
<path fill-rule="evenodd" clip-rule="evenodd" d="M28.5324 12.3725H28.5474C28.8164 12.3725 29.0384 12.1585 29.0474 11.8875C29.1087 9.78174 28.3838 7.79322 26.9975 6.23648L28.2854 4.94841C28.4814 4.75341 28.4814 4.43741 28.2854 4.24141C28.0904 4.04641 27.7744 4.04641 27.5784 4.24141L26.2891 5.53053C24.7376 4.1595 22.7635 3.45356 20.6614 3.50251C20.3854 3.51151 20.1684 3.74051 20.1764 4.01751C20.1854 4.29351 20.4474 4.53351 20.6914 4.50251C22.5197 4.45413 24.2272 5.06314 25.5805 6.23904L24.0062 7.81302C23.1597 7.11141 22.1143 6.67068 21.0136 6.55741C20.7376 6.52641 20.4936 6.72841 20.4646 7.00341C20.4366 7.27741 20.6366 7.52341 20.9116 7.55141C21.7981 7.64257 22.6133 7.97574 23.2963 8.52286L21.0894 10.7294C20.8944 10.9254 20.8944 11.2414 21.0894 11.4374C21.1874 11.5344 21.3154 11.5834 21.4434 11.5834C21.5714 11.5834 21.6994 11.5344 21.7974 11.4374L24.0053 9.22915C24.5587 9.91601 24.9071 10.7556 24.9976 11.6374C25.0246 11.8954 25.2416 12.0864 25.4946 12.0864C25.5116 12.0864 25.5286 12.0854 25.5466 12.0834C25.8206 12.0554 26.0206 11.8104 25.9926 11.5354C25.8782 10.4246 25.429 9.37019 24.7156 8.51875L26.2892 6.94494C27.4792 8.30363 28.1007 10.03 28.0474 11.8575C28.0394 12.1345 28.2564 12.3635 28.5324 12.3725ZM23 27.0346H9C6.794 27.0346 5 25.2406 5 23.0346V9.03461C5 6.82861 6.794 5.03461 9 5.03461H18C18.552 5.03461 19 5.48161 19 6.03461C19 6.58761 18.552 7.03461 18 7.03461H9C7.897 7.03461 7 7.93161 7 9.03461V23.0346C7 24.1376 7.897 25.0346 9 25.0346H23C24.103 25.0346 25 24.1376 25 23.0346V14.0346C25 13.4816 25.448 13.0346 26 13.0346C26.552 13.0346 27 13.4816 27 14.0346V23.0346C27 25.2406 25.206 27.0346 23 27.0346ZM14.0493 22.0346H17.9503L16.3883 16.3556C16.3163 16.0936 16.4673 15.8206 16.7283 15.7436C17.8363 15.4156 18.5803 14.4276 18.5803 13.2826C18.5803 12.5156 18.2433 11.7946 17.6543 11.3026C17.0593 10.8036 16.3013 10.6066 15.5193 10.7456C14.4923 10.9296 13.6473 11.7736 13.4633 12.8016C13.2253 14.1256 13.9863 15.3626 15.2723 15.7436C15.5333 15.8206 15.6843 16.0936 15.6113 16.3556L14.0493 22.0346ZM18.6073 23.0346H13.3933C13.2373 23.0346 13.0903 22.9616 12.9953 22.8376C12.9013 22.7136 12.8693 22.5526 12.9113 22.4016L14.5263 16.5306C13.0493 15.8636 12.1843 14.2646 12.4783 12.6246C12.7363 11.1936 13.9133 10.0156 15.3423 9.76161C16.4033 9.56961 17.4813 9.85261 18.2973 10.5356C19.1123 11.2186 19.5803 12.2196 19.5803 13.2826C19.5803 14.7086 18.7513 15.9606 17.4733 16.5316L19.0893 22.4016C19.1303 22.5526 19.0993 22.7136 19.0043 22.8376C18.9103 22.9616 18.7633 23.0346 18.6073 23.0346Z" fill="#00005E"/>
</svg>
