<svg width="32" height="32" viewBox="0 0 32 32" fill="none" xmlns="http://www.w3.org/2000/svg">
<path fill-rule="evenodd" clip-rule="evenodd" d="M26.58 12.39C26.8519 11.7764 26.9048 11.088 26.73 10.44C26.3251 9.00524 25.0208 8.0107 23.53 8H10H9.9L9.59 5.85C9.31462 4.1956 7.87711 2.98707 6.2 2.9999H5C4.44772 2.9999 4 3.44771 4 4C4 4.55228 4.44772 5 5 5H6.2C6.893 4.9883 7.49319 5.4786 7.62 6.16L8.37 11.44C8.44025 11.937 8.86807 12.3049 9.37 12.3H9.5C10.0467 12.2226 10.4272 11.7167 10.35 11.17L10.18 10H23.53C24.1343 10.0038 24.6601 10.4146 24.81 11C24.858 11.2011 24.8368 11.4124 24.75 11.6L22.36 17.26C22.2397 17.542 21.9828 17.7422 21.68 17.79L13.13 19.23C12.4507 19.3469 11.8008 18.9048 11.66 18.23L11.23 15.91C11.1306 15.3577 10.6023 14.9906 10.05 15.09C9.49772 15.1894 9.13059 15.7177 9.23 16.27L9.66 18.57C9.82719 19.5385 10.4224 20.3799 11.28 20.86C11.0741 21.5198 11.1204 22.2324 11.41 22.86C12.0564 24.1977 13.4247 25.0343 14.91 25H21C21.5523 25 22 24.5523 22 24C22 23.4477 21.5523 23 21 23H14.91C14.2127 23.0145 13.5698 22.6248 13.26 22C13.1352 21.7515 13.1352 21.4585 13.26 21.21H13.44L22 19.78C22.9777 19.6156 23.8037 18.9631 24.19 18.05L26.58 12.39ZM16 27.5C16 28.3284 15.3284 29 14.5 29C13.6716 29 13 28.3284 13 27.5C13 26.6716 13.6716 26 14.5 26C15.3284 26 16 26.6716 16 27.5ZM22 27.5C22 28.3284 21.3284 29 20.5 29C19.6716 29 19 28.3284 19 27.5C19 26.6716 19.6716 26 20.5 26C21.3284 26 22 26.6716 22 27.5ZM16.5 14H4.5C4.22386 14 4 13.7761 4 13.5C4 13.2239 4.22386 13 4.5 13H16.5C16.7761 13 17 13.2239 17 13.5C17 13.7761 16.7761 14 16.5 14ZM7 16.5C7 16.2239 6.77614 16 6.5 16H2.5C2.22386 16 2 16.2239 2 16.5C2 16.7761 2.22386 17 2.5 17H6.5C6.77614 17 7 16.7761 7 16.5Z" fill="#00005E"/>
</svg>
