<svg width="32" height="32" viewBox="0 0 32 32" fill="none" xmlns="http://www.w3.org/2000/svg">
<path fill-rule="evenodd" clip-rule="evenodd" d="M14 25C14.5523 25 15 25.4477 15 26C15 26.5523 14.5523 27 14 27H9.75C7.68283 27 6.00551 25.3272 6 23.26V7.74C6.00551 5.67284 7.68283 3.99998 9.75 3.99998H18C18.2658 3.99846 18.5213 4.10281 18.71 4.29L23.71 9.29C23.8972 9.47872 24.0015 9.7342 24 10V12C24 12.5523 23.5523 13 23 13C22.4477 13 22 12.5523 22 12V11H17.5C17.2239 11 17 10.7761 17 10.5V6H9.75C8.78739 5.99998 8.0055 6.77741 8 7.74V23.26C8.0055 24.2226 8.78739 25 9.75 25H14ZM21.59 10L18 6.41V10H21.59ZM10.5 11C10.2239 11 10 10.7761 10 10.5C10 10.2238 10.2239 9.99998 10.5 9.99998H13.5C13.7761 9.99998 14 10.2238 14 10.5C14 10.7761 13.7761 11 13.5 11H10.5ZM23 26.8382C24.655 26.8382 25.685 26.3522 26 26.0972V24.2692C25.266 24.7112 24.215 24.9842 23 24.9842C21.785 24.9842 20.734 24.7112 20 24.2692V26.0972C20.315 26.3522 21.345 26.8382 23 26.8382ZM20 21.7832V22.9402C20.282 23.4362 21.369 23.9842 23 23.9842C24.631 23.9842 25.718 23.4362 26 22.9402V21.7832C25.266 22.2262 24.215 22.4992 23 22.4992C21.785 22.4992 20.734 22.2262 20 21.7832ZM23 19.9332C21.799 19.9332 20.733 19.6622 20 19.2432V20.4542C20.282 20.9502 21.369 21.4992 23 21.4992C24.631 21.4992 25.718 20.9502 26 20.4542V19.2432C25.267 19.6622 24.201 19.9332 23 19.9332ZM23 16.9332C21.064 16.9332 20 17.6842 20 17.9332C20 18.1822 21.064 18.9332 23 18.9332C24.936 18.9332 26 18.1822 26 17.9332C26 17.6842 24.936 16.9332 23 16.9332ZM23 14.8382C25.762 14.8382 28 15.9572 28 17.3382V26.3382C28 27.7192 25.762 28.8382 23 28.8382C20.238 28.8382 18 27.7192 18 26.3382V17.3382C18 15.9572 20.238 14.8382 23 14.8382ZM16.5 15C16.7761 15 17 14.7761 17 14.5C17 14.2238 16.7761 14 16.5 14H10.5C10.2239 14 10 14.2238 10 14.5C10 14.7761 10.2239 15 10.5 15H16.5ZM10.5 18H13.5C13.7761 18 14 18.2238 14 18.5C14 18.7761 13.7761 19 13.5 19H10.5C10.2239 19 10 18.7761 10 18.5C10 18.2238 10.2239 18 10.5 18Z" fill="#00005E"/>
</svg>
