<svg width="32" height="32" viewBox="0 0 32 32" fill="none" xmlns="http://www.w3.org/2000/svg">
<path fill-rule="evenodd" clip-rule="evenodd" d="M19.71 4.3C19.5229 4.10914 19.2672 4.00111 19 4H10.11C8.39239 4 7 5.39239 7 7.11V24.89C7 26.6076 8.39239 28 10.11 28H21.89C23.6076 28 25 26.6076 25 24.89V10.12C24.9989 9.85766 24.8947 9.60626 24.71 9.42L19.71 4.3ZM19 6.47L22.51 10H19V6.47ZM21.89 26C22.503 26 23 25.503 23 24.89V11H18.5C18.2239 11 18 10.7761 18 10.5V6H10.11C9.49696 6 9 6.49696 9 7.11V24.89C9 25.503 9.49696 26 10.11 26H21.89ZM11 11.5C11 11.7761 11.2239 12 11.5 12H15.5C15.7761 12 16 11.7761 16 11.5C16 11.2239 15.7761 11 15.5 11H11.5C11.2239 11 11 11.2239 11 11.5ZM19.5 15C19.7761 15 20 15.2239 20 15.5C20 15.7761 19.7761 16 19.5 16H11.5C11.2239 16 11 15.7761 11 15.5C11 15.2239 11.2239 15 11.5 15H19.5ZM16 19.5C16 19.2239 15.7761 19 15.5 19H11.5C11.2239 19 11 19.2239 11 19.5C11 19.7761 11.2239 20 11.5 20H15.5C15.7761 20 16 19.7761 16 19.5Z" fill="#00005E"/>
</svg>
