<svg width="24" height="24" viewBox="0 0 24 24" fill="none" xmlns="http://www.w3.org/2000/svg">
<g clip-path="url(#clip0_12120_25192)">
<path fill-rule="evenodd" clip-rule="evenodd" d="M17.71 0.3C17.5229 0.109144 17.2672 0.00110942 17 0H8.11C6.39239 0 5 1.39239 5 3.11V10C5 10.5523 5.44772 11 6 11C6.55228 11 7 10.5523 7 10V3.11C7 2.49696 7.49696 2 8.11 2H16V6.5C16 6.77614 16.2239 7 16.5 7H21V20.89C21 21.503 20.503 22 19.89 22H8.11C7.49696 22 7 21.503 7 20.89V20C7 19.4477 6.55228 19 6 19C5.44772 19 5 19.4477 5 20V20.89C5 22.6076 6.39239 24 8.11 24H19.89C21.6076 24 23 22.6076 23 20.89V6.12C22.9989 5.85766 22.8947 5.60626 22.71 5.42L17.71 0.3ZM17 2.46997L20.51 5.99997H17V2.46997ZM2 16.5C2 16.2239 2.22386 16 2.5 16H12.5C12.7761 16 13 16.2239 13 16.5C13 16.7761 12.7761 17 12.5 17H2.5C2.22386 17 2 16.7761 2 16.5ZM0.5 13C0.223858 13 0 13.2239 0 13.5C0 13.7761 0.223858 14 0.5 14H13.5C13.7761 14 14 13.7761 14 13.5C14 13.2239 13.7761 13 13.5 13H0.5Z" fill="#00005E"/>
</g>
<defs>
<clipPath id="clip0_12120_25192">
<rect width="24" height="24" fill="white"/>
</clipPath>
</defs>
</svg>
