<svg width="32" height="32" viewBox="0 0 32 32" fill="none" xmlns="http://www.w3.org/2000/svg">
<path fill-rule="evenodd" clip-rule="evenodd" d="M13.9713 8.838L12.6133 5.35C13.0553 5.577 13.5903 5.949 14.1943 6.553C14.5693 6.928 15.2333 6.928 15.6083 6.553C16.1933 5.968 16.7273 5.604 17.1773 5.378L15.8313 8.838H13.9713ZM15.9283 27.838C16.4813 27.838 16.9283 27.391 16.9283 26.838C16.9283 26.285 16.4813 25.838 15.9283 25.838H8.2373C8.1103 25.838 7.0003 25.815 7.0003 24.998C7.0003 24.534 7.2683 24.118 7.7003 23.91C7.8193 23.853 7.9193 23.772 8.0043 23.678H10.6423C10.9193 23.678 11.1423 23.454 11.1423 23.178C11.1423 22.902 10.9193 22.678 10.6423 22.678H8.2183C8.1713 22.456 8.1193 21.941 8.1193 21.657V15.747C8.1193 13.04 10.3443 10.838 13.0813 10.838H13.2883H16.5143H16.8183C18.5983 10.838 20.2523 11.789 21.1333 13.321C21.4083 13.799 22.0193 13.965 22.4993 13.688C22.9773 13.412 23.1423 12.801 22.8663 12.323C21.8173 10.5 19.9883 9.273 17.9373 8.939L19.7053 4.398C19.8133 4.121 19.7923 3.811 19.6483 3.55C19.5043 3.29 19.2513 3.108 18.9593 3.053C18.7523 3.012 17.0283 2.756 14.9043 4.494C12.6453 2.619 10.9583 3.017 10.7553 3.074C10.4843 3.151 10.2573 3.338 10.1323 3.59C10.0073 3.842 9.9943 4.136 10.0963 4.399L11.8693 8.95C8.6073 9.522 6.1193 12.349 6.1193 15.747V21.657C6.1193 21.868 6.1383 22.199 6.1743 22.526C5.4363 23.127 5.0003 24.022 5.0003 24.998C5.0003 26.644 6.3613 27.838 8.2373 27.838H15.9283ZM27 26.0972C26.685 26.3522 25.655 26.8382 24 26.8382C22.345 26.8382 21.315 26.3522 21 26.0972V24.2692C21.734 24.7112 22.785 24.9842 24 24.9842C25.215 24.9842 26.266 24.7112 27 24.2692V26.0972ZM21 22.9402V21.7832C21.734 22.2262 22.785 22.4992 24 22.4992C25.215 22.4992 26.266 22.2262 27 21.7832V22.9402C26.718 23.4362 25.631 23.9842 24 23.9842C22.369 23.9842 21.282 23.4362 21 22.9402ZM21 19.2432C21.733 19.6622 22.799 19.9332 24 19.9332C25.201 19.9332 26.267 19.6622 27 19.2432V20.4542C26.718 20.9502 25.631 21.4992 24 21.4992C22.369 21.4992 21.282 20.9502 21 20.4542V19.2432ZM21 17.9332C21 17.6842 22.064 16.9332 24 16.9332C25.936 16.9332 27 17.6842 27 17.9332C27 18.1822 25.936 18.9332 24 18.9332C22.064 18.9332 21 18.1822 21 17.9332ZM29 17.3382C29 15.9572 26.762 14.8382 24 14.8382C21.238 14.8382 19 15.9572 19 17.3382V26.3382C19 27.7192 21.238 28.8382 24 28.8382C26.762 28.8382 29 27.7192 29 26.3382V17.3382Z" fill="#00005E"/>
</svg>
