<svg width="32" height="32" viewBox="0 0 32 32" fill="none" xmlns="http://www.w3.org/2000/svg">
<path fill-rule="evenodd" clip-rule="evenodd" d="M15.0868 3.99976C12.6168 3.99976 10.5978 6.00976 10.5978 8.49976C10.5978 10.9898 12.6168 12.9778 15.0868 12.9778C17.5568 12.9778 19.5758 10.9598 19.5758 8.47776C19.5758 5.99476 17.5568 3.99976 15.0868 3.99976ZM16.2534 6.28894C17.0397 6.70576 17.5758 7.53027 17.5758 8.47776C17.5758 9.85576 16.4598 10.9778 15.0868 10.9778C14.1407 10.9778 13.3167 10.4498 12.8957 9.67452C14.4713 9.0633 15.7031 7.83137 16.2534 6.28894ZM15.2914 6.00804C14.8391 7.22365 13.8618 8.20419 12.607 8.71329C12.6009 8.6429 12.5978 8.57168 12.5978 8.49976C12.5978 7.12176 13.7138 5.99976 15.0868 5.99976C15.1557 5.99976 15.2239 6.00255 15.2914 6.00804ZM25 20.0001C25 20.5523 24.5523 21.0001 24 21.0001C23.4477 21.0001 23 20.5523 23 20.0001C23 19.4478 23.4477 19.0001 24 19.0001C24.5523 19.0001 25 19.4478 25 20.0001ZM23.1556 17.1133C22.2809 15.252 20.3966 14.0001 18.2372 14.0001H12.4292L12.2026 14.0047C9.34756 14.121 7.08503 16.4252 7.00165 19.2354C6.97665 20.0845 7.20366 20.935 7.62945 21.7695L8.47923 23.4371L8.60275 23.6682C9.75297 25.7197 11.9332 27.0001 14.3072 27.0001H16.7141L16.714 27.0828C16.714 27.5887 17.135 28.0001 17.655 28.0001H19.247C19.503 28.0001 19.712 27.8002 19.717 27.5507L19.733 26.7582L20.562 26.7348C20.813 26.728 21.015 26.5311 21.019 26.2865L21.036 25.4803L21.864 25.4589C22.115 25.4521 22.316 25.2542 22.321 25.0095L22.337 24.2375C22.337 24.2346 22.339 24.2327 22.341 24.2327C22.342 24.2327 22.343 24.2327 22.343 24.2336C22.894 24.5056 23.497 24.643 24.1 24.643C25.398 24.643 26.697 24.0094 27.473 22.7442C28.2 21.5589 28.185 20.0227 27.441 18.8472C26.661 17.6161 25.38 17.0001 24.099 17.0001C23.782 17.0001 23.465 17.0378 23.1556 17.1133ZM16.7882 25.0001H14.3072L14.085 24.9947C12.462 24.9159 10.9989 23.9785 10.2614 22.5295L9.4112 20.861L9.31159 20.654C9.09486 20.1739 8.98836 19.7164 9.00078 19.2945C9.05449 17.484 10.5573 16.0001 12.4292 16.0001H18.2372L18.4357 16.0056C19.7596 16.0802 20.8902 16.8963 21.3937 18.0712C21.377 18.087 21.3605 18.1029 21.344 18.1191C20.39 19.0538 20.035 20.3542 20.277 21.5628L16.853 24.9199C16.8283 24.9445 16.8066 24.9714 16.7882 25.0001ZM17.7162 25.4567L20.986 22.25L21.36 21.8826L21.258 21.3747C21.07 20.439 21.368 19.4788 22.053 18.8063C22.6 18.2701 23.327 17.9748 24.099 17.9748C25.125 17.9748 26.033 18.4797 26.59 19.3589C27.135 20.2206 27.145 21.3786 26.615 22.2442C26.068 23.1351 25.128 23.6683 24.1 23.6683C23.648 23.6683 23.197 23.562 22.806 23.3681L22.586 23.2579H22.341L21.356 23.2628L21.337 24.218L21.331 24.4968L21.008 24.5066L20.054 24.5319L20.036 25.4618L20.029 25.7747L19.706 25.7835L18.753 25.8088L18.733 26.7378L18.727 27.0253H17.714L17.714 27.0001H17.7162V25.4567Z" fill="#00005E"/>
</svg>
