<svg width="32" height="32" viewBox="0 0 32 32" fill="none" xmlns="http://www.w3.org/2000/svg">
<path fill-rule="evenodd" clip-rule="evenodd" d="M29 4C29 3.44772 28.5523 3 28 3H21C20.4477 3 20 3.44772 20 4C20 4.55228 20.4477 5 21 5H25.45L16.45 14.31C16.0623 14.7 16.0623 15.33 16.45 15.72C16.6378 15.9093 16.8934 16.0158 17.16 16.0158C17.4266 16.0158 17.6822 15.9093 17.87 15.72L27 6.27V11C27 11.5523 27.4477 12 28 12C28.5523 12 29 11.5523 29 11V4ZM26 17C26 16.4477 25.5523 16 25 16C24.4477 16 24 16.4477 24 17V22.42C23.9945 23.8426 22.8426 24.9945 21.42 25H9.58C8.15738 24.9945 7.00548 23.8426 7 22.42V10.58C7.00548 9.15738 8.15738 8.00548 9.58 8H16C16.5523 8 17 7.55228 17 7C17 6.44772 16.5523 6 16 6H9.58C7.05054 6 5 8.05054 5 10.58V22.42C5 24.9495 7.05054 27 9.58 27H21.42C23.9495 27 26 24.9495 26 22.42V17Z" fill="#00005E"/>
</svg>
