<svg width="32" height="32" viewBox="0 0 32 32" fill="none" xmlns="http://www.w3.org/2000/svg">
<path fill-rule="evenodd" clip-rule="evenodd" d="M10.8324 10.1676C11.2018 10.5369 11.7932 10.5598 12.19 10.22L15 7.40999V20C15 20.5523 15.4477 21 16 21C16.5523 21 17 20.5523 17 20V7.40999L19.81 10.22C19.9971 10.4108 20.2528 10.5189 20.52 10.52C20.7838 10.5162 21.0354 10.4084 21.22 10.22C21.6077 9.82995 21.6077 9.20003 21.22 8.80999L16.71 4.28999C16.6149 4.19895 16.5028 4.12758 16.38 4.07999C16.1365 3.97997 15.8635 3.97997 15.62 4.07999C15.4972 4.12758 15.3851 4.19895 15.29 4.28999L10.78 8.80999C10.4402 9.20675 10.4631 9.79818 10.8324 10.1676ZM28 21C28 20.4477 27.5523 20 27 20C26.4477 20 26 20.4477 26 21V24.07C25.9945 25.1336 25.1336 25.9945 24.07 26H7.93C6.86636 25.9945 6.00547 25.1336 6 24.07V21C6 20.4477 5.55228 20 5 20C4.44772 20 4 20.4477 4 21V24.07C4 26.2405 5.75952 28 7.93 28H24.07C26.2405 28 28 26.2405 28 24.07V21Z" fill="#00005E"/>
</svg>
