<svg width="32" height="32" viewBox="0 0 32 32" fill="none" xmlns="http://www.w3.org/2000/svg">
<path fill-rule="evenodd" clip-rule="evenodd" d="M24.4698 21.6352C24.1357 21.9599 23.6859 22.138 23.22 22.13H7.79C7.3232 22.138 6.87234 21.9602 6.53663 21.6358C6.20093 21.3113 6.00789 20.8668 6 20.4V13.5H25V16.69H27V11.86C26.9835 9.78731 25.2927 8.11891 23.22 8.12988H7.79C6.79278 8.12201 5.83323 8.51051 5.12246 9.21003C4.41169 9.90955 4.00792 10.8628 4 11.86V20.4C4.00792 21.3972 4.41169 22.3505 5.12246 23.05C5.83323 23.7495 6.79278 24.138 7.79 24.1301H23.22C25.2927 24.1411 26.9835 22.4727 27 20.4H25C24.9947 20.8659 24.8039 21.3105 24.4698 21.6352ZM6.53663 10.6242C6.87234 10.2997 7.3232 10.122 7.79 10.13H23.22C24.1882 10.1189 24.9836 10.8919 25 11.86V12.5H6V11.86C6.00789 11.3932 6.20093 10.9487 6.53663 10.6242ZM29.5 18C29.7761 18 30 18.2239 30 18.5C30 18.7761 29.7761 19 29.5 19H20.5C20.2239 19 20 18.7761 20 18.5C20 18.2239 20.2239 18 20.5 18H29.5ZM32 13.5C32 13.2239 31.7761 13 31.5 13H28.5C28.2239 13 28 13.2239 28 13.5C28 13.7761 28.2239 14 28.5 14H31.5C31.7761 14 32 13.7761 32 13.5ZM15 19.5C15 20.3284 14.3284 21 13.5 21C12.6716 21 12 20.3284 12 19.5C12 18.6716 12.6716 18 13.5 18C14.3284 18 15 18.6716 15 19.5ZM9.5 21C10.3284 21 11 20.3284 11 19.5C11 18.6716 10.3284 18 9.5 18C8.67157 18 8 18.6716 8 19.5C8 20.3284 8.67157 21 9.5 21Z" fill="#00005E"/>
</svg>
