<svg width="32" height="32" viewBox="0 0 32 32" fill="none" xmlns="http://www.w3.org/2000/svg">
<path fill-rule="evenodd" clip-rule="evenodd" d="M28.0001 15C28.0001 14.4477 27.5524 14 27.0001 14C26.4478 14 26.0001 14.4477 26.0001 15V19.52C26.0001 20.443 25.6334 21.3281 24.9808 21.9807C24.3282 22.6334 23.443 23 22.5201 23H9.52009C8.59022 23.0107 7.69476 22.6488 7.03346 21.995C6.37215 21.3412 6.00002 20.4499 6.00009 19.52V13.52C5.9894 12.5901 6.35132 11.6947 7.0051 11.0334C7.65889 10.3721 8.55016 9.99994 9.48009 10H20.7801L19.2901 11.49C19.1008 11.6778 18.9943 11.9334 18.9943 12.2C18.9943 12.4666 19.1008 12.7222 19.2901 12.91C19.4779 13.0993 19.7334 13.2058 20.0001 13.2058C20.2667 13.2058 20.5223 13.0993 20.7101 12.91L24.0001 9.66C24.1894 9.47223 24.2959 9.21664 24.2959 8.95C24.2959 8.68336 24.1894 8.42777 24.0001 8.24L20.7101 5C20.318 4.60788 19.6822 4.60788 19.2901 5C18.898 5.39212 18.898 6.02788 19.2901 6.42L20.8901 8H9.48009C6.45585 8.00551 4.00559 10.4558 4 13.48V19.48C3.99211 20.9395 4.56562 22.3421 5.5939 23.3779C6.62217 24.4137 8.02057 24.9974 9.48009 25.0001H22.4801C23.9396 25.008 25.3422 24.4345 26.378 23.4062C27.4138 22.3779 27.9974 20.9795 28.0001 19.52V15ZM11.5001 20H8.50009C8.22394 20 8.00009 20.2239 8.00009 20.5C8.00009 20.7761 8.22394 21 8.50009 21H11.5001C11.7762 21 12.0001 20.7761 12.0001 20.5C12.0001 20.2239 11.7762 20 11.5001 20ZM14.5001 20H17.5001C17.7762 20 18.0001 20.2239 18.0001 20.5C18.0001 20.7761 17.7762 21 17.5001 21H14.5001C14.2239 21 14.0001 20.7761 14.0001 20.5C14.0001 20.2239 14.2239 20 14.5001 20ZM24.0001 20.5C24.0001 20.2239 23.7762 20 23.5001 20H20.5001C20.2239 20 20.0001 20.2239 20.0001 20.5C20.0001 20.7761 20.2239 21 20.5001 21H23.5001C23.7762 21 24.0001 20.7761 24.0001 20.5Z" fill="#00005E"/>
</svg>
