<svg width="32" height="32" viewBox="0 0 32 32" fill="none" xmlns="http://www.w3.org/2000/svg">
<path fill-rule="evenodd" clip-rule="evenodd" d="M26.8775 9.08003C26.1668 8.38051 25.2072 7.99201 24.21 7.99988H8.78C6.70728 7.98891 5.01651 9.65731 5 11.73V16.73H7V13H26V20.27C25.9921 20.7368 25.7991 21.1813 25.4634 21.5058C25.1277 21.8303 24.6768 22.008 24.21 22H8.78C7.8118 22.0111 7.01644 21.2381 7 20.27H5C5.01651 22.3427 6.70728 24.0111 8.78 24.0001H24.21C25.2072 24.008 26.1668 23.6195 26.8775 22.92C27.5883 22.2205 27.9921 21.2672 28 20.27V11.73C27.9921 10.7328 27.5883 9.77955 26.8775 9.08003ZM26 12H7V11.73C7.01644 10.7619 7.8118 9.98886 8.78 10H24.21C24.6768 9.99198 25.1277 10.1698 25.4634 10.4942C25.7991 10.8187 25.9921 11.2632 26 11.73V12ZM12 18.5C12 18.7761 11.7761 19 11.5 19H2.5C2.22386 19 2 18.7761 2 18.5C2 18.2239 2.22386 18 2.5 18H11.5C11.7761 18 12 18.2239 12 18.5ZM3.5 16C3.77614 16 4 15.7761 4 15.5C4 15.2239 3.77614 15 3.5 15H0.5C0.223858 15 0 15.2239 0 15.5C0 15.7761 0.223858 16 0.5 16H3.5ZM20 19.5C20 20.3284 19.3284 21 18.5 21C17.6716 21 17 20.3284 17 19.5C17 18.6716 17.6716 18 18.5 18C19.3284 18 20 18.6716 20 19.5ZM22.5 21C23.3284 21 24 20.3284 24 19.5C24 18.6716 23.3284 18 22.5 18C21.6716 18 21 18.6716 21 19.5C21 20.3284 21.6716 21 22.5 21Z" fill="#00005E"/>
</svg>
