<svg width="25" height="26" viewBox="0 0 25 26" fill="none" xmlns="http://www.w3.org/2000/svg">
<path fill-rule="evenodd" clip-rule="evenodd" d="M10.5023 2.39322C11.3712 1.68104 12.1885 1.31432 12.8635 1.13701C13.2878 1.02557 13.6451 0.991779 13.9103 0.988627C14.0428 0.987053 14.1521 0.993117 14.2352 1.00088C14.2768 1.00476 14.3119 1.00907 14.3401 1.01307C14.3542 1.01508 14.3666 1.017 14.3772 1.01876L14.3919 1.02126L14.3982 1.02239L14.4011 1.02293L14.4025 1.02319C14.4032 1.02332 14.4039 1.02344 14.2192 2.00624L14.4039 1.02344C14.6959 1.07831 14.9483 1.26017 15.0929 1.51975C15.2374 1.77934 15.2591 2.08975 15.1519 2.36687L13.4708 6.715C14.2611 6.85101 15.024 7.12798 15.7225 7.53569C16.747 8.13366 17.5968 8.99165 18.1877 10.0231C18.2475 10.1276 18.5547 10.6645 18.7388 11.0385C22.2575 11.4076 25 14.3835 25 18C25 21.866 21.866 25 18 25C14.134 25 11 21.866 11 18C11 14.6381 13.3701 11.8297 16.5305 11.1545C16.5046 11.1088 16.4785 11.063 16.4523 11.0173C16.0347 10.2884 15.4352 9.68374 14.7143 9.26299C13.9939 8.8425 13.1772 8.62021 12.3458 8.61773H8.74661C8.12817 8.61142 7.51443 8.72828 6.94056 8.96187C6.36668 9.19547 5.84375 9.54127 5.40201 9.97977C4.96027 10.4183 4.60844 10.9409 4.36714 11.5177C4.12613 12.0938 4.00021 12.7125 3.9968 13.3382V19.0492C3.99975 19.3765 4.03199 19.7027 4.09308 20.0239H6.4144C6.69054 20.0239 6.9144 20.2478 6.9144 20.5239C6.9144 20.8001 6.69054 21.0239 6.4144 21.0239H3.88835C3.8011 21.1222 3.69344 21.2043 3.56885 21.2634C3.37682 21.3543 3.2133 21.499 3.09824 21.6816C2.98629 21.8593 2.92502 22.0653 2.92174 22.2768C2.93405 22.5091 3.03093 22.6748 3.19622 22.8028C3.38324 22.9476 3.69363 23.0651 4.1104 23.0651H10.5328C11.0851 23.0651 11.5328 23.5128 11.5328 24.0651C11.5328 24.6174 11.0851 25.0651 10.5328 25.0651H4.1104C2.59457 25.0651 0.985979 24.1611 0.922206 22.3294C0.921802 22.3178 0.9216 22.3061 0.9216 22.2945C0.921634 21.7004 1.08943 21.1181 1.40612 20.6154C1.58149 20.3371 1.7986 20.0895 2.04861 19.8807C2.01641 19.6091 1.9991 19.3357 1.99683 19.0618L1.99677 19.0535L1.9968 13.3306C2.0012 12.4428 2.17965 11.5644 2.52207 10.7459C2.86449 9.92733 3.36425 9.18453 3.993 8.56037C4.62177 7.9362 5.36716 7.44299 6.18653 7.10946C6.62158 6.93237 7.07287 6.80218 7.53284 6.72036L5.8289 2.37102C5.72605 2.1085 5.7388 1.81477 5.86401 1.56216C5.98922 1.30954 6.21525 1.12152 6.48643 1.04439L6.75999 2.00624C6.48643 1.04439 6.48722 1.04417 6.48801 1.04394L6.48963 1.04349L6.49299 1.04255L6.50017 1.04058L6.51644 1.0363C6.52812 1.03331 6.54147 1.03006 6.55647 1.02665C6.58646 1.01983 6.62303 1.01239 6.66591 1.00519C6.75169 0.990792 6.86271 0.977349 6.99676 0.971743C7.26579 0.960493 7.62373 0.98099 8.05203 1.08558C8.74282 1.25428 9.58022 1.63248 10.5023 2.39322ZM8.35578 3.3381L9.64063 6.6177H11.3641L12.6201 3.36912C12.2132 3.5831 11.7355 3.91888 11.2188 4.44703C11.0318 4.63818 10.7761 4.74648 10.5086 4.74772C10.2412 4.74896 9.98447 4.64305 9.7957 4.45365C9.24578 3.90187 8.7589 3.55558 8.35578 3.3381ZM20.2 15.58C20.3944 15.4283 20.6704 15.4411 20.85 15.61C21.0406 15.8044 21.0406 16.1156 20.85 16.31L16.85 20.06L15.29 18.5C15.1632 18.3731 15.1136 18.1883 15.1601 18.015C15.2065 17.8418 15.3418 17.7065 15.5151 17.66C15.6883 17.6136 15.8732 17.6631 16 17.79L16.89 18.67L20.2 15.58ZM18 23C20.7614 23 23 20.7614 23 18C23 15.2386 20.7614 13 18 13C15.2386 13 13 15.2386 13 18C13 20.7614 15.2386 23 18 23Z" fill="#00005E"/>
</svg>
