<svg width="32" height="32" viewBox="0 0 32 32" fill="none" xmlns="http://www.w3.org/2000/svg">
<path fill-rule="evenodd" clip-rule="evenodd" d="M28.5666 8.97661C28.1045 8.14257 27.3279 7.52804 26.41 7.26999L18.57 5.04999C17.6799 4.80483 16.7294 4.91602 15.92 5.35999C15.4867 5.12609 15.0024 5.00245 14.51 4.99999C14.229 4.99985 13.9494 5.04027 13.68 5.11999L5.13999 7.58999C3.58566 8.0713 2.69836 9.70393 3.13999 11.27L7.24999 25.51C7.62741 26.7715 8.7833 27.6394 10.1 27.65C10.378 27.6543 10.6549 27.6137 10.92 27.53L17 25.78C17.3 25.88 17.59 25.98 17.92 26.11L17.9429 26.1188L17.943 26.1188C18.6194 26.3774 19.475 26.7046 20.8 27.11C21.7085 27.3745 22.685 27.2643 23.5117 26.804C24.3384 26.3437 24.9464 25.5716 25.2 24.66L28.87 11.71C29.1379 10.7949 29.0287 9.81066 28.5666 8.97661ZM18.9 23.14L10.41 25.61C10.3206 25.6246 10.2294 25.6246 10.14 25.61C9.71213 25.5997 9.33826 25.3183 9.20999 24.91L4.99999 10.71C4.86859 10.1985 5.15762 9.67295 5.65999 9.50999L14.24 6.99999C14.3293 6.9847 14.4206 6.9847 14.51 6.99999C14.9341 7.01447 15.3029 7.29508 15.43 7.69999L19.56 21.94C19.6914 22.4515 19.4023 22.977 18.9 23.14ZM26.94 11.13C27.1711 10.2992 26.6889 9.43758 25.86 9.19999L18 6.99999C17.7637 6.94031 17.5163 6.94031 17.28 6.99999C17.3093 7.04511 17.336 7.09185 17.36 7.13999L21.48 21.38C21.8493 22.693 21.2865 24.0899 20.11 24.78C20.46 24.9 20.86 25.02 21.34 25.16C22.17 25.3853 23.0278 24.9053 23.27 24.08L26.94 11.13ZM12.2325 14.4034C12.2968 14.2785 12.3068 14.1325 12.26 14C12.1782 13.7385 11.9044 13.5884 11.64 13.66L7.84999 14.76C7.57384 14.7987 7.38133 15.0539 7.41999 15.33C7.45865 15.6061 7.71384 15.7987 7.98999 15.76H8.12999L11.92 14.66C12.0551 14.6212 12.1681 14.5283 12.2325 14.4034ZM12.57 16.86V16.9C12.7486 16.85 12.9404 16.8991 13.073 17.0288C13.2056 17.1584 13.259 17.349 13.213 17.5288C13.167 17.7085 13.0286 17.85 12.85 17.9L9.05999 19H8.91999C8.64385 19.0387 8.38865 18.8461 8.34999 18.57C8.31133 18.2939 8.50385 18.0387 8.77999 18L12.57 16.86ZM15.806 16.049C15.6892 15.9812 15.55 15.9635 15.42 16L14.65 16.22C14.3849 16.2973 14.2327 16.5749 14.31 16.84C14.3692 17.0554 14.5666 17.2034 14.79 17.2H14.93L15.69 16.98C15.9555 16.9024 16.1107 16.6274 16.04 16.36C16.0072 16.229 15.9228 16.1168 15.806 16.049Z" fill="#00005E"/>
</svg>
