<svg width="32" height="32" viewBox="0 0 32 32" fill="none" xmlns="http://www.w3.org/2000/svg">
<path fill-rule="evenodd" clip-rule="evenodd" d="M24.9996 11V24.813C24.9996 24.89 24.8866 25 24.6826 25L7.28863 24.912C7.11963 24.91 6.99963 24.804 6.99963 24.708V7.203C6.99963 7.118 7.11763 7 7.30863 7H20.9996V10.5C20.9996 10.776 21.2236 11 21.4996 11H24.9996ZM21.9996 7.409L24.5146 10H21.9996V7.409ZM26.7176 9.398L22.7446 5.304C22.5556 5.109 22.2966 5 22.0266 5H7.30863C6.03363 5 4.99963 5.986 4.99963 7.203V24.708C4.99963 25.919 6.01663 26.903 7.27663 26.911L24.6726 27H24.6916H24.7096C25.9736 27 26.9996 26.021 26.9996 24.813V10.095C26.9996 9.835 26.8986 9.585 26.7176 9.398ZM12.4315 10.724C12.3585 10.516 12.2585 10.506 12.2165 10.502C12.2085 10.501 12.1985 10.5 12.1895 10.5C12.0385 10.5 11.8195 10.611 11.7015 10.809C11.5965 10.982 11.6085 11.159 11.7355 11.348C11.7365 11.3495 11.7375 11.351 11.7386 11.3525C11.7419 11.3574 11.7455 11.3627 11.7485 11.368C12.1175 11.979 12.5365 12.558 13.0005 13.099C12.8185 12.02 12.5875 11.165 12.4315 10.724ZM14.2065 17.789C14.8195 17.465 15.4545 17.181 16.1075 16.939C15.4645 16.57 14.8505 16.155 14.2725 15.698C14.2935 16.381 14.2755 17.085 14.2065 17.789ZM22.4525 17.307C22.3545 17.091 22.1265 16.961 21.8075 16.939C20.8645 16.927 19.9365 17.013 19.0275 17.175C19.9855 17.509 20.9865 17.743 22.0135 17.869C22.2145 17.899 22.3495 17.865 22.4265 17.765C22.5145 17.649 22.5245 17.465 22.4525 17.307ZM10.8905 22.487C11.0195 22.515 11.3465 22.532 11.6175 22.214C12.1565 21.515 12.5375 20.711 12.7955 19.857C12.0295 20.429 11.3175 21.079 10.6745 21.8C10.5945 21.894 10.4595 22.081 10.5125 22.231C10.5535 22.351 10.7065 22.454 10.8905 22.487ZM14.0245 19.036C13.7555 20.409 13.2515 21.733 12.3945 22.843C12.0335 23.271 11.5415 23.5 11.0275 23.5C10.9215 23.5 10.8155 23.491 10.7095 23.471C10.1675 23.371 9.73053 23.023 9.56853 22.563C9.47453 22.294 9.39453 21.752 9.92353 21.141C10.8635 20.085 11.9405 19.174 13.1185 18.422C13.3085 17.191 13.3065 15.927 13.2105 14.774C12.3185 13.92 11.5385 12.954 10.8985 11.896C10.5655 11.393 10.5435 10.795 10.8435 10.295C11.1545 9.774 11.7645 9.442 12.3165 9.507C12.8085 9.556 13.1945 9.879 13.3755 10.392C13.6455 11.158 14.0085 12.604 14.1815 14.313C15.1495 15.189 16.2475 15.931 17.4365 16.513C18.8515 16.125 20.3355 15.93 21.8445 15.94C22.5665 15.988 23.1095 16.335 23.3635 16.893C23.5855 17.384 23.5315 17.964 23.2225 18.37C22.9195 18.769 22.4275 18.945 21.8755 18.859C20.2915 18.666 18.7625 18.227 17.3445 17.576C16.1775 17.927 15.0625 18.417 14.0245 19.036Z" fill="#00005E"/>
</svg>
