<svg width="32" height="32" viewBox="0 0 32 32" fill="none" xmlns="http://www.w3.org/2000/svg">
<path fill-rule="evenodd" clip-rule="evenodd" d="M14 25C14.5523 25 15 25.4477 15 26C15 26.5523 14.5523 27 14 27H9.75C7.68283 27 6.00551 25.3271 6 23.26V7.73998C6.00551 5.67282 7.68283 3.99997 9.75 3.99997H18C18.2658 3.99845 18.5213 4.1028 18.71 4.28998L23.71 9.28998C23.8972 9.4787 24.0015 9.73418 24 9.99998V12C24 12.5523 23.5523 13 23 13C22.4477 13 22 12.5523 22 12V11H17.5C17.2239 11 17 10.7761 17 10.5V5.99998H9.75C8.78739 5.99997 8.0055 6.77739 8 7.73998V23.26C8.0055 24.2226 8.78739 25 9.75 25H14ZM21.59 9.99998L18 6.40998V9.99998H21.59ZM10 10.5C10 10.7761 10.2239 11 10.5 11H13.5C13.7761 11 14 10.7761 14 10.5C14 10.2238 13.7761 9.99997 13.5 9.99997H10.5C10.2239 9.99997 10 10.2238 10 10.5ZM16.5 15C16.7761 15 17 14.7761 17 14.5C17 14.2238 16.7761 14 16.5 14H10.5C10.2239 14 10 14.2238 10 14.5C10 14.7761 10.2239 15 10.5 15H16.5ZM10.5 18H13.5C13.7761 18 14 18.2238 14 18.5C14 18.7761 13.7761 19 13.5 19H10.5C10.2239 19 10 18.7761 10 18.5C10 18.2238 10.2239 18 10.5 18ZM22.92 21.65C23.0139 21.5553 23.1417 21.5021 23.275 21.5021C23.4083 21.5021 23.5361 21.5553 23.63 21.65C23.7267 21.7407 23.7815 21.8674 23.7815 22C23.7815 22.1326 23.7267 22.2592 23.63 22.35L22.35 23.63C22.2593 23.7266 22.1326 23.7815 22 23.7815C21.8674 23.7815 21.7407 23.7266 21.65 23.63C21.5553 23.5361 21.5021 23.4083 21.5021 23.275C21.5021 23.1416 21.5553 23.0138 21.65 22.92L22.92 21.65ZM22.5 17C25.7052 17.268 28.1289 20.0157 27.9948 23.2293C27.8606 26.4429 25.2164 28.9791 22 28.9791C18.7836 28.9791 16.1394 26.4429 16.0052 23.2293C15.8711 20.0157 18.2948 17.268 21.5 17V16H21C20.4477 16 20 15.5523 20 15C20 14.4477 20.4477 14 21 14H23C23.5523 14 24 14.4477 24 15C24 15.5523 23.5523 16 23 16H22.5V17ZM22 27C24.2091 27 26 25.2091 26 23C26 20.7908 24.2091 19 22 19C19.7909 19 18 20.7908 18 23C18 25.2091 19.7909 27 22 27Z" fill="#00005E"/>
</svg>
