<svg width="32" height="32" viewBox="0 0 32 32" fill="none" xmlns="http://www.w3.org/2000/svg">
<path fill-rule="evenodd" clip-rule="evenodd" d="M27.43 18.28C28.087 17.2682 28.1886 15.993 27.7 14.89C27.4247 14.2511 26.9468 13.7205 26.34 13.38C25.8339 13.0846 25.2651 12.9132 24.68 12.88C24.765 12.1592 24.765 11.4308 24.68 10.71C24.1891 6.64271 20.9621 3.44892 16.89 3.00001C14.4368 2.73996 11.99 3.54466 10.17 5.21001C8.31665 6.89147 7.25979 9.27757 7.26 11.78C7.25975 12.1342 7.27979 12.4881 7.32 12.84C6.73727 12.8686 6.17056 13.0403 5.67 13.34C5.05136 13.6871 4.56848 14.2334 4.3 14.89C3.8144 15.9947 3.91973 17.27 4.58 18.28C5.01954 18.9455 5.67725 19.437 6.44 19.67V22.39C6.44254 23.9086 7.51207 25.2163 9 25.52V28C9 28.5523 9.44771 29 10 29C10.5523 29 11 28.5523 11 28V25.59H21V28C21 28.5523 21.4477 29 22 29C22.5523 29 23 28.5523 23 28V25.52C24.4919 25.2204 25.5665 23.9117 25.57 22.39V19.67C26.3327 19.437 26.9905 18.9455 27.43 18.28ZM9.26 11.82C9.25878 9.88488 10.0761 8.03951 11.51 6.74001C12.9069 5.44348 14.7936 4.80972 16.69 5.00001C19.8209 5.35081 22.3025 7.80342 22.69 10.93C22.81 11.9181 22.718 12.9203 22.42 13.87L21.66 16.29C21.3963 16.9376 21.1888 17.6068 21.04 18.29C20.3143 17.4359 19.2508 16.9425 18.13 16.94H13.87C12.8241 16.9375 11.8228 17.364 11.1 18.12C10.888 17.4538 10.6169 16.8079 10.29 16.19L9.58 13.9C9.36912 13.2268 9.26124 12.5255 9.26 11.82ZM11.01 20.74L11 21H21V20.77C21.008 20.0046 20.7089 19.2679 20.1695 18.7247C19.6301 18.1815 18.8955 17.8773 18.13 17.88H13.87C12.2905 17.88 11.01 19.1605 11.01 20.74ZM25.75 17.17V17.14C25.4891 17.5443 25.0412 17.789 24.56 17.79H23.56V22.36C23.5545 23.0244 23.0144 23.56 22.35 23.56H9.65C8.98562 23.56 8.44549 23.0244 8.44 22.36V17.82H7.44C6.95882 17.819 6.51092 17.5743 6.25 17.17C5.95245 16.7233 5.91438 16.1522 6.15 15.67C6.25063 15.4335 6.42634 15.2367 6.65 15.11C6.88968 14.9679 7.16147 14.8887 7.44 14.88C7.68536 14.8851 7.92572 14.9504 8.14 15.07L8.63 15.35C9.4127 16.4539 9.98869 17.6906 10.33 19H10.49C10.1821 19.5401 10.0137 20.1485 10 20.77V22H22V20.77C21.9824 20.3714 21.9221 19.9758 21.82 19.59C22.013 18.1395 22.4778 16.7383 23.19 15.46L23.87 15.07C24.3287 14.7953 24.9013 14.7953 25.36 15.07C25.5849 15.1904 25.7615 15.3847 25.86 15.62C26.1124 16.1173 26.0701 16.7133 25.75 17.17Z" fill="#00005E"/>
</svg>
