<svg width="32" height="32" viewBox="0 0 32 32" fill="none" xmlns="http://www.w3.org/2000/svg">
<path fill-rule="evenodd" clip-rule="evenodd" d="M26 10C27.2741 10.0181 28.3977 10.8391 28.8022 12.0475C29.2066 13.2558 28.8036 14.5878 27.7972 15.3692C26.7908 16.1507 25.4005 16.2112 24.33 15.52L21.49 18.36C22.3661 19.6595 22.0942 21.4144 20.866 22.388C19.6378 23.3615 17.8672 23.2256 16.802 22.076C15.7367 20.9264 15.7359 19.1506 16.8 18L14.44 15.62C13.9996 15.8657 13.5043 15.9964 13 16C12.3883 15.9985 11.7916 15.8101 11.29 15.46L8.46001 18.29C8.81015 18.7916 8.99857 19.3883 9.00001 20C9.00441 21.3876 8.05665 22.5971 6.7083 22.9247C5.35995 23.2523 3.96288 22.6124 3.33012 21.3775C2.69736 20.1426 2.99404 18.6349 4.04751 17.7318C5.10098 16.8288 6.63631 16.766 7.76001 17.58L10.58 14.77C9.64685 13.4986 9.85744 11.7217 11.0619 10.7037C12.2664 9.68563 14.0536 9.77402 15.1517 10.906C16.2499 12.0379 16.2841 13.8269 15.23 15L17.6 17.36C18.6221 16.8023 19.877 16.9004 20.8 17.61L23.61 14.8C22.9293 13.8924 22.8188 12.6784 23.3245 11.6628C23.8302 10.6472 24.8655 10.0038 26 10ZM6.00001 21C6.5523 21 7.00001 20.5523 7.00001 20C7.00001 19.4477 6.5523 19 6.00001 19C5.44773 19 5.00001 19.4477 5.00001 20C5.00001 20.5523 5.44773 21 6.00001 21ZM13 14C12.4477 14 12 13.5523 12 13C12 12.4477 12.4477 12 13 12C13.5523 12 14 12.4477 14 13C14 13.5523 13.5523 14 13 14ZM19 21C19.5523 21 20 20.5523 20 20C20 19.4477 19.5523 19 19 19C18.4477 19 18 19.4477 18 20C18 20.5523 18.4477 21 19 21ZM27 13C27 13.5523 26.5523 14 26 14C25.4477 14 25 13.5523 25 13C25 12.4477 25.4477 12 26 12C26.5523 12 27 12.4477 27 13Z" fill="#00005E"/>
</svg>
