<svg width="32" height="32" viewBox="0 0 32 32" fill="none" xmlns="http://www.w3.org/2000/svg">
<path fill-rule="evenodd" clip-rule="evenodd" d="M23 21H9.19598C6.79498 21 4.58598 19.398 4.10698 17.046C3.45198 13.834 5.90098 11 8.99998 11H22.804C25.205 11 27.414 12.602 27.893 14.954C28.548 18.166 26.099 21 23 21ZM23 9H9.26598C5.68698 9 2.48498 11.57 2.05298 15.123C1.53698 19.381 4.84598 23 8.99998 23H22.734C26.313 23 29.515 20.43 29.947 16.877C30.464 12.619 27.154 9 23 9ZM18.4682 14.5693C17.6402 14.5693 16.9682 15.2413 16.9682 16.0693C16.9682 16.8983 17.6402 17.5693 18.4682 17.5693C19.2972 17.5693 19.9682 16.8983 19.9682 16.0693C19.9682 15.2413 19.2972 14.5693 18.4682 14.5693ZM21.9682 16.0693C21.9682 15.2413 22.6402 14.5693 23.4682 14.5693C24.2972 14.5693 24.9682 15.2413 24.9682 16.0693C24.9682 16.8983 24.2972 17.5693 23.4682 17.5693C22.6402 17.5693 21.9682 16.8983 21.9682 16.0693ZM13.4682 14.5693C12.6402 14.5693 11.9682 15.2413 11.9682 16.0693C11.9682 16.8983 12.6402 17.5693 13.4682 17.5693C14.2972 17.5693 14.9682 16.8983 14.9682 16.0693C14.9682 15.2413 14.2972 14.5693 13.4682 14.5693ZM6.96818 16.0693C6.96818 15.2413 7.64018 14.5693 8.46818 14.5693C9.29718 14.5693 9.96818 15.2413 9.96818 16.0693C9.96818 16.8983 9.29718 17.5693 8.46818 17.5693C7.64018 17.5693 6.96818 16.8983 6.96818 16.0693Z" fill="#00005E"/>
</svg>
