<svg width="32" height="32" viewBox="0 0 32 32" fill="none" xmlns="http://www.w3.org/2000/svg">
<path fill-rule="evenodd" clip-rule="evenodd" d="M28.84 14.94C29.2855 16.8478 28.8356 18.8546 27.6182 20.3895C26.4008 21.9244 24.5491 22.8194 22.59 22.82H9.59001C6.04986 22.8586 3.14867 20.0201 3.11001 16.48C3.07135 12.9398 5.90986 10.0386 9.45001 9.99999H22.45C25.47 9.95919 28.119 12.0071 28.84 14.94ZM26 19.17C26.854 18.1021 27.1643 16.6984 26.84 15.37C26.325 13.3543 24.49 11.9584 22.41 12H9.41001C8.05835 12.0017 6.78213 12.6232 5.9473 13.6862C5.11247 14.7493 4.81125 16.1364 5.13001 17.45C5.6418 19.4678 7.47877 20.8653 9.56001 20.82H22.56C23.8982 20.8231 25.1648 20.2156 26 19.17ZM11 14.91C11.1579 15.1349 11.1092 15.4444 10.89 15.61L9.65001 16.51L10.89 17.41C11.0608 17.538 11.1315 17.7603 11.066 17.9634C11.0006 18.1666 10.8134 18.3058 10.6 18.31C10.4934 18.3097 10.3892 18.2784 10.3 18.22L9.30001 17.5V18.61C9.30001 18.8861 9.07615 19.11 8.80001 19.11C8.52387 19.11 8.30001 18.8861 8.30001 18.61V17.48L7.30001 18.22C7.21085 18.2784 7.10662 18.3097 7.00001 18.31C6.78662 18.3058 6.59943 18.1666 6.53398 17.9634C6.46852 17.7603 6.53922 17.538 6.71001 17.41L7.95001 16.51L6.71001 15.61C6.56532 15.5046 6.48784 15.33 6.50677 15.152C6.5257 14.974 6.63815 14.8196 6.80177 14.747C6.96539 14.6744 7.15532 14.6946 7.30001 14.8L8.30001 15.54V14.33C8.30001 14.0538 8.52387 13.83 8.80001 13.83C9.07615 13.83 9.30001 14.0538 9.30001 14.33V15.52L10.3 14.8C10.5249 14.6421 10.8344 14.6907 11 14.91ZM25.35 15.61C25.5692 15.4444 25.6179 15.1349 25.46 14.91C25.2944 14.6907 24.9849 14.6421 24.76 14.8L23.76 15.53V14.33C23.76 14.0538 23.5362 13.83 23.26 13.83C22.9839 13.83 22.76 14.0538 22.76 14.33V15.53L21.76 14.8C21.5351 14.6421 21.2256 14.6907 21.06 14.91C20.9825 15.0185 20.9516 15.1535 20.9741 15.285C20.9967 15.4164 21.0708 15.5335 21.18 15.61L22.42 16.51L21.18 17.41C21.0708 17.4865 20.9967 17.6035 20.9741 17.735C20.9516 17.8664 20.9825 18.0014 21.06 18.11C21.1576 18.2375 21.3095 18.3116 21.47 18.31C21.5735 18.3095 21.6744 18.2782 21.76 18.22L22.76 17.49V18.61C22.76 18.8861 22.9839 19.11 23.26 19.11C23.5362 19.11 23.76 18.8861 23.76 18.61V17.49L24.76 18.22C24.8456 18.2782 24.9465 18.3095 25.05 18.31C25.2105 18.3116 25.3624 18.2375 25.46 18.11C25.6179 17.8851 25.5692 17.5756 25.35 17.41L24.1 16.51L25.35 15.61ZM18.1 15.61C18.3193 15.4444 18.3679 15.1349 18.21 14.91C18.0444 14.6907 17.7349 14.6421 17.51 14.8L16.51 15.53V14.53C16.51 14.2538 16.2862 14.03 16.01 14.03C15.7339 14.03 15.51 14.2538 15.51 14.53V15.53L14.51 14.8C14.2863 14.6371 13.9729 14.6863 13.81 14.91C13.6471 15.1337 13.6963 15.4471 13.92 15.61L15.17 16.51L13.92 17.41C13.7008 17.5756 13.6521 17.8851 13.81 18.11C13.9076 18.2375 14.0595 18.3116 14.22 18.31C14.3235 18.3095 14.4244 18.2782 14.51 18.22L15.51 17.49V18.42C15.51 18.6961 15.7339 18.92 16.01 18.92C16.2862 18.92 16.51 18.6961 16.51 18.42V17.49L17.51 18.22C17.5956 18.2782 17.6965 18.3095 17.8 18.31C17.9605 18.3116 18.1124 18.2375 18.21 18.11C18.3679 17.8851 18.3193 17.5756 18.1 17.41L16.85 16.51L18.1 15.61Z" fill="#00005E"/>
</svg>
