<svg width="32" height="32" viewBox="0 0 32 32" fill="none" xmlns="http://www.w3.org/2000/svg">
<path fill-rule="evenodd" clip-rule="evenodd" d="M11 8C11 10.7614 13.2386 13 16 13C18.7614 13 21 10.7614 21 8C21 5.23858 18.7614 3 16 3C13.2386 3 11 5.23858 11 8ZM17.33 5.35C18.3402 5.84953 18.9853 6.87311 19 8C18.9918 9.38252 18.0399 10.5804 16.6949 10.9006C15.35 11.2209 13.9604 10.5805 13.33 9.35C15.2189 8.72111 16.7011 7.23893 17.33 5.35ZM16 5C14.3432 5 13 6.34315 13 8C12.9891 8.12643 12.9891 8.25357 13 8.38C14.5835 7.84214 15.821 6.58975 16.34 5H16ZM19.7 14C22.7201 13.9921 25.2064 16.3725 25.33 19.39C25.3309 20.3014 25.104 21.1986 24.67 22L23.59 24.16C22.393 26.5262 19.9617 28.0128 17.31 28.0001H14.69C12.0294 28.0053 9.59587 26.5017 8.41001 24.12L7.33001 22C6.90242 21.2105 6.67575 20.3279 6.67001 19.43C6.77261 16.3967 9.26501 13.9929 12.3 14H19.7ZM22.89 21.13C23.173 20.6294 23.3244 20.0651 23.33 19.49C23.2497 17.5424 21.6493 16.0037 19.7 16H12.3C10.3507 16.0037 8.75034 17.5424 8.67001 19.49C8.67562 20.0651 8.827 20.6294 9.11001 21.13L10.19 23.25C11.0453 24.9475 12.7892 26.0132 14.69 26H17.31C19.2108 26.0132 20.9547 24.9475 21.81 23.25L22.89 21.13Z" fill="#00005E"/>
</svg>
