<svg width="32" height="32" viewBox="0 0 32 32" fill="none" xmlns="http://www.w3.org/2000/svg">
<path fill-rule="evenodd" clip-rule="evenodd" d="M13.3444 8.27L9.43041 4.334C9.20941 4.111 8.91941 4 8.62941 4C8.33941 4 8.04941 4.111 7.82841 4.334L5.46641 6.708C4.90641 7.271 4.50341 7.972 4.29641 8.74C3.24041 12.665 5.00541 17.082 9.59141 21.992C13.3324 25.998 17.0384 28 20.7094 28C21.6294 28 22.5484 27.874 23.4644 27.622C24.2244 27.413 24.9174 27.009 25.4744 26.448L27.6684 24.242C28.1104 23.797 28.1104 23.076 27.6684 22.631L23.7514 18.691C23.5294 18.469 23.2394 18.357 22.9494 18.357C22.6604 18.357 22.3704 18.469 22.1484 18.691L20.0264 20.825C19.8084 21.044 19.5184 21.159 19.2244 21.159C19.0464 21.159 18.8654 21.116 18.6994 21.028C16.7984 20.025 15.2804 18.969 14.1464 17.86C13.0024 16.743 11.9824 15.187 11.0874 13.192C10.8944 12.761 10.9864 12.253 11.3194 11.918L13.3444 9.882C13.7874 9.437 13.7874 8.715 13.3444 8.27ZM6.22841 9.261C6.34441 8.829 6.57141 8.435 6.88441 8.119L8.62941 6.364L11.3254 9.076L9.90141 10.508C8.99041 11.424 8.73341 12.831 9.26341 14.011C10.2564 16.227 11.4294 18.003 12.7484 19.291C14.0154 20.529 15.7034 21.708 17.7654 22.797C18.2134 23.034 18.7184 23.159 19.2244 23.159C20.0644 23.159 20.8524 22.831 21.4454 22.235L22.9494 20.722L25.6484 23.437L24.0554 25.038C23.7454 25.351 23.3574 25.577 22.9344 25.693C22.1954 25.896 21.4464 26 20.7094 26C17.6314 26 14.3824 24.192 11.0524 20.627C6.99141 16.278 5.36841 12.454 6.22841 9.261ZM26.8426 13.663C27.3326 10.67 26.6146 8.033 24.8186 6.238C23.0236 4.443 20.3886 3.727 17.3956 4.216C17.1226 4.261 16.9386 4.518 16.9836 4.79C17.0286 5.063 17.2896 5.249 17.5576 5.202C20.2206 4.767 22.5496 5.384 24.1116 6.945C25.6726 8.507 26.2926 10.835 25.8566 13.501C25.8116 13.773 25.9966 14.031 26.2686 14.075C26.2956 14.08 26.3236 14.082 26.3506 14.082C26.5906 14.082 26.8026 13.908 26.8426 13.663ZM23.6717 13.9004C24.0207 11.8614 23.5337 10.0594 22.3017 8.8274C21.0687 7.5924 19.2657 7.1074 17.2267 7.4554C16.9537 7.5024 16.7717 7.7604 16.8177 8.0324C16.8647 8.3054 17.1257 8.4844 17.3947 8.4414C19.1107 8.1434 20.5977 8.5364 21.5947 9.5344C22.5907 10.5314 22.9787 12.0214 22.6857 13.7324C22.6397 14.0044 22.8227 14.2624 23.0947 14.3094C23.1227 14.3144 23.1517 14.3164 23.1797 14.3164C23.4177 14.3164 23.6297 14.1444 23.6717 13.9004Z" fill="#00005E"/>
</svg>
