<svg width="32" height="32" viewBox="0 0 32 32" fill="none" xmlns="http://www.w3.org/2000/svg">
<path fill-rule="evenodd" clip-rule="evenodd" d="M15.999 6C21.514 6 26 10.486 26 16C26 21.514 21.514 26 15.999 26C10.485 26 6 21.514 6 16C6 10.486 10.485 6 15.999 6ZM15.999 28C22.627 28 28 22.628 28 16C28 9.372 22.627 4 15.999 4C9.372 4 4 9.372 4 16C4 22.628 9.372 28 15.999 28ZM20.5 17C21.053 17 21.5 16.553 21.5 16C21.5 15.447 21.053 15 20.5 15H17V11.5C17 10.947 16.553 10.5 16 10.5C15.447 10.5 15 10.947 15 11.5V15H11.5C10.947 15 10.5 15.447 10.5 16C10.5 16.553 10.947 17 11.5 17H15V20.5C15 21.053 15.447 21.5 16 21.5C16.553 21.5 17 21.053 17 20.5V17H20.5Z" fill="#00005E"/>
</svg>
