<svg width="24" height="24" viewBox="0 0 24 24" fill="none" xmlns="http://www.w3.org/2000/svg">
<g clip-path="url(#clip0_16202_30680)">
<path d="M12 24C9.77252 24.0062 7.5979 23.3216 5.77568 22.0405C3.95346 20.7594 2.5733 18.9448 1.82529 16.8467C1.07729 14.7485 0.998243 12.4701 1.59905 10.3251C2.19985 8.18019 3.45095 6.27431 5.18 4.87C6.00207 4.19136 6.9226 3.64174 7.91 3.24C8.19602 3.15171 8.50471 3.17352 8.77548 3.30112C9.04626 3.42873 9.25956 3.65293 9.37353 3.92972C9.4875 4.20651 9.49391 4.5159 9.3915 4.79717C9.28909 5.07844 9.08526 5.31129 8.82 5.45C8.05182 5.76097 7.33662 6.18941 6.7 6.72C5.35898 7.81791 4.39185 9.30504 3.93212 10.9761C3.47239 12.6471 3.54272 14.4197 4.13342 16.049C4.72412 17.6784 5.80604 19.0842 7.22984 20.0724C8.65364 21.0606 10.3491 21.5825 12.0821 21.5659C13.8152 21.5494 15.5004 20.9953 16.9051 19.9801C18.3097 18.9649 19.3646 17.5387 19.9241 15.8984C20.4836 14.258 20.5201 12.4845 20.0286 10.8225C19.5371 9.16052 18.5417 7.69212 17.18 6.62C16.5713 6.14104 15.898 5.75051 15.18 5.46C14.8871 5.33621 14.6547 5.1021 14.533 4.80829C14.4114 4.51449 14.4103 4.1846 14.53 3.89C14.5891 3.74449 14.6766 3.61223 14.7874 3.50098C14.8983 3.38972 15.0302 3.30172 15.1755 3.24211C15.3208 3.1825 15.4765 3.1525 15.6335 3.15385C15.7906 3.15521 15.9458 3.18789 16.09 3.25C18.4193 4.18171 20.3498 5.89802 21.5478 8.10221C22.7457 10.3064 23.1359 12.8599 22.6507 15.3213C22.1656 17.7826 20.8356 19.9971 18.8908 21.5818C16.946 23.1665 14.5086 24.0219 12 24Z" fill="#00005E"/>
<path d="M12 9.61001C11.6817 9.61001 11.3765 9.48358 11.1515 9.25854C10.9264 9.03349 10.8 8.72827 10.8 8.41001V1.24001C10.8 0.921749 10.9264 0.616524 11.1515 0.39148C11.3765 0.166437 11.6817 0.0400085 12 0.0400085C12.3182 0.0400085 12.6235 0.166437 12.8485 0.39148C13.0736 0.616524 13.2 0.921749 13.2 1.24001V8.41001C13.2 8.72827 13.0736 9.03349 12.8485 9.25854C12.6235 9.48358 12.3182 9.61001 12 9.61001Z" fill="#00005E"/>
</g>
<defs>
<clipPath id="clip0_16202_30680">
<rect width="24" height="24" fill="white"/>
</clipPath>
</defs>
</svg>
