<svg width="24" height="24" viewBox="0 0 24 24" fill="none" xmlns="http://www.w3.org/2000/svg">
<g clip-path="url(#clip0_16202_30707)">
<path fill-rule="evenodd" clip-rule="evenodd" d="M22 2H2L2 15H12H22V2ZM22 17H13V19.638L15.2682 22.3599C15.6218 22.7841 15.5645 23.4147 15.1402 23.7683C14.7159 24.1218 14.0854 24.0645 13.7318 23.6402L12 21.5621L10.2682 23.6402C9.91468 24.0645 9.28412 24.1218 8.85984 23.7683C8.43556 23.4147 8.37824 22.7841 8.7318 22.3599L11 19.638V17H2C0.89543 17 0 16.1046 0 15V2C0 0.89543 0.895431 0 2 0H22C23.1046 0 24 0.895431 24 2V15C24 16.1046 23.1046 17 22 17Z" fill="#00005E"/>
<path fill-rule="evenodd" clip-rule="evenodd" d="M17.2717 4.61001C16.904 4.5056 16.5082 4.47459 16.1199 4.52092C15.7314 4.56727 15.3681 4.68883 15.0603 4.87021C14.7529 5.05135 14.5141 5.28465 14.3562 5.54147L13.464 7.0076L13.4634 7.00859C13.0752 7.64321 12.4261 8.11222 11.6671 8.35011C10.9078 8.58811 10.0695 8.58582 9.31187 8.34378L8.00225 7.92716L8.00108 7.9268C7.54051 7.78302 7.03339 7.75687 6.55128 7.85359C6.0685 7.95046 5.64701 8.16305 5.33784 8.44943L5.33642 8.45074L4.33836 9.36812C4.13506 9.55499 3.81876 9.54167 3.63188 9.33836C3.44501 9.13505 3.45834 8.81875 3.66164 8.63188L4.65896 7.71518C5.11651 7.29161 5.71018 7.00242 6.35457 6.87313C6.99955 6.74373 7.67747 6.77788 8.30067 6.97273L8.30303 6.97347L9.61629 7.39124C10.1777 7.57067 10.8049 7.57238 11.368 7.39589C11.9314 7.21931 12.3665 6.88511 12.6104 6.48676L13.503 5.01995L13.504 5.01827C13.7557 4.60833 14.1185 4.26447 14.5526 4.00865C14.9867 3.75288 15.4839 3.58971 16.0014 3.52796C16.519 3.46621 17.0479 3.50695 17.5448 3.64803C18.0416 3.78908 18.4982 4.02852 18.8716 4.35201L20.3279 5.61736C20.5364 5.79848 20.5586 6.11428 20.3774 6.32273C20.1963 6.53118 19.8805 6.55334 19.6721 6.37223L18.216 5.10711C17.9623 4.88732 17.6394 4.71442 17.2717 4.61001ZM18.5 7C18.5 6.72386 18.2762 6.5 18 6.5C17.7239 6.5 17.5 6.72386 17.5 7V13C17.5 13.2761 17.7239 13.5 18 13.5C18.2762 13.5 18.5 13.2761 18.5 13V7ZM6.50001 10C6.50001 9.72386 6.27615 9.5 6.00001 9.5C5.72387 9.5 5.50001 9.72386 5.50001 10L5.50001 13C5.50001 13.2761 5.72387 13.5 6.00001 13.5C6.27615 13.5 6.50001 13.2761 6.50001 13L6.50001 10ZM15 7.5C15.2762 7.5 15.5 7.72386 15.5 8V13C15.5 13.2761 15.2762 13.5 15 13.5C14.7239 13.5 14.5 13.2761 14.5 13V8C14.5 7.72386 14.7239 7.5 15 7.5ZM9.50001 11C9.50001 10.7239 9.27615 10.5 9.00001 10.5C8.72387 10.5 8.50001 10.7239 8.50001 11V13C8.50001 13.2761 8.72387 13.5 9.00001 13.5C9.27615 13.5 9.50001 13.2761 9.50001 13V11ZM12 9.5C12.2762 9.5 12.5 9.72386 12.5 10V13C12.5 13.2761 12.2762 13.5 12 13.5C11.7239 13.5 11.5 13.2761 11.5 13V10C11.5 9.72386 11.7239 9.5 12 9.5Z" fill="#00005E"/>
</g>
<defs>
<clipPath id="clip0_16202_30707">
<rect width="24" height="24" fill="white"/>
</clipPath>
</defs>
</svg>
