<svg width="32" height="32" viewBox="0 0 32 32" fill="none" xmlns="http://www.w3.org/2000/svg">
<path fill-rule="evenodd" clip-rule="evenodd" d="M16 4C22.6274 4 28 9.37258 28 16C28 22.6274 22.6274 28 16 28C9.37258 28 4 22.6274 4 16C4 9.37258 9.37258 4 16 4ZM16 26C18.6522 26 21.1957 24.9464 23.0711 23.0711C24.9464 21.1957 26 18.6522 26 16C26 10.4772 21.5228 6 16 6C10.4772 6 6 10.4772 6 16C6 21.5228 10.4772 26 16 26ZM19.667 10.1178C19.6877 9.85335 19.6024 9.59156 19.43 9.39C19.2543 9.18526 19.0033 9.06022 18.734 9.04327C18.4647 9.02632 18.2 9.11891 18 9.3L11.14 15.3C10.9247 15.4898 10.8014 15.763 10.8014 16.05C10.8014 16.337 10.9247 16.6102 11.14 16.8L18 22.8C18.4144 23.164 19.0452 23.1237 19.41 22.71C19.774 22.2956 19.7337 21.6648 19.32 21.3L13.32 16.05L19.32 10.8C19.5216 10.6276 19.6464 10.3822 19.667 10.1178Z" fill="#00005E"/>
</svg>
