<svg width="32" height="32" viewBox="0 0 32 32" fill="none" xmlns="http://www.w3.org/2000/svg">
<path fill-rule="evenodd" clip-rule="evenodd" d="M27.11 5.31003C27.2328 5.07149 27.1497 4.77863 26.92 4.64003C26.8065 4.57168 26.6701 4.55224 26.5419 4.58616C26.4138 4.62008 26.3049 4.70445 26.24 4.82003C26.0154 5.33176 25.6193 5.74909 25.12 6.00003C24.6978 6.12513 24.2415 6.05155 23.88 5.80003L20.63 3.88003C19.987 3.50137 19.2199 3.394 18.4976 3.58159C17.7754 3.76918 17.1574 4.23633 16.78 4.88003C16.4034 5.51961 16.3024 6.28461 16.5 7.00003C16.6972 7.72439 17.1713 8.34216 17.82 8.72003C17.8951 8.76637 17.9818 8.79063 18.07 8.79004C18.2506 8.79047 18.418 8.69539 18.51 8.54003C18.6449 8.29973 18.5599 7.99562 18.32 7.86003C17.898 7.61344 17.5893 7.21141 17.46 6.74003C17.284 6.03353 17.5485 5.29035 18.1312 4.85384C18.7139 4.41734 19.5015 4.37249 20.13 4.74003L23.38 6.61003C23.992 7.022 24.7609 7.12551 25.46 6.89003C26.1763 6.57013 26.7594 6.01174 27.11 5.31003ZM25.41 14.85L23.1 8.42003C22.6515 7.18982 21.3927 6.45132 20.1 6.66003C19.5477 6.75392 19.1761 7.27775 19.27 7.83003C19.3639 8.38232 19.8877 8.75392 20.44 8.66003C20.7908 8.599 21.1354 8.79648 21.26 9.13003L23.61 15.55C23.6901 15.7612 23.6679 15.9975 23.55 16.19L17.55 26.65C17.4275 26.8424 17.2261 26.9706 17 27C16.8086 27.058 16.6017 27.0326 16.43 26.93L7.37001 21.66C7.02732 21.4523 6.90842 21.012 7.10001 20.66L13.1 10.2C13.2117 10.003 13.4065 9.867 13.63 9.83003C14.06 9.75003 14.63 9.69003 15.12 9.64003H15.35C15.9023 9.57928 16.3008 9.08232 16.24 8.53003C16.1793 7.97775 15.6823 7.57928 15.13 7.64003H14.9L14.7697 7.65503L14.7697 7.65503C14.2776 7.71161 13.7122 7.77661 13.29 7.85003C12.4823 7.98833 11.7784 8.47962 11.37 9.19003L5.37001 19.65C4.61308 20.9652 5.05976 22.6447 6.37001 23.41L15.45 28.65C15.8647 28.8951 16.3383 29.023 16.82 29.0201C17.0636 29.0213 17.306 28.9876 17.54 28.92C18.2439 28.7306 18.8442 28.2705 19.21 27.64L25.21 17.18C25.6187 16.4714 25.6919 15.618 25.41 14.85ZM15.39 21.71C15.4047 21.6186 15.4425 21.5326 15.5 21.46L19 15.4C19.1265 15.2476 19.331 15.1842 19.5215 15.2383C19.712 15.2924 19.8526 15.4539 19.88 15.65C19.8817 15.7384 19.8574 15.8254 19.81 15.9L16.32 21.96C16.2312 22.1138 16.0676 22.209 15.89 22.21C15.8023 22.207 15.7166 22.183 15.64 22.14C15.4862 22.0513 15.3911 21.8876 15.39 21.71ZM16.0498 13.1823C15.8333 13.1241 15.6044 13.2172 15.49 13.41L12 19.46C11.9526 19.5347 11.9283 19.6216 11.93 19.71C11.9311 19.8876 12.0262 20.0513 12.18 20.14C12.2547 20.1874 12.3416 20.2118 12.43 20.21C12.6076 20.209 12.7712 20.1138 12.86 19.96L16.36 13.91C16.3988 13.8324 16.4193 13.7468 16.42 13.66C16.4177 13.4358 16.2664 13.2405 16.0498 13.1823Z" fill="#00005E"/>
</svg>
