<svg width="32" height="32" viewBox="0 0 32 32" fill="none" xmlns="http://www.w3.org/2000/svg">
<path fill-rule="evenodd" clip-rule="evenodd" d="M24.5012 13.0002H25.0002V21.0002H23.0002H21.9792L21.9952 18.0002H23.5002C23.7762 18.0002 24.0002 17.7762 24.0002 17.5002C24.0002 17.2242 23.7762 17.0002 23.5002 17.0002H11.1192H11.0412H9.50018C9.22418 17.0002 9.00018 17.2242 9.00018 17.5002C9.00018 17.7762 9.22418 18.0002 9.50018 18.0002H11.0362L11.0212 21.0002H10.0002H8.00018V13.0002H10.0002H10.5002H24.5012ZM20.9002 25.9262C20.8522 25.9682 20.7912 26.0002 20.7222 26.0002H12.2782C12.1492 26.0002 12.0592 25.9042 12.0262 25.7852C12.0102 25.6722 12.0002 25.5562 12.0002 25.4332L12.0362 18.0032L20.9942 18.0312L20.9552 25.4282C20.9552 25.6052 20.9332 25.7702 20.9002 25.9262ZM12.0002 11.0002V6.27821C12.0002 6.12521 12.1252 6.00021 12.2782 6.00021H18.1102L21.0002 8.88321V11.0002V12.0002H12.0002V11.0002ZM27.0002 12.2132C27.0002 11.5432 26.3472 11.0002 25.5422 11.0002H23.0002V8.05321L18.9382 4.00021H12.2782C11.0212 4.00021 10.0002 5.02021 10.0002 6.27821V11.0002H7.39918C6.62718 11.0002 6.00018 11.5432 6.00018 12.2132V21.7862C6.00018 22.4572 6.62718 23.0002 7.39918 23.0002H10.0002V25.7212C10.0002 26.9792 11.0212 28.0002 12.2782 28.0002H12.8912H17.8472H20.0632H20.7222C21.9792 28.0002 23.0002 26.9792 23.0002 25.7212V23.0002H25.5422C26.3472 23.0002 27.0002 22.4572 27.0002 21.7862V12.2132ZM20.0002 20.5002C20.0002 20.7762 19.7762 21.0002 19.5002 21.0002H13.5002C13.2242 21.0002 13.0002 20.7762 13.0002 20.5002C13.0002 20.2242 13.2242 20.0002 13.5002 20.0002H19.5002C19.7762 20.0002 20.0002 20.2242 20.0002 20.5002ZM20.0002 23.5002C20.0002 23.7762 19.7762 24.0002 19.5002 24.0002H13.5002C13.2242 24.0002 13.0002 23.7762 13.0002 23.5002C13.0002 23.2242 13.2242 23.0002 13.5002 23.0002H19.5002C19.7762 23.0002 20.0002 23.2242 20.0002 23.5002Z" fill="#00005E"/>
</svg>
