<svg width="24" height="24" viewBox="0 0 24 24" fill="none" xmlns="http://www.w3.org/2000/svg">
<g clip-path="url(#clip0_13261_21486)">
<path fill-rule="evenodd" clip-rule="evenodd" d="M8 22.0001C8.55228 22.0001 9 22.4478 9 23.0001C9 23.5524 8.55228 24.0002 8 24.0002H4.92C2.76996 24.0112 1.01651 22.2801 1 20.1301V3.87011C1.01651 1.7201 2.76996 -0.0109839 4.92 5.24794e-05H13.69C13.9523 0.00121008 14.2037 0.105361 14.39 0.290105L19.7 5.53011C19.8909 5.71718 19.9989 5.97286 20 6.24011V10.6736C22.2226 11.7295 23.8005 13.922 23.9824 16.5H24V17V17.5H23.9824C23.726 21.1326 20.6979 24 17 24C13.3021 24 10.274 21.1326 10.0176 17.5H10V17V16.5H10.0176C10.274 12.8674 13.3021 10 17 10C17.3395 10 17.6734 10.0242 18 10.0709V7.00011H13.5C13.2239 7.00011 13 6.77625 13 6.50011V2.00011H4.92C3.87449 1.98897 3.01645 2.82466 3 3.87011V20.1301C3.01645 21.1755 3.87449 22.0112 4.92 22.0001H8ZM18.7937 12.3314C20.5204 12.9952 21.7856 14.5894 21.9753 16.5H19.4933C19.4532 14.9998 19.2337 13.6345 18.8886 12.5992C18.8581 12.508 18.8265 12.4186 18.7937 12.3314ZM17.9399 12.9155C18.2451 13.8312 18.453 15.0855 18.493 16.5H15.507C15.547 15.0855 15.7549 13.8312 16.0601 12.9155C16.1809 12.5532 16.3124 12.2577 16.446 12.0303C16.6279 12.0103 16.8128 12 17 12C17.1872 12 17.3721 12.0103 17.554 12.0303C17.6876 12.2577 17.8191 12.5532 17.9399 12.9155ZM17.9399 21.0845C18.2451 20.1688 18.453 18.9145 18.493 17.5H15.507C15.547 18.9145 15.7549 20.1688 16.0601 21.0845C16.1809 21.4468 16.3124 21.7423 16.446 21.9697C16.6279 21.9897 16.8128 22 17 22C17.1872 22 17.3721 21.9897 17.554 21.9697C17.6876 21.7423 17.8191 21.4468 17.9399 21.0845ZM15.1114 12.5992C14.7663 13.6345 14.5468 14.9998 14.5067 16.5H12.0247C12.2144 14.5894 13.4796 12.9952 15.2063 12.3314C15.1735 12.4186 15.1419 12.508 15.1114 12.5992ZM14.5067 17.5H12.0247C12.2144 19.4106 13.4796 21.0048 15.2063 21.6686C15.1735 21.5814 15.1419 21.492 15.1114 21.4008C14.7663 20.3655 14.5468 19.0002 14.5067 17.5ZM21.9753 17.5H19.4933C19.4532 19.0002 19.2337 20.3655 18.8886 21.4008C18.8581 21.492 18.8265 21.5814 18.7937 21.6686C20.5204 21.0048 21.7856 19.4106 21.9753 17.5ZM17.33 6.00011L14 2.71011V6.00011H17.33ZM5 6.50005C5 6.7762 5.22386 7.00005 5.5 7.00005H8.5C8.77614 7.00005 9 6.7762 9 6.50005C9 6.22391 8.77614 6.00005 8.5 6.00005H5.5C5.22386 6.00005 5 6.22391 5 6.50005ZM5.5 10C5.22386 10 5 10.2239 5 10.5C5 10.7761 5.22386 11 5.5 11H10.5C10.7761 11 11 10.7761 11 10.5C11 10.2239 10.7761 10 10.5 10H5.5Z" fill="#00005E"/>
</g>
<defs>
<clipPath id="clip0_13261_21486">
<rect width="24" height="24" fill="white"/>
</clipPath>
</defs>
</svg>
