<svg width="32" height="32" viewBox="0 0 32 32" fill="none" xmlns="http://www.w3.org/2000/svg">
<path fill-rule="evenodd" clip-rule="evenodd" d="M4.75 10.64C5.02614 10.64 5.25 10.4161 5.25 10.14V6.62C5.25 5.86337 5.86337 5.25 6.62 5.25H10.14C10.4161 5.25 10.64 5.02614 10.64 4.75C10.64 4.47386 10.4161 4.25 10.14 4.25H6.62C5.31108 4.25 4.25 5.31108 4.25 6.62V10.14C4.25 10.4161 4.47386 10.64 4.75 10.64ZM25.33 4.25H21.81C21.5339 4.25 21.31 4.47386 21.31 4.75C21.31 5.02614 21.5339 5.25 21.81 5.25H25.33C26.0866 5.25 26.7 5.86337 26.7 6.62V10.14C26.7 10.4161 26.9239 10.64 27.2 10.64C27.4761 10.64 27.7 10.4161 27.7 10.14V6.62C27.6945 5.31336 26.6366 4.25548 25.33 4.25ZM6.62 26.7H10.14C10.4161 26.7 10.64 26.9239 10.64 27.2C10.64 27.4761 10.4161 27.7 10.14 27.7H6.62C5.31336 27.6945 4.25548 26.6366 4.25 25.33V21.81C4.25 21.5339 4.47386 21.31 4.75 21.31C5.02614 21.31 5.25 21.5339 5.25 21.81V25.33C5.25545 26.0844 5.86564 26.6946 6.62 26.7ZM27.25 21.31C26.9739 21.31 26.75 21.5339 26.75 21.81V25.33C26.7446 26.0844 26.1344 26.6946 25.38 26.7H21.81C21.5339 26.7 21.31 26.9239 21.31 27.2C21.31 27.4761 21.5339 27.7 21.81 27.7H25.33C26.6366 27.6945 27.6945 26.6366 27.7 25.33V21.81C27.7013 21.5523 27.5065 21.3358 27.25 21.31ZM13.35 8.11H9.73C8.62543 8.11 7.73 9.00543 7.73 10.11V13.73C7.73 14.8346 8.62543 15.73 9.73 15.73H13.35C14.4546 15.73 15.35 14.8346 15.35 13.73V10.11C15.35 9.00543 14.4546 8.11 13.35 8.11ZM9.73 13.73V10.11H13.35V13.73H9.73ZM9.73 16.66H13.35C14.4546 16.66 15.35 17.5554 15.35 18.66V22.25C15.35 23.3546 14.4546 24.25 13.35 24.25H9.73C8.62543 24.25 7.73 23.3546 7.73 22.25V18.66C7.73 17.5554 8.62543 16.66 9.73 16.66ZM9.73 18.66V22.25H13.35V18.66H9.73ZM18.6 15.73H22.25C23.3546 15.73 24.25 14.8346 24.25 13.73V10.11C24.25 9.00543 23.3546 8.11 22.25 8.11H18.6C17.4954 8.11 16.6 9.00543 16.6 10.11V13.73C16.6 14.8346 17.4954 15.73 18.6 15.73ZM18.6 10.11H22.25V13.73H18.6V10.11ZM22.43 23.25C22.43 22.6977 21.9823 22.25 21.43 22.25H18.6V18.66H22.25V20.75C22.25 21.3023 22.6977 21.75 23.25 21.75C23.8023 21.75 24.25 21.3023 24.25 20.75V18.31C24.25 17.3987 23.5113 16.66 22.6 16.66H18.25C17.3387 16.66 16.6 17.3987 16.6 18.31V22.63C16.6164 23.5295 17.3503 24.2501 18.25 24.25H21.43C21.9823 24.25 22.43 23.8023 22.43 23.25ZM11.13 11.01C10.8539 11.01 10.63 11.2339 10.63 11.51V12.33C10.63 12.6061 10.8539 12.83 11.13 12.83H11.95C12.2261 12.83 12.45 12.6061 12.45 12.33V11.51C12.45 11.2339 12.2261 11.01 11.95 11.01H11.13Z" fill="#00005E"/>
</svg>
