<svg width="32" height="32" viewBox="0 0 32 32" fill="none" xmlns="http://www.w3.org/2000/svg">
<path fill-rule="evenodd" clip-rule="evenodd" d="M21.9946 6.63473C21.9104 5.16436 20.7468 3.99969 19.3242 3.99969H12.6764L12.5134 4.00481C11.112 4.09313 10.002 5.31306 10.002 6.80569V10.2909C8.82243 10.8164 8.0002 11.9991 8.0002 13.3746V25.6266C8.0002 27.4906 9.5102 29.0006 11.3732 29.0006H20.6262C22.4892 29.0006 24.0002 27.4906 24.0002 25.6266V13.3746C24.0002 11.9999 23.1783 10.8177 21.9995 10.2918V6.80569L21.9946 6.63473ZM20.0077 10.0006V6.80569C20.0077 6.39466 19.7146 6.05569 19.3357 6.00597L19.2393 5.99969H14V10.0006H20.0077ZM13 10.0006V5.99969H12.7668C12.3753 5.99969 12.0526 6.30674 12.0052 6.70449L11.9992 6.80569V10.0006H13ZM12 14H20V22H12V14ZM19 21V15H13V21H19ZM20.6262 12.0006C21.3842 12.0006 22.0002 12.6166 22.0002 13.3746V25.6266C22.0002 26.3846 21.3842 27.0006 20.6262 27.0006H11.3732C10.6162 27.0006 10.0002 26.3846 10.0002 25.6266V13.3746C10.0002 12.6166 10.6162 12.0006 11.3732 12.0006H20.6262ZM12.9294 25.0011C12.9294 25.5541 12.4814 26.0011 11.9294 26.0011C11.3774 26.0011 10.9294 25.5541 10.9294 25.0011C10.9294 24.4481 11.3774 24.0011 11.9294 24.0011C12.4814 24.0011 12.9294 24.4481 12.9294 25.0011ZM15.9294 26.0011C16.4814 26.0011 16.9294 25.5541 16.9294 25.0011C16.9294 24.4481 16.4814 24.0011 15.9294 24.0011C15.3774 24.0011 14.9294 24.4481 14.9294 25.0011C14.9294 25.5541 15.3774 26.0011 15.9294 26.0011ZM20.9294 25.0011C20.9294 25.5541 20.4814 26.0011 19.9294 26.0011C19.3774 26.0011 18.9294 25.5541 18.9294 25.0011C18.9294 24.4481 19.3774 24.0011 19.9294 24.0011C20.4814 24.0011 20.9294 24.4481 20.9294 25.0011Z" fill="#00005E"/>
</svg>
