<svg width="32" height="32" viewBox="0 0 32 32" fill="none" xmlns="http://www.w3.org/2000/svg">
<path fill-rule="evenodd" clip-rule="evenodd" d="M28 16C28 9.37258 22.6274 4 16 4C9.37258 4 4 9.37258 4 16C4 22.6274 9.37258 28 16 28C22.6274 28 28 22.6274 28 16ZM23.0711 23.0711C21.1957 24.9464 18.6522 26 16 26C10.4772 26 6 21.5228 6 16C6 10.4772 10.4772 6 16 6C21.5228 6 26 10.4772 26 16C26 18.6522 24.9464 21.1957 23.0711 23.0711ZM15.86 9.45C17.834 9.44952 19.4465 11.0265 19.49 13C19.3825 14.3386 18.6384 15.544 17.49 16.24L17.16 16.52C16.96 16.68 16.86 16.91 16.86 17.61C16.86 18.1623 16.4123 18.61 15.86 18.61C15.3077 18.61 14.86 18.1623 14.86 17.61C14.7648 16.6312 15.1352 15.6646 15.86 15L16.23 14.69C16.96 14.09 17.44 13.65 17.44 13C17.44 12.1274 16.7326 11.42 15.86 11.42C14.9874 11.42 14.28 12.1274 14.28 13C14.28 13.5523 13.8323 14 13.28 14C12.7277 14 12.28 13.5523 12.28 13C12.3229 11.0458 13.9055 9.47645 15.86 9.45ZM16 23C16.8284 23 17.5 22.3284 17.5 21.5C17.5 20.6716 16.8284 20 16 20C15.1716 20 14.5 20.6716 14.5 21.5C14.5 22.3284 15.1716 23 16 23Z" fill="#00005E"/>
</svg>
