<svg width="32" height="32" viewBox="0 0 32 32" fill="none" xmlns="http://www.w3.org/2000/svg">
<path fill-rule="evenodd" clip-rule="evenodd" d="M11.6138 5.352L12.9708 8.839H14.8308L16.1778 5.379C15.7278 5.605 15.1928 5.969 14.6078 6.554C14.2328 6.929 13.5688 6.929 13.1938 6.554C12.5898 5.95 12.0558 5.579 11.6138 5.352ZM14.9288 26.839C14.9288 27.392 14.4808 27.839 13.9288 27.839H7.2368C5.3608 27.839 3.9998 26.645 3.9998 24.999C3.9998 24.023 4.4358 23.128 5.1738 22.527C5.1378 22.2 5.1188 21.869 5.1188 21.658V15.748C5.1188 12.35 7.6068 9.523 10.8688 8.951L9.0968 4.399C8.9948 4.137 9.0078 3.843 9.1328 3.591C9.2588 3.339 9.4848 3.152 9.7558 3.075C9.9578 3.017 11.6438 2.617 13.9038 4.495C16.0288 2.756 17.7518 3.014 17.9588 3.054C18.2508 3.109 18.5038 3.291 18.6488 3.551C18.7918 3.812 18.8138 4.122 18.7048 4.4L16.9378 8.94C18.9878 9.274 20.8178 10.501 21.8658 12.324C22.1428 12.802 21.9778 13.413 21.4988 13.689C21.0208 13.965 20.4078 13.8 20.1338 13.322C19.2518 11.79 17.5988 10.839 15.8188 10.839H15.5138H12.2878H12.0818C9.3448 10.839 7.1188 13.041 7.1188 15.748V21.658C7.1188 21.941 7.1708 22.455 7.2178 22.679H9.6428C9.9198 22.679 10.1428 22.903 10.1428 23.179C10.1428 23.455 9.9198 23.679 9.6428 23.679H7.0028C6.9188 23.773 6.8188 23.854 6.6998 23.911C6.2678 24.118 5.9998 24.535 5.9998 24.999C5.9998 25.816 7.1108 25.839 7.2368 25.839H13.9288C14.4808 25.839 14.9288 26.286 14.9288 26.839ZM27 21.8392C27 19.0822 24.757 16.8392 22 16.8392C19.243 16.8392 17 19.0822 17 21.8392C17 24.5962 19.243 26.8392 22 26.8392C24.757 26.8392 27 24.5962 27 21.8392ZM29 21.8392C29 25.7052 25.866 28.8392 22 28.8392C18.134 28.8392 15 25.7052 15 21.8392C15 17.9732 18.134 14.8392 22 14.8392C25.866 14.8392 29 17.9732 29 21.8392ZM23.7859 21.7664C24.0329 21.6424 24.1329 21.3424 24.0099 21.0954C23.8859 20.8484 23.5859 20.7484 23.3389 20.8714L21.9999 21.5404V19.3394C21.9999 19.0624 21.7769 18.8394 21.4999 18.8394C21.2239 18.8394 20.9999 19.0624 20.9999 19.3394V22.2414C20.9729 22.3524 20.9779 22.4734 21.0319 22.5834C21.1199 22.7584 21.2969 22.8594 21.4799 22.8594C21.5549 22.8594 21.6309 22.8434 21.7029 22.8074L23.7859 21.7664Z" fill="#00005E"/>
</svg>
