<svg width="32" height="32" viewBox="0 0 32 32" fill="none" xmlns="http://www.w3.org/2000/svg">
<path fill-rule="evenodd" clip-rule="evenodd" d="M22.2382 5.15576L23.8852 6.44476C24.0172 6.54976 24.1782 6.60176 24.3382 6.60176C24.4972 6.60176 24.6572 6.54976 24.7902 6.44476L25.8062 5.64876C25.9452 5.54176 26.0992 5.49276 26.2512 5.49276C26.6382 5.49276 27.0002 5.81276 27.0002 6.27576V15.8948V16.7798V26.7098C27.0002 27.1768 26.6352 27.4988 26.2452 27.4988C26.0932 27.4988 25.9362 27.4498 25.7982 27.3408L24.7902 26.5528C24.6572 26.4478 24.4972 26.3958 24.3382 26.3958C24.1782 26.3958 24.0172 26.4478 23.8852 26.5528L22.2382 27.8418C22.1052 27.9458 21.9452 27.9978 21.7852 27.9978C21.6262 27.9978 21.4662 27.9458 21.3332 27.8418L19.4692 26.3828C19.3362 26.2788 19.1772 26.2268 19.0162 26.2268C18.8572 26.2268 18.6972 26.2788 18.5642 26.3828L16.8262 27.7438C16.6932 27.8478 16.5332 27.8988 16.3732 27.8988C16.2132 27.8988 16.0542 27.8478 15.9212 27.7438L14.1282 26.3408C13.9952 26.2358 13.8352 26.1848 13.6762 26.1848C13.5152 26.1848 13.3562 26.2358 13.2232 26.3408L11.3352 27.8178C11.2022 27.9218 11.0432 27.9738 10.8832 27.9738C10.7232 27.9738 10.5632 27.9218 10.4312 27.8178L8.76721 26.5158C8.63421 26.4118 8.47421 26.3598 8.31521 26.3598C8.14221 26.3598 7.97121 26.4208 7.83321 26.5398L7.23321 27.0628C7.08721 27.1888 6.92021 27.2468 6.75621 27.2468C6.36821 27.2468 6.00021 26.9268 6.00021 26.4568V19.9178V12.7568V6.54076C6.00021 6.07076 6.36821 5.75176 6.75621 5.75176C6.92021 5.75176 7.08721 5.80876 7.23321 5.93576L7.83221 6.45676C7.97021 6.57676 8.14221 6.63776 8.31521 6.63776C8.47521 6.63776 8.63521 6.58576 8.76821 6.48076L10.4312 5.18076C10.5632 5.07576 10.7232 5.02376 10.8832 5.02376C11.0432 5.02376 11.2022 5.07576 11.3352 5.18076L13.2232 6.65776C13.3562 6.76176 13.5152 6.81276 13.6762 6.81276C13.8352 6.81276 13.9952 6.76176 14.1282 6.65776L15.9212 5.25476C16.0542 5.14976 16.2132 5.09876 16.3732 5.09876C16.5332 5.09876 16.6932 5.14976 16.8262 5.25476L18.5642 6.61476C18.6972 6.71976 18.8572 6.77076 19.0162 6.77076C19.1772 6.77076 19.3362 6.71976 19.4692 6.61476L21.3332 5.15576C21.4662 5.05276 21.6262 4.99976 21.7852 4.99976C21.9452 4.99976 22.1052 5.05276 22.2382 5.15576ZM20.7022 8.18976C20.2232 8.56476 19.6252 8.77076 19.0162 8.77076C18.4092 8.77076 17.8102 8.56476 17.3312 8.18976L16.3732 7.43976L15.3612 8.23176C14.8822 8.60676 14.2842 8.81276 13.6762 8.81276C13.0682 8.81276 12.4692 8.60676 11.9912 8.23276L10.8832 7.36576L10.0012 8.05576C9.52221 8.43076 8.92421 8.63776 8.31521 8.63776C8.20921 8.63776 8.10421 8.63176 8.00021 8.61876V12.7568V19.9178V24.3778C8.10421 24.3658 8.20921 24.3598 8.31521 24.3598C8.92321 24.3598 9.52121 24.5658 10.0002 24.9408L10.8832 25.6328L11.9902 24.7658C12.4692 24.3908 13.0672 24.1848 13.6762 24.1848C14.2842 24.1848 14.8822 24.3908 15.3612 24.7658L16.3732 25.5578L17.3312 24.8078C17.8102 24.4338 18.4092 24.2268 19.0162 24.2268C19.6252 24.2268 20.2232 24.4338 20.7022 24.8088L21.7852 25.6558L22.6522 24.9778C23.1312 24.6028 23.7292 24.3958 24.3382 24.3958C24.5612 24.3958 24.7842 24.4248 25.0002 24.4788V16.7798V15.8948V8.51976C24.7842 8.57276 24.5612 8.60176 24.3382 8.60176C23.7292 8.60176 23.1312 8.39576 22.6522 8.02076L21.7852 7.34176L20.7022 8.18976ZM22.0234 14.3445C22.0234 14.0685 21.7994 13.8445 21.5234 13.8445H11.5234C11.2474 13.8445 11.0234 14.0685 11.0234 14.3445C11.0234 14.6205 11.2474 14.8445 11.5234 14.8445H21.5234C21.7994 14.8445 22.0234 14.6205 22.0234 14.3445ZM21.5234 18.8445C21.7994 18.8445 22.0234 19.0685 22.0234 19.3445C22.0234 19.6205 21.7994 19.8445 21.5234 19.8445H11.5234C11.2474 19.8445 11.0234 19.6205 11.0234 19.3445C11.0234 19.0685 11.2474 18.8445 11.5234 18.8445H21.5234Z" fill="#00005E"/>
</svg>
