<svg width="32" height="32" viewBox="0 0 32 32" fill="none" xmlns="http://www.w3.org/2000/svg">
<path fill-rule="evenodd" clip-rule="evenodd" d="M29.4218 12.929C29.3765 12.6611 29.2243 12.4232 29 12.27C28.7788 12.1221 28.5077 12.0685 28.2468 12.121C27.9859 12.1736 27.7567 12.328 27.61 12.55L25.92 15C25.3728 9.89081 21.4192 5.80939 16.33 5.09997C16.0192 5.04637 15.7052 5.01296 15.39 4.99997C12.4738 4.89465 9.63524 5.95239 7.49908 7.94039C5.36291 9.92839 4.10421 12.6837 4 15.6C3.77488 21.6691 8.51098 26.7723 14.58 27C15.1323 27 15.58 26.5523 15.58 26C15.58 25.4477 15.1323 25 14.58 25C10.5135 24.8387 7.06118 21.9687 6.16 18H8.5C8.77614 18 9 17.7761 9 17.5C9 17.2238 8.77614 17 8.5 17H6.07C6.01154 16.5592 5.98814 16.1145 6 15.67C6.05707 14.0751 6.54051 12.5247 7.4 11.18L9.1 12.61C9.31176 12.7507 9.59541 12.7101 9.75918 12.5156C9.92296 12.3211 9.9147 12.0347 9.74 11.85L8 10.36C9.48204 8.5064 11.641 7.319 14 7.05997V9.49997C14 9.77612 14.2239 9.99997 14.5 9.99997C14.7761 9.99997 15 9.77612 15 9.49997V6.99997H15.3C15.5545 7.00887 15.8082 7.03224 16.06 7.06997C20.1921 7.64357 23.4194 10.9284 23.92 15.07L22.06 13C21.6927 12.5858 21.0592 12.5477 20.645 12.915C20.2308 13.2822 20.1927 13.9158 20.56 14.33L24.38 18.67C24.5696 18.8858 24.8428 19.0096 25.13 19.01H25.2C25.5076 18.9883 25.7881 18.826 25.96 18.57L29.24 13.69C29.4014 13.4715 29.4671 13.1968 29.4218 12.929ZM20 17.5C20 17.2238 19.7761 17 19.5 17H15V12.5C15 12.2238 14.7761 12 14.5 12C14.2239 12 14 12.2238 14 12.5V18H19.5C19.7761 18 20 17.7761 20 17.5Z" fill="#00005E"/>
</svg>
