<svg width="24" height="24" viewBox="0 0 24 24" fill="none" xmlns="http://www.w3.org/2000/svg">
<g clip-path="url(#clip0_12120_25178)">
<path fill-rule="evenodd" clip-rule="evenodd" d="M3.53207 19.6492C2.75102 19.6481 2.2726 18.7922 2.68092 18.1264L5.10374 14.1757L5.04099 14.7862C4.98453 15.3356 5.38412 15.8268 5.93351 15.8832C6.4829 15.9397 6.97405 15.5401 7.03051 14.9907L7.532 10.1114C7.5703 9.73875 7.39713 9.37597 7.08333 9.17141C6.76953 8.96686 6.36772 8.95483 6.04225 9.14025L1.70711 11.6099C1.22724 11.8833 1.05984 12.4939 1.33321 12.9738C1.60659 13.4537 2.21723 13.6211 2.69711 13.3477L3.57057 12.8501L0.976001 17.0808C-0.24897 19.0782 1.1863 21.6461 3.52944 21.6492L8.00716 21.655C8.55945 21.6558 9.00775 21.2086 9.00848 20.6564C9.00921 20.1041 8.56208 19.6558 8.00979 19.655L3.53207 19.6492ZM16.2009 23.6033C15.9354 24.0876 15.3276 24.265 14.8433 23.9996L10.468 21.6018C10.1396 21.4217 9.93922 21.0732 9.94898 20.6988C9.95874 20.3243 10.177 19.9867 10.5144 19.824L14.9328 17.694C15.4303 17.4542 16.028 17.6631 16.2678 18.1605C16.5077 18.658 16.2988 19.2558 15.8013 19.4956L15.2488 19.762L19.8829 19.755C20.664 19.7538 21.1422 18.8978 20.7338 18.232L18.3921 14.4154C18.1033 13.9446 18.2508 13.3289 18.7215 13.0401C19.1923 12.7513 19.808 12.8987 20.0969 13.3695L22.4385 17.1861C23.6639 19.1833 22.2291 21.7515 19.8859 21.755L14.9227 21.7625L15.8045 22.2457C16.2888 22.5111 16.4663 23.1189 16.2009 23.6033ZM11.0447 3.59329C11.4322 2.91516 12.4128 2.92315 12.7892 3.60752L15.0226 7.66819L14.5232 7.31153C14.0738 6.99052 13.4493 7.09461 13.1283 7.54402C12.8073 7.99344 12.9113 8.61799 13.3608 8.939L17.3522 11.79C17.657 12.0077 18.0579 12.0368 18.391 11.8654C18.724 11.694 18.9334 11.3508 18.9334 10.9763L18.9334 5.98701C18.9334 5.43473 18.4857 4.98701 17.9334 4.98701C17.3811 4.98701 16.9334 5.43473 16.9334 5.98701L16.9334 6.99237L14.5416 2.64368C13.4124 0.590587 10.4708 0.566607 9.30824 2.60102L7.08666 6.48878C6.81265 6.96829 6.97925 7.57915 7.45877 7.85316C7.93829 8.12717 8.54914 7.96057 8.82315 7.48105L11.0447 3.59329Z" fill="#00005E"/>
</g>
<defs>
<clipPath id="clip0_12120_25178">
<rect width="24" height="24" fill="white"/>
</clipPath>
</defs>
</svg>
