<svg width="32" height="32" viewBox="0 0 32 32" fill="none" xmlns="http://www.w3.org/2000/svg">
<g clip-path="url(#clip0)">
<path fill-rule="evenodd" clip-rule="evenodd" d="M7.5321 23.6492C6.75105 23.6481 6.27263 22.7922 6.68095 22.1264L9.10377 18.1758L9.04102 18.7863C8.98456 19.3356 9.38415 19.8268 9.93354 19.8833C10.4829 19.9397 10.9741 19.5401 11.0305 18.9907L11.532 14.1114C11.5703 13.7388 11.3972 13.376 11.0834 13.1714C10.7696 12.9669 10.3678 12.9548 10.0423 13.1403L5.70714 15.6099C5.22727 15.8833 5.05987 16.4939 5.33325 16.9738C5.60662 17.4537 6.21726 17.6211 6.69714 17.3477L7.5706 16.8501L4.97603 21.0808C3.75106 23.0782 5.18633 25.6461 7.52947 25.6492L12.0072 25.6551C12.5595 25.6558 13.0078 25.2087 13.0085 24.6564C13.0092 24.1041 12.5621 23.6558 12.0098 23.6551L7.5321 23.6492ZM20.2009 27.6033C19.9355 28.0876 19.3277 28.265 18.8434 27.9996L14.4681 25.6018C14.1396 25.4218 13.9393 25.0733 13.949 24.6988C13.9588 24.3243 14.177 23.9867 14.5144 23.8241L18.9328 21.694C19.4303 21.4542 20.028 21.6631 20.2679 22.1606C20.5077 22.6581 20.2988 23.2558 19.8013 23.4956L19.2488 23.762L23.883 23.755C24.664 23.7538 25.1423 22.8978 24.7338 22.2321L22.3922 18.4154C22.1033 17.9447 22.2508 17.3289 22.7216 17.0401C23.1923 16.7513 23.8081 16.8988 24.0969 17.3695L26.4385 21.1861C27.6639 23.1833 26.2291 25.7515 23.886 25.755L18.9228 25.7625L19.8045 26.2457C20.2889 26.5112 20.4663 27.119 20.2009 27.6033ZM15.0448 7.59331C15.4323 6.91517 16.4128 6.92317 16.7892 7.60753L19.0226 11.6682L18.5233 11.3115C18.0739 10.9905 17.4493 11.0946 17.1283 11.544C16.8073 11.9935 16.9114 12.618 17.3608 12.939L21.3522 15.79C21.657 16.0077 22.0579 16.0368 22.391 15.8654C22.7241 15.694 22.9334 15.3509 22.9334 14.9763L22.9334 9.98703C22.9334 9.43474 22.4857 8.98703 21.9334 8.98703C21.3811 8.98703 20.9334 9.43474 20.9334 9.98703L20.9334 10.9924L18.5416 6.64369C17.4124 4.5906 14.4708 4.56662 13.3083 6.60103L11.0867 10.4888C10.8127 10.9683 10.9793 11.5792 11.4588 11.8532C11.9383 12.1272 12.5492 11.9606 12.8232 11.4811L15.0448 7.59331Z" fill="#00005E"/>
</g>
<defs>
<clipPath id="clip0">
<rect width="32" height="32" fill="white"/>
</clipPath>
</defs>
</svg>
