<svg width="32" height="32" viewBox="0 0 32 32" fill="none" xmlns="http://www.w3.org/2000/svg">
<path fill-rule="evenodd" clip-rule="evenodd" d="M7.00001 20.63L10.68 16.15C11.0307 15.722 10.968 15.0907 10.54 14.74C10.112 14.3893 9.48071 14.452 9.13001 14.88L6.93001 17.56C6.90989 15.806 7.36239 14.0788 8.24001 12.56C9.48423 10.4163 11.5384 8.86304 13.94 8.25C17.0831 7.49294 20.3859 8.554 22.5 11C22.7306 11.2863 23.0998 11.423 23.4613 11.3559C23.8228 11.2888 24.1183 11.0288 24.2308 10.6787C24.3433 10.3287 24.2547 9.94517 24 9.68C21.3961 6.66309 17.3223 5.35794 13.45 6.3C10.528 7.04098 8.02912 8.9305 6.52001 11.54C5.66912 13.0063 5.15026 14.6414 5.00001 16.33L3.83001 14.61C3.64145 14.2911 3.292 14.1025 2.9219 14.12C2.5518 14.1375 2.22173 14.3583 2.06414 14.6936C1.90655 15.0289 1.94729 15.4239 2.17001 15.72L5.38001 20.54C5.45639 20.6496 5.55525 20.7416 5.67001 20.81L5.77001 20.86C5.87142 20.9083 5.97916 20.9419 6.09001 20.96H6.20001C6.27972 20.9696 6.3603 20.9696 6.44001 20.96H6.54001L6.70001 20.88C6.76981 20.8388 6.83372 20.7883 6.89001 20.73C6.93633 20.7091 6.97485 20.6741 7.00001 20.63ZM29.85 19.68H29.84L26.62 14.74L26.56 14.68C26.4934 14.5905 26.4123 14.5127 26.32 14.45L26.18 14.39C26.0957 14.347 26.0042 14.3198 25.91 14.31H25.83H25.75H25.63C25.5751 14.3254 25.5215 14.3455 25.47 14.37L25.33 14.42C25.2372 14.4698 25.1528 14.5339 25.08 14.61L25.01 14.67L21.33 19.14C21.0758 19.4118 20.9936 19.8023 21.1166 20.1535C21.2396 20.5048 21.5474 20.7586 21.9157 20.8125C22.2839 20.8664 22.6516 20.7113 22.87 20.41L24.82 18C24.3707 21.7196 21.6877 24.7836 18.06 25.72C15.0912 26.4755 11.945 25.587 9.81001 23.39C9.62224 23.2007 9.36665 23.0942 9.10001 23.0942C8.83337 23.0942 8.57777 23.2007 8.39001 23.39C8.00228 23.78 8.00228 24.41 8.39001 24.8C10.3984 26.8389 13.1381 27.9909 16 28C16.8599 27.9977 17.7162 27.8903 18.55 27.68C22.8591 26.5723 26.0904 22.9985 26.76 18.6L28.17 20.78C28.3665 21.0801 28.7082 21.2526 29.0663 21.2325C29.4245 21.2123 29.7447 21.0027 29.9063 20.6825C30.068 20.3622 30.0465 19.9801 29.85 19.68Z" fill="#00005E"/>
</svg>
