<svg width="32" height="32" viewBox="0 0 32 32" fill="none" xmlns="http://www.w3.org/2000/svg">
<path d="M3.42809 12.27C3.20382 12.4233 3.05154 12.6612 3.00627 12.929C2.961 13.1968 3.02664 13.4716 3.18809 13.69L6.46809 18.57C6.64002 18.826 6.92046 18.9884 7.22809 19.01H7.29809C7.58531 19.0096 7.85852 18.8858 8.04809 18.67L11.8681 14.33C12.2354 13.9158 12.1973 13.2823 11.7831 12.915C11.3689 12.5477 10.7354 12.5858 10.3681 13L8.50809 15.07C9.00865 10.9284 12.236 7.6436 16.3681 7.07C16.6199 7.03227 16.8736 7.0089 17.1281 7H17.4281L18.4281 7.06C20.7871 7.31903 22.946 8.50643 24.4281 10.36L25.0281 11.18C25.8876 12.5247 26.371 14.0751 26.4281 15.67C26.4399 16.1145 26.4165 16.5592 26.3581 17L26.2681 18C25.3669 21.9687 21.9146 24.8388 17.8481 25C17.2958 25 16.8481 25.4477 16.8481 26C16.8481 26.5523 17.2958 27 17.8481 27C23.9171 26.7723 28.6532 21.6691 28.4281 15.6C28.3239 12.6838 27.0652 9.92842 24.929 7.94042C22.7928 5.95242 19.9543 4.89468 17.0381 5C16.7229 5.01299 16.4089 5.0464 16.0981 5.1C11.0089 5.80942 7.0553 9.89084 6.50809 15L4.81809 12.55C4.67135 12.328 4.44218 12.1736 4.18129 12.1211C3.92041 12.0685 3.64933 12.1221 3.42809 12.27Z" fill="#00005E"/>
</svg>
