<svg width="32" height="32" viewBox="0 0 32 32" fill="none" xmlns="http://www.w3.org/2000/svg">
<path fill-rule="evenodd" clip-rule="evenodd" d="M15.9287 26.1035V22.0025H11.9157C12.8467 23.6335 14.1897 25.0325 15.8707 26.0505C15.8848 26.0593 15.895 26.0702 15.9054 26.081C15.9127 26.0887 15.92 26.0965 15.9287 26.1035ZM7.93869 22.0025C9.37769 23.9755 11.5117 25.4135 13.9817 25.9385C12.6337 24.8515 11.5627 23.5065 10.7927 22.0025H7.93869ZM10.2787 12.0015H6.86969C6.32469 13.2275 6.01569 14.5805 6.00369 16.0025H9.46869C9.51769 14.6075 9.7927 13.2595 10.2787 12.0015ZM15.2317 6.04251C11.8837 6.32451 9.0037 8.24751 7.38769 11.0015H10.7317C11.7227 8.99951 13.2497 7.27651 15.2317 6.04251ZM15.9074 6.78129L15.9074 6.7813C15.8966 6.79265 15.8858 6.8039 15.8717 6.81251C14.1427 7.86051 12.7737 9.31051 11.8407 11.0015H15.9287V6.76051C15.921 6.76705 15.9142 6.77419 15.9074 6.78129ZM10.4707 16.0025H15.9287V12.0015H11.3587C10.8257 13.2495 10.5247 14.5995 10.4707 16.0025ZM6.04269 17.0025C6.17469 18.4455 6.61269 19.7995 7.28969 21.0025H10.3427C9.8387 19.7475 9.54369 18.4015 9.47969 17.0025H6.04269ZM15.9287 21.0025V17.0025H10.4847C10.5547 18.4105 10.8737 19.7585 11.4267 21.0025H15.9287ZM16.9287 6.79751V11.0015H20.4157C19.6177 9.34751 18.4257 7.90951 16.9287 6.79751ZM24.7757 11.0015C23.2767 8.45851 20.6987 6.64151 17.7267 6.14351C19.3877 7.42751 20.6827 9.09551 21.5137 11.0015H24.7757ZM17.4287 21.0025C17.7047 21.0025 17.9287 21.2265 17.9287 21.5025C17.9287 21.7795 17.7047 22.0025 17.4287 22.0025H16.9287V26.5025C16.9317 27.6735 16.9287 28.1435 16.9287 28.1435C16.9287 28.1435 16.4697 28.1605 16.0807 28.1626C9.4197 28.1915 3.99969 22.7425 3.99969 16.0815C3.99969 9.41951 9.4197 3.99951 16.0807 3.99951C22.0347 3.99951 27.1737 8.43551 28.0337 14.3175C28.1147 14.8635 27.7367 15.3715 27.1897 15.4515C26.6417 15.5385 26.1347 15.1535 26.0557 14.6065C25.9217 13.6905 25.6627 12.8175 25.2987 12.0015H21.9017C22.0067 12.3135 22.1067 12.6265 22.1867 12.9485C22.2527 13.2155 22.0907 13.4875 21.8227 13.5545C21.7827 13.5645 21.7407 13.5695 21.7007 13.5695C21.4767 13.5695 21.2737 13.4175 21.2157 13.1905C21.1147 12.7855 20.9857 12.3895 20.8417 12.0015H16.9287V16.0025H19.4287C19.7047 16.0025 19.9287 16.2265 19.9287 16.5025C19.9287 16.7795 19.7047 17.0025 19.4287 17.0025H16.9287V21.0025H17.4287ZM26.9287 24.9414V23.0034H20.9287V24.9404C20.9287 26.0774 21.8547 27.0034 22.9907 27.0034H24.8667C26.0037 27.0034 26.9287 26.0784 26.9287 24.9414ZM22.7977 18.7544V21.0034H25.4147V18.7544C25.4147 18.0874 24.8717 17.5454 24.2047 17.5454H24.0067C23.3397 17.5454 22.7977 18.0874 22.7977 18.7544ZM27.4147 21.0034C28.2517 21.0114 28.9287 21.6904 28.9287 22.5294V24.9414C28.9287 27.1844 27.1107 29.0034 24.8667 29.0034H22.9907C20.7477 29.0034 18.9287 27.1834 18.9287 24.9404V22.5244C18.9287 21.6834 19.6097 21.0034 20.4497 21.0034H20.7977V18.7544C20.7977 16.9854 22.2377 15.5454 24.0067 15.5454H24.2047C25.9747 15.5454 27.4147 16.9854 27.4147 18.7544V21.0034ZM24.1982 23.9211C23.6372 23.9211 23.1822 24.3761 23.1822 24.9371C23.1822 25.4991 23.6372 25.9541 24.1982 25.9541C24.7602 25.9541 25.2142 25.4991 25.2142 24.9371C25.2142 24.3761 24.7602 23.9211 24.1982 23.9211Z" fill="#00005E"/>
</svg>
