<svg width="32" height="32" viewBox="0 0 32 32" fill="none" xmlns="http://www.w3.org/2000/svg">
<path fill-rule="evenodd" clip-rule="evenodd" d="M24 23C25.6568 23 27 24.3431 27 26C27 27.6568 25.6568 29 24 29C22.3431 29 21 27.6568 21 26C21.0068 25.3221 21.2429 24.6665 21.67 24.14L19.58 21.27C18.3815 22.0069 16.9257 22.1979 15.5778 21.7951C14.2298 21.3922 13.1175 20.4337 12.52 19.16L9.99999 19.89V20C10.0066 21.5488 8.83297 22.8481 7.29142 22.9985C5.74987 23.149 4.34721 22.1012 4.05419 20.5803C3.76117 19.0594 4.67414 17.5654 6.16124 17.1324C7.64834 16.6993 9.22065 17.4695 9.78999 18.91L12.17 18.22C12.0624 17.822 12.0053 17.4121 12 17C11.978 15.4288 12.7062 13.9413 13.9606 12.9951C15.215 12.0488 16.8453 11.7572 18.35 12.21L19.68 8.67997C18.3181 7.99468 17.6867 6.39687 18.2124 4.96574C18.7381 3.53461 20.2535 2.72535 21.7352 3.08455C23.2169 3.44375 24.1936 4.85716 24.0055 6.37014C23.8175 7.88311 22.5245 9.01443 21 8.99997C20.8802 9.0098 20.7598 9.0098 20.64 8.99997L19.32 12.58C20.7766 13.3152 21.7773 14.721 21.9951 16.338C22.213 17.955 21.62 19.5755 20.41 20.67L22.41 23.47C22.8853 23.167 23.4364 23.0042 24 23ZM21 4.99997C20.4477 4.99997 20 5.44768 20 5.99997C20 6.55225 20.4477 6.99997 21 6.99997C21.5523 6.99997 22 6.55225 22 5.99997C22 5.44768 21.5523 4.99997 21 4.99997ZM7.99999 20C7.99999 20.5522 7.55227 21 6.99999 21C6.4477 21 5.99999 20.5522 5.99999 20C5.99999 19.4477 6.4477 19 6.99999 19C7.55227 19 7.99999 19.4477 7.99999 20ZM14 17C14 18.6568 15.3431 20 17 20C18.6568 20 20 18.6568 20 17C20 15.3431 18.6568 14 17 14C15.3431 14 14 15.3431 14 17ZM25 26C25 26.5522 24.5523 27 24 27C23.4477 27 23 26.5522 23 26C23 25.4477 23.4477 25 24 25C24.5523 25 25 25.4477 25 26Z" fill="#00005E"/>
</svg>
