<svg width="24" height="24" viewBox="0 0 24 24" fill="none" xmlns="http://www.w3.org/2000/svg">
<path fill-rule="evenodd" clip-rule="evenodd" d="M9.99675 4.21347C11.2924 3.88309 12.6479 3.93689 13.9183 4.37007C15.1919 4.80434 16.3372 5.60558 17.2247 6.69482C17.5736 7.12298 18.2035 7.18726 18.6317 6.8384C19.0598 6.48954 19.1241 5.85965 18.7752 5.4315C17.6587 4.06115 16.2034 3.03618 14.5638 2.47709C12.9235 1.9178 11.1683 1.84864 9.49229 2.27811L9.47629 2.28235C8.20417 2.63087 7.0134 3.24337 5.97194 4.08118C4.93131 4.91833 4.0607 5.9635 3.4076 7.15398C2.39571 8.97853 1.91932 11.0606 2.01115 13.1407L1.72362 12.8392C1.34243 12.4396 0.709438 12.4246 0.309797 12.8058C-0.0898441 13.187 -0.104802 13.82 0.276388 14.2196L2.63291 16.6902C2.85308 16.921 3.17017 17.033 3.48645 16.9915C3.80274 16.9501 4.08028 16.7602 4.23354 16.4805L5.87702 13.4805C6.14237 12.9961 5.96482 12.3883 5.48046 12.123C4.99609 11.8576 4.38833 12.0352 4.12298 12.5196L4.00059 12.743C3.98223 11.1295 4.37701 9.52896 5.15762 8.1222L5.15763 8.12221L5.16007 8.11776C5.6904 7.15051 6.39339 6.30897 7.22557 5.63952C8.05536 4.97198 8.99747 4.48843 9.99675 4.21347ZM20.8546 9.00056C21.1863 8.98949 21.5018 9.14369 21.6969 9.41215L23.809 12.3187C24.1336 12.7655 24.0346 13.3909 23.5879 13.7155C23.1411 14.0402 22.5157 13.9412 22.191 13.4944L21.9657 13.1843C21.828 14.7788 21.2782 16.3268 20.3512 17.6816C18.9727 19.6965 16.8634 21.1347 14.4464 21.7262L14.4411 21.7275C12.828 22.113 11.1382 22.0891 9.5374 21.6581C7.93648 21.227 6.47618 20.4024 5.30282 19.2613C4.90689 18.8763 4.89806 18.2432 5.2831 17.8473C5.66814 17.4513 6.30125 17.4425 6.69718 17.8275C7.62139 18.7263 8.77899 19.3826 10.0574 19.7269C11.3351 20.0709 12.6854 20.0903 13.9736 19.7829C15.9259 19.3044 17.6093 18.1473 18.7006 16.5523C19.3571 15.5928 19.7719 14.5152 19.9289 13.4015L19.8464 13.5326C19.5522 14.0001 18.9348 14.1405 18.4674 13.8464C18 13.5522 17.8595 12.9348 18.1537 12.4674L20.0416 9.46738C20.2183 9.18651 20.5229 9.01162 20.8546 9.00056ZM14.25 13.0909C14.25 14.2959 13.2426 15.2727 12 15.2727C10.7574 15.2727 9.75 14.2959 9.75 13.0909C9.75 12.8668 9.86849 12.4755 10.1413 11.9395C10.4012 11.4288 10.7553 10.8734 11.1206 10.3513C11.4318 9.90651 11.7441 9.49594 12 9.1713C12.2559 9.49594 12.5682 9.90651 12.8794 10.3513C13.2447 10.8734 13.5988 11.4288 13.8587 11.9395C14.1315 12.4755 14.25 12.8668 14.25 13.0909ZM9 13.0909C9 11.8904 10.6749 9.6417 11.5217 8.58143C11.8083 8.22269 12 8 12 8C12 8 12.1917 8.22269 12.4783 8.58143C13.3251 9.6417 15 11.8904 15 13.0909C15 14.6976 13.6569 16 12 16C10.3431 16 9 14.6976 9 13.0909Z" fill="#00005E"/>
</svg>
