<svg width="32" height="32" viewBox="0 0 32 32" fill="none" xmlns="http://www.w3.org/2000/svg">
<path fill-rule="evenodd" clip-rule="evenodd" d="M27.7576 20.0524C27.3882 19.6831 26.7968 19.6602 26.4 20L23 23.4V7.46L26.4 10.86C26.79 11.2477 27.42 11.2477 27.81 10.86C27.9993 10.6722 28.1058 10.4166 28.1058 10.15C28.1058 9.88336 27.9993 9.62777 27.81 9.44L22.66 4.29C22.4837 4.11464 22.2484 4.01125 22 4C21.7352 4.00368 21.4816 4.10727 21.29 4.29L16.09 9.44C15.9007 9.62777 15.7942 9.88336 15.7942 10.15C15.7942 10.4166 15.9007 10.6722 16.09 10.86C16.2778 11.0493 16.5334 11.1558 16.8 11.1558C17.0666 11.1558 17.3222 11.0493 17.51 10.86L21 7.37V23.5L17.51 20C17.3222 19.8107 17.0666 19.7042 16.8 19.7042C16.5334 19.7042 16.2778 19.8107 16.09 20C15.7023 20.39 15.7023 21.02 16.09 21.41L21.24 26.56C21.4271 26.7509 21.6828 26.8589 21.95 26.86C22.2172 26.8589 22.4729 26.7509 22.66 26.56L27.81 21.41C28.1498 21.0132 28.1269 20.4218 27.7576 20.0524ZM4 6C4 6.55228 4.44772 7 5 7H15C15.5523 7 16 6.55228 16 6C16 5.44772 15.5523 5 15 5H5C4.44772 5 4 5.44772 4 6ZM16 26C16 25.4477 15.5523 25 15 25H5C4.44772 25 4 25.4477 4 26C4 26.5523 4.44772 27 5 27H15C15.5523 27 16 26.5523 16 26ZM5 17C4.44772 17 4 16.5523 4 16C4 15.4477 4.44772 15 5 15H13C13.5523 15 14 15.4477 14 16C14 16.5523 13.5523 17 13 17H5Z" fill="#00005E"/>
</svg>
