<svg width="24" height="24" viewBox="0 0 24 24" fill="none" xmlns="http://www.w3.org/2000/svg">
<path fill-rule="evenodd" clip-rule="evenodd" d="M15.71 0.3C15.5229 0.109144 15.2672 0.00110942 15 0H6.11C4.39239 0 3 1.39239 3 3.11V20.89C3 22.6076 4.39239 24 6.11 24H17.89C19.6076 24 21 22.6076 21 20.89V6.12C20.9989 5.85766 20.8947 5.60626 20.71 5.42L15.71 0.3ZM15 2.47L18.51 6H15V2.47ZM17.89 22C18.503 22 19 21.503 19 20.89V7H14.5C14.2239 7 14 6.77614 14 6.5V2H6.11C5.49696 2 5 2.49696 5 3.11V20.89C5 21.503 5.49696 22 6.11 22H17.89ZM8 10C8 9.72386 7.77614 9.5 7.5 9.5C7.22386 9.5 7 9.72386 7 10V17C7 17.2761 7.22386 17.5 7.5 17.5C7.77614 17.5 8 17.2761 8 17V10ZM10.5 13.5C10.7761 13.5 11 13.7239 11 14V17C11 17.2761 10.7761 17.5 10.5 17.5C10.2239 17.5 10 17.2761 10 17V14C10 13.7239 10.2239 13.5 10.5 13.5ZM14 12C14 11.7239 13.7761 11.5 13.5 11.5C13.2239 11.5 13 11.7239 13 12V17C13 17.2761 13.2239 17.5 13.5 17.5C13.7761 17.5 14 17.2761 14 17V12ZM16.5 14.5C16.7761 14.5 17 14.7239 17 15V17C17 17.2761 16.7761 17.5 16.5 17.5C16.2239 17.5 16 17.2761 16 17V15C16 14.7239 16.2239 14.5 16.5 14.5ZM7 18.5C6.72386 18.5 6.5 18.7239 6.5 19C6.5 19.2761 6.72386 19.5 7 19.5H17C17.2761 19.5 17.5 19.2761 17.5 19C17.5 18.7239 17.2761 18.5 17 18.5H7Z" fill="#00005E"/>
</svg>
