<svg width="24" height="24" viewBox="0 0 24 24" fill="none" xmlns="http://www.w3.org/2000/svg">
<g clip-path="url(#clip0_13261_21488)">
<path fill-rule="evenodd" clip-rule="evenodd" d="M10 23.0001C10 22.4478 9.55228 22.0001 9 22.0001H5.92C4.87449 22.0112 4.01645 21.1755 4 20.1301V3.87011C4.01645 2.82466 4.87449 1.98897 5.92 2.00011H14V6.50011C14 6.77625 14.2239 7.00011 14.5 7.00011H19V9.00011C19 9.55239 19.4477 10.0001 20 10.0001C20.5523 10.0001 21 9.55239 21 9.00011V6.24011C20.9989 5.97286 20.8909 5.71718 20.7 5.53011L15.39 0.290105C15.2037 0.105361 14.9523 0.00121008 14.69 5.24794e-05H5.92C3.76996 -0.0109839 2.01651 1.7201 2 3.87011V20.1301C2.01651 22.2801 3.76996 24.0112 5.92 24.0002H9C9.55228 24.0002 10 23.5524 10 23.0001ZM15 2.71011L18.33 6.00011H15V2.71011ZM6.5 7.00005C6.22386 7.00005 6 6.7762 6 6.50005C6 6.22391 6.22386 6.00005 6.5 6.00005H9.5C9.77614 6.00005 10 6.22391 10 6.50005C10 6.7762 9.77614 7.00005 9.5 7.00005H6.5ZM6.5 10C6.22386 10 6 10.2239 6 10.5C6 10.7761 6.22386 11 6.5 11H11.5C11.7761 11 12 10.7761 12 10.5C12 10.2239 11.7761 10 11.5 10H6.5ZM16.5 13C14.567 13 13 14.567 13 16.5C13 18.433 14.567 20 16.5 20C18.433 20 20 18.433 20 16.5C20 14.567 18.433 13 16.5 13ZM11 16.5C11 13.4624 13.4624 11 16.5 11C19.5376 11 22 13.4624 22 16.5C22 17.6575 21.6424 18.7315 21.0317 19.6175L23.7071 22.2929C24.0976 22.6834 24.0976 23.3166 23.7071 23.7071C23.3166 24.0976 22.6834 24.0976 22.2929 23.7071L19.6175 21.0317C18.7315 21.6424 17.6575 22 16.5 22C13.4624 22 11 19.5376 11 16.5Z" fill="#00005E"/>
</g>
<defs>
<clipPath id="clip0_13261_21488">
<rect width="24" height="24" fill="white"/>
</clipPath>
</defs>
</svg>
