<svg width="32" height="32" viewBox="0 0 32 32" fill="none" xmlns="http://www.w3.org/2000/svg">
<path d="M18.5 12C23.7444 12.0055 27.9945 16.2556 28 21.5V26C28 26.5523 27.5523 27 27 27C26.4477 27 26 26.5523 26 26V21.5C26 17.3579 22.6421 14 18.5 14H7.43L13.1 19.67C13.4877 20.06 13.4877 20.69 13.1 21.08C12.9129 21.2709 12.6572 21.3789 12.39 21.38C12.1228 21.3789 11.8671 21.2709 11.68 21.08L4.29 13.7C4.10069 13.5122 3.9942 13.2566 3.9942 12.99C3.9942 12.7234 4.10069 12.4678 4.29 12.28L11.68 4.89C11.9337 4.63634 12.3034 4.53728 12.6499 4.63012C12.9964 4.72297 13.267 4.99362 13.3599 5.34012C13.4527 5.68663 13.3537 6.05634 13.1 6.31L7.4 12H18.5Z" fill="#00005E"/>
</svg>
