<svg width="24" height="24" viewBox="0 0 24 24" fill="none" xmlns="http://www.w3.org/2000/svg">
<g clip-path="url(#clip0_16202_30679)">
<path d="M15.56 7.81L13.74 9.63C15.147 10.0442 16.3592 10.9483 17.1573 12.1788C17.9554 13.4092 18.2868 14.8848 18.0913 16.3383C17.8959 17.7919 17.1865 19.1275 16.0917 20.1034C14.9969 21.0794 13.5889 21.6312 12.1225 21.659C10.6561 21.6868 9.22823 21.1888 8.09719 20.2551C6.96615 19.3214 6.20669 18.0136 5.95625 16.5685C5.70581 15.1234 5.98092 13.6364 6.73182 12.3765C7.48271 11.1167 8.65977 10.1672 10.05 9.7L8.25 7.9C6.51907 8.75079 5.12894 10.165 4.30796 11.9102C3.48698 13.6555 3.28397 15.6281 3.73226 17.504C4.18056 19.3799 5.2535 21.0476 6.77486 22.2331C8.29623 23.4186 10.1755 24.0514 12.1041 24.0277C14.0327 24.0039 15.8959 23.325 17.3876 22.1024C18.8793 20.8798 19.9108 19.1862 20.3128 17.2999C20.7148 15.4135 20.4633 13.4465 19.5996 11.722C18.7359 9.99743 17.3114 8.61791 15.56 7.81Z" fill="#00005E"/>
<path d="M18.07 2.66L15.8 0.389997C15.5284 0.138724 15.1699 0.00251635 14.8 0.0099972H9.34C8.98574 0.00710582 8.64454 0.143586 8.39 0.389997L6.08 2.69C5.8607 2.90189 5.72569 3.18613 5.7 3.49C5.69529 3.52651 5.69529 3.56348 5.7 3.6C5.69507 3.63315 5.69507 3.66685 5.7 3.7C5.70796 4.03639 5.84807 4.35613 6.09 4.59L8.85 7.37L11.1 9.62C11.1935 9.72359 11.3076 9.80647 11.4351 9.8633C11.5625 9.92014 11.7005 9.94967 11.84 9.95C12.0659 9.93789 12.2865 9.87711 12.4867 9.77183C12.6869 9.66654 12.862 9.51924 13 9.34L13.51 8.82L15 7.29L18 4.29C18.131 4.1704 18.2218 4.01322 18.26 3.84C18.2996 3.731 18.3199 3.61595 18.32 3.5C18.334 3.19979 18.2458 2.90371 18.07 2.66ZM15.07 1.87L16.5 3.11H13.46L15.07 1.87ZM14.58 0.999997L12 3L9.63 0.999997H14.58ZM8.67 1.51L10.62 3.11H7.06L8.67 1.51ZM14 6.9L12.26 8.62C11.99 8.91 11.87 8.92 11.83 8.89L11.56 8.61L7 4.1H16.8L14 6.9Z" fill="#00005E"/>
</g>
<defs>
<clipPath id="clip0_16202_30679">
<rect width="24" height="24" fill="white"/>
</clipPath>
</defs>
</svg>
