<svg width="32" height="32" viewBox="0 0 32 32" fill="none" xmlns="http://www.w3.org/2000/svg">
<path fill-rule="evenodd" clip-rule="evenodd" d="M3.4 9.45998C6 5.99998 9.48 3.83998 13.1 3.49998C13.3761 3.47512 13.5799 3.23112 13.555 2.95498C13.5301 2.67884 13.2861 2.47512 13.01 2.49998C9.1 2.87998 5.4 5.12998 2.6 8.85998C2.43431 9.08089 2.47909 9.39429 2.7 9.55998C2.7862 9.62555 2.8917 9.66072 3 9.65999C3.15701 9.65844 3.30456 9.58467 3.4 9.45998ZM26.35 25.39C28.1078 22.0915 28.4992 18.2344 27.44 14.65C26.5833 11.3324 24.4185 8.50369 21.44 6.80998C18.4857 5.24979 15.0241 4.95741 11.85 5.99998C8.31027 7.07654 5.3406 9.51052 3.59 12.77C3.47578 12.9998 3.4543 13.2648 3.53 13.51C3.6 13.73 4.33 15.33 8.66 24.63L9.93 27.38C10.094 27.7344 10.4494 27.9609 10.84 27.96H11C13.16 27.7 24 26.38 25.77 25.85C26.0151 25.7765 26.2226 25.6119 26.35 25.39ZM21.8 9.45998C23.6073 10.9333 24.9053 12.938 25.51 15.19C26.3332 18.0273 26.1205 21.065 24.91 23.76L24.74 23.83C24.0683 24.0231 23.347 23.9366 22.74 23.59C21.5575 23.0066 21.0561 21.5866 21.61 20.39C21.6147 20.3703 21.6147 20.3497 21.61 20.33C23.0642 16.8649 23.1322 12.9737 21.8 9.45998ZM17 21.58C16.2011 21.1444 15.5919 20.4283 15.29 19.57L12.35 25.12L18 22C17.6495 21.905 17.3132 21.7638 17 21.58ZM14.4 19.03L11.48 24.58L11 18.15C11.2234 18.3599 11.472 18.5412 11.74 18.69C12.2774 18.9919 12.8836 19.1503 13.5 19.15C13.804 19.1495 14.1065 19.1091 14.4 19.03ZM20.39 21.81L13.26 25.72C16.6 25.3 19.95 24.86 22.26 24.51C21.243 23.9583 20.5488 22.956 20.39 21.81ZM5.59 13.18C7.15856 10.6654 9.60213 8.82029 12.45 7.99998C15.0321 7.13237 17.8519 7.31557 20.3 8.50998C22.1405 12.0824 22.3017 16.2872 20.74 19.99C20.4711 20.4788 20.0171 20.8391 19.48 20.99C18.8092 21.1816 18.0898 21.0989 17.48 20.76C16.2962 20.1725 15.7952 18.7494 16.35 17.55C16.4132 17.4321 16.4266 17.2939 16.3871 17.1661C16.3477 17.0383 16.2587 16.9317 16.14 16.87C16.0236 16.8072 15.8869 16.794 15.7607 16.8336C15.6345 16.8731 15.5297 16.962 15.47 17.08C15.192 17.5651 14.7368 17.9236 14.2 18.08C13.5297 18.2773 12.808 18.1943 12.2 17.85C11.0166 17.2624 10.5123 15.8423 11.06 14.64C11.1591 14.4816 11.1616 14.2812 11.0666 14.1203C10.9715 13.9595 10.7947 13.8651 10.6082 13.8755C10.4217 13.886 10.2565 13.9995 10.18 14.17C9.90969 14.6617 9.45136 15.0225 8.91 15.17C8.23969 15.3673 7.51801 15.2843 6.91 14.94C6.23838 14.5693 5.75783 13.9285 5.59 13.18ZM6.8 16L10.47 23.85L9.89 15.92C9.69799 16.0311 9.49314 16.1184 9.28 16.18C8.95482 16.273 8.61823 16.3201 8.28 16.32C7.76985 16.3168 7.26591 16.2078 6.8 16Z" fill="#00005E"/>
</svg>
