<svg width="24" height="24" viewBox="0 0 24 24" fill="none" xmlns="http://www.w3.org/2000/svg">
<g clip-path="url(#clip0_16202_30687)">
<path d="M17.09 11.07H16.55C16.4533 10.1574 16.1073 9.28905 15.55 8.56L16.22 7.88C16.2669 7.83352 16.304 7.77822 16.3294 7.71729C16.3548 7.65636 16.3679 7.59101 16.3679 7.525C16.3679 7.459 16.3548 7.39365 16.3294 7.33272C16.304 7.27179 16.2669 7.21648 16.22 7.17C16.1751 7.12217 16.1209 7.08405 16.0607 7.05799C16.0005 7.03193 15.9356 7.01849 15.87 7.01849C15.8044 7.01849 15.7395 7.03193 15.6793 7.05799C15.6191 7.08405 15.5649 7.12217 15.52 7.17L14.83 7.86C14.1148 7.29179 13.2495 6.94429 12.34 6.86V6.16C12.34 6.0274 12.2873 5.90022 12.1935 5.80645C12.0998 5.71268 11.9726 5.66 11.84 5.66C11.7074 5.66 11.5802 5.71268 11.4864 5.80645C11.3927 5.90022 11.34 6.0274 11.34 6.16V6.83C10.3934 6.9248 9.49584 7.29703 8.75998 7.9L8.17999 7.32C8.08652 7.22839 7.96086 7.17707 7.82999 7.17707C7.69911 7.17707 7.57345 7.22839 7.47999 7.32C7.43312 7.36649 7.39592 7.42179 7.37054 7.48272C7.34515 7.54364 7.33209 7.609 7.33209 7.675C7.33209 7.74101 7.34515 7.80636 7.37054 7.86729C7.39592 7.92822 7.43312 7.98352 7.47999 8.03L8.06999 8.62C7.51646 9.32845 7.17029 10.1766 7.06998 11.07H6.60999C6.47738 11.07 6.3502 11.1227 6.25643 11.2165C6.16266 11.3102 6.10999 11.4374 6.10999 11.57C6.10999 11.7026 6.16266 11.8298 6.25643 11.9236C6.3502 12.0173 6.47738 12.07 6.60999 12.07H7.05999C7.14729 12.9758 7.49456 13.837 8.05999 14.55L7.39999 15.21C7.30774 15.3052 7.25615 15.4325 7.25615 15.565C7.25615 15.6975 7.30774 15.8249 7.39999 15.92C7.4923 16.0142 7.6181 16.0681 7.74999 16.07C7.81834 16.0833 7.88879 16.0812 7.95623 16.0639C8.02368 16.0466 8.08644 16.0145 8.13999 15.97L8.78998 15.32C9.51632 15.897 10.3888 16.2605 11.31 16.37V16.97C11.31 17.1026 11.3627 17.2298 11.4564 17.3236C11.5502 17.4173 11.6774 17.47 11.81 17.47C11.9426 17.47 12.0698 17.4173 12.1635 17.3236C12.2573 17.2298 12.31 17.1026 12.31 16.97V16.32C13.2069 16.2215 14.0587 15.8752 14.77 15.32L15.48 16.03C15.5247 16.0745 15.5777 16.1098 15.636 16.1339C15.6944 16.1579 15.7569 16.1702 15.82 16.17C15.9178 16.1686 16.0132 16.1386 16.0941 16.0835C16.175 16.0285 16.238 15.9509 16.2753 15.8604C16.3126 15.7699 16.3225 15.6705 16.3037 15.5744C16.285 15.4783 16.2385 15.3899 16.17 15.32L15.49 14.63C16.0813 13.8958 16.4492 13.0073 16.55 12.07H17.09C17.2226 12.07 17.3498 12.0173 17.4435 11.9236C17.5373 11.8298 17.59 11.7026 17.59 11.57C17.59 11.4374 17.5373 11.3102 17.4435 11.2165C17.3498 11.1227 17.2226 11.07 17.09 11.07ZM15.54 12.07C15.4778 12.5709 15.3124 13.0535 15.0542 13.4873C14.796 13.921 14.4507 14.2965 14.04 14.59C13.5326 14.9757 12.9324 15.2206 12.3 15.3C12.137 15.3145 11.973 15.3145 11.81 15.3C11.6436 15.3149 11.4763 15.3149 11.31 15.3C10.6527 15.2194 10.0301 14.9599 9.50998 14.55C9.23755 14.356 8.99786 14.1197 8.79998 13.85C8.40104 13.3341 8.15192 12.7182 8.07998 12.07C8.02657 11.7388 8.02657 11.4012 8.07998 11.07C8.15341 10.4409 8.39525 9.84318 8.77999 9.34C8.9784 9.06864 9.21022 8.82338 9.46999 8.61C9.99993 8.18748 10.6371 7.92086 11.31 7.84C11.4763 7.82515 11.6436 7.82515 11.81 7.84C11.973 7.82553 12.137 7.82553 12.3 7.84C12.9479 7.91977 13.5626 8.17187 14.08 8.57C14.3504 8.77034 14.5896 9.0096 14.79 9.28C15.1983 9.79728 15.4576 10.4162 15.54 11.07C15.5934 11.4012 15.5934 11.7388 15.54 12.07Z" fill="#00005E"/>
<path d="M19.29 -0.0299988H4.66998C4.05455 -0.0286894 3.44542 0.0939921 2.87747 0.331022C2.30951 0.568052 1.79388 0.914776 1.3601 1.35134C0.92632 1.78791 0.582905 2.30575 0.349517 2.87521C0.116129 3.44467 -0.0026497 4.05457 -1.82509e-05 4.67V19.28C-0.00133287 19.8946 0.118418 20.5034 0.352396 21.0717C0.586374 21.64 0.929998 22.1567 1.36365 22.5922C1.7973 23.0277 2.31248 23.3735 2.87978 23.6099C3.44708 23.8463 4.0554 23.9687 4.66998 23.97H19.29C20.5277 23.9674 21.714 23.4745 22.5893 22.5993C23.4645 21.724 23.9573 20.5378 23.96 19.3V4.67C23.9626 4.05457 23.8438 3.44467 23.6104 2.87521C23.3771 2.30575 23.0336 1.78791 22.5999 1.35134C22.1661 0.914776 21.6505 0.568052 21.0825 0.331022C20.5145 0.0939921 19.9054 -0.0286894 19.29 -0.0299988ZM21.96 19.25C21.9666 19.6048 21.9025 19.9574 21.7713 20.2871C21.6401 20.6169 21.4445 20.9171 21.1959 21.1704C20.9473 21.4236 20.6507 21.6248 20.3234 21.7621C19.9962 21.8994 19.6449 21.9701 19.29 21.97H4.66998C4.31935 21.97 3.97216 21.9009 3.64822 21.7668C3.32428 21.6326 3.02994 21.4359 2.78201 21.188C2.53407 20.94 2.3374 20.6457 2.20322 20.3218C2.06904 19.9978 1.99998 19.6506 1.99998 19.3V17.59H3.66998C3.73564 17.59 3.80066 17.5771 3.86132 17.5519C3.92199 17.5268 3.97711 17.49 4.02354 17.4436C4.06996 17.3971 4.10679 17.342 4.13192 17.2813C4.15705 17.2207 4.16998 17.1557 4.16998 17.09C4.16998 16.9574 4.1173 16.8302 4.02354 16.7364C3.92977 16.6427 3.80259 16.59 3.66998 16.59H1.99998V7.12H3.66998C3.73564 7.12 3.80066 7.10707 3.86132 7.08194C3.92199 7.05681 3.97711 7.01998 4.02354 6.97355C4.06996 6.92713 4.10679 6.87201 4.13192 6.81134C4.15705 6.75068 4.16998 6.68566 4.16998 6.62C4.16998 6.48739 4.1173 6.36022 4.02354 6.26645C3.92977 6.17268 3.80259 6.12 3.66998 6.12H1.99998V4.67C1.99601 4.31686 2.06215 3.96643 2.19455 3.63902C2.32695 3.31161 2.52299 3.01372 2.77132 2.7626C3.01965 2.51148 3.31533 2.31213 3.64124 2.17607C3.96715 2.04002 4.31681 1.96998 4.66998 1.97H19.29C19.6431 1.96998 19.9928 2.04002 20.3187 2.17607C20.6446 2.31213 20.9403 2.51148 21.1886 2.7626C21.437 3.01372 21.633 3.31161 21.7654 3.63902C21.8978 3.96643 21.964 4.31686 21.96 4.67V19.25Z" fill="#00005E"/>
</g>
<defs>
<clipPath id="clip0_16202_30687">
<rect width="24" height="24" fill="white"/>
</clipPath>
</defs>
</svg>
