<svg width="32" height="32" viewBox="0 0 32 32" fill="none" xmlns="http://www.w3.org/2000/svg">
<path fill-rule="evenodd" clip-rule="evenodd" d="M24 25H8C6.897 25 6 24.103 6 23V15.77C7.16 17.701 9.27 19 11.682 19H20.512C22.792 19 24.807 17.843 26 16.086V23C26 24.103 25.103 25 24 25ZM8 11H10H16.109H22H24C25.103 11 26 11.897 26 13V13.611C25.433 16.119 23.189 18 20.512 18H11.682C8.634 18 6.149 15.563 6.06 12.537C6.27 11.658 7.057 11 8 11ZM12 7H20V9H16.109H12V7ZM24 9H22V6.906C22 5.854 21.146 5 20.094 5H11.906C10.854 5 10 5.854 10 6.906V9H8C5.791 9 4 10.791 4 13V23C4 25.209 5.791 27 8 27H24C26.209 27 28 25.209 28 23V13C28 10.791 26.209 9 24 9Z" fill="#00005E"/>
</svg>
