<svg width="32" height="32" viewBox="0 0 32 32" fill="none" xmlns="http://www.w3.org/2000/svg">
<path fill-rule="evenodd" clip-rule="evenodd" d="M24.9268 5.29794C24.1458 4.5169 22.8795 4.5169 22.0984 5.29794L20.9179 6.47846C20.5385 6.85787 20.3275 7.37382 20.3322 7.91037L20.3406 8.86084C20.3453 9.38512 20.5556 9.88662 20.9263 10.2574L21.043 10.374L15.8432 15.5737L11.905 11.6354L6.68039 16.86C5.52819 18.0122 4.97319 19.6202 5.08912 21.2974C5.20465 22.9689 5.97433 24.5857 7.20144 25.8128C8.42856 27.0399 10.0454 27.8096 11.7168 27.9251C13.394 28.041 15.002 27.486 16.1542 26.3338L21.3788 21.1092L17.2575 16.9879L22.4572 11.7882L22.4833 11.8143C22.854 12.1851 23.3555 12.3954 23.8798 12.4L24.8303 12.4084C25.3668 12.4132 25.8828 12.2022 26.2622 11.8227L27.4427 10.6422C28.2238 9.86118 28.2238 8.59485 27.4427 7.8138L24.9268 5.29794ZM22.3321 7.89267L23.5126 6.71216L26.0285 9.22801L24.848 10.4085L23.8975 10.4001L22.3405 8.84314L22.3321 7.89267ZM8.0946 18.2743L11.905 14.4639L14.7826 17.3415L12.3757 19.7483C12.1805 19.9436 12.1805 20.2602 12.3757 20.4554C12.571 20.6507 12.8876 20.6507 13.0828 20.4554L15.4897 18.0486L18.5504 21.1092L14.74 24.9196C14.031 25.6286 13.005 26.0094 11.8547 25.9299C10.6986 25.8499 9.52608 25.309 8.61566 24.3986C7.70524 23.4881 7.16427 22.3156 7.08436 21.1595C7.00485 20.0093 7.38565 18.9832 8.0946 18.2743Z" fill="#00005E"/>
</svg>
