<svg width="32" height="32" viewBox="0 0 32 32" fill="none" xmlns="http://www.w3.org/2000/svg">
<path fill-rule="evenodd" clip-rule="evenodd" d="M25.9954 15.3802C25.9992 16.1227 26.003 16.8644 25.9946 17.6061C25.0436 17.7011 24.3006 18.2721 23.9316 19.2061C23.4976 20.3071 22.8006 21.2801 21.7986 22.1851C20.6516 23.2221 20.0456 24.5351 20.0396 25.9961C19.6606 25.9981 19.2816 25.9991 18.9026 25.9991C18.5206 25.9991 18.1396 25.9981 17.7586 25.9961C17.5076 25.1721 16.7436 24.5791 15.8446 24.5791H14.2926C13.3996 24.5791 12.6316 25.1681 12.3796 25.9951C11.9666 25.9981 11.5536 26.0001 11.1406 26.0001C10.7746 26.0001 10.4076 25.9991 10.0396 25.9961C9.87557 24.5601 9.26557 23.2441 8.18957 21.9901C6.95357 20.5521 6.22857 18.9241 6.03157 17.1521C6.02357 17.0851 6.01257 17.0181 5.99957 16.9491V15.9751L6.03057 15.7681C6.05857 15.5591 6.08657 15.3511 6.12757 15.1441C6.47357 13.4091 7.32557 11.9761 8.72957 10.7621C10.2606 9.43812 12.0216 8.68812 14.1136 8.46912C14.5056 8.42812 14.9066 8.40712 15.3026 8.40712C16.1916 8.40712 17.1066 8.51312 18.0216 8.72112C18.1666 8.75312 18.3616 8.77412 18.5106 8.77412C19.1546 8.77412 19.7666 8.51212 20.1916 8.05412C20.4676 7.75512 20.7796 7.52212 21.1396 7.34812C21.0626 7.60212 21.0026 7.87812 20.9706 8.17512C20.8486 9.32912 21.1976 10.2801 22.0096 11.0031C22.8576 11.7571 23.5066 12.6891 23.9416 13.7741C24.2886 14.6411 25.0706 15.1881 25.9946 15.2201L25.9954 15.3802ZM27.9944 15.1235L27.9936 14.9631C27.9926 14.5241 27.8346 14.1431 27.5466 13.8161C27.1736 13.3941 26.7016 13.2201 26.1616 13.2201C26.1406 13.2201 26.1196 13.2201 26.0986 13.2211H26.0786C25.9406 13.2211 25.8576 13.1791 25.7986 13.0311C25.2496 11.6621 24.4296 10.4791 23.3386 9.50912C22.9706 9.18212 22.9136 8.81912 22.9596 8.38712C23.0106 7.91112 23.2026 7.48912 23.4386 7.08012C23.7276 6.57812 23.7406 6.06412 23.4116 5.57612C23.1406 5.17312 22.7636 5.00012 22.3246 5.00012C22.2386 5.00012 22.1486 5.00712 22.0576 5.01912C20.7646 5.20312 19.6316 5.71412 18.7236 6.69412C18.6796 6.74212 18.5856 6.77412 18.5106 6.77412C18.4946 6.77412 18.4786 6.77312 18.4636 6.76912C17.4166 6.53212 16.3646 6.40712 15.3026 6.40712C14.8376 6.40712 14.3716 6.43112 13.9046 6.48012C11.4686 6.73512 9.29157 7.63212 7.42157 9.24812C5.73257 10.7091 4.61057 12.5271 4.16557 14.7541C4.1186 14.993 4.08469 15.235 4.05084 15.4766C4.03425 15.595 4.01767 15.7133 3.99957 15.8311V17.1661C4.00407 17.1868 4.00911 17.2075 4.01415 17.2282C4.02591 17.2765 4.03767 17.3248 4.04257 17.3731C4.29457 19.6341 5.22057 21.6031 6.67157 23.2931C7.54757 24.3121 8.07557 25.4071 8.08557 26.7641C8.09157 27.4261 8.62157 27.9801 9.25957 27.9881C9.88657 27.9961 10.5136 28.0001 11.1406 28.0001C11.7946 28.0001 12.4486 27.9961 13.1016 27.9881C13.6976 27.9801 14.1946 27.4811 14.2636 26.8791C14.2727 26.8024 14.2795 26.7257 14.2862 26.6503C14.2883 26.6264 14.2904 26.6027 14.2926 26.5791H15.8446C15.8462 26.6097 15.8475 26.6379 15.8487 26.6644C15.8513 26.7194 15.8535 26.7672 15.8576 26.8151C15.9086 27.4701 16.4126 27.9831 17.0546 27.9901C17.6706 27.9961 18.2856 27.9991 18.9026 27.9991C19.5516 27.9991 20.2016 27.9961 20.8506 27.9901C21.4216 27.9841 21.9026 27.5691 22.0046 26.9941C22.0546 26.7171 22.0526 26.4251 22.0426 26.1411C22.0056 25.1291 22.4116 24.3261 23.1396 23.6691C24.2946 22.6261 25.2136 21.4061 25.7916 19.9401C25.8896 19.6941 25.9946 19.5951 26.2726 19.5931C27.2196 19.5881 27.9806 18.8071 27.9936 17.8461C28.004 16.9386 27.9992 16.031 27.9944 15.1235ZM15.046 10.7471C15.322 10.7441 15.543 10.5181 15.54 10.2411C15.537 9.96712 15.313 9.74712 15.04 9.74712H15.034C13.127 9.76912 11.498 9.94212 9.36397 11.9101C9.16097 12.0971 9.14797 12.4131 9.33597 12.6161C9.43397 12.7241 9.56797 12.7771 9.70297 12.7771C9.82397 12.7771 9.94597 12.7331 10.042 12.6441C11.919 10.9151 13.3 10.7681 15.046 10.7471Z" fill="#00005E"/>
</svg>
