<svg width="32" height="32" viewBox="0 0 32 32" fill="none" xmlns="http://www.w3.org/2000/svg">
<path fill-rule="evenodd" clip-rule="evenodd" d="M10 4C10.5523 4 11 4.44772 11 5C11 5.55228 10.5523 6 10 6H6.92C6.676 6 6.442 6.09693 6.26946 6.26946C6.09693 6.442 6 6.676 6 6.92V10C6 10.5523 5.55228 11 5 11C4.44772 11 4 10.5523 4 10V6.92C4 5.30733 5.30733 4 6.92 4H10ZM9.5 20C9.22386 20 9 19.7761 9 19.5V14.31L8.43 14.88C8.30317 15.0068 8.11831 15.0564 7.94506 15.0099C7.77181 14.9635 7.63648 14.8282 7.59006 14.6549C7.54364 14.4817 7.59317 14.2968 7.72 14.17L9.15 12.75C9.28892 12.6034 9.50479 12.5594 9.69 12.64C9.87853 12.7145 10.0018 12.8973 10 13.1V19.5C10 19.7761 9.77614 20 9.5 20ZM23 19.31C22.6181 19.7506 22.063 20.0025 21.48 20H19.48C19.2039 20 18.98 19.7761 18.98 19.5C18.98 19.2239 19.2039 19 19.48 19H21.48C21.7734 19.0033 22.0534 18.8776 22.2459 18.6562C22.4384 18.4348 22.524 18.1401 22.48 17.85C22.365 17.3393 21.9032 16.9824 21.38 17H19.49C19.2139 17 18.99 16.7761 18.99 16.5C18.99 16.2239 19.2139 16 19.49 16H21.49C21.7834 16.0033 22.0634 15.8776 22.2559 15.6562C22.4484 15.4348 22.534 15.1401 22.49 14.85C22.375 14.3393 21.9132 13.9824 21.39 14H19.5C19.2239 14 19 13.7761 19 13.5C19 13.2239 19.2239 13 19.5 13H21.39C22.4115 12.9753 23.2967 13.703 23.47 14.71C23.5538 15.2863 23.3821 15.8705 23 16.31C22.9376 16.3842 22.8672 16.4513 22.79 16.51C23.1605 16.8094 23.4035 17.2383 23.47 17.71C23.5538 18.2863 23.3821 18.8705 23 19.31ZM17 19.5C17 19.2239 16.7761 19 16.5 19H13.84L16.24 15.91C16.6755 15.3714 16.7757 14.6354 16.5 14C16.1949 13.385 15.5665 12.9971 14.88 13H13.5C13.2239 13 13 13.2239 13 13.5C13 13.7761 13.2239 14 13.5 14H14.9C15.1951 13.9922 15.468 14.1559 15.6 14.42C15.7178 14.7199 15.6558 15.0607 15.44 15.3L12.63 18.93C12.4712 19.1302 12.4423 19.4041 12.5557 19.6331C12.6691 19.8621 12.9045 20.005 13.16 20H16.5C16.7761 20 17 19.7761 17 19.5ZM28 6.92C28 5.30733 26.6927 4 25.08 4H22C21.4477 4 21 4.44772 21 5C21 5.55228 21.4477 6 22 6H25.08C25.324 6 25.558 6.09693 25.7305 6.26946C25.9031 6.442 26 6.676 26 6.92V10C26 10.5523 26.4477 11 27 11C27.5523 11 28 10.5523 28 10V6.92ZM27 21C27.5523 21 28 21.4477 28 22V25.08C28 26.6927 26.6927 28 25.08 28H22C21.4477 28 21 27.5523 21 27C21 26.4477 21.4477 26 22 26H25.08C25.324 26 25.558 25.9031 25.7305 25.7305C25.9031 25.558 26 25.324 26 25.08V22C26 21.4477 26.4477 21 27 21ZM11 27C11 26.4477 10.5523 26 10 26H6.92C6.676 26 6.442 25.9031 6.26946 25.7305C6.09693 25.558 6 25.324 6 25.08V22C6 21.4477 5.55228 21 5 21C4.44772 21 4 21.4477 4 22V25.08C4 26.6927 5.30733 28 6.92 28H10C10.5523 28 11 27.5523 11 27Z" fill="#00005E"/>
</svg>
