<svg width="32" height="32" viewBox="0 0 32 32" fill="none" xmlns="http://www.w3.org/2000/svg">
<path fill-rule="evenodd" clip-rule="evenodd" d="M28.43 24.65H28.39C28.916 25.2234 29.0614 26.0497 28.7633 26.7683C28.4651 27.4868 27.7773 27.9673 27 28C26.5046 27.9802 26.0341 27.7771 25.68 27.43L18.54 20.29C18.1212 19.8532 17.9226 19.2502 18 18.65C14.6383 21.2378 9.84934 20.7933 7.02132 17.631C4.19331 14.4686 4.28444 9.65997 7.23023 6.60706C10.176 3.55414 14.9784 3.29139 18.2396 6.0047C21.5009 8.718 22.1161 13.488 19.65 16.94C19.7366 16.9345 19.8234 16.9345 19.91 16.94C20.4295 16.9387 20.9274 17.1479 21.29 17.52L28.43 24.65ZM13.13 18.26C16.5093 18.249 19.2445 15.5093 19.25 12.13C19.25 9.64974 17.7554 7.41389 15.4635 6.46567C13.1717 5.51745 10.5343 6.04374 8.78191 7.79899C7.02953 9.55423 6.50754 12.1925 7.4595 14.4828C8.41146 16.7731 10.6498 18.264 13.13 18.26ZM27.44 25.64C27.6484 25.866 27.6484 26.2141 27.44 26.44C27.3322 26.5427 27.1889 26.6 27.04 26.6C26.8937 26.6017 26.753 26.544 26.65 26.44L19.51 19.3C19.2979 19.0794 19.2979 18.7306 19.51 18.51C19.6143 18.4008 19.759 18.3393 19.91 18.34C20.0583 18.3385 20.2002 18.4003 20.3 18.51L27.44 25.64Z" fill="#00005E"/>
</svg>
