<svg width="32" height="32" viewBox="0 0 32 32" fill="none" xmlns="http://www.w3.org/2000/svg">
<path fill-rule="evenodd" clip-rule="evenodd" d="M26.73 9.75C26.91 10.7836 27.0003 11.8308 27 12.88C27 20.55 20.71 28 16 28C11.29 28 5 20.52 5 12.88C5.00899 11.8266 5.10937 10.776 5.3 9.74C5.36049 9.37361 5.63754 9.08074 6 9C9.22 8.36 12.86 7.29 15.31 4.32C15.3415 4.27848 15.3785 4.24147 15.42 4.21C15.5834 4.07534 15.7883 4.00117 16 4C16.2539 4.00559 16.4936 4.11818 16.66 4.31C19.11 7.28 22.75 8.35 26 9C26.3771 9.07106 26.6692 9.37108 26.73 9.75ZM16 26C19.39 26 25 19.65 25 12.88C24.9965 12.1881 24.9531 11.4969 24.87 10.81C21.5639 10.264 18.4847 8.77826 16 6.53C13.5124 8.77403 10.4346 10.2592 7.13 10.81C7.04718 11.497 7.00378 12.1881 7 12.88C7 19.65 12.61 26 16 26ZM22.72 14C22.72 13.62 22.71 13.28 22.68 13C22.6367 12.5782 22.3322 12.2295 21.92 12.13C19.9748 11.7137 18.1596 10.8318 16.63 9.56C16.2628 9.26213 15.7372 9.26213 15.37 9.56C13.8426 10.8352 12.0265 11.7175 10.08 12.13C9.66784 12.2295 9.36327 12.5782 9.32 13V14C9.32 19.23 13.51 24.13 16.04 24.13C18.17 24.13 21.48 20.64 22.47 16.41C22.5155 16.3276 22.5363 16.2339 22.53 16.14C22.6682 15.4353 22.7319 14.718 22.72 14ZM13.28 21.37C11.4356 19.3481 10.372 16.7352 10.28 14C10.2644 13.6969 10.2644 13.3931 10.28 13.09C12.3893 12.6454 14.355 11.6831 16 10.29C17.6418 11.6524 19.5975 12.5838 21.69 13V13.94C21.6872 14.5713 21.6236 15.2009 21.5 15.82L13.28 21.37ZM16 23.09C17.39 23.09 20 20.61 21.12 17.31L14.05 22.09C14.5732 22.6276 15.2581 22.9789 16 23.09Z" fill="#00005E"/>
</svg>
