<svg width="32" height="32" viewBox="0 0 32 32" fill="none" xmlns="http://www.w3.org/2000/svg">
<path fill-rule="evenodd" clip-rule="evenodd" d="M15.1901 4C17.2884 4 19.0085 5.63107 19.114 7.67496L19.1191 7.874V9H21.5971C22.5662 9 23.3864 9.69198 23.5627 10.6295L23.5861 10.788L23.9346 14.4538C23.9888 15.0238 23.5564 15.5238 22.9845 15.5522C22.447 15.5789 21.984 15.1774 21.9344 14.6415L21.5971 11H19.1191V13.892C19.1191 14.444 18.6721 14.892 18.1191 14.892C17.6056 14.892 17.1835 14.5057 17.1258 14.0086L17.1191 13.892V11H13.0781V13.892C13.0781 14.444 12.6311 14.892 12.0781 14.892C11.5646 14.892 11.1425 14.5057 11.0848 14.0086L11.0781 13.892V11H8.59908L7.00108 26H14.5001C15.0524 26 15.5001 26.4477 15.5001 27C15.5001 27.5523 15.0524 28 14.5001 28H7.00108C6.49619 28 6.01263 27.8096 5.64523 27.4709L5.51308 27.337C5.1753 26.9619 4.99476 26.4762 5.00024 25.976L5.01108 25.788L6.61108 10.788C6.71339 9.82453 7.48884 9.08184 8.43916 9.00633L8.59908 9H11.0781V7.874C11.0781 5.80475 12.7317 4.10901 14.8042 4.00505L15.0061 4H15.1901ZM15.1901 6H15.0061C13.9937 6 13.1609 6.76281 13.0839 7.7278L13.0781 7.874V9H17.1191V7.874C17.1191 6.89019 16.3345 6.08053 15.3407 6.00565L15.1901 6ZM15.0006 22C15.0006 18.6863 17.6869 16 21.0006 16C24.3143 16 27.0006 18.6863 27.0006 22C27.0006 25.3137 24.3143 28 21.0006 28C17.6869 28 15.0006 25.3137 15.0006 22ZM25.0006 22C25.0006 19.7909 23.2097 18 21.0006 18C18.7935 18.0049 17.0055 19.7929 17.0006 22C17.0006 24.2091 18.7914 26 21.0006 26C23.2097 26 25.0006 24.2091 25.0006 22ZM18.4291 22.5C18.1925 22.5 18.0006 22.2761 18.0006 22C18.0006 21.7239 18.1925 21.5 18.4291 21.5H23.572C23.8087 21.5 24.0006 21.7239 24.0006 22C24.0006 22.2761 23.8087 22.5 23.572 22.5H18.4291Z" fill="#00005E"/>
</svg>
