<svg width="32" height="32" viewBox="0 0 32 32" fill="none" xmlns="http://www.w3.org/2000/svg">
<path fill-rule="evenodd" clip-rule="evenodd" d="M19.2761 27.1744L14.9461 20.8034L24.7621 8.40939L19.2761 27.1744ZM14.0491 20.3254L11.1831 21.6974L14.3931 18.4874C14.5891 18.2924 14.5891 17.9764 14.3931 17.7804C14.1981 17.5854 13.8811 17.5854 13.6861 17.7804L10.5631 20.9034L11.9191 17.9064L22.2941 9.91539L14.0491 20.3254ZM5.00011 12.8984L23.9931 7.34539L11.2651 17.1484L5.00011 12.8984ZM26.5881 5.58539C26.2081 5.20539 25.6971 4.99939 25.1741 4.99939C24.9871 4.99939 24.7981 5.02639 24.6131 5.08039L4.43911 10.9784C3.69611 11.1954 3.14411 11.8224 3.02411 12.5874C2.90411 13.3524 3.23611 14.1184 3.87811 14.5534L9.51111 18.3754L8.11111 21.4724C7.76511 22.2374 7.93411 23.1384 8.53511 23.7254C8.91711 24.0994 9.42211 24.2964 9.93411 24.2964C10.2261 24.2964 10.5211 24.2324 10.7971 24.1004L13.7941 22.6654L17.6231 28.2984C17.9981 28.8514 18.6211 29.1744 19.2761 29.1744C19.3801 29.1744 19.4831 29.1664 19.5881 29.1504C20.3521 29.0284 20.9791 28.4784 21.1961 27.7364L27.0941 7.56139C27.2991 6.86039 27.1051 6.10239 26.5881 5.58539Z" fill="#00005E"/>
</svg>
