<svg width="32" height="32" viewBox="0 0 32 32" fill="none" xmlns="http://www.w3.org/2000/svg">
<path d="M26.28 13.7C26.6677 14.09 26.6677 14.72 26.28 15.11C25.8899 15.4977 25.26 15.4977 24.87 15.11L17 7.24V27C17 27.5523 16.5522 28 16 28C15.4477 28 15 27.5523 15 27V7.24L7.12995 15.11C6.73319 15.4498 6.14176 15.4269 5.77239 15.0576C5.40302 14.6882 5.38018 14.0968 5.71995 13.7L15.29 4.12C15.4777 3.93069 15.7333 3.8242 16 3.8242C16.2666 3.8242 16.5222 3.93069 16.71 4.12L26.28 13.7Z" fill="#00005E"/>
</svg>
