<svg width="32" height="32" viewBox="0 0 32 32" fill="none" xmlns="http://www.w3.org/2000/svg">
<path fill-rule="evenodd" clip-rule="evenodd" d="M7.5928 8.9815C7.2018 9.3725 7.2018 10.0045 7.5928 10.3955C7.9838 10.7865 8.6158 10.7865 9.0068 10.3955L11.9998 7.4025V13.9125C11.9998 17.4375 14.8678 20.3055 18.3938 20.3055H20.9998C21.5528 20.3055 21.9998 19.8585 21.9998 19.3055C21.9998 18.7525 21.5528 18.3055 20.9998 18.3055H18.3938C15.9708 18.3055 13.9998 16.3345 13.9998 13.9125V7.4245L16.9708 10.3955C17.1658 10.5905 17.4218 10.6885 17.6778 10.6885C17.9338 10.6885 18.1898 10.5905 18.3848 10.3955C18.7758 10.0045 18.7758 9.3725 18.3848 8.9815L13.6958 4.2925C13.3048 3.9025 12.6728 3.9025 12.2818 4.2925L7.5928 8.9815ZM28 23.3717V20.3057C28 19.7527 27.553 19.3057 27 19.3057C26.447 19.3057 26 19.7527 26 20.3057V23.3717C26 24.4387 25.133 25.3057 24.066 25.3057H7.933C6.867 25.3057 6 24.4387 6 23.3717V20.3057C6 19.7527 5.552 19.3057 5 19.3057C4.448 19.3057 4 19.7527 4 20.3057V23.3717C4 25.5407 5.764 27.3057 7.933 27.3057H24.066C26.235 27.3057 28 25.5407 28 23.3717Z" fill="#00005E"/>
</svg>
