<svg width="32" height="32" viewBox="0 0 32 32" fill="none" xmlns="http://www.w3.org/2000/svg">
<path fill-rule="evenodd" clip-rule="evenodd" d="M8.7891 4C8.2371 4 7.7891 4.447 7.7891 5C7.7891 5.553 8.2371 6 8.7891 6H11.3951C13.8181 6 15.7891 7.971 15.7891 10.394V16.421L12.8181 13.449C12.4271 13.059 11.7941 13.059 11.4041 13.449C11.0131 13.84 11.0131 14.473 11.4041 14.863L16.0931 19.553C16.2801 19.74 16.5351 19.846 16.8001 19.846C17.0651 19.846 17.3191 19.74 17.5071 19.553L22.1961 14.863C22.5861 14.473 22.5861 13.84 22.1961 13.449C21.8051 13.059 21.1721 13.059 20.7821 13.449L17.7891 16.442V10.394C17.7891 6.868 14.9211 4 11.3951 4H8.7891ZM28 23.9107V20.8447C28 20.2917 27.552 19.8447 27 19.8447C26.448 19.8447 26 20.2917 26 20.8447V23.9107C26 24.9777 25.133 25.8447 24.066 25.8447H7.933C6.867 25.8447 6 24.9777 6 23.9107V20.8447C6 20.2917 5.552 19.8447 5 19.8447C4.448 19.8447 4 20.2917 4 20.8447V23.9107C4 26.0797 5.764 27.8447 7.933 27.8447H24.066C26.235 27.8447 28 26.0797 28 23.9107Z" fill="#00005E"/>
</svg>
