<svg width="32" height="32" viewBox="0 0 32 32" fill="none" xmlns="http://www.w3.org/2000/svg">
<path fill-rule="evenodd" clip-rule="evenodd" d="M26.3174 26.122C26.8944 25.337 27.2484 24.371 27.2484 23.313V10C27.2484 9.96176 27.239 9.92746 27.2295 9.89289C27.2238 9.87231 27.2182 9.85164 27.2144 9.83C27.2114 9.817 27.2094 9.806 27.2064 9.793C27.1854 9.697 27.1584 9.608 27.1124 9.525L24.7664 4.572C24.6014 4.223 24.2484 4 23.8624 4H8.36242C7.97642 4 7.62342 4.223 7.45842 4.572L5.09042 9.572C5.00027 9.763 4.98142 9.972 5.01742 10.174V10.5V23.313V23.813C5.01742 26.122 6.89442 28 9.20342 28H9.56842H13.5174H19.5174H22.6974H22.8314C24.0484 28 25.1374 27.469 25.9024 26.635C25.9277 26.6097 25.9493 26.5814 25.971 26.5531C25.9888 26.5299 26.0066 26.5066 26.0264 26.485C26.0485 26.4587 26.0709 26.4326 26.0932 26.4066C26.1719 26.3148 26.2504 26.2233 26.3174 26.122ZM7.57442 9H24.6504L23.2294 6H8.99542L7.57442 9ZM7.01742 12.319V11H12.1134C11.8264 12.332 10.6434 13.333 9.22742 13.333C8.34342 13.333 7.55942 12.936 7.01742 12.319ZM19.0524 11H13.2794C13.5664 12.332 14.7504 13.333 16.1654 13.333C17.5814 13.333 18.7654 12.332 19.0524 11ZM25.2484 11H20.2024C20.4894 12.332 21.6734 13.333 23.0894 13.333C23.9434 13.333 24.7084 12.963 25.2484 12.381V11ZM20.0174 21.028C20.0174 19.358 18.6584 18 16.9894 18H16.0444C14.3754 18 13.0174 19.358 13.0174 21.028V26H9.56842C8.16142 26 7.01742 24.795 7.01742 23.313V13.656C7.64842 14.083 8.40942 14.333 9.22742 14.333C10.7324 14.333 12.0284 13.478 12.6964 12.236C13.3644 13.478 14.6604 14.333 16.1654 14.333C17.6654 14.333 18.9574 13.484 19.6274 12.251C20.2984 13.484 21.5894 14.333 23.0894 14.333C23.8864 14.333 24.6264 14.092 25.2484 13.684V23.313C25.2484 24.795 24.1034 26 22.6974 26H20.0174V21.028ZM19.0174 26V21.028C19.0174 19.91 18.1074 19 16.9894 19H16.0444C14.9264 19 14.0174 19.91 14.0174 21.028V26H19.0174Z" fill="#00005E"/>
</svg>
