<svg width="32" height="32" viewBox="0 0 32 32" fill="none" xmlns="http://www.w3.org/2000/svg">
<path fill-rule="evenodd" clip-rule="evenodd" d="M17 8C17 9.103 17.897 10 19 10C20.103 10 21 9.103 21 8C21 6.897 20.103 6 19 6C17.897 6 17 6.897 17 8ZM3 8C3 7.447 3.447 7 4 7H15.142C15.588 5.277 17.139 4 19 4C21.077 4 22.764 5.588 22.961 7.613H28C28.276 7.613 28.5 7.837 28.5 8.113C28.5 8.39 28.276 8.613 28 8.613H22.938C22.642 10.529 20.999 12 19 12C17.139 12 15.588 10.723 15.142 9H4C3.447 9 3 8.553 3 8ZM14 16C14 14.897 13.103 14 12 14C10.897 14 10 14.897 10 16C10 17.103 10.897 18 12 18C13.103 18 14 17.103 14 16ZM28.5 16.047C28.5 16.323 28.276 16.547 28 16.547H15.945C15.676 18.494 14.021 20 12 20C10.129 20 8.569 18.709 8.133 16.973C8.11431 16.9755 8.09631 16.9806 8.07829 16.9857L8.07827 16.9857C8.0529 16.9928 8.02747 17 8 17H4C3.447 17 3 16.553 3 16C3 15.447 3.447 15 4 15H8C8.02747 15 8.0529 15.0072 8.07827 15.0143L8.07829 15.0143C8.09631 15.0194 8.11431 15.0245 8.133 15.027C8.569 13.291 10.129 12 12 12C14.054 12 15.727 13.554 15.954 15.547H28C28.276 15.547 28.5 15.771 28.5 16.047ZM20 22C21.103 22 22 22.897 22 24C22 25.103 21.103 26 20 26C18.897 26 18 25.103 18 24C18 22.897 18.897 22 20 22ZM28 24.481C28.276 24.481 28.5 24.258 28.5 23.981C28.5 23.705 28.276 23.481 28 23.481H23.947C23.691 21.52 22.031 20 20 20C18.129 20 16.569 21.291 16.133 23.027C16.1143 23.0245 16.0963 23.0194 16.0783 23.0143C16.0529 23.0072 16.0275 23 16 23H4C3.447 23 3 23.447 3 24C3 24.553 3.447 25 4 25H16C16.0275 25 16.0529 24.9928 16.0783 24.9857C16.0963 24.9806 16.1143 24.9755 16.133 24.973C16.569 26.709 18.129 28 20 28C22.044 28 23.711 26.461 23.951 24.481H28Z" fill="#00005E"/>
</svg>
