<svg width="24" height="25" viewBox="0 0 24 25" fill="none" xmlns="http://www.w3.org/2000/svg">
<path fill-rule="evenodd" clip-rule="evenodd" d="M13.1905 3.33476C12.8652 3.10828 12.4763 2.99105 12.08 2.99998V2.97998C11.8728 2.98229 11.6671 3.01601 11.47 3.07998L6.15001 4.91998C5.91545 4.99863 5.69894 5.12328 5.51315 5.28663C5.32736 5.44999 5.17603 5.64877 5.06801 5.87133C4.95998 6.09389 4.89745 6.33577 4.88405 6.5828C4.87066 6.82983 4.90668 7.07704 4.99001 7.30998L9.94001 21.65C10.0648 22.0184 10.3014 22.3388 10.6169 22.5664C10.9324 22.7941 11.311 22.9177 11.7 22.92C11.9082 22.9193 12.1147 22.882 12.31 22.81L17.63 20.98C17.8626 20.9001 18.0772 20.7752 18.2614 20.6122C18.4457 20.4493 18.596 20.2517 18.7037 20.0306C18.8115 19.8095 18.8746 19.5694 18.8894 19.3239C18.9042 19.0784 18.8704 18.8324 18.79 18.6L13.89 4.25998C13.7608 3.88523 13.5159 3.56123 13.1905 3.33476ZM10.81 1.18998C11.2192 1.05188 11.6481 0.980958 12.08 0.97998V0.99998C12.8842 1.00188 13.6678 1.25424 14.3219 1.72199C14.976 2.18973 15.4682 2.84964 15.73 3.60998L20.68 17.92C20.8579 18.4054 20.9368 18.9215 20.9119 19.4379C20.8871 19.9543 20.759 20.4605 20.5353 20.9265C20.3116 21.3926 19.9968 21.8091 19.6094 22.1515C19.2221 22.4939 18.77 22.7552 18.28 22.92L12.97 24.7C12.5624 24.8457 12.1328 24.9201 11.7 24.92C10.9044 24.9078 10.1319 24.6507 9.48774 24.1836C8.84355 23.7166 8.35898 23.0623 8.10001 22.31L3.10001 7.96998C2.93444 7.48935 2.86517 6.9808 2.89618 6.4734C2.9272 5.96599 3.05787 5.46967 3.28074 5.01278C3.50362 4.55589 3.81432 4.14738 4.19511 3.8106C4.5759 3.47382 5.01931 3.21535 5.50001 3.04998L10.81 1.18998ZM13.98 18.29C14.1063 18.2506 14.2377 18.2303 14.37 18.23C14.6543 18.2259 14.9308 18.3237 15.1492 18.5058C15.3677 18.6879 15.5137 18.9421 15.5608 19.2226C15.608 19.503 15.5531 19.7911 15.4062 20.0346C15.2593 20.2781 15.0301 20.4609 14.76 20.55C14.6342 20.5925 14.5027 20.6161 14.37 20.62C14.1216 20.6161 13.8803 20.5365 13.6783 20.3917C13.4764 20.247 13.3235 20.044 13.24 19.81C13.1405 19.5102 13.1622 19.1833 13.3005 18.8993C13.4388 18.6153 13.6826 18.3966 13.98 18.29ZM18.3869 5.12735C18.6479 5.03726 18.9325 5.17583 19.0226 5.43686L22.0426 14.1869C22.1327 14.4479 21.9942 14.7325 21.7331 14.8226C21.4721 14.9127 21.1875 14.7742 21.0974 14.5131L18.0774 5.76312C17.9873 5.50209 18.1258 5.21744 18.3869 5.12735ZM21.6429 6.20751C21.5531 5.94636 21.2687 5.80741 21.0075 5.89715C20.7463 5.98689 20.6074 6.27135 20.6971 6.5325L22.6971 12.3525C22.7869 12.6137 23.0713 12.7526 23.3325 12.6629C23.5936 12.5731 23.7326 12.2887 23.6429 12.0275L21.6429 6.20751ZM1.92688 10.5274C2.18791 10.4373 2.47256 10.5759 2.56265 10.8369L5.58265 19.5869C5.67274 19.8479 5.53417 20.1326 5.27314 20.2227C5.01211 20.3127 4.72746 20.1742 4.63737 19.9131L1.61737 11.1631C1.52728 10.9021 1.66585 10.6175 1.92688 10.5274ZM0.972623 13.0568C0.882479 12.7957 0.597808 12.6572 0.336794 12.7474C0.0757789 12.8375 -0.0627389 13.1222 0.0274053 13.3832L2.03741 19.2032C2.12755 19.4642 2.41222 19.6027 2.67323 19.5126C2.93425 19.4225 3.07277 19.1378 2.98262 18.8768L0.972623 13.0568Z" fill="#00005E"/>
</svg>
