<svg width="32" height="32" viewBox="0 0 32 32" fill="none" xmlns="http://www.w3.org/2000/svg">
<path fill-rule="evenodd" clip-rule="evenodd" d="M27.7336 23.1606C27.1919 21.8527 25.9156 21 24.5 21C23.1807 20.9998 21.9755 21.7478 21.39 22.93L16.2 19.62C16.7271 18.6647 17.0024 17.591 17 16.5C17.0008 15.4559 16.7504 14.427 16.27 13.5L21.86 9.76C22.5143 10.5422 23.4803 10.9959 24.5 11C26.433 11 28.0001 9.433 28.0001 7.5C28.0001 5.567 26.433 4 24.5 4C22.567 4 21 5.567 21 7.5C21.0044 7.99286 21.1099 8.47958 21.31 8.93L15.74 12.66C14.0872 10.4027 11.1754 9.4562 8.5112 10.3103C5.84702 11.1644 4.02826 13.6275 3.99598 16.425C3.9637 19.2226 5.72514 21.7269 8.3689 22.6423C11.0127 23.5576 13.9455 22.6786 15.65 20.46L21.06 23.91C21.0247 24.1048 21.0046 24.3021 21 24.5C21 25.9156 21.8528 27.1918 23.1606 27.7336C24.4685 28.2753 25.9739 27.9759 26.9749 26.9749C27.9759 25.9739 28.2753 24.4685 27.7336 23.1606ZM23 7.5C23 6.67157 23.6716 6 24.5 6C25.3284 6 26 6.67157 26 7.5C26 8.32843 25.3284 9 24.5 9C23.6716 9 23 8.32843 23 7.5ZM10.5 21C12.983 20.9945 14.9945 18.983 15 16.5C15 14.0147 12.9853 12 10.5 12C8.01473 12 6.00001 14.0147 6.00001 16.5C6.00001 18.9853 8.01473 21 10.5 21ZM26 24.5C26 25.3284 25.3284 26 24.5 26C23.6716 26 23 25.3284 23 24.5C23 23.6716 23.6716 23 24.5 23C25.3284 23 26 23.6716 26 24.5Z" fill="#00005E"/>
</svg>
