<svg width="32" height="32" viewBox="0 0 32 32" fill="none" xmlns="http://www.w3.org/2000/svg">
<path fill-rule="evenodd" clip-rule="evenodd" d="M25.6825 26.337C26.0625 25.915 26.2445 25.353 26.1845 24.788L24.5855 9.788C24.4765 8.771 23.6195 8 22.5965 8H20.1185V6.874C20.1185 4.738 18.3555 3 16.1895 3H16.0055C13.8395 3 12.0775 4.738 12.0775 6.874V8H9.5985C8.5765 8 7.7185 8.771 7.6105 9.788L6.0105 24.788C5.9515 25.353 6.1325 25.915 6.5125 26.337C6.8915 26.759 7.4325 27 8.0005 27H24.1955C24.7625 27 25.3035 26.759 25.6825 26.337ZM14.0775 6.874V8H18.1185V6.874C18.1185 5.841 17.2535 5 16.1895 5H16.0055C14.9425 5 14.0775 5.841 14.0775 6.874ZM8.0005 25L9.5985 10H12.0775V12.892C12.0775 13.444 12.5245 13.892 13.0775 13.892C13.6305 13.892 14.0775 13.444 14.0775 12.892V10H18.1185V12.892C18.1185 13.444 18.5655 13.892 19.1185 13.892C19.6715 13.892 20.1185 13.444 20.1185 12.892V10H22.5965L23.1135 14.848L12.7645 25H8.0005ZM24.1955 25H14.1925L23.2485 16.116L23.4225 17.749L19.3955 21.7C19.1995 21.894 19.1955 22.21 19.3895 22.407C19.4875 22.507 19.6165 22.557 19.7465 22.557C19.8725 22.557 19.9995 22.509 20.0965 22.413L23.5575 19.018L24.1955 25Z" fill="#00005E"/>
</svg>
