<svg width="32" height="32" viewBox="0 0 32 32" fill="none" xmlns="http://www.w3.org/2000/svg">
<path fill-rule="evenodd" clip-rule="evenodd" d="M20.9852 5.65901C21.1148 5.67202 21.2382 5.72039 21.3421 5.79884L21.6107 6.00944C21.6854 6.06867 21.7475 6.14235 21.7931 6.22608C21.8388 6.30982 21.8671 6.40189 21.8764 6.4968C21.8857 6.59171 21.8757 6.68753 21.8472 6.77852C21.8186 6.86951 21.772 6.95381 21.7102 7.0264L20.499 8.5286L19.1346 7.44355L20.3539 5.91153C20.4296 5.81998 20.5271 5.74889 20.6374 5.70477C20.7477 5.66065 20.8673 5.64491 20.9852 5.65901ZM18.5118 8.22599L19.8713 9.3071L9.38629 22.3114L7.67131 23.2697L8.24965 21.12L18.5118 8.22599ZM21.2038 3.67098C20.7506 3.62 20.2918 3.68421 19.8701 3.85766C19.4483 4.03112 19.0771 4.30822 18.7909 4.66328L6.40879 20.2034L4.72532 26.3664C4.71028 26.4237 4.70786 26.4836 4.71823 26.542C4.72859 26.6004 4.75149 26.6558 4.78535 26.7045C4.81921 26.7532 4.86322 26.7939 4.91435 26.8239C4.96548 26.8539 5.02251 26.8725 5.08151 26.8783C5.16294 26.8875 5.24523 26.872 5.31778 26.8339L10.6735 23.8714L23.2731 8.27465C23.7209 7.7146 23.9294 7.0004 23.8533 6.28742C23.7772 5.57444 23.4226 4.92036 22.8667 4.46745L22.5705 4.23368C22.1731 3.92873 21.7003 3.73765 21.2027 3.68092L21.2038 3.67098ZM9.91672 27.4967C11.5141 27.3142 12.7742 26.3242 13.8752 25.4592L13.8755 25.459C13.9777 25.3788 14.0784 25.2996 14.178 25.2223C15.4069 24.2674 16.4612 23.5691 17.787 23.7646L17.7881 23.7648C17.9699 23.7911 18.1356 23.8833 18.2539 24.0237C18.3623 24.1523 18.4239 24.3131 18.4299 24.4802C18.3102 24.9602 18.1203 25.42 17.8661 25.8446C17.7275 26.0584 17.6416 26.3022 17.6156 26.5557C17.5892 26.8131 17.6251 27.073 17.7205 27.3135C17.8158 27.554 17.9677 27.768 18.1633 27.9373C18.3589 28.1067 18.5924 28.2264 18.8441 28.2863L18.8721 28.293L18.9007 28.2964C19.7218 28.3944 20.4916 28.22 21.2052 27.9469C21.8153 27.7135 22.4135 27.3954 22.977 27.0958C23.065 27.049 23.1521 27.0026 23.2383 26.9572C24.5684 26.2552 25.6849 25.7606 26.8613 26.1541C27.1232 26.2417 27.4065 26.1005 27.4941 25.8386C27.5817 25.5767 27.4404 25.2934 27.1786 25.2058C25.545 24.6593 24.0565 25.3947 22.7716 26.0728C22.6813 26.1204 22.5919 26.1679 22.5032 26.215L22.5011 26.2161C21.9333 26.5177 21.3956 26.8034 20.8478 27.013C20.2331 27.2482 19.6441 27.3712 19.051 27.3071C18.9651 27.2828 18.8855 27.2399 18.8179 27.1813C18.7438 27.1172 18.6862 27.0361 18.6501 26.945C18.614 26.8539 18.6003 26.7554 18.6104 26.6579C18.6204 26.5604 18.6537 26.4667 18.7076 26.3848L18.7132 26.3763L18.7185 26.3676C19.0379 25.8362 19.2733 25.2586 19.4164 24.6554L19.4284 24.6049L19.4298 24.5531C19.4411 24.1248 19.2948 23.7071 19.0187 23.3794C18.7428 23.052 18.3565 22.8371 17.9329 22.7753C16.1387 22.5108 14.768 23.4975 13.5644 24.4326C13.4729 24.5038 13.3821 24.5747 13.2921 24.645L13.2911 24.6458C12.1429 25.5432 11.1051 26.3544 9.80317 26.5032C9.52881 26.5345 9.33182 26.7824 9.36318 27.0567C9.39453 27.3311 9.64236 27.5281 9.91672 27.4967Z" fill="#00005E"/>
</svg>
