<svg width="24" height="24" viewBox="0 0 24 24" fill="none" xmlns="http://www.w3.org/2000/svg">
<path fill-rule="evenodd" clip-rule="evenodd" d="M9 3V1H15V3H9ZM16 0V3.26756C16.5978 3.61337 17 4.25972 17 5V5.17071C18.1652 5.58254 19 6.69378 19 8V16C19 17.3062 18.1652 18.4175 17 18.8293V19C17 19.7403 16.5978 20.3866 16 20.7324V24H8V20.7324C7.4022 20.3866 7 19.7403 7 19V18.8293C5.83481 18.4175 5 17.3062 5 16V8C5 6.69378 5.83481 5.58254 7 5.17071V5C7 4.25972 7.4022 3.61337 8 3.26756V0H16ZM8 19C8 19.5523 8.44772 20 9 20H15C15.5523 20 16 19.5523 16 19H8ZM9 21V23H15V21H9ZM9 4H15C15.5523 4 16 4.44772 16 5H8C8 4.44772 8.44772 4 9 4ZM16 7H8C7.44772 7 7 7.44772 7 8V16C7 16.5523 7.44772 17 8 17H16C16.5523 17 17 16.5523 17 16V8C17 7.44772 16.5523 7 16 7Z" fill="#00005E"/>
</svg>
