<svg width="32" height="32" viewBox="0 0 32 32" fill="none" xmlns="http://www.w3.org/2000/svg">
<path fill-rule="evenodd" clip-rule="evenodd" d="M23 7.87C23 5.73266 21.2673 4 19.13 4H12.87C10.7327 4 9 5.73266 9 7.87V24.13C9 25.1564 9.40773 26.1407 10.1335 26.8665C10.8593 27.5923 11.8436 28 12.87 28H19.13C20.1564 28 21.1407 27.5923 21.8665 26.8665C22.5923 26.1407 23 25.1564 23 24.13V7.87ZM21 7.87V24.13C21 24.626 20.803 25.1016 20.4523 25.4523C20.1016 25.803 19.626 26 19.13 26H12.87C12.374 26 11.8984 25.803 11.5477 25.4523C11.197 25.1016 11 24.626 11 24.13V7.87C11 6.83723 11.8372 6 12.87 6H19.13C19.626 6 20.1016 6.19702 20.4523 6.54771C20.803 6.8984 21 7.37405 21 7.87ZM17.5 7C17.7761 7 18 7.22386 18 7.5C18 7.77614 17.7761 8 17.5 8H14.5C14.2239 8 14 7.77614 14 7.5C14 7.22386 14.2239 7 14.5 7H17.5ZM16.25 24.5C16.9404 24.5 17.5 23.9404 17.5 23.25C17.5 22.5596 16.9404 22 16.25 22C15.5596 22 15 22.5596 15 23.25C15 23.9404 15.5596 24.5 16.25 24.5Z" fill="#00005E"/>
</svg>
