<svg width="32" height="32" viewBox="0 0 32 32" fill="none" xmlns="http://www.w3.org/2000/svg">
<path fill-rule="evenodd" clip-rule="evenodd" d="M16 27.2727C22.4266 27.2727 27.6364 22.063 27.6364 15.6364C27.6364 9.20978 22.4266 4 16 4C9.57343 4 4.36365 9.20978 4.36365 15.6364C4.36365 22.063 9.57343 27.2727 16 27.2727ZM18.6079 20.1895C18.2677 20.2462 17.9788 20.4502 17.673 20.6663C17.2285 20.9807 16.7698 21.305 16.0548 21.305C16.0237 21.305 15.9932 21.3041 15.9626 21.3026C15.9431 21.3042 15.9227 21.305 15.9024 21.305C15.1876 21.305 14.7288 20.9807 14.2852 20.667L14.285 20.6669C13.9787 20.4505 13.6897 20.2462 13.3492 20.1895C13.183 20.162 13.0175 20.148 12.8577 20.148C12.5702 20.148 12.3433 20.1923 12.1775 20.2247L12.1766 20.2249C12.0758 20.2447 11.9889 20.2616 11.9228 20.2616C11.8537 20.2616 11.7789 20.2467 11.7464 20.1356C11.7181 20.0393 11.6977 19.9461 11.6781 19.8559C11.6274 19.6238 11.5914 19.4811 11.4941 19.4662C10.3605 19.2911 10.036 19.0523 9.96365 18.8829C9.95342 18.8586 9.9476 18.8344 9.9462 18.8103C9.94253 18.7453 9.98863 18.6878 10.0529 18.6773C11.7957 18.3903 12.5772 16.6091 12.6096 16.5335L12.6124 16.5273C12.7191 16.3111 12.74 16.1235 12.6747 15.9697C12.5551 15.6879 12.165 15.564 11.9069 15.4821L11.904 15.4812C11.8419 15.4615 11.7831 15.4429 11.7366 15.4246C11.2213 15.2209 11.1785 15.0118 11.1987 14.9052C11.2332 14.7237 11.4759 14.5971 11.6721 14.5971C11.7259 14.5971 11.7733 14.6067 11.8131 14.6253C12.0449 14.7339 12.2538 14.7889 12.434 14.7889C12.683 14.7889 12.7917 14.6842 12.805 14.6705C12.7991 14.5598 12.7918 14.4444 12.7843 14.3255L12.7828 14.3023C12.7309 13.4783 12.6666 12.4545 12.9273 11.8702C13.7085 10.1185 15.3653 9.98237 15.8544 9.98237C15.8669 9.98237 16.0688 9.98011 16.0688 9.98011H16.0978C16.5881 9.98011 18.2484 10.1164 19.0301 11.8691C19.2908 12.4538 19.2263 13.4784 19.1743 14.3018L19.1722 14.3376C19.165 14.4522 19.158 14.5636 19.1522 14.6703C19.1647 14.683 19.2647 14.7793 19.4906 14.7879C19.6622 14.7814 19.8594 14.7267 20.0758 14.6253C20.1392 14.5957 20.2097 14.5894 20.2576 14.5894C20.3309 14.5894 20.4051 14.6036 20.4705 14.6308C20.6455 14.6929 20.7602 14.8156 20.7626 14.9438C20.7649 15.0645 20.6728 15.246 20.2207 15.4246C20.174 15.4429 20.1143 15.4618 20.0511 15.4819L20.0505 15.4821L20.0505 15.4821C19.792 15.5641 19.4021 15.6879 19.2826 15.9697C19.2173 16.1234 19.2382 16.3109 19.3477 16.5335C19.3801 16.6091 20.1609 18.3897 21.9044 18.6771C21.9688 18.6876 22.0147 18.7451 22.0112 18.8102C22.0098 18.8346 22.0038 18.8592 21.9934 18.8831C21.9215 19.0513 21.5973 19.2898 20.4632 19.465C20.3706 19.4792 20.3346 19.6 20.2794 19.8532C20.2593 19.9453 20.2389 20.0358 20.2109 20.131C20.1867 20.2135 20.1352 20.2522 20.0487 20.2522H20.0346C19.9745 20.2522 19.8891 20.2414 19.7808 20.2202C19.5888 20.1826 19.3735 20.148 19.0997 20.148C18.9397 20.148 18.7742 20.162 18.6079 20.1895Z" fill="#00005E"/>
</svg>
