<svg width="32" height="32" viewBox="0 0 32 32" fill="none" xmlns="http://www.w3.org/2000/svg">
<path fill-rule="evenodd" clip-rule="evenodd" d="M13.3092 5.152C13.7775 4.85929 14.3945 5.00166 14.6872 5.47L16.0267 7.6132L17.3662 5.47C17.6589 5.00166 18.2758 4.85929 18.7442 5.152C19.2125 5.44471 19.3549 6.06166 19.0622 6.53L17.0267 9.78679V14.6748L21.1463 12.0438L22.7954 8.57542C23.0326 8.07664 23.6292 7.86456 24.128 8.10172C24.6267 8.33888 24.8388 8.93547 24.6017 9.43424L23.5164 11.7167L26.0436 11.6921C26.5959 11.6867 27.0479 12.13 27.0533 12.6823C27.0587 13.2345 26.6154 13.6866 26.0631 13.692L22.2227 13.7294L17.8846 16.5L22.2227 19.2706L26.0631 19.308C26.6154 19.3134 27.0587 19.7655 27.0533 20.3177C27.0479 20.87 26.5959 21.3133 26.0436 21.3079L23.5164 21.2833L24.6017 23.5658C24.8388 24.0645 24.6267 24.6611 24.128 24.8983C23.6292 25.1355 23.0326 24.9234 22.7954 24.4246L21.1462 20.9561L17.0267 18.3252V23.2132L19.0622 26.47C19.3549 26.9383 19.2125 27.5553 18.7442 27.848C18.2758 28.1407 17.6589 27.9983 17.3662 27.53L16.0267 25.3868L14.6872 27.53C14.3945 27.9983 13.7775 28.1407 13.3092 27.848C12.8408 27.5553 12.6985 26.9383 12.9912 26.47L15.0267 23.2132V18.3252L10.9071 20.9561L9.25793 24.4246C9.02077 24.9234 8.42418 25.1355 7.92541 24.8983C7.42664 24.6611 7.21456 24.0645 7.45172 23.5658L8.537 21.2833L6.00976 21.3079C5.4575 21.3133 5.00544 20.87 5.00005 20.3177C4.99466 19.7655 5.43799 19.3134 5.99025 19.308L9.8306 19.2706L14.1688 16.5L9.83064 13.7294L5.99025 13.692C5.43799 13.6866 4.99466 13.2345 5.00005 12.6823C5.00544 12.13 5.4575 11.6867 6.00976 11.6921L8.537 11.7167L7.45172 9.43424C7.21456 8.93547 7.42664 8.33888 7.92541 8.10172C8.42418 7.86456 9.02077 8.07664 9.25793 8.57542L10.9071 12.0439L15.0267 14.6748V9.7868L12.9912 6.53C12.6985 6.06166 12.8408 5.44471 13.3092 5.152Z" fill="#00005E"/>
</svg>
