<svg width="32" height="32" viewBox="0 0 32 32" fill="none" xmlns="http://www.w3.org/2000/svg">
<path fill-rule="evenodd" clip-rule="evenodd" d="M4 16.0005C4 22.6175 9.383 28.0005 16 28.0005C22.617 28.0005 28 22.6175 28 16.0005C28 9.38249 22.617 4.00049 16 4.00049C9.383 4.00049 4 9.38249 4 16.0005ZM16 13.4245V19.2885C16.007 19.6555 16.285 19.9605 16.699 20.0005H21.655C22.948 20.0005 24 18.9485 24.001 17.6545C24.001 16.3615 22.949 15.3085 21.656 15.3085C21.55 15.3085 21.447 15.3165 21.344 15.3305C20.935 13.6735 19.459 12.4865 17.699 12.4865C17.198 12.4865 16.886 12.5905 16.494 12.7415C16.172 12.8685 16.006 13.0945 16 13.4245ZM14 19.5005V13.6265C14 13.3495 14.224 13.1265 14.5 13.1265C14.776 13.1265 15 13.3495 15 13.6265V19.5005C15 19.7765 14.776 20.0005 14.5 20.0005C14.224 20.0005 14 19.7765 14 19.5005ZM12 14.5005V19.3945C12 19.6705 12.224 19.8935 12.5 19.8935C12.776 19.8935 13 19.6695 13 19.3945V14.5005C13 14.2235 12.776 14.0005 12.5 14.0005C12.224 14.0005 12 14.2235 12 14.5005ZM10 19.0315V15.4405C10 15.1645 10.224 14.9405 10.5 14.9405C10.776 14.9405 11 15.1645 11 15.4405V19.0315C11 19.3065 10.776 19.5315 10.5 19.5315C10.224 19.5315 10 19.3065 10 19.0315ZM8 19.1655V16.5645C8 16.2885 8.224 16.0645 8.5 16.0645C8.776 16.0645 9 16.2885 9 16.5645V19.1655C9 19.4415 8.776 19.6655 8.5 19.6655C8.224 19.6655 8 19.4415 8 19.1655Z" fill="#00005E"/>
</svg>
