<svg width="32" height="32" viewBox="0 0 32 32" fill="none" xmlns="http://www.w3.org/2000/svg">
<path fill-rule="evenodd" clip-rule="evenodd" d="M19.7739 5.2191C19.6292 5.07628 19.4333 4.99739 19.23 5C19.0549 4.99817 18.8849 5.0584 18.75 5.17007L10.67 11.5701H7.57C6.6294 11.5621 5.7243 11.9288 5.0545 12.5892C4.3847 13.2496 4.00528 14.1495 4 15.0901V16.9101C4.00528 17.8507 4.3847 18.7505 5.0545 19.4109C5.7243 20.0714 6.6294 20.4381 7.57 20.4301H10.67L18.75 26.8301C18.8849 26.9417 19.0549 27.002 19.23 27.0001C19.4333 27.0027 19.6292 26.9239 19.7739 26.781C19.9186 26.6382 20 26.4434 20 26.2401V5.76007C20 5.55676 19.9186 5.36192 19.7739 5.2191ZM18 8.31007V23.6901L11.91 18.8601C11.5568 18.5813 11.1199 18.4298 10.67 18.4301H7.57C6.71777 18.4412 6.01642 17.7622 6 16.9101V15.0901C6.01642 14.2379 6.71777 13.5589 7.57 13.5701H10.67C11.1199 13.5703 11.5568 13.4188 11.91 13.1401L18 8.31007ZM22.27 11.57C23.8432 12.5636 24.8239 14.2704 24.89 16.13C24.8274 17.9906 23.8458 19.6989 22.27 20.69C22.1844 20.7482 22.0835 20.7795 21.98 20.78C21.7609 20.7817 21.5663 20.6406 21.4998 20.4318C21.4332 20.2231 21.5104 19.9954 21.69 19.87C22.997 19.0641 23.8207 17.6639 23.89 16.13C23.8207 14.5961 22.997 13.1959 21.69 12.39C21.4674 12.2274 21.4143 11.9174 21.57 11.69C21.7354 11.4721 22.0414 11.4196 22.27 11.57ZM28.5 16.13C28.4161 13.3935 26.9865 10.8749 24.68 9.4C24.5715 9.32251 24.4364 9.29159 24.305 9.31413C24.1735 9.33666 24.0565 9.41078 23.98 9.52001C23.903 9.62695 23.8723 9.76041 23.8949 9.89024C23.9175 10.0201 23.9914 10.1353 24.1 10.21C26.125 11.493 27.3947 13.6851 27.5 16.08C27.4126 18.4934 26.1405 20.7083 24.1 22C23.9204 22.1254 23.8432 22.3531 23.9098 22.5618C23.9763 22.7706 24.1709 22.9117 24.39 22.91C24.4953 22.9108 24.5976 22.8755 24.68 22.81C26.9722 21.345 28.3998 18.8486 28.5 16.13Z" fill="#00005E"/>
</svg>
