<svg width="32" height="32" viewBox="0 0 32 32" fill="none" xmlns="http://www.w3.org/2000/svg">
<path fill-rule="evenodd" clip-rule="evenodd" d="M29.0058 4C29.0058 3.73336 28.8993 3.47777 28.71 3.29C28.5222 3.10069 28.2666 2.9942 28 2.9942C27.7334 2.9942 27.4778 3.10069 27.29 3.29L3.29 27.29C3.10069 27.4778 2.9942 27.7334 2.9942 28C2.9942 28.2666 3.10069 28.5222 3.29 28.71C3.47777 28.8993 3.73336 29.0058 4 29.0058C4.26664 29.0058 4.52223 28.8993 4.71 28.71L28.71 4.71C28.8993 4.52223 29.0058 4.26664 29.0058 4ZM9 20C7.37767 20.0007 6.04867 18.7116 5.99993 17.09V15C5.99467 14.2009 6.30839 13.4327 6.87158 12.8657C7.43476 12.2988 8.20087 11.98 9 11.98H12.15L20.15 3.98C20.2904 3.836 20.5045 3.79238 20.69 3.87C20.8767 3.9467 20.999 4.12815 21 4.33V7.54C21 7.81614 20.7761 8.04 20.5 8.04C20.2239 8.04 20 7.81614 20 7.54V5.54L12.74 12.85C12.6459 12.9477 12.5156 13.002 12.38 13H9C7.89543 13 7 13.8954 7 15V17.05C7.02713 18.135 7.91467 19.0003 9 19C9.27614 19 9.5 19.2239 9.5 19.5C9.5 19.7761 9.27614 20 9 20ZM20.5 16C20.7761 16 21 16.2239 21 16.5V26.37C21 26.5664 20.8872 26.7453 20.71 26.83C20.6408 26.8452 20.5692 26.8452 20.5 26.83C20.3835 26.8334 20.2698 26.7943 20.18 26.72L13.87 21.56C13.6888 21.3783 13.6746 21.0889 13.8371 20.8904C13.9996 20.6918 14.286 20.6484 14.5 20.79L20 25.28V16.5C20 16.2239 20.2239 16 20.5 16ZM25.9 16.1C25.8534 14.5171 25.0306 13.0586 23.7 12.2C23.4763 12.0371 23.1629 12.0863 23 12.31C22.8371 12.5337 22.8863 12.8471 23.11 13.01C24.1797 13.6818 24.8494 14.8378 24.9 16.1C24.8477 17.3617 24.1784 18.517 23.11 19.19C22.9378 19.3191 22.8676 19.5439 22.9357 19.7481C23.0037 19.9523 23.1948 20.09 23.41 20.09C23.5135 20.0895 23.6144 20.0582 23.7 20C25.0293 19.1402 25.8517 17.6824 25.9 16.1ZM25.7 10.41C27.6366 11.6752 28.8317 13.8078 28.9 16.12C28.8202 18.4237 27.6271 20.5452 25.7 21.81C25.6108 21.8684 25.5066 21.8997 25.4 21.9C25.243 21.8985 25.0954 21.8247 25 21.7C24.9188 21.5936 24.8846 21.4587 24.9053 21.3265C24.9261 21.1943 25.0001 21.0763 25.11 21C26.7831 19.9191 27.8243 18.0905 27.9 16.1C27.8213 14.1157 26.78 12.2945 25.11 11.22C25.0001 11.1437 24.9261 11.0257 24.9053 10.8935C24.8846 10.7613 24.9188 10.6264 25 10.52C25.1656 10.3008 25.4751 10.2521 25.7 10.41Z" fill="#00005E"/>
</svg>
