<svg width="32" height="32" viewBox="0 0 32 32" fill="none" xmlns="http://www.w3.org/2000/svg">
<path fill-rule="evenodd" clip-rule="evenodd" d="M16.8 4.49008C16.6429 4.19284 16.3362 4.00497 16 4.00001C15.6428 3.99563 15.3153 4.19836 15.16 4.52008L12 11.0001L4.80001 12.0801C4.44753 12.1328 4.15517 12.3803 4.04502 12.7192C3.93486 13.0581 4.02586 13.4302 4.28001 13.6801L9.46001 18.7501L8.24001 25.9001C8.19299 26.1722 8.26804 26.4513 8.44523 26.6632C8.62243 26.875 8.88382 26.9982 9.16001 27.0001C9.31356 27.0007 9.46482 26.9629 9.60001 26.8901L16 23.5101L22.4 26.8901C22.5352 26.9629 22.6865 27.0007 22.84 27.0001C23.1162 26.9982 23.3776 26.875 23.5548 26.6632C23.732 26.4513 23.807 26.1722 23.76 25.9001L22.54 18.7501L27.72 13.6801C27.9742 13.4302 28.0652 13.0581 27.955 12.7192C27.8448 12.3803 27.5525 12.1328 27.2 12.0801L20 11.0001L16.8 4.49008ZM13.69 11.9201L16 7.35008L18.24 11.9201L18.71 12.8601L19.71 13.0101L24.71 13.7501L21.07 17.3201L20.32 18.0501L20.49 19.0501L21.35 24.0501L16.86 21.6801L16 21.2501L15.07 21.7401L10.58 24.1101L11.44 19.1101L11.61 18.1101L10.86 17.3801L7.22001 13.7501L12.22 13.0101L13.22 12.8601L13.69 11.9201Z" fill="#00005E"/>
</svg>
