<svg width="32" height="32" viewBox="0 0 32 32" fill="none" xmlns="http://www.w3.org/2000/svg">
<path d="M16 3.99988C16.3362 4.00491 16.6429 4.19279 16.8 4.49003L20 11L27.2 12.08C27.5525 12.1327 27.8448 12.3802 27.955 12.7192C28.0652 13.0581 27.9742 13.4302 27.72 13.68L22.54 18.75L23.76 25.9C23.807 26.1722 23.732 26.4513 23.5548 26.6631C23.3776 26.875 23.1162 26.9982 22.84 27C22.6865 27.0007 22.5352 26.9628 22.4 26.89L16 23.51L9.60001 26.89C9.46482 26.9628 9.31356 27.0007 9.16001 27C8.88382 26.9982 8.62243 26.875 8.44523 26.6631C8.26804 26.4513 8.19299 26.1722 8.24001 25.9L9.46001 18.75L4.28001 13.68C4.02586 13.4302 3.93486 13.0581 4.04502 12.7192C4.15517 12.3802 4.44753 12.1327 4.80001 12.08L12 11L15.16 4.52003C15.3153 4.19831 15.6428 3.99557 16 3.99988Z" fill="#00005E"/>
</svg>
