<svg width="24" height="24" viewBox="0 0 24 24" fill="none" xmlns="http://www.w3.org/2000/svg">
<g clip-path="url(#clip0_17651_30200)">
<path fill-rule="evenodd" clip-rule="evenodd" d="M7.08002 2H10.8898C11.2157 1.99997 11.5374 2.07435 11.8301 2.21746C12.1229 2.3606 12.3792 2.56873 12.5793 2.82597L12.5831 2.83083L13.6403 4.20723C13.6532 4.22347 13.6696 4.23664 13.6883 4.24577C13.7075 4.25515 13.7285 4.26001 13.7498 4.26H21.8787C22.4398 4.2649 22.9765 4.49 23.3733 4.88675C23.77 5.28349 23.9951 5.82018 24 6.38127L24.0001 6.39L24 14.8687C23.9951 15.4298 23.77 15.9665 23.3733 16.3632C22.9765 16.76 22.4398 16.9851 21.8787 16.99L21.87 16.99L19.05 16.99V20.6764C19.0518 20.9559 18.9985 21.233 18.8933 21.492C18.7873 21.7526 18.6308 21.9897 18.4328 22.1895C18.2348 22.3892 17.9991 22.5478 17.7395 22.656C17.4798 22.7643 17.2013 22.82 16.92 22.82H2.14C1.57244 22.82 1.02811 22.5945 0.626786 22.1932C0.225451 21.7918 4.59268e-10 21.2475 4.59268e-10 20.68V9.99001C-5.84034e-06 9.70872 0.0556992 9.43017 0.163918 9.17051C0.272154 8.91081 0.43076 8.67517 0.630518 8.47717C0.830296 8.27914 1.06733 8.12264 1.32795 8.0167C1.58696 7.91142 1.86416 7.85817 2.14373 7.85997H4.95001V4.12126C4.95491 3.56018 5.18003 3.02348 5.57677 2.62675C5.97352 2.23 6.51021 2.00494 7.07128 2.00004L7.08002 2ZM21.8635 14.99H19.05V12.2238C19.0518 11.9439 18.9982 11.6665 18.8923 11.4074C18.7857 11.1467 18.6282 10.91 18.4291 10.7109C18.23 10.5117 17.9932 10.3543 17.7325 10.2477C17.4735 10.1417 17.196 10.0881 16.9162 10.09L8.8 10.0899L8.79111 10.09C8.76629 10.0902 8.74171 10.085 8.71912 10.0747C8.70088 10.0664 8.6843 10.055 8.6701 10.0409L7.63306 8.6908L7.62927 8.68594C7.44524 8.44938 7.21375 8.25435 6.95001 8.1132V4.13646C6.95091 4.1006 6.96555 4.0664 6.99098 4.04096C7.0164 4.01554 7.0506 4.00089 7.08648 4H10.8902C10.9115 4 10.9326 4.00486 10.9517 4.01423C10.9704 4.02336 10.9868 4.03653 10.9997 4.05277L12.057 5.42917L12.0607 5.43403C12.2609 5.69127 12.5171 5.8994 12.8099 6.04254C13.1026 6.18565 13.4243 6.26004 13.7502 6.26H21.8635C21.8994 6.2609 21.9336 6.27554 21.959 6.30096C21.9845 6.3264 21.9991 6.3606 22 6.39647V14.8535C21.9991 14.8894 21.9845 14.9236 21.959 14.949C21.9336 14.9745 21.8994 14.9891 21.8635 14.99ZM2.13115 9.85993C2.11399 9.85978 2.09696 9.86303 2.08105 9.86949C2.06516 9.87595 2.05069 9.8855 2.03849 9.8976C2.02626 9.90972 2.01659 9.92411 2.01 9.93991C2.0034 9.95575 2 9.97275 2 9.98993V20.68C2 20.7171 2.01475 20.7527 2.041 20.779C2.06726 20.8052 2.10287 20.82 2.14 20.82H16.92C16.9372 20.82 16.9542 20.8166 16.9701 20.81C16.9859 20.8034 17.0003 20.7937 17.0124 20.7815C17.0245 20.7693 17.034 20.7548 17.0405 20.7389C17.0469 20.723 17.0502 20.706 17.05 20.6888L17.05 20.68L17.05 16.4771C16.8284 16.4257 16.6633 16.2271 16.6633 15.99C16.6633 15.7528 16.8284 15.5542 17.05 15.5029L17.05 12.211C17.0501 12.1951 17.0472 12.1793 17.0411 12.1645C17.0351 12.1498 17.0262 12.1364 17.0149 12.1251C17.0036 12.1138 16.9902 12.1049 16.9755 12.0989C16.9607 12.0928 16.9449 12.0898 16.929 12.0899L16.92 12.09L8.80377 12.09C8.48863 12.092 8.1768 12.0254 7.88999 11.8948C7.60162 11.7634 7.3455 11.5705 7.13966 11.3295L7.12278 11.3097L6.16427 10.0619C6.09932 10.0927 6.02666 10.11 5.94997 10.11C5.76489 10.11 5.6033 10.0094 5.51685 9.85996L2.13115 9.85993ZM6.44997 11.11C6.44997 10.8338 6.22611 10.61 5.94997 10.61C5.67383 10.61 5.44997 10.8338 5.44997 11.11V12.61C5.44997 12.8861 5.67383 13.11 5.94997 13.11C6.22611 13.11 6.44997 12.8861 6.44997 12.61V11.11ZM6.44997 14.11C6.44997 13.8338 6.22611 13.61 5.94997 13.61C5.67383 13.61 5.44997 13.8338 5.44997 14.11L5.44995 14.86L5.44999 14.8644C5.45092 14.9713 5.46231 15.0772 5.48357 15.1805C5.50648 15.2919 5.56475 15.3869 5.64426 15.4563C5.63803 15.5616 5.66495 15.6698 5.72831 15.7641C5.78712 15.8517 5.85464 15.934 5.93028 16.0097C6.00592 16.0853 6.08823 16.1528 6.17583 16.2117C6.2702 16.275 6.37836 16.3019 6.48371 16.2957C6.55309 16.3752 6.64811 16.4335 6.75945 16.4564C6.86279 16.4776 6.96864 16.489 7.07561 16.49H7.99664C8.27278 16.49 8.49664 16.2661 8.49664 15.99C8.49664 15.7138 8.27278 15.49 7.99664 15.49H7.08247C7.04133 15.4895 7.00067 15.4851 6.96097 15.4769C6.91722 15.4679 6.87363 15.4649 6.83106 15.4674C6.80297 15.4353 6.77029 15.4063 6.7332 15.3814C6.69904 15.3585 6.66693 15.3321 6.63739 15.3026C6.60784 15.273 6.5815 15.2409 6.55857 15.2068C6.53367 15.1697 6.50467 15.137 6.47258 15.1089C6.47504 15.0663 6.47205 15.0227 6.46305 14.979C6.45488 14.9393 6.45045 14.8986 6.44997 14.8575V14.11ZM9.82998 15.49C9.55383 15.49 9.32998 15.7138 9.32998 15.99C9.32998 16.2661 9.55383 16.49 9.82998 16.49H11.6633C11.9395 16.49 12.1633 16.2661 12.1633 15.99C12.1633 15.7138 11.9395 15.49 11.6633 15.49H9.82998ZM13.4966 15.49C13.2205 15.49 12.9966 15.7138 12.9966 15.99C12.9966 16.2661 13.2205 16.49 13.4966 16.49H15.33C15.6061 16.49 15.83 16.2661 15.83 15.99C15.83 15.7138 15.6061 15.49 15.33 15.49H13.4966Z" fill="#00005E"/>
</g>
<defs>
<clipPath id="clip0_17651_30200">
<rect width="24" height="24" fill="white"/>
</clipPath>
</defs>
</svg>
