<svg width="32" height="32" viewBox="0 0 32 32" fill="none" xmlns="http://www.w3.org/2000/svg">
<path fill-rule="evenodd" clip-rule="evenodd" d="M26.3107 4.58599C26.1369 4.6051 25.8203 4.64506 25.3813 4.70866C24.6547 4.81394 23.8463 4.94845 22.9763 5.11507C20.4884 5.5915 17.9992 6.23064 15.6676 7.05758C5.81741 10.5512 1.54035 16.3427 6.75904 24.5338L5.91566 25.3772C5.7204 25.5725 5.7204 25.8891 5.91566 26.0843C6.11093 26.2796 6.42751 26.2796 6.62277 26.0843L7.46614 25.241C15.6573 30.4596 21.4488 26.1826 24.9424 16.3324C25.7694 14.0008 26.4085 11.5116 26.8849 9.02374C27.0515 8.15371 27.1861 7.34532 27.2913 6.61869C27.3549 6.17965 27.3949 5.8631 27.414 5.68926C27.4839 5.05323 26.9468 4.51608 26.3107 4.58599ZM8.91897 23.7881C15.5108 27.7513 19.9907 24.3107 23.0575 15.6638C23.8471 13.4375 24.4619 11.0432 24.9206 8.64757C25.0499 7.97258 25.159 7.3367 25.2494 6.75063C24.6633 6.84099 24.0274 6.95011 23.3524 7.07937C20.9568 7.53813 18.5625 8.15292 16.3362 8.94253C7.68925 12.0093 4.24868 16.4891 8.21186 23.081L10.42 20.8729V16.08C10.42 15.8039 10.6438 15.58 10.92 15.58C11.1961 15.58 11.42 15.8039 11.42 16.08V19.8729L14.42 16.8729V13.58C14.42 13.3039 14.6438 13.08 14.92 13.08C15.1961 13.08 15.42 13.3039 15.42 13.58V15.8729L18.42 12.8729V11.58C18.42 11.3039 18.6438 11.08 18.92 11.08C19.1961 11.08 19.42 11.3039 19.42 11.58V12.58H20.42C20.6961 12.58 20.92 12.8039 20.92 13.08C20.92 13.3561 20.6961 13.58 20.42 13.58H19.1271L16.1271 16.58H18.42C18.6961 16.58 18.92 16.8039 18.92 17.08C18.92 17.3561 18.6961 17.58 18.42 17.58H15.1271L12.1271 20.58H15.92C16.1961 20.58 16.42 20.8039 16.42 21.08C16.42 21.3561 16.1961 21.58 15.92 21.58H11.1271L8.91897 23.7881Z" fill="#00005E"/>
</svg>
