<svg width="24" height="24" viewBox="0 0 24 24" fill="none" xmlns="http://www.w3.org/2000/svg">
<path fill-rule="evenodd" clip-rule="evenodd" d="M8.3275 1C4.5545 1 1.4845 4.086 1.4845 7.88C1.4845 7.959 1.4865 8.048 1.4915 8.166C1.5125 8.681 1.5925 9.196 1.7265 9.694L1.7585 9.806C1.8605 10.194 1.9925 10.599 2.1505 11.012C2.7575 12.592 3.7655 14.348 5.1455 16.23C5.8485 17.188 6.6285 18.152 7.4615 19.095L7.5795 19.228L8.3285 20.069L9.0755 19.227L9.1915 19.096C9.9805 18.204 10.7205 17.293 11.3905 16.389L11.5065 16.232C12.8895 14.347 13.8965 12.592 14.5035 11.013C14.6465 10.637 14.7695 10.268 14.8665 9.916L14.8985 9.794C15.0425 9.297 15.1295 8.783 15.1575 8.266L15.1625 8.159C15.1675 8.053 15.1705 7.962 15.1705 7.88C15.1705 4.086 12.0995 1 8.3275 1ZM8.3275 2C11.5465 2 14.1705 4.625 14.1705 7.88C14.1705 7.949 14.1685 8.025 14.1645 8.112L14.1595 8.211C14.1355 8.656 14.0605 9.093 13.9385 9.518L13.9335 9.535L13.9025 9.65C13.8125 9.974 13.7015 10.309 13.5695 10.654C12.9765 12.199 11.9825 13.892 10.7015 15.639L10.5885 15.793C9.9025 16.717 9.1755 17.605 8.4435 18.432L8.3275 18.563L8.2115 18.432C7.4385 17.559 6.6715 16.618 5.9525 15.639C4.6715 13.892 3.6785 12.199 3.0845 10.654C2.9385 10.274 2.8185 9.907 2.7245 9.553L2.7215 9.535L2.6915 9.433C2.5765 9.007 2.5095 8.568 2.4905 8.122C2.4865 8.022 2.4845 7.947 2.4845 7.88C2.4845 4.625 5.1075 2 8.3275 2Z" fill="#00005E"/>
<path fill-rule="evenodd" clip-rule="evenodd" d="M15.642 0C14.37 0 13.114 0.317 11.993 0.909C10.872 0.317 9.617 0 8.343 0C4.019 0 0.5 3.535 0.5 7.88C0.5 7.976 0.503 8.081 0.508 8.202L0.514 8.305C0.547 8.911 0.646 9.5 0.81 10.069L0.836 10.168C0.946 10.565 1.079 10.965 1.234 11.371C1.871 13.033 2.922 14.868 4.356 16.822L4.474 16.982C5.164 17.912 5.922 18.845 6.729 19.757L6.847 19.891L7.444 20.563H7.475C8.411 21.533 10.123 23.128 10.347 23.336C10.785 23.759 11.379 24 11.993 24H11.994C12.606 24 13.201 23.759 13.638 23.336C13.862 23.129 15.574 21.534 16.51 20.563H16.539L17.138 19.891L17.254 19.759C18.063 18.845 18.821 17.912 19.508 16.985L19.626 16.826C21.063 14.867 22.114 13.033 22.751 11.371C22.907 10.965 23.039 10.565 23.145 10.182L23.18 10.054C23.338 9.501 23.438 8.913 23.471 8.322L23.477 8.206C23.482 8.081 23.485 7.976 23.485 7.88C23.485 3.535 19.966 0 15.642 0ZM21.485 7.88C21.485 7.949 21.483 8.025 21.479 8.112L21.474 8.211C21.45 8.656 21.375 9.093 21.253 9.518L21.248 9.535L21.217 9.65C21.128 9.974 21.017 10.309 20.884 10.654C20.291 12.199 19.297 13.892 18.016 15.639L17.903 15.793C17.217 16.717 16.49 17.605 15.758 18.432L15.642 18.563C15.482 18.738 15.324 18.91 15.168 19.073C14.253 20.037 12.256 21.891 12.256 21.891C12.184 21.964 12.088 22 11.993 22C11.897 22 11.801 21.964 11.729 21.891C11.729 21.891 9.733 20.037 8.817 19.073C8.662 18.91 8.503 18.738 8.344 18.563L8.227 18.432C7.496 17.605 6.768 16.717 6.082 15.793L5.969 15.639C4.688 13.892 3.694 12.199 3.101 10.654C2.969 10.309 2.858 9.974 2.768 9.65L2.737 9.535L2.732 9.518C2.61 9.093 2.536 8.656 2.511 8.211L2.506 8.112C2.502 8.025 2.5 7.949 2.5 7.88C2.5 4.625 5.124 2 8.343 2C9.723 2 10.992 2.485 11.993 3.292C12.995 2.485 14.262 2 15.642 2C18.861 2 21.485 4.625 21.485 7.88Z" fill="#00005E"/>
</svg>
