<svg width="32" height="32" viewBox="0 0 32 32" fill="none" xmlns="http://www.w3.org/2000/svg">
<path fill-rule="evenodd" clip-rule="evenodd" d="M28.63 12.07C29.0177 12.46 29.0177 13.09 28.63 13.48L25.21 16.9C25.0213 17.0872 24.7658 17.1915 24.5 17.19C24.2342 17.1915 23.9787 17.0872 23.79 16.9L20.37 13.48C19.9823 13.09 19.9823 12.46 20.37 12.07C20.5578 11.8807 20.8134 11.7742 21.08 11.7742C21.3466 11.7742 21.6022 11.8807 21.79 12.07L23.5 13.78V12.06C23.4945 10.0961 21.9039 8.50549 19.94 8.5H13V11C13 12.1046 12.1046 13 11 13H6C4.89543 13 4 12.1046 4 11V6C4 4.89543 4.89543 4 6 4H11C12.1046 4 13 4.89543 13 6V6.5H19.94C23.0107 6.5 25.5 8.9893 25.5 12.06V13.78L27.21 12.07C27.3978 11.8807 27.6534 11.7742 27.92 11.7742C28.1866 11.7742 28.4422 11.8807 28.63 12.07ZM11 11V6H6V11H11ZM26 19C27.1046 19 28 19.8954 28 21V26C28 27.1046 27.1046 28 26 28H21C19.8954 28 19 27.1046 19 26V25.5H12.06C8.9893 25.5 6.5 23.0107 6.5 19.94V17.84L4.73 19.62C4.47634 19.8737 4.10662 19.9727 3.76012 19.8799C3.41362 19.787 3.14297 19.5164 3.05012 19.1699C2.95728 18.8234 3.05634 18.4537 3.31 18.2L6.73 14.78C6.91777 14.5907 7.17336 14.4842 7.44 14.4842C7.70664 14.4842 7.96223 14.5907 8.15 14.78L11.57 18.24C11.7593 18.4278 11.8658 18.6834 11.8658 18.95C11.8658 19.2166 11.7593 19.4722 11.57 19.66C11.3822 19.8493 11.1266 19.9558 10.86 19.9558C10.5934 19.9558 10.3378 19.8493 10.15 19.66L8.5 18V19.94C8.50549 21.9039 10.0961 23.4945 12.06 23.5H19V21C19 19.8954 19.8954 19 21 19H26ZM26 21H21V26H26V21Z" fill="#00005E"/>
</svg>
