<svg width="32" height="32" viewBox="0 0 32 32" fill="none" xmlns="http://www.w3.org/2000/svg">
<path fill-rule="evenodd" clip-rule="evenodd" d="M24.82 6C26.57 6 28 7.74 28 9.9V22.1C28 24.25 26.57 26 24.82 26H7.18C5.42 26 4 24.25 4 22.1V9.9C4 7.74 5.42 6 7.18 6H24.82ZM6 22.1C6 23.19 6.62 24 7.18 24H10V21H6V22.1ZM15.5 21H11V24H15.5V21ZM21 21H16.5V24H21V21ZM26 21H22V24H24.82C25.34 24 25.93 23.28 25.99 22.28V21H26ZM26 20V17H22V20H26ZM6 20H10V17H6V20ZM15.5 17H11V20H15.5V17ZM21 17H16.5V20H21V17ZM26 16V13H22V16H26ZM6 16H10V13H6V16ZM15.5 13H11V16H15.5V13ZM21 13H16.5V16H21V13ZM24.82 8H7.18C6.62 8 6 8.81 6 9.9V12H26V9.9C26 8.9 25.44 8.09 24.91 8.01L24.82 8Z" fill="#00005E"/>
</svg>
