<svg width="32" height="32" viewBox="0 0 32 32" fill="none" xmlns="http://www.w3.org/2000/svg">
<path fill-rule="evenodd" clip-rule="evenodd" d="M18.9001 8.3C18.6001 8.1 18.3001 8 17.9001 8H9.60007C9.60007 8 8.30007 8.3 8.10007 9C7.80007 10 8.80007 10.5 8.80007 10.5C8.80007 10.5 7.40007 10.9 7.40007 11.9C7.40007 12.8 8.40007 13.2 8.40007 13.2C8.40007 13.2 7.10007 13.9 7.10007 14.8C7.10007 15.8 8.30007 16.1 8.30007 16.1C8.30007 16.1 6.80007 16.8 7.10007 17.9C7.40007 19 8.30007 19 8.40007 19H13.0001C13.4001 19 13.7001 19.5 13.4001 19.8L12.3001 21.4C12.2693 21.4512 12.2312 21.5109 12.1881 21.5785C11.8098 22.1706 11.0411 23.3742 11.4001 24.9C11.7001 26 11.9001 26.3 12.3001 26.3H12.4001C12.6076 26.3 12.6237 26.2522 12.8456 25.5938C12.9445 25.3004 13.0843 24.8857 13.3001 24.3C13.3001 24.3 13.7001 22.9 14.4001 22.1C14.7282 21.7719 15.254 21.5097 15.7921 21.2414C16.4022 20.9372 17.0282 20.625 17.4001 20.2C18.5001 18.9 19.0001 17 19.0001 17L21.2001 16.2L21.3 10.4011V10.4L18.9001 8.3ZM21.7958 8.35036L20.0001 6.9C19.4001 6.3 18.6001 6 17.9001 6H9.60007H9.30007L9.10007 6.1C8.50007 6.2 6.70007 6.8 6.20007 8.5C6.00007 9 6.00007 9.5 6.10007 10C5.60007 10.5 5.40007 11.2 5.40007 12C5.40007 12.3314 5.4687 12.5941 5.5491 12.9019C5.56575 12.9657 5.58291 13.0314 5.60007 13.1C5.30007 13.6 5.00007 14.2 5.10007 14.9C5.10007 15.3 5.20007 15.7 5.40007 16.1C5.00007 16.8 4.90007 17.6 5.20007 18.4C5.70007 20.1 7.20007 20.9 8.50007 20.9H10.3001C9.80007 21.8 9.10007 23.4 9.70007 25.5C9.72018 25.5603 9.74119 25.6256 9.76349 25.6949C10.0739 26.6592 10.6341 28.4 12.5001 28.4H12.6001C14.268 28.4 14.6845 27.1485 15.0774 25.9679C15.085 25.9453 15.0925 25.9226 15.1001 25.9C15.1601 25.78 15.2201 25.552 15.2801 25.324C15.3201 25.172 15.3601 25.02 15.4001 24.9C15.5001 24.5 15.8001 23.8 16.0001 23.6C16.1001 23.5 16.5001 23.3 16.8001 23.2C17.5001 22.9 18.4001 22.4 19.1001 21.7C19.9001 20.7 20.5001 19.6 20.8001 18.7L21.639 18.3773C22.1325 19.3253 23.1199 20 24.3 20H26C27.6 20 29 18.7 29 17V10C29 8.3 27.6 7 26 7H24.3C23.2806 7 22.3424 7.52771 21.7958 8.35036ZM27 10C27 9.4 26.5 9 26 9H24.3C23.7 9 23.3 9.5 23.3 10V17C23.3 17.6 23.8 18 24.3 18H26C26.6 18 27 17.5 27 17V10Z" fill="#00005E"/>
</svg>
