<svg width="32" height="32" viewBox="0 0 32 32" fill="none" xmlns="http://www.w3.org/2000/svg">
<path fill-rule="evenodd" clip-rule="evenodd" d="M14.1256 24.1C14.4256 24.3 14.7256 24.4 15.1256 24.4L23.4256 24.4C23.4256 24.4 24.7256 24.1 24.9256 23.4C25.2256 22.4 24.2256 21.9 24.2256 21.9C24.2256 21.9 25.6256 21.5 25.6256 20.5C25.6256 19.6 24.6256 19.2 24.6256 19.2C24.6256 19.2 25.9256 18.5 25.9256 17.6C25.9256 16.6 24.7256 16.3 24.7256 16.3C24.7256 16.3 26.2256 15.6 25.9256 14.5C25.6256 13.4 24.7256 13.4 24.6256 13.4L20.0256 13.4C19.6256 13.4 19.3256 12.9 19.6256 12.6L20.7256 11C20.7563 10.9488 20.7944 10.8892 20.8376 10.8215C21.2158 10.2294 21.9846 9.02582 21.6256 7.50002C21.3256 6.40002 21.1256 6.10003 20.7256 6.10003H20.6256C20.4181 6.10003 20.4019 6.14787 20.18 6.8062C20.0811 7.09961 19.9414 7.51428 19.7256 8.10003C19.7256 8.10003 19.3256 9.50002 18.6256 10.3C18.2975 10.6281 17.7717 10.8903 17.2335 11.1587C16.6234 11.4629 15.9975 11.775 15.6256 12.2C14.5256 13.5 14.0256 15.4 14.0256 15.4L11.8256 16.2L11.7256 21.9989V22L14.1256 24.1ZM11.2299 24.0497L13.0256 25.5C13.6256 26.1 14.4256 26.4 15.1256 26.4L23.4256 26.4H23.7256L23.9256 26.3C24.5256 26.2 26.3256 25.6 26.8256 23.9C27.0256 23.4 27.0256 22.9 26.9256 22.4C27.4256 21.9 27.6256 21.2 27.6256 20.4C27.6256 20.0687 27.5569 19.8059 27.4765 19.4981C27.4599 19.4343 27.4427 19.3687 27.4256 19.3C27.7256 18.8 28.0256 18.2 27.9256 17.5C27.9256 17.1 27.8256 16.7 27.6256 16.3C28.0256 15.6 28.1256 14.8 27.8256 14C27.3256 12.3 25.8256 11.5 24.5256 11.5L22.7256 11.5C23.2256 10.6 23.9256 9.00002 23.3256 6.90002C23.3055 6.83969 23.2844 6.77441 23.2621 6.70512C22.9518 5.74085 22.3915 4.00002 20.5256 4.00002H20.4256C18.7576 4.00002 18.3411 5.25149 17.9482 6.43208C17.9406 6.45476 17.9331 6.47741 17.9256 6.50002C17.8656 6.62002 17.8056 6.84802 17.7456 7.07602C17.7056 7.22802 17.6656 7.38002 17.6256 7.50002C17.5256 7.90002 17.2256 8.60002 17.0256 8.80002C16.9256 8.90002 16.5256 9.10002 16.2256 9.20002C15.5256 9.50002 14.6256 10 13.9256 10.7C13.1256 11.7 12.5256 12.8 12.2256 13.7L11.3867 14.0227C10.8932 13.0747 9.90576 12.4 8.72559 12.4H7.02563C5.42563 12.4 4.02563 13.7 4.02563 15.4L4.02563 22.4C4.02563 24.1 5.42563 25.4 7.02563 25.4H8.72559C9.74499 25.4 10.6832 24.8723 11.2299 24.0497ZM6.02563 22.4C6.02563 23 6.52563 23.4 7.02563 23.4L8.72559 23.4C9.32559 23.4 9.72559 22.9 9.72559 22.4L9.72559 15.4C9.72559 14.8 9.22559 14.4 8.72559 14.4H7.02563C6.42563 14.4 6.02563 14.9 6.02563 15.4L6.02563 22.4Z" fill="#00005E"/>
</svg>
