<svg width="32" height="32" viewBox="0 0 32 32" fill="none" xmlns="http://www.w3.org/2000/svg">
<path fill-rule="evenodd" clip-rule="evenodd" d="M16 4C22.6274 4 28 9.37258 28 16C28 22.6274 22.6274 28 16 28C9.37258 28 4 22.6274 4 16C4 9.37258 9.37258 4 16 4ZM23.6 22.48C24.9405 20.941 25.7779 19.0288 26 17H23C22.7239 17 22.5 16.7761 22.5 16.5C22.5 16.2239 22.7239 16 23 16H26C26.0005 13.9137 25.3426 11.8805 24.12 10.19L22.54 11.52C22.4503 11.5956 22.3373 11.638 22.22 11.64C22.0695 11.6417 21.9263 11.5756 21.83 11.46C21.6551 11.2496 21.6818 10.9376 21.89 10.76L23.5 9.41C21.6061 7.24844 18.8738 6.00616 16 6V8C16 8.27614 15.7761 8.5 15.5 8.5C15.2239 8.5 15 8.27614 15 8V6.05C12.4881 6.30603 10.166 7.50278 8.5 9.4L10.11 10.76C10.2684 10.8955 10.3262 11.115 10.255 11.3109C10.1837 11.5068 9.99844 11.6379 9.79 11.64C9.67205 11.6416 9.55783 11.5987 9.47 11.52L7.88 10.18C6.66089 11.876 6.00347 13.9113 6 16H9C9.27614 16 9.5 16.2239 9.5 16.5C9.5 16.7761 9.27614 17 9 17H6.05C6.25587 19.0266 7.07578 20.9421 8.4 22.49L10.22 21C10.4326 20.8233 10.7483 20.8524 10.925 21.065C11.1017 21.2776 11.0726 21.5933 10.86 21.77L9.09 23.26C10.699 24.8074 12.7794 25.7719 15 26.0001V23C15 22.7239 15.2239 22.5 15.5 22.5C15.7761 22.5 16 22.7239 16 23V26.0001C18.5698 26.0085 21.0443 25.0273 22.91 23.26L21.14 21.77C20.9274 21.5905 20.9005 21.2726 21.08 21.06C21.2595 20.8474 21.5774 20.8205 21.79 21L23.6 22.48ZM21 16.5C21 16.2239 20.7761 16 20.5 16H16V11.5C16 11.2239 15.7761 11 15.5 11C15.2239 11 15 11.2239 15 11.5V17H20.5C20.7761 17 21 16.7761 21 16.5Z" fill="#00005E"/>
</svg>
