<svg width="32" height="32" viewBox="0 0 32 32" fill="none" xmlns="http://www.w3.org/2000/svg">
<path fill-rule="evenodd" clip-rule="evenodd" d="M21.27 25.0001C23.2981 25.0169 24.9617 23.3979 25 21.3701H27C26.967 24.5048 24.4048 27.0223 21.27 27.0001H8.83C5.64932 27.0279 3.0439 24.4806 3 21.3001V15.7001C3.01729 12.7449 5.26825 10.2822 8.21 10.0001L19.46 4.64006C20.1674 4.29996 21.0169 4.58905 21.37 5.29006L23.88 10.6501C25.7806 11.594 26.9874 13.528 27 15.6501V16.4501H25V15.6401C24.9671 13.6083 23.3019 11.9833 21.27 12.0001H8.83C6.75162 11.9666 5.03833 13.6218 5 15.7001V21.3001C5.03833 23.3784 6.75162 25.0335 8.83 25.0001H21.27ZM19.9 5.54006L10.59 10.0001H21.27C21.7074 10.0038 22.1432 10.054 22.57 10.1501L20.48 5.74006C20.3691 5.53151 20.1159 5.44418 19.9 5.54006ZM29 19.0001C29 18.4478 28.5523 18.0001 28 18.0001H19.47L21.1 16.4201C21.4206 16.0255 21.3942 15.4532 21.0385 15.0899C20.6829 14.7266 20.1113 14.688 19.71 15.0001L16.3 18.2901C16.1044 18.4785 15.994 18.7385 15.994 19.0101C15.994 19.2817 16.1044 19.5416 16.3 19.7301L19.71 23.0001C19.8954 23.1787 20.1425 23.279 20.4 23.2801C20.8089 23.2825 21.1781 23.0358 21.3323 22.657C21.4864 22.2783 21.3944 21.8438 21.1 21.5601L19.45 20.0001H28C28.5523 20.0001 29 19.5523 29 19.0001Z" fill="#00005E"/>
</svg>
