<svg width="32" height="32" viewBox="0 0 32 32" fill="none" xmlns="http://www.w3.org/2000/svg">
<path fill-rule="evenodd" clip-rule="evenodd" d="M28.41 9.21991C28.7945 10.1771 28.9946 11.1984 29.0001 12.2299C29.0133 14.4328 28.1482 16.5502 26.5961 18.1136C25.044 19.6769 22.9329 20.5573 20.73 20.5599C19.8382 20.5603 18.9527 20.4116 18.11 20.1199L11.36 26.9099C10.6688 27.6108 9.72437 28.0037 8.73999 27.9999C7.74813 28.0019 6.79698 27.6056 6.09999 26.8999C5.39407 26.1947 4.99744 25.2377 4.99744 24.2399C4.99744 23.2421 5.39407 22.2851 6.09999 21.5799L12.85 14.7299C12.6126 13.9312 12.4881 13.1031 12.48 12.2699C12.4745 7.71582 16.1559 4.01644 20.71 3.99981C21.7364 3.9948 22.7545 4.18484 23.71 4.55991C24 4.72991 24.16 5.03991 24 5.19991L23.26 5.99991L20.79 8.39991C20.639 8.54508 20.5537 8.74547 20.5537 8.95491C20.5537 9.16434 20.639 9.36474 20.79 9.50991L23.39 12.1399C23.5365 12.2883 23.7364 12.3718 23.945 12.3718C24.1536 12.3718 24.3534 12.2883 24.5 12.1399L27.09 9.55991L27.81 8.83991C27.8516 8.80317 27.9046 8.78197 27.96 8.77991C28.15 8.77991 28.34 9.04991 28.41 9.21991ZM20.75 18.5499C24.1242 18.5305 26.882 15.8521 27 12.4799L26 13.5599C25.4709 14.0901 24.749 14.3825 24 14.3699C23.2474 14.3808 22.5237 14.0804 22 13.5399L19.37 10.9999C18.8274 10.476 18.5209 9.75415 18.5209 8.99991C18.5209 8.24566 18.8274 7.52378 19.37 6.99991L20.37 5.99991C17.1061 6.26584 14.5944 8.99518 14.6 12.2699C14.6018 12.9035 14.6962 13.5335 14.88 14.1399L15.23 15.2899L14.39 16.1399L7.56999 22.9899C6.88632 23.683 6.88632 24.7968 7.56999 25.4899C7.88985 25.8195 8.33071 26.0038 8.78999 26C9.2439 26.0015 9.67959 25.8214 9.99999 25.4999L16.68 18.6999L17.56 17.8099L18.75 18.2199C19.3931 18.4425 20.0694 18.5541 20.75 18.5499ZM20.79 15.72L17.59 12.52C17.3922 12.3282 17.0778 12.3282 16.88 12.52C16.7853 12.6139 16.7321 12.7417 16.7321 12.875C16.7321 13.0083 16.7853 13.1361 16.88 13.23L20.08 16.43C20.1733 16.5215 20.2993 16.5719 20.43 16.57C20.5639 16.5734 20.6936 16.523 20.79 16.43C20.9818 16.2322 20.9818 15.9178 20.79 15.72Z" fill="#00005E"/>
</svg>
