<svg width="32" height="32" viewBox="0 0 32 32" fill="none" xmlns="http://www.w3.org/2000/svg">
<path fill-rule="evenodd" clip-rule="evenodd" d="M23.3031 6.10492C22.5526 5.37884 21.5441 4.98128 20.5 5H11.5C10.4559 4.98128 9.44737 5.37884 8.6969 6.10492C7.94643 6.831 7.51577 7.8259 7.5 8.87V24C7.5 24.5523 7.94772 25 8.5 25C9.05228 25 9.5 24.5523 9.5 24V11H22.5V24C22.5 24.5523 22.9477 25 23.5 25C24.0523 25 24.5 24.5523 24.5 24V8.87C24.4842 7.8259 24.0536 6.831 23.3031 6.10492ZM22.5 10H9.5V8.87C9.53802 7.80229 10.4321 6.96628 11.5 7H20.5C21.5679 6.96628 22.462 7.80229 22.5 8.87V10ZM17.5 8C17.7761 8 18 8.22386 18 8.5C18 8.77614 17.7761 9 17.5 9H14.5C14.2239 9 14 8.77614 14 8.5C14 8.22386 14.2239 8 14.5 8H17.5ZM20.81 17.9L16.71 13.8C16.5222 13.6107 16.2666 13.5042 16 13.5042C15.7334 13.5042 15.4778 13.6107 15.29 13.8L11.19 17.9C10.8023 18.29 10.8023 18.92 11.19 19.31C11.3778 19.4993 11.6334 19.6058 11.9 19.6058C12.1666 19.6058 12.4222 19.4993 12.61 19.31L15 16.92V28C15 28.5523 15.4477 29 16 29C16.5523 29 17 28.5523 17 28V16.92L19.39 19.31C19.5778 19.4993 19.8334 19.6058 20.1 19.6058C20.3666 19.6058 20.6222 19.4993 20.81 19.31C21.1977 18.92 21.1977 18.29 20.81 17.9Z" fill="#00005E"/>
</svg>
