<svg width="32" height="32" viewBox="0 0 32 32" fill="none" xmlns="http://www.w3.org/2000/svg">
<path d="M24.23 12C25.2511 12.021 26.2221 12.4469 26.9292 13.184C27.6362 13.921 28.0214 14.9089 28 15.93V22.07C28.0214 23.0911 27.6362 24.079 26.9292 24.816C26.2221 25.5531 25.2511 25.979 24.23 26H12.76C10.6374 25.9508 8.9553 24.1927 8.99999 22.07L11 22C10.9671 22.4989 11.1343 22.9903 11.4646 23.3656C11.7948 23.7409 12.261 23.9692 12.76 24H24.23C25.2496 23.9514 26.0396 23.09 26 22.07V15.93C26.0396 14.91 25.2496 14.0486 24.23 14H12.77C11.7503 14.0486 10.9604 14.91 11 15.93L8.99999 16V15.93C8.97855 14.9089 9.36375 13.921 10.0708 13.184C10.7779 12.4469 11.7488 12.021 12.77 12H22V9.9C22.008 9.40403 21.8186 8.92519 21.4736 8.56885C21.1285 8.21252 20.656 8.00789 20.16 8H7.83999C7.34401 8.00789 6.87149 8.21252 6.52641 8.56885C6.18133 8.92519 5.99197 9.40403 5.99999 9.9V16.1C5.99197 16.596 6.18133 17.0748 6.52641 17.4311C6.87149 17.7875 7.34401 17.9921 7.83999 18H19.44L18.28 16.79C18.0012 16.5392 17.8861 16.1536 17.9819 15.791C18.0777 15.4284 18.3683 15.1499 18.7346 15.0696C19.1009 14.9894 19.4813 15.1208 19.72 15.41L22.47 18.27C22.8446 18.6576 22.8446 19.2724 22.47 19.66L19.72 22.52C19.5322 22.717 19.2722 22.829 19 22.83C18.5963 22.8324 18.2307 22.5918 18.0733 22.22C17.9158 21.8483 17.9974 21.4183 18.28 21.13L19.37 20H7.83999C6.81359 19.9921 5.83238 19.5767 5.11224 18.8453C4.39209 18.1139 3.992 17.1264 3.99987 16.1V9.9C3.992 8.8736 4.39209 7.88607 5.11224 7.15468C5.83238 6.42328 6.81359 6.00793 7.83999 6H20.16C21.1864 6.00793 22.1676 6.42328 22.8877 7.15468C23.6079 7.88607 24.008 8.8736 24 9.9V12H24.23Z" fill="#00005E"/>
</svg>
