<svg width="32" height="32" viewBox="0 0 32 32" fill="none" xmlns="http://www.w3.org/2000/svg">
<path fill-rule="evenodd" clip-rule="evenodd" d="M24 9C26.2091 9 28 10.7909 28 13V23C28 25.2091 26.2091 27 24 27H8C5.79086 27 4 25.2091 4 23V13C4 10.7909 5.79086 9 8 9H10.09C10.4713 6.69468 12.4634 5.0029 14.8 5H17.2C19.5366 5.0029 21.5287 6.69468 21.91 9H24ZM14.8 7C13.5666 7.00585 12.4824 7.81804 12.13 9H19.87C19.5176 7.81804 18.4334 7.00585 17.2 7H14.8ZM23 11V25H21V11H23ZM11 25V11H9V25H11ZM8 25C6.89543 25 6 24.1046 6 23V13C6 11.8954 6.89543 11 8 11V25ZM12 25H20V11H12V25ZM26 13V23C26 24.1046 25.1046 25 24 25V11C25.1046 11 26 11.8954 26 13Z" fill="#00005E"/>
</svg>
