<svg width="32" height="32" viewBox="0 0 32 32" fill="none" xmlns="http://www.w3.org/2000/svg">
<path fill-rule="evenodd" clip-rule="evenodd" d="M16 28C22.6274 28 28 22.6274 28 16C28 9.37258 22.6274 4 16 4C9.37258 4 4 9.37258 4 16C4 22.6274 9.37258 28 16 28ZM19.8625 11.8975C19.3939 11.7869 18.9041 11.805 18.445 11.95C17.4521 12.294 16.8087 13.256 16.87 14.305V14.7025L16.4725 14.6575C15.0148 14.47 13.6611 13.8023 12.625 12.76L12.1075 12.25L11.9725 12.64C11.67 13.4777 11.8643 14.4143 12.475 15.0625C12.7975 15.4075 12.7225 15.4525 12.1675 15.25C12.0477 15.1935 11.9174 15.1629 11.785 15.16C11.8138 15.54 11.913 15.9113 12.0775 16.255C12.3346 16.706 12.7213 17.0692 13.1875 17.2975L13.585 17.4925H13.1125C12.6625 17.4925 12.6475 17.4925 12.6925 17.68C12.9791 18.3187 13.5249 18.8045 14.1925 19.015L14.6875 19.1875L14.2525 19.45C13.5931 19.8329 12.8473 20.0419 12.085 20.0575C11.8633 20.0491 11.6415 20.0693 11.425 20.1175C11.9073 20.4394 12.4324 20.6918 12.985 20.8675C14.7608 21.3937 16.6741 21.1772 18.2875 20.2675C19.4777 19.498 20.4143 18.3944 20.98 17.095C21.2851 16.3098 21.4697 15.4829 21.5275 14.6425C21.5275 14.2675 21.5275 14.215 22.0075 13.765C22.2116 13.5704 22.3997 13.3598 22.57 13.135C22.6525 12.985 22.645 12.985 22.2325 13.135C21.5425 13.3825 21.4825 13.3525 21.79 12.985C22.0343 12.7359 22.2212 12.4364 22.3375 12.1075C22.3375 12.1075 22.2175 12.1075 22.075 12.1975C21.8483 12.3099 21.6125 12.4027 21.37 12.475L20.9275 12.6175L20.5525 12.25C20.3369 12.1062 20.1054 11.9879 19.8625 11.8975Z" fill="#00005E"/>
</svg>
