<svg width="32" height="32" viewBox="0 0 32 32" fill="none" xmlns="http://www.w3.org/2000/svg">
<path fill-rule="evenodd" clip-rule="evenodd" d="M17 16C17 16.5523 16.5523 17 16 17C15.4477 17 15 16.5523 15 16V7.41L12.68 9.73C12.2832 10.0698 11.6918 10.0469 11.3224 9.67756C10.9531 9.30819 10.9302 8.71676 11.27 8.32L15.2403 4.34972C15.4237 4.13565 15.696 4 16 4C16.3664 4 16.6867 4.19701 16.8609 4.49088L20.69 8.32C21.0777 8.71004 21.0777 9.33996 20.69 9.73C20.5031 9.90503 20.2561 10.0017 20 10C19.7377 9.9989 19.4863 9.89474 19.3 9.71L17 7.41V16ZM28 23.07C28 25.2405 26.2405 27 24.07 27H7.93C5.75952 27 4 25.2405 4 23.07V22.93C4 21.8877 4.41405 20.8881 5.15107 20.1511C5.88809 19.4141 6.8877 19 7.93 19H24.07C26.2405 19 28 20.7595 28 22.93V23.07ZM7.93 21C6.86636 21.0055 6.00547 21.8664 6 22.93V23.07C6.00547 24.1336 6.86636 24.9945 7.93 25H24.07C25.1336 24.9945 25.9945 24.1336 26 23.07V22.93C25.9945 21.8664 25.1336 21.0055 24.07 21H7.93ZM8 24C8.55228 24 9 23.5523 9 23C9 22.4477 8.55228 22 8 22C7.44772 22 7 22.4477 7 23C7 23.5523 7.44772 24 8 24Z" fill="#00005E"/>
</svg>
