<svg width="32" height="32" viewBox="0 0 32 32" fill="none" xmlns="http://www.w3.org/2000/svg">
<path fill-rule="evenodd" clip-rule="evenodd" d="M21.9996 7.577L24.3516 10H21.9996V7.577ZM29.9436 22.175C30.3336 21.784 30.3336 21.151 29.9436 20.761L26.6256 17.442C26.4376 17.255 26.1836 17.149 25.9186 17.149C25.6536 17.149 25.3986 17.255 25.2116 17.442L21.8936 20.761C21.5026 21.151 21.5026 21.784 21.8936 22.175C22.0886 22.37 22.3446 22.468 22.6006 22.468C22.8556 22.468 23.1116 22.37 23.3076 22.175L24.9996 20.482V23.997C24.9996 24.55 24.5146 25 23.9206 25L8.07657 24.92C7.48257 24.916 6.99957 24.466 6.99957 23.917V8.003C6.99957 7.45 7.48957 7 8.09057 7H20.9996V10.5C20.9996 10.776 21.2236 11 21.4996 11H24.9996V14C24.9996 14.553 25.4476 15 25.9996 15C26.5526 15 26.9996 14.553 26.9996 14V10.263C26.9996 10.003 26.8986 9.753 26.7176 9.566L22.5806 5.304C22.3926 5.109 22.1336 5 21.8626 5H8.09057C6.38657 5 4.99957 6.347 4.99957 8.003V23.917C4.99957 25.562 6.37357 26.908 8.06457 26.92L23.9166 27C25.6166 27 26.9996 25.653 26.9996 23.997V20.646L28.5296 22.175C28.9196 22.565 29.5526 22.565 29.9436 22.175ZM12.2065 10.3563C12.1645 10.2303 12.1085 10.1633 12.0415 10.1553C12.0345 10.1543 12.0275 10.1533 12.0195 10.1533C11.9045 10.1533 11.7285 10.2483 11.6235 10.4153C11.5115 10.5923 11.5175 10.7813 11.6405 10.9743L11.6525 10.9953C11.9655 11.5443 12.3175 12.0643 12.7045 12.5543C12.4923 11.3186 12.2395 10.4675 12.2093 10.3659C12.2078 10.3608 12.2068 10.3575 12.2065 10.3563ZM13.9245 17.2153C14.4645 16.9163 15.0245 16.6533 15.5985 16.4263C15.0345 16.0843 14.4945 15.7003 13.9835 15.2793C13.9985 15.9123 13.9825 16.5623 13.9245 17.2153ZM21.4525 16.7753C21.3905 16.6353 21.2425 16.4653 20.8945 16.4403C20.0615 16.4223 19.2055 16.5093 18.3835 16.6623C19.2555 16.9803 20.1655 17.2053 21.0985 17.3253C21.3357 17.3648 21.402 17.2783 21.4257 17.2473L21.4265 17.2463C21.5135 17.1333 21.5235 16.9353 21.4525 16.7753ZM10.8555 21.8393C10.9875 21.8593 11.2375 21.8533 11.4545 21.5813C11.9485 20.9043 12.2995 20.1403 12.5405 19.3393C11.8625 19.8813 11.2315 20.4933 10.6615 21.1723C10.5845 21.2653 10.4565 21.4563 10.5155 21.6103C10.5585 21.7213 10.6945 21.8143 10.8555 21.8393ZM13.7525 18.4753C13.5045 19.8143 13.0385 21.1063 12.2485 22.1883C11.9085 22.6143 11.4375 22.8453 10.9455 22.8453C10.8645 22.8453 10.7835 22.8403 10.7015 22.8273C10.1825 22.7463 9.75347 22.4173 9.58147 21.9673C9.47847 21.6993 9.38247 21.1553 9.89247 20.5333C10.7655 19.4953 11.7665 18.6003 12.8625 17.8633C13.0395 16.6543 13.0275 15.4243 12.9335 14.3203C12.1055 13.4833 11.3825 12.5383 10.7895 11.5003C10.4675 10.9853 10.4625 10.3823 10.7775 9.8823C11.0875 9.3883 11.6445 9.0983 12.1625 9.1623C12.6255 9.2183 12.9875 9.5383 13.1545 10.0403C13.4045 10.7883 13.7395 12.1993 13.8975 13.8673C14.7825 14.7153 15.7855 15.4313 16.8715 15.9963C18.1765 15.6213 19.5435 15.4553 20.9335 15.4413C21.6125 15.4893 22.1225 15.8253 22.3645 16.3663C22.5885 16.8663 22.5315 17.4523 22.2185 17.8573C21.9275 18.2343 21.4655 18.3993 20.9525 18.3143C19.4915 18.1263 18.0815 17.6983 16.7745 17.0663C15.7125 17.4063 14.6975 17.8793 13.7525 18.4753Z" fill="#00005E"/>
</svg>
