<svg width="32" height="32" viewBox="0 0 32 32" fill="none" xmlns="http://www.w3.org/2000/svg">
<path fill-rule="evenodd" clip-rule="evenodd" d="M27.7244 16.6311C27.564 16.7997 27.3437 16.8987 27.1111 16.9067C26.8835 16.9081 26.6639 16.8222 26.4978 16.6667L25.3333 15.5554V21.3333V21.6267C25.3284 24.6536 22.8758 27.1062 19.8489 27.1111H13.04C10.0131 27.1062 7.56045 24.6536 7.55555 21.6267V15.5337L6.39111 16.6578C6.16821 16.9056 5.82538 17.0079 5.5031 16.9228C5.18082 16.8376 4.93328 16.5793 4.8619 16.2537C4.79053 15.9281 4.90733 15.5899 5.16444 15.3778L15.76 5.13777C16.1045 4.80474 16.651 4.80474 16.9956 5.13777L22.0711 9.98204V9.40444C22.1318 8.61234 22.7922 8.00059 23.5867 8.00059C24.3811 8.00059 25.0415 8.61234 25.1022 9.40444V12.875L27.7244 15.3778C28.0691 15.7245 28.0691 16.2844 27.7244 16.6311ZM21.3333 20.8889H23.5556V13.8589L23.4706 13.7778H9.37463L9.33333 13.8176V17.3333H12.891C12.9373 16.3465 13.7495 15.5603 14.7467 15.5555H18.1422C19.1662 15.5604 19.9951 16.3893 20 17.4133V20.8089C19.9951 21.8329 19.1662 22.6618 18.1422 22.6667H14.7467C13.7227 22.6618 12.8938 21.8329 12.8889 20.8089V18.2222H9.33333V21.6267C9.33333 22.6097 9.72385 23.5525 10.419 24.2477C11.1141 24.9428 12.0569 25.3333 13.04 25.3333H19.8489C20.832 25.3333 21.7748 24.9428 22.4699 24.2477C23.1293 23.5882 23.5146 22.7059 23.5525 21.7778H21.3333C21.0879 21.7778 20.8889 21.5788 20.8889 21.3333C20.8889 21.0879 21.0879 20.8889 21.3333 20.8889ZM13.7778 17.7778V20.8089C13.7778 21.344 14.2116 21.7778 14.7467 21.7778H18.1422C18.6773 21.7778 19.1111 21.344 19.1111 20.8089V17.4133C19.1111 16.8782 18.6773 16.4444 18.1422 16.4444H14.7467C14.2116 16.4444 13.7778 16.8782 13.7778 17.4133V17.7778ZM10.2955 12.8889H22.5391L16.3822 7.01333L13.9788 9.33332H16C16.2455 9.33332 16.4444 9.53231 16.4444 9.77777C16.4444 10.0232 16.2455 10.2222 16 10.2222H13.058L10.2955 12.8889ZM24.2133 12.0266L22.96 10.8304V9.42221C22.96 9.07857 23.2386 8.79999 23.5822 8.79999C23.9273 8.79996 24.2085 9.07714 24.2133 9.42221V12.0266Z" fill="#00005E"/>
</svg>
