<svg width="32" height="32" viewBox="0 0 32 32" fill="none" xmlns="http://www.w3.org/2000/svg">
<path fill-rule="evenodd" clip-rule="evenodd" d="M22.5 3C24.2239 3 25.8772 3.68482 27.0962 4.90381C28.3152 6.12279 29 7.77609 29 9.5C29 13.0899 26.0899 16 22.5 16C18.9102 16 16 13.0899 16 9.5C16 5.91015 18.9102 3 22.5 3ZM22.5 14C24.983 13.9945 26.9945 11.983 27 9.5C27 7.01472 24.9853 5 22.5 5C20.0147 5 18 7.01472 18 9.5C18 11.9853 20.0147 14 22.5 14ZM26.68 22.33L23.1 18.85C22.6909 18.4614 22.0491 18.4614 21.64 18.85L19.69 20.72C19.3597 21.0264 18.8748 21.0979 18.47 20.9C16.9578 20.1754 15.5542 19.2431 14.3 18.13C13.1117 16.9446 12.1612 15.5427 11.5 14C11.3343 13.6221 11.4177 13.1812 11.71 12.89L13.57 11.11C13.9577 10.72 13.9577 10.09 13.57 9.7L10 6.29C9.58562 5.90508 8.94443 5.90508 8.53003 6.29L6.34003 8.37C5.83286 8.85878 5.46375 9.47281 5.27003 10.15C4.30336 13.5833 5.92336 17.4467 10.13 21.74C13.55 25.2467 16.9467 27 20.32 27C21.1707 26.9986 22.0177 26.8877 22.84 26.67C23.5288 26.4994 24.1623 26.1551 24.68 25.67L26.68 23.74C27.0677 23.35 27.0677 22.72 26.68 22.33ZM24.54 23L23.3 24.2C23.0197 24.4624 22.6745 24.6454 22.3 24.73C21.6478 24.9057 20.9755 24.9964 20.3 25C17.51 25 14.56 23.43 11.53 20.34C7.89003 16.62 6.42003 13.34 7.18003 10.69C7.27348 10.354 7.45671 10.0497 7.71003 9.81L9.24003 8.36L11.41 10.44L10.32 11.49C9.4123 12.3761 9.16006 13.7375 9.69003 14.89C10.4656 16.6485 11.5686 18.2435 12.94 19.59C14.3296 20.8363 15.8883 21.88 17.57 22.69C18.0161 22.9031 18.5057 23.0092 19 23C19.7911 23.0073 20.5531 22.7018 21.12 22.15L22.41 20.91L24.54 23ZM24.56 7.15H24.58C24.7045 7.00009 24.9047 6.93613 25.093 6.98613C25.2814 7.03614 25.4235 7.19098 25.4572 7.3829C25.4909 7.57481 25.41 7.76882 25.25 7.88L21.54 11.32L20.07 9.87C19.9432 9.74317 19.8937 9.55831 19.9401 9.38506C19.9865 9.21181 20.1218 9.07648 20.2951 9.03006C20.4683 8.98364 20.6532 9.03317 20.78 9.16L21.56 9.94L24.56 7.15Z" fill="#00005E"/>
</svg>
