<svg width="32" height="32" viewBox="0 0 32 32" fill="none" xmlns="http://www.w3.org/2000/svg">
<path fill-rule="evenodd" clip-rule="evenodd" d="M27.93 10C28.1954 9.98077 28.4575 10.0681 28.6583 10.2426C28.8591 10.4172 28.9821 10.6645 29 10.93V21.11C28.9821 21.3755 28.8591 21.6228 28.6583 21.7974C28.4575 21.9719 28.1954 22.0592 27.93 22.04C27.7025 22.042 27.4796 21.9758 27.29 21.85L24.91 20.3C24.4723 22.4539 22.5779 24.0012 20.38 24H8.62C6.06844 24 4 21.9316 4 19.38V12.62C4 10.0684 6.06844 8 8.62 8H20.38C22.5871 8.00166 24.4848 9.56422 24.91 11.73L27.29 10.19C27.4796 10.0642 27.7025 9.99805 27.93 10ZM23 19.38V12.62C23 11.9251 22.724 11.2587 22.2326 10.7674C21.7413 10.276 21.0749 10 20.38 10H8.62C7.17301 10 6 11.173 6 12.62V19.38C6 20.827 7.17301 22 8.62 22H20.38C21.0749 22 21.7413 21.724 22.2326 21.2326C22.724 20.7413 23 20.0749 23 19.38ZM27 12.76V19.28L25 18V14.05L27 12.76ZM17.5 12C17.7761 12 18 12.2239 18 12.5C18 12.7761 17.7761 13 17.5 13H7.5C7.22386 13 7 12.7761 7 12.5C7 12.2239 7.22386 12 7.5 12H17.5ZM8.25 16.5C8.94036 16.5 9.5 15.9404 9.5 15.25C9.5 14.5596 8.94036 14 8.25 14C7.55964 14 7 14.5596 7 15.25C7 15.9404 7.55964 16.5 8.25 16.5Z" fill="#00005E"/>
</svg>
