<svg width="32" height="32" viewBox="0 0 32 32" fill="none" xmlns="http://www.w3.org/2000/svg">
<path fill-rule="evenodd" clip-rule="evenodd" d="M28.0058 5C28.0058 4.73336 27.8993 4.47777 27.71 4.29C27.5222 4.10069 27.2666 3.9942 27 3.9942C26.7334 3.9942 26.4778 4.10069 26.29 4.29L4.29 26.29C4.10069 26.4778 3.9942 26.7334 3.9942 27C3.9942 27.2666 4.10069 27.5222 4.29 27.71C4.47777 27.8993 4.73336 28.0058 5 28.0058C5.26664 28.0058 5.52223 27.8993 5.71 27.71L27.71 5.71C27.8993 5.52223 28.0058 5.26664 28.0058 5ZM5.76 22.51C4.6617 21.7891 4 20.5637 4 19.25V12.91C4.0055 10.7528 5.75285 9.0055 7.91 9H18.5C18.7761 9 19 9.22386 19 9.5C19 9.77614 18.7761 10 18.5 10H7.91C6.30513 10.0055 5.00549 11.3051 5 12.91V19.25C4.99174 20.2235 5.4725 21.1362 6.28 21.68C6.50814 21.8326 6.57062 22.1406 6.42 22.37C6.32693 22.5117 6.16953 22.5979 6 22.6C5.91309 22.5933 5.82986 22.5621 5.76 22.51ZM28 12.1C27.9976 11.6348 27.7351 11.2101 27.32 11C26.84 10.7426 26.2582 10.7655 25.8 11.06L22 13.54V14.44V14.5V19.15V20.09C21.9945 21.6949 20.6949 22.9945 19.09 23H12.5C12.2239 23 12 23.2239 12 23.5C12 23.7761 12.2239 24 12.5 24H19.09C21.2472 23.9945 22.9945 22.2472 23 20.09V19.8L25.8 21.62C26.0402 21.7786 26.3222 21.8622 26.61 21.86C26.8579 21.8596 27.1018 21.7977 27.32 21.68C27.7335 21.4733 27.9962 21.0522 28 20.59V12.1ZM26.99 12.12L27 20.59C26.9889 20.6809 26.9324 20.76 26.85 20.8C26.6922 20.8911 26.4978 20.8911 26.34 20.8L23 18.61V14.08L26.33 11.91C26.4883 11.8209 26.6817 11.8209 26.84 11.91C26.9224 11.95 26.9789 12.0291 26.99 12.12ZM15.5 13C15.7761 13 16 12.7761 16 12.5C16 12.2239 15.7761 12 15.5 12H7.5C7.22386 12 7 12.2239 7 12.5C7 12.7761 7.22386 13 7.5 13H15.5ZM9.69 15.31C9.69 16.1384 9.01843 16.81 8.19 16.81C7.36157 16.81 6.69 16.1384 6.69 15.31C6.69 14.4816 7.36157 13.81 8.19 13.81C9.01843 13.81 9.69 14.4816 9.69 15.31Z" fill="#00005E"/>
</svg>
