<svg width="32" height="32" viewBox="0 0 32 32" fill="none" xmlns="http://www.w3.org/2000/svg">
<path fill-rule="evenodd" clip-rule="evenodd" d="M27.4391 16.5C25.3331 13.433 20.6101 8 15.8191 8C11.0291 8 6.3071 13.432 4.1991 16.5C6.3051 19.567 11.0281 25 15.8191 25C20.6091 25 25.3311 19.568 27.4391 16.5ZM29.4741 15.956C29.6931 16.29 29.6931 16.71 29.4741 17.044C28.0621 19.196 22.4851 27 15.8191 27C9.1531 27 3.5761 19.196 2.1641 17.044C1.9451 16.71 1.9451 16.29 2.1641 15.956C3.5761 13.804 9.1531 6 15.8191 6C22.4851 6 28.0621 13.804 29.4741 15.956ZM20.7421 16.4999C20.7421 13.7849 18.5341 11.5769 15.8191 11.5769C13.1041 11.5769 10.8961 13.7849 10.8961 16.4999C10.8961 19.2149 13.1041 21.4229 15.8191 21.4229C18.5341 21.4229 20.7421 19.2149 20.7421 16.4999ZM21.7421 16.4999C21.7421 19.7719 19.0901 22.4229 15.8191 22.4229C12.5481 22.4229 9.8961 19.7719 9.8961 16.4999C9.8961 13.2289 12.5481 10.5769 15.8191 10.5769C19.0901 10.5769 21.7421 13.2289 21.7421 16.4999ZM15.8191 14.0479C16.0951 14.0479 16.3191 13.8239 16.3191 13.5479C16.3191 13.2719 16.0951 13.0479 15.8191 13.0479C13.9151 13.0479 12.3661 14.5969 12.3661 16.4999C12.3661 16.7769 12.5901 16.9999 12.8661 16.9999C13.1431 16.9999 13.3661 16.7769 13.3661 16.4999C13.3661 15.1479 14.4661 14.0479 15.8191 14.0479Z" fill="#00005E"/>
</svg>
