<svg width="32" height="32" viewBox="0 0 32 32" fill="none" xmlns="http://www.w3.org/2000/svg">
<path fill-rule="evenodd" clip-rule="evenodd" d="M6.99995 20.63L10.6799 16.15C11.0306 15.722 10.968 15.0907 10.5399 14.74C10.1119 14.3893 9.48065 14.452 9.12995 14.88L6.92995 17.56C6.90983 15.8059 7.36233 14.0788 8.23995 12.56C9.48417 10.4162 11.5383 8.86302 13.9399 8.24998C17.0831 7.49291 20.3859 8.55397 22.4999 11C22.7306 11.2863 23.0997 11.423 23.4612 11.3559C23.8227 11.2888 24.1183 11.0288 24.2308 10.6787C24.3433 10.3287 24.2546 9.94514 23.9999 9.67998C21.396 6.66307 17.3222 5.35791 13.4499 6.29998C10.528 7.04095 8.02905 8.93047 6.51995 11.54C5.66906 13.0063 5.15019 14.6414 4.99995 16.33L3.82995 14.61C3.64139 14.291 3.29194 14.1025 2.92184 14.12C2.55174 14.1375 2.22166 14.3582 2.06408 14.6936C1.90649 15.0289 1.94723 15.4239 2.16995 15.72L5.37995 20.54C5.45633 20.6496 5.55519 20.7416 5.66995 20.81L5.76995 20.86C5.87136 20.9082 5.9791 20.9419 6.08995 20.96H6.19995C6.27966 20.9696 6.36024 20.9696 6.43995 20.96H6.53995L6.69995 20.88C6.76975 20.8388 6.83366 20.7883 6.88995 20.73C6.93627 20.7091 6.97479 20.6741 6.99995 20.63ZM29.8499 19.68H29.8399L26.6199 14.74L26.5599 14.68C26.4933 14.5905 26.4122 14.5127 26.3199 14.45L26.1799 14.39C26.0956 14.3469 26.0041 14.3198 25.9099 14.31H25.8299H25.7499H25.6299C25.575 14.3254 25.5215 14.3454 25.4699 14.37L25.3299 14.42C25.2371 14.4698 25.1528 14.5339 25.0799 14.61L25.0099 14.67L21.3299 19.14C21.0758 19.4118 20.9935 19.8023 21.1165 20.1535C21.2395 20.5047 21.5474 20.7586 21.9156 20.8125C22.2838 20.8663 22.6515 20.7113 22.8699 20.41L24.8199 18C24.3707 21.7195 21.6876 24.7836 18.0599 25.72C15.0911 26.4755 11.9449 25.5869 9.80995 23.39C9.62218 23.2007 9.36658 23.0942 9.09995 23.0942C8.83331 23.0942 8.57771 23.2007 8.38995 23.39C8.00222 23.78 8.00222 24.4099 8.38995 24.8C10.3983 26.8388 13.138 27.9909 15.9999 28C16.8598 27.9977 17.7162 27.8903 18.5499 27.68C22.8591 26.5723 26.0904 22.9985 26.7599 18.6L28.1699 20.78C28.3664 21.0801 28.7081 21.2526 29.0663 21.2324C29.4244 21.2123 29.7446 21.0027 29.9063 20.6824C30.0679 20.3622 30.0464 19.9801 29.8499 19.68ZM16 21C17.6569 21 19 19.6569 19 18C19 17.6918 18.842 17.1538 18.4783 16.4168C18.1317 15.7146 17.6596 14.9509 17.1725 14.233C16.7575 13.6215 16.3412 13.0569 16 12.6105C15.6588 13.0569 15.2425 13.6215 14.8275 14.233C14.3404 14.9509 13.8683 15.7146 13.5217 16.4168C13.158 17.1538 13 17.6918 13 18C13 19.6569 14.3431 21 16 21ZM15.3623 11.7995C14.2332 13.2573 12 16.3494 12 18C12 20.2091 13.7909 22 16 22C18.2091 22 20 20.2091 20 18C20 16.3494 17.7668 13.2573 16.6377 11.7995C16.2556 11.3062 16 11 16 11C16 11 15.7444 11.3062 15.3623 11.7995ZM15.9472 16.2236C16.0707 15.9766 15.9706 15.6763 15.7236 15.5528C15.4766 15.4293 15.1763 15.5294 15.0528 15.7764L14.5528 16.7764C14.4293 17.0234 14.5294 17.3237 14.7764 17.4472C15.0234 17.5707 15.3237 17.4706 15.4472 17.2236L15.9472 16.2236Z" fill="#00005E"/>
</svg>
