<svg width="32" height="32" viewBox="0 0 32 32" fill="none" xmlns="http://www.w3.org/2000/svg">
<path fill-rule="evenodd" clip-rule="evenodd" d="M25.5 10C25.5016 10.9133 24.8843 11.7117 24 11.94C23.8 16.84 20.57 18.91 13 19V20.14C14.9503 20.6436 16.2219 22.5188 15.9681 24.517C15.7143 26.5153 14.0143 28.013 12 28.013C9.98572 28.013 8.28568 26.5153 8.03187 24.517C7.77807 22.5188 9.04968 20.6436 11 20.14V11.86C9.04968 11.3565 7.77807 9.48126 8.03187 7.48304C8.28568 5.48483 9.98572 3.98706 12 3.98706C14.0143 3.98706 15.7143 5.48483 15.9681 7.48304C16.2219 9.48126 14.9503 11.3565 13 11.86V17.99C21 17.93 22.87 15.61 23 11.93C21.9928 11.67 21.3532 10.6814 21.5287 9.6561C21.7042 8.63084 22.6363 7.91126 23.6726 8.00101C24.7089 8.09076 25.5034 8.95988 25.5 10ZM9.99999 8.00004C9.99999 9.10461 10.8954 10 12 10C13.1046 10 14 9.10461 14 8.00004C14 6.89547 13.1046 6.00004 12 6.00004C10.8954 6.00004 9.99999 6.89547 9.99999 8.00004ZM12 22C13.1046 22 14 22.8955 14 24C14 25.1046 13.1046 26 12 26C10.8954 26 9.99999 25.1046 9.99999 24C9.99999 22.8955 10.8954 22 12 22Z" fill="#00005E"/>
</svg>
