<svg width="32" height="32" viewBox="0 0 32 32" fill="none" xmlns="http://www.w3.org/2000/svg">
<path fill-rule="evenodd" clip-rule="evenodd" d="M6.00265 13.566C5.62376 13.9678 4.99087 13.9864 4.58905 13.6075C4.18722 13.2286 4.16864 12.5957 4.54753 12.1939C7.48725 9.07625 11.5688 7.27478 15.9357 7.27478C20.303 7.27478 24.3839 9.07601 27.3244 12.1938C27.7034 12.5956 27.6848 13.2285 27.2831 13.6074C26.8813 13.9864 26.2484 13.9678 25.8694 13.566C23.3028 10.8446 19.7461 9.27478 15.9357 9.27478C12.1257 9.27478 8.56852 10.8448 6.00265 13.566ZM22.7071 17.7559C23.1354 18.1045 23.2 18.7343 22.8514 19.1627C22.5028 19.591 21.873 19.6557 21.4446 19.3071C19.8965 18.0472 17.9707 17.3485 15.9356 17.3485C13.9013 17.3485 11.9759 18.0471 10.4271 19.3072C9.99867 19.6557 9.36882 19.591 9.02028 19.1626C8.67173 18.7342 8.73647 18.1043 9.16488 17.7558C11.0668 16.2084 13.4367 15.3485 15.9356 15.3485C18.4352 15.3485 20.8058 16.2085 22.7071 17.7559ZM15 23.4999C15 22.6713 15.6716 22.0001 16.4998 22.0001C17.3284 22.0001 18 22.6713 18 23.4999C18 24.3284 17.3284 25.0001 16.4998 25.0001C15.6716 25.0001 15 24.3284 15 23.4999Z" fill="#00005E"/>
</svg>
