<svg width="24" height="24" viewBox="0 0 24 24" fill="none" xmlns="http://www.w3.org/2000/svg">
<path fill-rule="evenodd" clip-rule="evenodd" d="M6 2C6.55228 2 7 2.44772 7 3V8C7 9.67408 7.67513 10.6239 8.4593 11.1885C9.29447 11.7898 10.3267 12 11 12C11.5523 12 12 12.4477 12 13C12 13.5523 11.5523 14 11 14C10.0066 14 8.53887 13.7102 7.2907 12.8115C5.99153 11.8761 5 10.3259 5 8V3C5 2.44772 5.44772 2 6 2ZM13 5C13 4.44772 13.4477 4 14 4H19C21.7614 4 24 6.23858 24 9V17C24 19.7614 21.7614 22 19 22H5C2.23858 22 0 19.7614 0 17V12C0 11.4477 0.447715 11 1 11C1.55228 11 2 11.4477 2 12V17C2 18.6569 3.34315 20 5 20H19C20.6569 20 22 18.6569 22 17V9C22 7.34315 20.6569 6 19 6H14C13.4477 6 13 5.55228 13 5ZM18 15C19.1046 15 20 14.1046 20 13C20 11.8954 19.1046 11 18 11C16.8954 11 16 11.8954 16 13C16 14.1046 16.8954 15 18 15Z" fill="#00005E"/>
<path fill-rule="evenodd" clip-rule="evenodd" d="M5.29289 2.29289C5.68342 1.90237 6.31658 1.90237 6.70711 2.29289L10.7071 6.29289C11.0976 6.68342 11.0976 7.31658 10.7071 7.70711C10.3166 8.09763 9.68342 8.09763 9.29289 7.70711L6 4.41421L2.70711 7.70711C2.31658 8.09763 1.68342 8.09763 1.29289 7.70711C0.902369 7.31658 0.902369 6.68342 1.29289 6.29289L5.29289 2.29289Z" fill="#00005E"/>
</svg>
