<svg width="32" height="32" viewBox="0 0 32 32" fill="none" xmlns="http://www.w3.org/2000/svg">
<path fill-rule="evenodd" clip-rule="evenodd" d="M16 28C22.6274 28 28 22.6274 28 16C28 9.37258 22.6274 4 16 4C9.37258 4 4 9.37258 4 16C4 22.6274 9.37258 28 16 28ZM18.25 16L14.86 14.02L14.845 17.98L18.25 16ZM22.4725 12.7V12.73C22.6623 13.8095 22.7552 14.9039 22.75 16C22.757 17.1061 22.6641 18.2106 22.4725 19.3C22.3092 19.89 21.8429 20.3477 21.25 20.5C19.5084 20.7143 17.7547 20.8145 16 20.8C14.2228 20.8175 12.4464 20.7173 10.6825 20.5C10.0944 20.338 9.63717 19.875 9.4825 19.285C9.28669 18.2011 9.19129 17.1014 9.1975 16C9.19036 14.8936 9.28577 13.7888 9.4825 12.7C9.64179 12.1157 10.0982 11.6593 10.6825 11.5C12.4464 11.2827 14.2228 11.1825 16 11.2C17.7547 11.1855 19.5084 11.2857 21.25 11.5C21.8429 11.6523 22.3092 12.11 22.4725 12.7Z" fill="#00005E"/>
</svg>
